<svg width="293" height="235" viewBox="0 0 293 235" fill="none" xmlns="http://www.w3.org/2000/svg">
<path opacity="0.2" d="M287.147 228.418C294.131 221.388 294.977 210.849 289.042 204.87C283.102 198.896 272.631 199.747 265.646 206.777C258.662 213.807 257.811 224.352 263.751 230.326C269.686 236.299 280.162 235.448 287.147 228.418Z" fill="#A2FF48"/>
<path d="M2.61656 222.186C5.74446 225.334 10.4335 225.715 13.0931 223.039C15.7526 220.363 15.3735 215.644 12.2456 212.496C9.11768 209.349 4.42863 208.967 1.76908 211.643C-0.890473 214.32 -0.505764 219.038 2.61656 222.186Z" fill="#A2FF48"/>
<path opacity="0.7" d="M48.9701 211.141C52.6197 207.468 58.0885 207.023 61.1907 210.145C64.2928 213.267 63.8504 218.771 60.2009 222.445C56.5513 226.118 51.0824 226.563 47.9803 223.441C44.8781 220.319 45.3205 214.809 48.9701 211.141Z" fill="#A2FF48"/>
<path opacity="0.5" d="M97.8857 224.909C102.159 229.209 108.568 229.736 112.202 226.078C115.836 222.42 115.313 215.97 111.04 211.669C106.767 207.369 100.358 206.842 96.7239 210.5C93.0897 214.157 93.6128 220.608 97.8857 224.909Z" fill="#A2FF48"/>
<path opacity="0.4" d="M149.859 210.578C154.862 205.437 162.369 204.813 166.622 209.181C170.874 213.55 170.266 221.263 165.263 226.404C160.26 231.544 152.752 232.169 148.5 227.8C144.248 223.431 144.856 215.718 149.859 210.578Z" fill="#A2FF48"/>
<path opacity="0.3" d="M205.48 226.102C211.42 232.08 220.335 232.809 225.384 227.727C230.434 222.645 229.709 213.672 223.769 207.693C217.829 201.714 208.914 200.985 203.865 206.068C198.815 211.15 199.534 220.118 205.48 226.102Z" fill="#A2FF48"/>
<path opacity="0.2" d="M287.147 178.195C294.131 171.165 294.977 160.626 289.042 154.647C283.102 148.674 272.631 149.525 265.646 156.555C258.662 163.585 257.811 174.13 263.751 180.103C269.686 186.076 280.162 185.225 287.147 178.195Z" fill="#A2FF48"/>
<path d="M2.61659 171.962C5.74449 175.109 10.4336 175.491 13.0931 172.814C15.7527 170.138 15.3735 165.419 12.2456 162.272C9.11771 159.124 4.42866 158.742 1.76911 161.419C-0.890442 164.095 -0.505734 168.814 2.61659 171.962Z" fill="#A2FF48"/>
<path opacity="0.7" d="M48.9701 160.919C52.6197 157.246 58.0885 156.8 61.1907 159.922C64.2928 163.045 63.8504 168.549 60.2009 172.222C56.5513 175.895 51.0824 176.34 47.9803 173.218C44.8781 170.096 45.3205 164.586 48.9701 160.919Z" fill="#A2FF48"/>
<path opacity="0.5" d="M97.8857 174.686C102.159 178.986 108.568 179.513 112.202 175.855C115.836 172.198 115.313 165.747 111.04 161.447C106.767 157.146 100.358 156.62 96.7239 160.277C93.0897 163.935 93.6128 170.386 97.8857 174.686Z" fill="#A2FF48"/>
<path opacity="0.4" d="M149.859 160.355C154.862 155.215 162.369 154.59 166.622 158.959C170.874 163.328 170.266 171.041 165.263 176.181C160.26 181.321 152.752 181.946 148.5 177.577C144.248 173.208 144.856 165.495 149.859 160.355Z" fill="#A2FF48"/>
<path opacity="0.3" d="M205.48 175.879C211.42 181.858 220.335 182.587 225.384 177.504C230.434 172.422 229.709 163.449 223.769 157.47C217.829 151.492 208.914 150.763 203.865 155.845C198.815 160.927 199.534 169.895 205.48 175.879Z" fill="#A2FF48"/>
<path opacity="0.2" d="M287.147 127.973C294.131 120.943 294.977 110.403 289.042 104.424C283.102 98.4512 272.631 99.3021 265.646 106.332C258.662 113.362 257.811 123.907 263.751 129.88C269.686 135.854 280.162 135.003 287.147 127.973Z" fill="#A2FF48"/>
<path d="M2.61659 121.739C5.74449 124.887 10.4336 125.268 13.0931 122.592C15.7527 119.915 15.3735 115.197 12.2456 112.049C9.11771 108.901 4.42866 108.52 1.76911 111.196C-0.890442 113.873 -0.505734 118.591 2.61659 121.739Z" fill="#A2FF48"/>
<path opacity="0.7" d="M48.9701 110.696C52.6197 107.023 58.0885 106.578 61.1907 109.7C64.2928 112.822 63.8504 118.326 60.2009 121.999C56.5513 125.672 51.0824 126.118 47.9803 122.995C44.8781 119.873 45.3205 114.364 48.9701 110.696Z" fill="#A2FF48"/>
<path opacity="0.5" d="M97.8857 124.463C102.159 128.764 108.568 129.29 112.202 125.633C115.836 121.975 115.313 115.524 111.04 111.224C106.767 106.923 100.358 106.397 96.7239 110.055C93.0897 113.712 93.6128 120.163 97.8857 124.463Z" fill="#A2FF48"/>
<path opacity="0.4" d="M149.859 110.13C154.862 104.99 162.369 104.365 166.622 108.734C170.874 113.103 170.266 120.816 165.263 125.956C160.26 131.096 152.752 131.721 148.5 127.352C144.248 122.984 144.856 115.271 149.859 110.13Z" fill="#A2FF48"/>
<path opacity="0.3" d="M205.48 125.656C211.42 131.635 220.335 132.364 225.384 127.282C230.434 122.2 229.709 113.226 223.769 107.248C217.829 101.269 208.914 100.54 203.865 105.622C198.815 110.705 199.534 119.672 205.48 125.656Z" fill="#A2FF48"/>
<path opacity="0.2" d="M287.147 77.75C294.131 70.72 294.977 60.1806 289.042 54.2018C283.102 48.2285 272.631 49.0794 265.646 56.1094C258.662 63.1394 257.811 73.6844 263.751 79.6576C269.686 85.6309 280.162 84.7799 287.147 77.75Z" fill="#A2FF48"/>
<path d="M2.61656 71.5163C5.74446 74.6639 10.4335 75.0455 13.0931 72.3691C15.7526 69.6927 15.3735 64.974 12.2456 61.8263C9.11768 58.6787 4.42863 58.2971 1.76908 60.9735C-0.890473 63.6499 -0.505764 68.3686 2.61656 71.5163Z" fill="#A2FF48"/>
<path opacity="0.7" d="M48.9701 60.4734C52.6197 56.8003 58.0885 56.355 61.1907 59.4772C64.2928 62.5993 63.8504 68.1035 60.2008 71.7766C56.5513 75.4497 51.0824 75.8949 47.9803 72.7728C44.8781 69.6506 45.3205 64.1409 48.9701 60.4734Z" fill="#A2FF48"/>
<path opacity="0.5" d="M97.8857 74.2407C102.159 78.5412 108.568 79.0677 112.202 75.41C115.836 71.7524 115.313 65.3017 111.04 61.0012C106.767 56.7007 100.358 56.1742 96.7239 59.8319C93.0897 63.4895 93.6128 69.9402 97.8857 74.2407Z" fill="#A2FF48"/>
<path opacity="0.4" d="M149.859 59.9077C154.862 54.7675 162.369 54.1426 166.622 58.5115C170.874 62.8804 170.266 70.5934 165.263 75.7336C160.26 80.8738 152.752 81.4987 148.5 77.1298C144.248 72.761 144.856 65.0479 149.859 59.9077Z" fill="#A2FF48"/>
<path opacity="0.3" d="M205.48 75.4337C211.42 81.4122 220.335 82.1415 225.384 77.0592C230.434 71.9769 229.709 63.0035 223.769 57.025C217.829 51.0465 208.914 50.3173 203.865 55.3996C198.815 60.4819 199.534 69.4496 205.48 75.4337Z" fill="#A2FF48"/>
<path opacity="0.2" d="M287.147 27.5254C294.131 20.4954 294.977 9.95597 289.042 3.97715C283.102 -1.99611 272.631 -1.14517 265.646 5.88481C258.662 12.9148 257.811 23.4597 263.751 29.433C269.686 35.4063 280.162 34.5553 287.147 27.5254Z" fill="#A2FF48"/>
<path d="M2.61656 21.2916C5.74446 24.4393 10.4335 24.8209 13.0931 22.1445C15.7526 19.4681 15.3735 14.7494 12.2456 11.6017C9.11768 8.45404 4.42863 8.0725 1.76908 10.7489C-0.890473 13.4252 -0.505764 18.144 2.61656 21.2916Z" fill="#A2FF48"/>
<path opacity="0.7" d="M48.9701 10.2488C52.6197 6.57564 58.0885 6.13042 61.1907 9.25257C64.2928 12.3747 63.8504 17.8788 60.2008 21.552C56.5513 25.2251 51.0824 25.6703 47.9803 22.5482C44.8781 19.426 45.3205 13.9163 48.9701 10.2488Z" fill="#A2FF48"/>
<path opacity="0.5" d="M97.8857 24.0161C102.159 28.3166 108.568 28.843 112.202 25.1854C115.836 21.5278 115.313 15.0771 111.04 10.7766C106.767 6.47612 100.358 5.94964 96.7238 9.60726C93.0897 13.2649 93.6128 19.7156 97.8857 24.0161Z" fill="#A2FF48"/>
<path opacity="0.4" d="M149.859 9.68507C154.862 4.54489 162.369 3.91997 166.622 8.28884C170.874 12.6577 170.266 20.3708 165.263 25.511C160.26 30.6511 152.752 31.2761 148.5 26.9072C144.248 22.5383 144.856 14.8252 149.859 9.68507Z" fill="#A2FF48"/>
<path opacity="0.3" d="M205.48 25.2091C211.42 31.1876 220.335 31.9169 225.384 26.8346C230.434 21.7523 229.709 12.7789 223.769 6.8004C217.829 0.821885 208.914 0.09266 203.865 5.17495C198.815 10.2572 199.534 19.225 205.48 25.2091Z" fill="#A2FF48"/>
</svg>
