<svg width="1348" height="743" viewBox="0 0 1348 743" fill="none" xmlns="http://www.w3.org/2000/svg">
<path opacity="0.33" d="M548.542 6.58315C548.384 6.71337 548.151 6.72322 548.014 6.60068C547.878 6.47814 547.903 6.26941 548.062 6.13919C548.22 6.00897 548.453 5.99911 548.59 6.12165C548.726 6.24419 548.701 6.45293 548.542 6.58315Z" fill="#DBCCB1"/>
<path opacity="0.61" d="M513.627 34.8898C513.469 35.0201 513.225 35.0124 513.103 34.8936C512.97 34.7577 513.006 34.5661 513.164 34.4359C513.323 34.3057 513.567 34.3134 513.689 34.4321C513.822 34.5681 513.785 34.7596 513.627 34.8898Z" fill="#DBCCB1"/>
<path opacity="0.79" d="M477.795 62.3154C477.716 62.3806 477.593 62.3767 477.532 62.3172C477.471 62.2576 477.486 62.1464 477.565 62.0812C477.644 62.0161 477.767 62.0197 477.828 62.0792C477.889 62.1388 477.874 62.2502 477.795 62.3154Z" fill="#DBCCB1"/>
<path opacity="0.49" d="M441.322 89.101C441.243 89.1662 441.121 89.1623 441.06 89.1028C440.998 89.0432 441.013 88.9321 441.103 88.8842C441.182 88.819 441.305 88.823 441.366 88.8825C441.427 88.942 441.412 89.0531 441.322 89.101Z" fill="#DBCCB1"/>
<path opacity="0.69" d="M404.117 115.112C404.027 115.16 403.915 115.173 403.847 115.083C403.789 115.01 403.804 114.899 403.894 114.851C403.984 114.803 404.096 114.79 404.164 114.88C404.225 114.939 404.207 115.064 404.117 115.112Z" fill="#DBCCB1"/>
<path opacity="0.43" d="M594.651 17.9925C594.331 18.2663 593.86 18.2988 593.598 18.0709C593.336 17.8431 593.373 17.4218 593.693 17.1479C594.013 16.8741 594.484 16.8416 594.745 17.0694C595.007 17.2973 594.971 17.7186 594.651 17.9925Z" fill="#DBCCB1"/>
<path opacity="0.39" d="M559.653 47.6215C559.333 47.8953 558.851 47.9105 558.593 47.6693C558.335 47.428 558.386 47.0108 558.706 46.737C559.026 46.4631 559.507 46.4476 559.766 46.6889C560.024 46.9301 559.973 47.3476 559.653 47.6215Z" fill="#DBCCB1"/>
<path opacity="0.52" d="M523.833 76.4864C523.502 76.7431 523.021 76.7583 522.766 76.5036C522.511 76.249 522.576 75.8355 522.907 75.5789C523.238 75.3223 523.719 75.3068 523.974 75.5614C524.229 75.8161 524.163 76.2298 523.833 76.4864Z" fill="#DBCCB1"/>
<path opacity="0.93" d="M487.11 104.485C486.859 104.677 486.492 104.665 486.313 104.474C486.123 104.265 486.174 103.963 486.44 103.775C486.691 103.583 487.058 103.595 487.237 103.786C487.427 103.995 487.376 104.298 487.11 104.485Z" fill="#DBCCB1"/>
<path opacity="0.49" d="M449.74 131.779C449.478 131.953 449.122 131.959 448.932 131.751C448.742 131.542 448.811 131.23 449.073 131.055C449.336 130.881 449.691 130.875 449.882 131.084C450.072 131.293 450.003 131.605 449.74 131.779Z" fill="#DBCCB1"/>
<path opacity="0.87" d="M411.637 158.312C411.371 158.499 411.012 158.461 410.832 158.27C410.657 158.065 410.714 157.735 410.988 157.578C411.25 157.404 411.613 157.429 411.792 157.621C411.968 157.825 411.91 158.155 411.637 158.312Z" fill="#DBCCB1"/>
<path opacity="0.56" d="M372.731 183.9C372.548 184.009 372.307 183.988 372.189 183.856C372.074 183.711 372.117 183.492 372.311 183.4C372.495 183.291 372.735 183.312 372.85 183.458C372.965 183.603 372.921 183.821 372.727 183.913L372.731 183.9Z" fill="#DBCCB1"/>
<path opacity="0.75" d="M333.272 208.799C333.089 208.908 332.848 208.887 332.734 208.742C332.619 208.596 332.677 208.382 332.86 208.272C333.043 208.163 333.284 208.184 333.399 208.33C333.513 208.476 333.456 208.69 333.272 208.799Z" fill="#DBCCB1"/>
<path opacity="0.78" d="M293.068 232.746C292.974 232.808 292.855 232.791 292.798 232.718C292.744 232.631 292.769 232.537 292.863 232.476C292.957 232.414 293.075 232.432 293.133 232.505C293.187 232.591 293.161 232.685 293.068 232.746Z" fill="#DBCCB1"/>
<path opacity="0.37" d="M252.347 255.985C252.253 256.046 252.135 256.029 252.081 255.942C252.027 255.856 252.056 255.748 252.146 255.701C252.24 255.639 252.358 255.657 252.412 255.743C252.466 255.829 252.437 255.937 252.347 255.985Z" fill="#DBCCB1"/>
<path opacity="0.74" d="M641.044 28.2392C640.573 28.6739 639.862 28.7431 639.46 28.4061C639.062 28.0558 639.124 27.4256 639.595 26.9909C640.066 26.5562 640.777 26.4874 641.179 26.8244C641.577 27.1747 641.515 27.8045 641.044 28.2392Z" fill="#DBCCB1"/>
<path opacity="0.58" d="M606.02 59.2509C605.535 59.6817 604.816 59.7199 604.422 59.3561C604.027 58.9923 604.103 58.3663 604.589 57.9355C605.074 57.5046 605.793 57.4661 606.187 57.8298C606.582 58.1936 606.505 58.82 606.02 59.2509Z" fill="#DBCCB1"/>
<path opacity="0.75" d="M570.13 89.4602C569.634 89.8739 568.905 89.8948 568.524 89.5349C568.133 89.1577 568.228 88.5221 568.724 88.1084C569.22 87.6948 569.939 87.6563 570.329 88.0335C570.72 88.4107 570.626 89.0466 570.13 89.4602Z" fill="#DBCCB1"/>
<path opacity="0.35" d="M533.307 118.791C532.879 119.123 532.276 119.134 531.964 118.807C531.648 118.493 531.731 117.955 532.159 117.623C532.587 117.292 533.191 117.281 533.503 117.608C533.818 117.922 533.735 118.46 533.307 118.791Z" fill="#DBCCB1"/>
<path opacity="0.35" d="M495.808 147.441C495.369 147.755 494.769 147.753 494.457 147.426C494.145 147.098 494.247 146.55 494.685 146.236C495.124 145.922 495.724 145.924 496.036 146.252C496.348 146.579 496.25 147.114 495.808 147.441Z" fill="#DBCCB1"/>
<path opacity="0.71" d="M457.45 175.152C457.09 175.401 456.605 175.372 456.369 175.108C456.121 174.827 456.219 174.407 456.564 174.155C456.923 173.906 457.408 173.934 457.645 174.198C457.892 174.48 457.795 174.899 457.45 175.152Z" fill="#DBCCB1"/>
<path opacity="0.64" d="M418.476 202.192C418.117 202.441 417.632 202.412 417.388 202.118C417.144 201.823 417.242 201.403 417.612 201.171C417.972 200.922 418.456 200.951 418.7 201.246C418.944 201.541 418.846 201.96 418.476 202.192Z" fill="#DBCCB1"/>
<path opacity="0.6" d="M378.822 228.425C378.452 228.657 377.967 228.628 377.727 228.32C377.498 228.029 377.599 227.596 377.969 227.364C378.34 227.133 378.824 227.161 379.064 227.47C379.294 227.761 379.193 228.193 378.822 228.425Z" fill="#DBCCB1"/>
<path opacity="0.45" d="M338.394 253.664C338.117 253.834 337.743 253.793 337.575 253.561C337.403 253.343 337.49 253.021 337.77 252.837C338.047 252.667 338.42 252.708 338.589 252.94C338.757 253.172 338.674 253.48 338.394 253.664Z" fill="#DBCCB1"/>
<path opacity="0.46" d="M297.345 278.064C297.158 278.187 296.91 278.135 296.795 277.99C296.684 277.831 296.742 277.616 296.929 277.493C297.116 277.371 297.363 277.423 297.478 277.568C297.589 277.727 297.532 277.941 297.345 278.064Z" fill="#DBCCB1"/>
<path opacity="0.7" d="M255.783 301.735C255.585 301.84 255.348 301.806 255.237 301.647C255.13 301.474 255.198 301.277 255.382 301.168C255.579 301.063 255.816 301.097 255.927 301.256C256.035 301.429 255.966 301.626 255.783 301.735Z" fill="#DBCCB1"/>
<path opacity="0.76" d="M213.543 324.381C213.45 324.443 213.32 324.408 213.267 324.322C213.213 324.236 213.242 324.129 213.335 324.067C213.429 324.006 213.558 324.04 213.612 324.126C213.666 324.213 213.637 324.32 213.543 324.381Z" fill="#DBCCB1"/>
<path opacity="0.59" d="M721.754 4.16196C721.138 4.78815 720.194 4.92424 719.648 4.49153C719.103 4.05881 719.165 3.19908 719.777 2.5863C720.392 1.96011 721.337 1.82401 721.882 2.25673C722.427 2.68944 722.369 3.53577 721.754 4.16196Z" fill="#DBCCB1"/>
<path opacity="0.52" d="M687.679 37.3428C687.043 37.9345 686.098 38.0706 685.56 37.6111C685.022 37.1516 685.099 36.2956 685.735 35.7039C686.372 35.1122 687.317 34.9761 687.855 35.4356C688.393 35.8952 688.316 36.7511 687.679 37.3428Z" fill="#DBCCB1"/>
<path opacity="0.5" d="M652.668 69.7327C652.017 70.3206 651.054 70.4086 650.531 69.9529C649.996 69.48 650.102 68.6318 650.753 68.0439C651.403 67.456 652.366 67.3677 652.886 67.8368C653.421 68.3097 653.315 69.1582 652.664 69.7461L652.668 69.7327Z" fill="#DBCCB1"/>
<path opacity="0.37" d="M616.758 101.332C616.093 101.916 615.123 101.973 614.606 101.49C614.09 101.008 614.202 100.133 614.875 99.5795C615.54 98.9954 616.51 98.938 617.026 99.4205C617.543 99.903 617.43 100.778 616.769 101.349L616.758 101.332Z" fill="#DBCCB1"/>
<path opacity="0.57" d="M579.996 132.143C579.31 132.693 578.344 132.737 577.831 132.241C577.318 131.745 577.459 130.878 578.135 130.311C578.822 129.761 579.788 129.717 580.301 130.213C580.81 130.723 580.672 131.577 579.996 132.143Z" fill="#DBCCB1"/>
<path opacity="0.4" d="M542.285 162.029C541.677 162.514 540.815 162.514 540.381 162.068C539.937 161.604 540.078 160.852 540.685 160.367C541.293 159.883 542.144 159.866 542.589 160.329C543.034 160.792 542.893 161.545 542.285 162.029Z" fill="#DBCCB1"/>
<path opacity="0.33" d="M503.925 191.243C503.307 191.71 502.448 191.697 502.007 191.22C501.58 190.748 501.725 189.982 502.354 189.532C502.973 189.064 503.831 189.078 504.272 189.554C504.71 190.045 504.554 190.793 503.936 191.26L503.925 191.243Z" fill="#DBCCB1"/>
<path opacity="0.66" d="M464.702 219.486C464.152 219.87 463.419 219.848 463.057 219.421C462.692 219.007 462.84 218.343 463.386 217.971C463.933 217.6 464.669 217.609 465.031 218.036C465.393 218.463 465.252 219.101 464.713 219.503L464.702 219.486Z" fill="#DBCCB1"/>
<path opacity="0.37" d="M424.879 247.043C424.329 247.428 423.589 247.374 423.23 246.934C422.872 246.494 423.031 245.846 423.581 245.461C424.131 245.076 424.871 245.13 425.229 245.57C425.588 246.011 425.429 246.658 424.879 247.043Z" fill="#DBCCB1"/>
<path opacity="0.63" d="M384.367 273.743C383.806 274.111 383.059 274.027 382.715 273.59C382.36 273.136 382.533 272.493 383.105 272.142C383.666 271.775 384.413 271.859 384.757 272.295C385.112 272.749 384.938 273.393 384.367 273.743Z" fill="#DBCCB1"/>
<path opacity="0.92" d="M343.108 299.475C342.63 299.764 342.016 299.701 341.722 299.307C341.439 298.929 341.587 298.38 342.054 298.074C342.533 297.784 343.147 297.847 343.441 298.242C343.724 298.619 343.576 299.169 343.108 299.475Z" fill="#DBCCB1"/>
<path opacity="0.4" d="M301.227 324.32C300.842 324.548 300.34 324.472 300.118 324.154C299.895 323.836 300.025 323.411 300.41 323.183C300.794 322.955 301.297 323.032 301.519 323.35C301.742 323.667 301.612 324.093 301.227 324.32Z" fill="#DBCCB1"/>
<path opacity="0.68" d="M258.853 348.439C258.458 348.65 257.97 348.577 257.747 348.259C257.525 347.941 257.662 347.489 258.058 347.279C258.453 347.068 258.941 347.141 259.164 347.459C259.386 347.776 259.249 348.228 258.853 348.439Z" fill="#DBCCB1"/>
<path opacity="0.65" d="M215.82 371.519C215.518 371.669 215.152 371.6 214.987 371.355C214.826 371.096 214.941 370.782 215.232 370.616C215.534 370.466 215.9 370.535 216.065 370.78C216.226 371.039 216.111 371.353 215.82 371.519Z" fill="#DBCCB1"/>
<path opacity="0.53" d="M172.222 393.656C172.024 393.761 171.777 393.71 171.669 393.538C171.562 393.365 171.637 393.141 171.846 393.053C172.044 392.948 172.291 392.999 172.399 393.172C172.506 393.344 172.431 393.568 172.222 393.656Z" fill="#DBCCB1"/>
<path opacity="0.37" d="M128.1 414.834C127.996 414.878 127.877 414.861 127.824 414.775C127.77 414.689 127.813 414.585 127.917 414.541C128.022 414.497 128.14 414.514 128.194 414.601C128.248 414.687 128.204 414.79 128.1 414.834Z" fill="#DBCCB1"/>
<path opacity="0.41" d="M768.499 10.626C767.729 11.4264 766.547 11.6428 765.869 11.1316C765.184 10.5898 765.257 9.51743 766.027 8.71698C766.797 7.91653 767.979 7.70013 768.653 8.22474C769.342 8.75319 769.269 9.82555 768.506 10.6566L768.499 10.626Z" fill="#DBCCB1"/>
<path opacity="0.49" d="M734.52 45.2242C733.726 46.0036 732.536 46.1894 731.866 45.6514C731.188 45.0827 731.279 44.0008 732.074 43.2214C732.869 42.442 734.058 42.2563 734.729 42.7943C735.41 43.3496 735.315 44.4448 734.52 45.2242Z" fill="#DBCCB1"/>
<path opacity="0.36" d="M699.567 79.0417C698.757 79.8173 697.551 79.9552 696.887 79.3903C696.227 78.8121 696.336 77.7207 697.156 76.9623C697.965 76.1868 699.172 76.0489 699.836 76.6137C700.5 77.1786 700.387 78.2834 699.577 79.059L699.567 79.0417Z" fill="#DBCCB1"/>
<path opacity="0.78" d="M663.675 112.06C662.841 112.814 661.627 112.922 660.97 112.33C660.314 111.738 660.459 110.628 661.29 109.887C662.124 109.132 663.338 109.025 663.991 109.63C664.647 110.221 664.506 111.319 663.672 112.073L663.675 112.06Z" fill="#DBCCB1"/>
<path opacity="0.61" d="M626.771 144.14C626.005 144.812 624.91 144.879 624.325 144.307C623.741 143.734 623.896 142.756 624.659 142.097C625.421 141.438 626.52 141.358 627.105 141.93C627.689 142.503 627.534 143.481 626.771 144.14Z" fill="#DBCCB1"/>
<path opacity="0.42" d="M589.137 175.529C588.349 176.167 587.243 176.217 586.677 175.635C586.106 175.066 586.273 174.047 587.057 173.423C587.844 172.785 588.947 172.749 589.517 173.318C590.087 173.886 589.924 174.892 589.137 175.529Z" fill="#DBCCB1"/>
<path opacity="0.35" d="M550.687 206.092C549.885 206.726 548.775 206.731 548.212 206.136C547.649 205.54 547.841 204.543 548.643 203.909C549.441 203.288 550.555 203.269 551.118 203.865C551.681 204.46 551.489 205.458 550.687 206.092Z" fill="#DBCCB1"/>
<path opacity="0.35" d="M511.473 235.854C510.65 236.453 509.544 236.445 508.988 235.823C508.432 235.201 508.653 234.211 509.465 233.594C510.289 232.995 511.395 233.003 511.951 233.625C512.506 234.247 512.297 235.254 511.473 235.854Z" fill="#DBCCB1"/>
<path opacity="0.9" d="M471.396 264.627C470.656 265.148 469.664 265.114 469.173 264.538C468.693 263.979 468.902 263.086 469.632 262.548C470.373 262.027 471.364 262.061 471.855 262.638C472.336 263.197 472.137 264.107 471.396 264.627Z" fill="#DBCCB1"/>
<path opacity="0.66" d="M430.745 292.697C429.993 293.2 428.995 293.135 428.522 292.549C428.048 291.964 428.272 291.075 429.024 290.571C429.775 290.068 430.773 290.133 431.247 290.719C431.72 291.305 431.496 292.193 430.745 292.697Z" fill="#DBCCB1"/>
<path opacity="0.7" d="M389.31 319.784C388.641 320.209 387.769 320.134 387.357 319.608C386.944 319.081 387.157 318.29 387.826 317.865C388.495 317.44 389.367 317.515 389.779 318.041C390.192 318.568 389.979 319.359 389.31 319.784Z" fill="#DBCCB1"/>
<path opacity="0.61" d="M347.236 345.97C346.65 346.316 345.903 346.232 345.563 345.782C345.226 345.319 345.41 344.635 345.996 344.289C346.582 343.942 347.328 344.026 347.669 344.476C348.017 344.957 347.825 345.609 347.236 345.97Z" fill="#DBCCB1"/>
<path opacity="0.54" d="M304.665 371.44C304.079 371.786 303.325 371.671 302.988 371.208C302.655 370.731 302.853 370.052 303.45 369.722C304.036 369.376 304.79 369.49 305.127 369.954C305.46 370.43 305.262 371.11 304.665 371.44Z" fill="#DBCCB1"/>
<path opacity="0.82" d="M261.414 395.864C260.911 396.132 260.289 396.038 260.013 395.634C259.738 395.23 259.918 394.674 260.425 394.393C260.928 394.125 261.549 394.219 261.825 394.623C262.101 395.027 261.921 395.582 261.417 395.85L261.414 395.864Z" fill="#DBCCB1"/>
<path opacity="0.72" d="M217.605 419.347C217.195 419.553 216.696 419.464 216.481 419.119C216.266 418.774 216.414 418.339 216.823 418.133C217.233 417.926 217.732 418.016 217.947 418.361C218.162 418.705 218.014 419.14 217.605 419.347Z" fill="#DBCCB1"/>
<path opacity="0.93" d="M173.251 441.903C172.945 442.066 172.568 441.98 172.41 441.708C172.249 441.449 172.372 441.108 172.674 440.959C172.979 440.796 173.356 440.883 173.517 441.141C173.679 441.399 173.556 441.74 173.254 441.89L173.251 441.903Z" fill="#DBCCB1"/>
<path opacity="0.71" d="M128.376 463.47C128.168 463.558 127.92 463.507 127.812 463.334C127.705 463.162 127.795 462.942 127.993 462.836C128.201 462.748 128.449 462.8 128.556 462.972C128.664 463.145 128.574 463.365 128.376 463.47Z" fill="#DBCCB1"/>
<path opacity="0.95" d="M82.9975 484.042C82.8933 484.086 82.7641 484.051 82.714 483.952C82.6602 483.865 82.7071 483.749 82.8113 483.705C82.9155 483.661 83.0447 483.695 83.0949 483.795C83.1486 483.881 83.1018 483.998 82.9975 484.042Z" fill="#DBCCB1"/>
<path opacity="0.31" d="M815.354 15.8151C814.437 16.8205 813.018 17.1174 812.196 16.5104C811.368 15.8728 811.445 14.5573 812.359 13.5654C813.276 12.56 814.684 12.2459 815.516 12.8701C816.349 13.4942 816.271 14.8098 815.354 15.8151Z" fill="#DBCCB1"/>
<path opacity="0.91" d="M781.516 51.8867C780.573 52.871 779.133 53.1334 778.322 52.4863C777.511 51.8391 777.61 50.5007 778.563 49.5336C779.505 48.5493 780.932 48.283 781.757 48.9339C782.578 49.5983 782.472 50.9063 781.526 51.904L781.516 51.8867Z" fill="#DBCCB1"/>
<path opacity="0.4" d="M746.668 87.1497C745.7 88.1129 744.252 88.3447 743.438 87.6535C742.635 86.9795 742.766 85.6352 743.744 84.6892C744.712 83.726 746.156 83.5076 746.97 84.1988C747.773 84.8728 747.642 86.2171 746.664 87.1631L746.668 87.1497Z" fill="#DBCCB1"/>
<path opacity="0.7" d="M710.839 121.586C709.836 122.511 708.381 122.712 707.588 121.997C706.796 121.283 706.955 119.947 707.959 119.022C708.962 118.097 710.413 117.909 711.21 118.61C712.006 119.311 711.842 120.661 710.839 121.586Z" fill="#DBCCB1"/>
<path opacity="0.95" d="M674.076 155.221C673.048 156.125 671.579 156.265 670.804 155.541C670.019 154.8 670.211 153.458 671.239 152.554C672.268 151.65 673.726 151.493 674.512 152.234C675.297 152.975 675.105 154.317 674.076 155.221Z" fill="#DBCCB1"/>
<path opacity="0.34" d="M636.429 188.006C635.375 188.889 633.899 188.998 633.132 188.247C632.353 187.48 632.578 186.132 633.631 185.249C634.685 184.366 636.161 184.257 636.925 185.021C637.689 185.785 637.479 187.137 636.425 188.02L636.429 188.006Z" fill="#DBCCB1"/>
<path opacity="0.91" d="M597.818 219.863C596.832 220.664 595.478 220.719 594.768 219.984C594.073 219.253 594.297 218.019 595.282 217.219C596.264 216.432 597.622 216.363 598.321 217.081C599.02 217.799 598.792 219.045 597.807 219.846L597.818 219.863Z" fill="#DBCCB1"/>
<path opacity="0.31" d="M558.537 251.015C557.53 251.781 556.165 251.819 555.477 251.061C554.788 250.303 555.045 249.064 556.052 248.298C557.059 247.532 558.42 247.507 559.112 248.252C559.8 249.01 559.547 250.235 558.537 251.015Z" fill="#DBCCB1"/>
<path opacity="0.73" d="M518.472 281.287C517.451 282.049 516.072 282.026 515.401 281.259C514.731 280.491 515.006 279.242 516.027 278.48C517.044 277.731 518.423 277.754 519.094 278.522C519.764 279.29 519.49 280.538 518.472 281.287Z" fill="#DBCCB1"/>
<path opacity="0.64" d="M477.589 310.621C476.64 311.288 475.39 311.242 474.788 310.506C474.186 309.771 474.457 308.651 475.406 307.985C476.351 307.332 477.605 307.364 478.207 308.099C478.813 308.821 478.538 309.955 477.589 310.621Z" fill="#DBCCB1"/>
<path opacity="0.84" d="M436.015 339.071C435.149 339.659 434.018 339.573 433.487 338.914C432.96 338.242 433.22 337.219 434.094 336.662C434.957 336.088 436.091 336.16 436.622 336.819C437.153 337.478 436.889 338.513 436.015 339.071Z" fill="#DBCCB1"/>
<path opacity="0.33" d="M393.888 366.794C393.011 367.364 391.873 367.248 391.349 366.562C390.826 365.877 391.114 364.862 391.992 364.291C392.869 363.721 394.007 363.837 394.531 364.523C395.054 365.208 394.765 366.223 393.888 366.794Z" fill="#DBCCB1"/>
<path opacity="0.62" d="M351.044 393.492C350.253 393.971 349.237 393.858 348.778 393.219C348.319 392.579 348.593 391.675 349.384 391.197C350.175 390.718 351.187 390.844 351.65 391.47C352.109 392.11 351.838 393 351.044 393.492Z" fill="#DBCCB1"/>
<path opacity="0.65" d="M307.595 419.26C306.898 419.677 306.011 419.541 305.613 418.961C305.226 418.398 305.471 417.602 306.169 417.184C306.866 416.767 307.753 416.903 308.151 417.483C308.548 418.063 308.292 418.842 307.595 419.26Z" fill="#DBCCB1"/>
<path opacity="0.75" d="M263.588 444.124C262.977 444.449 262.223 444.334 261.882 443.827C261.552 443.337 261.783 442.651 262.383 442.308C262.994 441.983 263.749 442.098 264.089 442.605C264.419 443.095 264.188 443.781 263.588 444.124Z" fill="#DBCCB1"/>
<path opacity="0.93" d="M219.142 468.218C218.531 468.544 217.759 468.381 217.433 467.878C217.107 467.374 217.341 466.675 217.963 466.367C218.574 466.041 219.346 466.204 219.672 466.707C219.995 467.224 219.764 467.91 219.142 468.218Z" fill="#DBCCB1"/>
<path opacity="0.63" d="M174.062 491.164C173.545 491.429 172.906 491.287 172.641 490.843C172.372 490.412 172.584 489.851 173.102 489.587C173.62 489.322 174.259 489.464 174.524 489.908C174.793 490.339 174.58 490.9 174.062 491.164Z" fill="#DBCCB1"/>
<path opacity="0.66" d="M128.47 513.114C128.049 513.303 127.543 513.183 127.332 512.825C127.12 512.466 127.301 512.026 127.714 511.806C128.134 511.616 128.641 511.737 128.852 512.095C129.063 512.453 128.894 512.911 128.47 513.114Z" fill="#DBCCB1"/>
<path opacity="0.33" d="M82.3901 534.077C82.0739 534.223 81.6897 534.106 81.5321 533.834C81.3781 533.549 81.5114 533.225 81.8276 533.08C82.1439 532.934 82.528 533.051 82.6857 533.323C82.8397 533.608 82.7064 533.932 82.3901 534.077Z" fill="#DBCCB1"/>
<path opacity="0.32" d="M862.27 19.7431C861.202 20.9668 859.553 21.3748 858.588 20.6721C857.623 19.9694 857.693 18.3934 858.758 17.1832C859.823 15.9729 861.461 15.5479 862.437 16.2678C863.402 16.9705 863.332 18.5463 862.267 19.7566L862.27 19.7431Z" fill="#DBCCB1"/>
<path opacity="0.47" d="M828.624 57.2814C827.52 58.4668 825.853 58.8269 824.895 58.0974C823.937 57.368 824.054 55.7901 825.148 54.5875C826.241 53.3849 827.908 53.0247 828.873 53.7849C829.828 54.5278 829.725 56.1095 828.621 57.2948L828.624 57.2814Z" fill="#DBCCB1"/>
<path opacity="0.74" d="M793.92 94.0146C792.79 95.1789 791.102 95.5045 790.148 94.7042C789.204 93.9211 789.35 92.351 790.479 91.1867C791.609 90.0224 793.294 89.7102 794.241 90.4799C795.188 91.2495 795.038 92.8331 793.909 93.9974L793.92 94.0146Z" fill="#DBCCB1"/>
<path opacity="0.6" d="M758.202 129.919C757.033 131.058 755.331 131.323 754.394 130.513C753.458 129.703 753.64 128.113 754.809 126.974C755.974 125.848 757.666 125.566 758.613 126.394C759.549 127.204 759.368 128.793 758.199 129.932L758.202 129.919Z" fill="#DBCCB1"/>
<path opacity="0.42" d="M721.514 164.995C720.32 166.113 718.599 166.329 717.674 165.479C716.749 164.629 716.974 163.051 718.168 161.933C719.362 160.815 721.079 160.612 722.004 161.462C722.929 162.312 722.704 163.89 721.51 165.008L721.514 164.995Z" fill="#DBCCB1"/>
<path opacity="0.92" d="M683.892 199.223C682.673 200.321 680.938 200.476 680.023 199.585C679.109 198.695 679.366 197.112 680.596 196.032C681.815 194.934 683.55 194.779 684.454 195.652C685.357 196.525 685.111 198.126 683.895 199.21L683.892 199.223Z" fill="#DBCCB1"/>
<path opacity="0.86" d="M645.282 232.503C644.124 233.487 642.497 233.585 641.673 232.762C640.84 231.908 641.101 230.426 642.27 229.458C643.428 228.474 645.044 228.359 645.88 229.2C646.715 230.04 646.451 231.536 645.282 232.503Z" fill="#DBCCB1"/>
<path opacity="0.67" d="M605.959 265.061C604.776 266.024 603.141 266.092 602.32 265.197C601.495 264.317 601.799 262.846 602.982 261.883C604.165 260.919 605.796 260.866 606.61 261.729C607.434 262.61 607.142 264.098 605.948 265.044L605.959 265.061Z" fill="#DBCCB1"/>
<path opacity="0.63" d="M565.837 296.761C564.629 297.703 562.991 297.726 562.177 296.805C561.374 295.901 561.699 294.408 562.904 293.479C564.108 292.55 565.746 292.527 566.553 293.418C567.36 294.308 567.034 295.801 565.826 296.744L565.837 296.761Z" fill="#DBCCB1"/>
<path opacity="0.65" d="M524.857 327.47C523.721 328.317 522.206 328.286 521.467 327.428C520.732 326.557 521.057 325.179 522.2 324.363C523.333 323.53 524.852 323.547 525.587 324.418C526.326 325.276 526 326.654 524.864 327.501L524.857 327.47Z" fill="#DBCCB1"/>
<path opacity="0.76" d="M483.181 357.331C482.121 358.069 480.731 358.029 480.061 357.203C479.401 356.395 479.726 355.131 480.776 354.377C481.836 353.64 483.226 353.68 483.897 354.505C484.556 355.313 484.242 356.594 483.181 357.331Z" fill="#DBCCB1"/>
<path opacity="0.87" d="M440.926 386.434C439.851 387.168 438.447 387.066 437.798 386.218C437.146 385.383 437.489 384.11 438.564 383.377C439.635 382.657 441.039 382.758 441.691 383.593C442.344 384.428 442.001 385.701 440.926 386.434Z" fill="#DBCCB1"/>
<path opacity="0.88" d="M397.932 414.514C396.943 415.156 395.665 415.045 395.081 414.243C394.493 413.454 394.832 412.309 395.82 411.667C396.809 411.026 398.084 411.15 398.672 411.939C399.26 412.728 398.92 413.873 397.932 414.514Z" fill="#DBCCB1"/>
<path opacity="0.6" d="M354.34 441.705C353.434 442.268 352.289 442.121 351.773 441.409C351.26 440.683 351.57 439.645 352.476 439.082C353.378 438.533 354.528 438.666 355.044 439.379C355.556 440.104 355.246 441.142 354.34 441.705Z" fill="#DBCCB1"/>
<path opacity="0.89" d="M310.161 467.964C309.342 468.435 308.318 468.291 307.867 467.625C307.415 466.959 307.711 466.032 308.53 465.561C309.35 465.09 310.373 465.233 310.825 465.9C311.276 466.566 310.981 467.493 310.161 467.964Z" fill="#DBCCB1"/>
<path opacity="0.42" d="M265.54 493.449C264.71 493.903 263.694 493.732 263.246 493.052C262.801 492.359 263.122 491.454 263.938 490.996C264.768 490.542 265.784 490.712 266.232 491.392C266.68 492.072 266.37 492.995 265.54 493.449Z" fill="#DBCCB1"/>
<path opacity="0.31" d="M220.284 517.801C219.551 518.18 218.657 518.013 218.27 517.393C217.894 516.79 218.175 515.974 218.908 515.595C219.641 515.216 220.535 515.382 220.922 516.003C221.299 516.606 221.017 517.421 220.284 517.801Z" fill="#DBCCB1"/>
<path opacity="0.89" d="M174.509 541.162C173.873 541.467 173.101 541.304 172.782 540.774C172.463 540.244 172.712 539.548 173.352 539.231C173.988 538.926 174.76 539.089 175.079 539.619C175.397 540.149 175.149 540.844 174.509 541.162Z" fill="#DBCCB1"/>
<path opacity="0.86" d="M128.142 563.355C127.718 563.558 127.201 563.421 126.989 563.063C126.781 562.691 126.951 562.234 127.386 562.048C127.81 561.845 128.327 561.983 128.538 562.341C128.75 562.699 128.577 563.17 128.142 563.355Z" fill="#DBCCB1"/>
<path opacity="0.45" d="M909.187 22.3148C907.982 23.7606 906.099 24.293 904.987 23.508C903.874 22.723 903.949 20.904 905.158 19.4448C906.363 17.999 908.235 17.4492 909.358 18.2515C910.47 19.0365 910.396 20.8556 909.19 22.3014L909.187 22.3148Z" fill="#DBCCB1"/>
<path opacity="0.31" d="M875.802 61.3984C874.557 62.8193 872.646 63.2867 871.545 62.4615C870.443 61.6363 870.564 59.8152 871.809 58.3944C873.054 56.9735 874.954 56.4889 876.056 57.3141C877.157 58.1393 877.036 59.9604 875.791 61.3813L875.802 61.3984Z" fill="#DBCCB1"/>
<path opacity="0.55" d="M841.289 99.6307C840.005 101.027 838.076 101.446 836.989 100.567C835.902 99.6885 836.066 97.8791 837.35 96.4831C838.634 95.0871 840.56 94.6809 841.651 95.5463C842.741 96.4117 842.584 98.2519 841.289 99.6307Z" fill="#DBCCB1"/>
<path opacity="0.42" d="M805.725 137.025C804.402 138.396 802.448 138.737 801.368 137.831C800.292 136.912 800.492 135.083 801.823 133.743C803.143 132.385 805.09 132.014 806.166 132.933C807.246 133.838 807.042 135.68 805.722 137.038L805.725 137.025Z" fill="#DBCCB1"/>
<path opacity="0.78" d="M769.148 173.571C767.789 174.904 765.817 175.197 764.751 174.237C763.686 173.278 763.933 171.447 765.292 170.115C766.652 168.782 768.613 168.472 769.678 169.431C770.747 170.377 770.501 172.207 769.141 173.54L769.148 173.571Z" fill="#DBCCB1"/>
<path opacity="0.76" d="M731.598 209.254C730.203 210.549 728.213 210.794 727.169 209.812C726.125 208.829 726.408 206.979 727.803 205.685C729.199 204.39 731.174 204.141 732.232 205.127C733.291 206.113 733.008 207.963 731.612 209.258L731.598 209.254Z" fill="#DBCCB1"/>
<path opacity="0.79" d="M693.142 244.089C691.711 245.345 689.717 245.547 688.673 244.507C687.64 243.484 687.956 241.629 689.387 240.373C690.818 239.116 692.812 238.915 693.845 239.937C694.877 240.96 694.562 242.815 693.131 244.072L693.142 244.089Z" fill="#DBCCB1"/>
<path opacity="0.88" d="M653.708 277.981C652.334 279.138 650.452 279.268 649.491 278.265C648.53 277.262 648.873 275.529 650.233 274.368C651.603 273.225 653.485 273.095 654.439 274.068C655.4 275.071 655.071 276.808 653.697 277.964L653.708 277.981Z" fill="#DBCCB1"/>
<path opacity="0.6" d="M613.564 311.11C612.169 312.232 610.269 312.314 609.329 311.288C608.39 310.262 608.755 308.506 610.15 307.384C611.545 306.261 613.442 306.192 614.385 307.205C615.324 308.232 614.963 309.974 613.564 311.11Z" fill="#DBCCB1"/>
<path opacity="0.79" d="M572.527 343.242C571.203 344.268 569.415 344.28 568.554 343.303C567.683 342.31 568.062 340.673 569.386 339.646C570.709 338.62 572.487 338.591 573.358 339.584C574.229 340.578 573.853 342.202 572.527 343.242Z" fill="#DBCCB1"/>
<path opacity="0.7" d="M530.877 374.662C529.528 375.668 527.736 375.635 526.886 374.619C526.037 373.602 526.434 371.955 527.782 370.95C529.127 369.958 530.919 369.99 531.769 371.007C532.619 372.024 532.221 373.67 530.877 374.662Z" fill="#DBCCB1"/>
<path opacity="0.7" d="M488.415 405.047C487.142 405.944 485.468 405.871 484.698 404.904C483.927 403.937 484.324 402.405 485.597 401.509C486.869 400.613 488.532 400.668 489.314 401.652C490.095 402.636 489.702 404.155 488.425 405.065L488.415 405.047Z" fill="#DBCCB1"/>
<path opacity="0.71" d="M445.414 434.684C444.116 435.559 442.454 435.446 441.679 434.435C440.909 433.411 441.345 431.904 442.629 431.025C443.923 430.163 445.589 430.263 446.364 431.274C447.138 432.285 446.712 433.809 445.414 434.684Z" fill="#DBCCB1"/>
<path opacity="0.94" d="M401.694 463.287C400.482 464.07 398.938 463.917 398.239 462.969C397.54 462.021 397.955 460.595 399.163 459.825C400.371 459.055 401.919 459.194 402.618 460.142C403.313 461.103 402.902 462.517 401.694 463.287Z" fill="#DBCCB1"/>
<path opacity="0.31" d="M357.375 490.968C356.25 491.659 354.832 491.496 354.201 490.581C353.57 489.666 353.974 488.394 355.099 487.703C356.224 487.011 357.639 487.188 358.274 488.089C358.908 488.991 358.5 490.276 357.375 490.968Z" fill="#DBCCB1"/>
<path opacity="0.92" d="M312.502 517.717C311.463 518.316 310.174 518.131 309.615 517.292C309.056 516.454 309.435 515.276 310.473 514.677C311.512 514.077 312.801 514.263 313.36 515.101C313.919 515.94 313.541 517.118 312.513 517.734L312.502 517.717Z" fill="#DBCCB1"/>
<path opacity="0.89" d="M267.096 543.503C266.155 544.028 264.991 543.832 264.493 543.053C263.995 542.274 264.356 541.221 265.297 540.696C266.239 540.171 267.402 540.367 267.901 541.146C268.399 541.925 268.038 542.978 267.096 543.503Z" fill="#DBCCB1"/>
<path opacity="0.68" d="M221.167 568.292C220.322 568.742 219.285 568.538 218.848 567.818C218.407 567.111 218.749 566.182 219.594 565.732C220.439 565.282 221.476 565.487 221.913 566.207C222.354 566.914 222.022 567.86 221.167 568.292Z" fill="#DBCCB1"/>
<path opacity="0.81" d="M174.751 592.085C174.003 592.46 173.091 592.246 172.719 591.629C172.35 590.999 172.649 590.174 173.396 589.799C174.144 589.423 175.056 589.638 175.429 590.254C175.798 590.884 175.498 591.709 174.751 592.085Z" fill="#DBCCB1"/>
<path opacity="0.76" d="M127.846 614.853C127.196 615.154 126.417 614.96 126.105 614.403C125.793 613.846 126.06 613.141 126.711 612.84C127.361 612.54 128.14 612.733 128.452 613.29C128.763 613.847 128.497 614.552 127.846 614.853Z" fill="#DBCCB1"/>
<path opacity="0.86" d="M922.984 64.1791C921.596 65.8489 919.451 66.4407 918.206 65.5198C916.961 64.5988 917.086 62.5346 918.474 60.8647C919.86 59.2083 921.994 58.5994 923.242 59.5069C924.491 60.4145 924.373 62.5093 922.973 64.1619L922.984 64.1791Z" fill="#DBCCB1"/>
<path opacity="0.71" d="M888.734 103.951C887.295 105.579 885.122 106.106 883.898 105.162C882.664 104.2 882.839 102.121 884.278 100.493C885.717 98.8655 887.877 98.3349 889.114 99.2826C890.348 100.244 890.187 102.327 888.748 103.955L888.734 103.951Z" fill="#DBCCB1"/>
<path opacity="0.93" d="M853.368 142.852C851.879 144.438 849.688 144.916 848.468 143.901C847.248 142.887 847.47 140.805 848.945 139.216C850.431 137.644 852.611 137.148 853.835 138.149C855.058 139.15 854.847 141.249 853.357 142.835L853.368 142.852Z" fill="#DBCCB1"/>
<path opacity="0.81" d="M816.952 180.893C815.424 182.454 813.207 182.854 811.998 181.799C810.79 180.744 811.062 178.647 812.587 177.1C814.112 175.553 816.318 175.135 817.53 176.177C818.739 177.232 818.481 179.333 816.956 180.88L816.952 180.893Z" fill="#DBCCB1"/>
<path opacity="0.58" d="M779.522 218.082C777.958 219.605 775.713 219.94 774.529 218.849C773.345 217.757 773.65 215.655 775.215 214.132C776.779 212.61 779.01 212.271 780.208 213.366C781.395 214.444 781.101 216.564 779.533 218.1L779.522 218.082Z" fill="#DBCCB1"/>
<path opacity="0.76" d="M741.143 254.398C739.542 255.882 737.279 256.17 736.106 255.038C734.934 253.907 735.278 251.772 736.889 250.305C738.489 248.821 740.749 248.547 741.921 249.678C743.094 250.81 742.754 252.931 741.153 254.416L741.143 254.398Z" fill="#DBCCB1"/>
<path opacity="0.89" d="M701.747 289.739C700.193 291.107 698.045 291.31 696.958 290.201C695.861 289.075 696.23 287.076 697.78 285.722C699.33 284.368 701.467 284.148 702.568 285.26C703.669 286.373 703.3 288.372 701.747 289.739Z" fill="#DBCCB1"/>
<path opacity="0.31" d="M661.605 324.31C660.015 325.639 657.864 325.798 656.777 324.632C655.702 323.483 656.107 321.465 657.692 320.149C659.267 318.817 661.43 318.675 662.509 319.81C663.589 320.946 663.183 322.964 661.605 324.31Z" fill="#DBCCB1"/>
<path opacity="0.95" d="M620.554 357.915C619.037 359.149 616.986 359.219 615.982 358.09C614.978 356.96 615.397 355.061 616.922 353.858C618.436 352.638 620.476 352.55 621.483 353.666C622.491 354.783 622.072 356.682 620.554 357.915Z" fill="#DBCCB1"/>
<path opacity="0.58" d="M578.859 390.763C577.31 391.945 575.255 391.972 574.273 390.819C573.29 389.666 573.742 387.761 575.277 386.576C576.827 385.394 578.871 385.35 579.864 386.52C580.86 387.676 580.409 389.582 578.859 390.763Z" fill="#DBCCB1"/>
<path opacity="0.5" d="M536.332 422.576C534.855 423.661 532.923 423.634 532.008 422.514C531.094 421.394 531.546 419.604 533.02 418.532C534.494 417.459 536.426 417.486 537.34 418.606C538.254 419.726 537.803 421.516 536.329 422.589L536.332 422.576Z" fill="#DBCCB1"/>
<path opacity="0.55" d="M493.136 453.51C491.744 454.504 489.924 454.407 489.088 453.336C488.253 452.266 488.704 450.591 490.092 449.61C491.483 448.616 493.293 448.696 494.139 449.784C494.975 450.854 494.527 452.516 493.136 453.51Z" fill="#DBCCB1"/>
<path opacity="0.85" d="M449.421 483.696C448.008 484.655 446.184 484.513 445.356 483.416C444.528 482.319 445.012 480.638 446.424 479.678C447.837 478.719 449.651 478.843 450.49 479.958C451.318 481.055 450.848 482.74 449.425 483.682L449.421 483.696Z" fill="#DBCCB1"/>
<path opacity="0.45" d="M404.99 512.807C403.653 513.657 401.969 513.51 401.209 512.445C400.449 511.381 400.925 509.841 402.252 508.973C403.578 508.106 405.273 508.27 406.033 509.335C406.793 510.4 406.327 511.957 404.99 512.807Z" fill="#DBCCB1"/>
<path opacity="0.4" d="M359.997 540.997C358.757 541.772 357.181 541.568 356.496 540.566C355.812 539.565 356.259 538.132 357.51 537.374C358.75 536.598 360.316 536.786 361.011 537.805C361.696 538.806 361.248 540.239 360.008 541.014L359.997 540.997Z" fill="#DBCCB1"/>
<path opacity="0.9" d="M314.459 568.221C313.305 568.905 311.869 568.694 311.249 567.739C310.626 566.797 311.059 565.475 312.212 564.792C313.366 564.108 314.802 564.319 315.422 565.274C316.046 566.216 315.613 567.538 314.459 568.221Z" fill="#DBCCB1"/>
<path opacity="0.44" d="M268.412 594.487C267.344 595.079 266.037 594.845 265.485 593.979C264.933 593.114 265.337 591.9 266.405 591.308C267.472 590.717 268.779 590.95 269.331 591.816C269.883 592.681 269.479 593.895 268.412 594.487Z" fill="#DBCCB1"/>
<path opacity="0.43" d="M221.865 619.749C220.898 620.253 219.713 620.023 219.226 619.203C218.735 618.397 219.118 617.321 220.088 616.804C221.055 616.3 222.236 616.543 222.727 617.35C223.218 618.156 222.836 619.232 221.876 619.766L221.865 619.749Z" fill="#DBCCB1"/>
<path opacity="0.9" d="M174.834 643.961C173.964 644.39 172.919 644.155 172.486 643.421C172.056 642.675 172.405 641.719 173.275 641.29C174.145 640.861 175.19 641.096 175.623 641.83C176.057 642.563 175.703 643.532 174.834 643.961Z" fill="#DBCCB1"/>
<path opacity="0.49" d="M970.134 65.5835C968.602 67.5023 966.23 68.2493 964.849 67.2632C963.467 66.2772 963.579 63.9218 965.111 62.0031C966.64 60.0977 969.001 59.3337 970.397 60.3235C971.782 61.2962 971.671 63.6513 970.138 65.5701L970.134 65.5835Z" fill="#DBCCB1"/>
<path opacity="0.48" d="M936.188 106.919C934.605 108.796 932.19 109.474 930.824 108.434C929.442 107.39 929.629 105.041 931.212 103.164C932.795 101.288 935.195 100.606 936.565 101.632C937.936 102.658 937.774 105.029 936.191 106.905L936.188 106.919Z" fill="#DBCCB1"/>
<path opacity="0.65" d="M901.077 147.381C899.441 149.229 897.001 149.828 895.638 148.718C894.271 147.621 894.504 145.269 896.141 143.421C897.774 141.587 900.203 140.97 901.57 142.067C902.937 143.164 902.718 145.52 901.081 147.368L901.077 147.381Z" fill="#DBCCB1"/>
<path opacity="0.92" d="M864.87 186.949C863.183 188.755 860.719 189.276 859.366 188.125C858.014 186.974 858.297 184.608 859.981 182.815C861.664 181.023 864.118 180.485 865.474 181.622C866.83 182.759 866.557 185.143 864.859 186.932L864.87 186.949Z" fill="#DBCCB1"/>
<path opacity="0.89" d="M827.602 225.643C825.865 227.407 823.375 227.85 822.048 226.663C820.721 225.475 821.04 223.09 822.774 221.339C824.508 219.589 826.986 219.129 828.328 220.32C829.659 221.494 829.339 223.88 827.602 225.643Z" fill="#DBCCB1"/>
<path opacity="0.48" d="M789.342 263.456C787.558 265.164 785.051 265.559 783.738 264.318C782.425 263.077 782.795 260.676 784.575 258.981C786.355 257.286 788.863 256.892 790.179 258.119C791.495 259.346 791.126 261.747 789.353 263.473L789.342 263.456Z" fill="#DBCCB1"/>
<path opacity="0.76" d="M750.142 300.417C748.319 302.1 745.79 302.403 744.488 301.122C743.19 299.828 743.617 297.442 745.437 295.772C747.257 294.102 749.789 293.786 751.091 295.067C752.393 296.348 751.976 298.751 750.157 300.421L750.142 300.417Z" fill="#DBCCB1"/>
<path opacity="0.63" d="M709.937 336.357C708.164 337.91 705.746 338.142 704.52 336.867C703.304 335.609 703.749 333.329 705.511 331.758C707.28 330.219 709.698 329.987 710.917 331.231C712.133 332.489 711.699 334.787 709.929 336.327L709.937 336.357Z" fill="#DBCCB1"/>
<path opacity="0.55" d="M669.016 371.54C667.207 373.055 664.775 373.226 663.563 371.897C662.362 370.585 662.843 368.286 664.648 366.784C666.453 365.283 668.885 365.112 670.09 366.41C671.295 367.708 670.814 370.008 669.005 371.523L669.016 371.54Z" fill="#DBCCB1"/>
<path opacity="0.94" d="M627.19 405.723C625.447 407.111 623.126 407.211 621.997 405.919C620.867 404.626 621.373 402.462 623.106 401.057C624.85 399.668 627.167 399.582 628.289 400.844C629.419 402.136 628.927 404.304 627.18 405.706L627.19 405.723Z" fill="#DBCCB1"/>
<path opacity="0.79" d="M584.742 439.147C582.973 440.515 580.642 440.54 579.523 439.207C578.419 437.878 578.947 435.691 580.723 434.355C582.488 433.001 584.823 432.963 585.93 434.278C587.038 435.593 586.511 437.78 584.742 439.147Z" fill="#DBCCB1"/>
<path opacity="0.92" d="M541.491 471.534C539.797 472.792 537.578 472.746 536.542 471.45C535.506 470.154 536.047 468.086 537.748 466.858C539.441 465.6 541.661 465.646 542.686 466.925C543.722 468.221 543.184 470.276 541.491 471.534Z" fill="#DBCCB1"/>
<path opacity="0.88" d="M497.593 503.034C495.975 504.183 493.878 504.084 492.92 502.838C491.963 501.591 492.501 499.651 494.119 498.502C495.737 497.353 497.823 497.436 498.791 498.699C499.748 499.946 499.221 501.903 497.593 503.034Z" fill="#DBCCB1"/>
<path opacity="0.8" d="M453.189 533.762C451.55 534.876 449.449 534.733 448.506 533.433C447.56 532.146 448.13 530.2 449.77 529.086C451.409 527.971 453.506 528.128 454.452 529.415C455.399 530.702 454.839 532.665 453.189 533.762Z" fill="#DBCCB1"/>
<path opacity="0.59" d="M408.095 563.407C406.531 564.412 404.563 564.232 403.685 562.978C402.807 561.724 403.37 559.92 404.923 558.897C406.487 557.892 408.451 558.085 409.333 559.326C410.211 560.58 409.659 562.401 408.095 563.407Z" fill="#DBCCB1"/>
<path opacity="0.53" d="M362.45 592.105C360.972 593.019 359.127 592.785 358.324 591.594C357.521 590.403 358.059 588.693 359.533 587.793C361.006 586.893 362.841 587.109 363.658 588.304C364.461 589.495 363.924 591.205 362.45 592.105Z" fill="#DBCCB1"/>
<path opacity="0.92" d="M316.303 619.846C314.915 620.654 313.199 620.398 312.46 619.253C311.722 618.108 312.252 616.54 313.629 615.714C315.017 614.906 316.733 615.163 317.46 616.291C318.199 617.436 317.679 619.021 316.292 619.829L316.303 619.846Z" fill="#DBCCB1"/>
<path opacity="0.52" d="M269.643 646.592C268.353 647.325 266.766 647.046 266.088 645.96C265.422 644.892 265.923 643.431 267.214 642.697C268.5 641.977 270.088 642.256 270.765 643.342C271.431 644.41 270.941 645.889 269.639 646.605L269.643 646.592Z" fill="#DBCCB1"/>
<path opacity="0.73" d="M222.511 672.315C221.321 672.96 219.852 672.64 219.247 671.631C218.641 670.622 219.114 669.269 220.314 668.64C221.504 667.995 222.962 668.297 223.578 669.324C224.184 670.333 223.715 671.673 222.511 672.315Z" fill="#DBCCB1"/>
<path opacity="0.73" d="M983.62 108.543C981.89 110.682 979.259 111.532 977.735 110.393C976.217 109.284 976.39 106.644 978.12 104.505C979.847 102.379 982.477 101.529 983.995 102.637C985.512 103.746 985.354 106.39 983.624 108.529L983.62 108.543Z" fill="#DBCCB1"/>
<path opacity="0.5" d="M948.82 150.584C947.036 152.694 944.359 153.431 942.856 152.269C941.356 151.094 941.59 148.455 943.371 146.358C945.151 144.261 947.817 143.507 949.331 144.686C950.834 145.848 950.615 148.491 948.831 150.601L948.82 150.584Z" fill="#DBCCB1"/>
<path opacity="0.32" d="M912.87 191.715C911.025 193.766 908.32 194.438 906.82 193.205C905.321 191.972 905.619 189.322 907.464 187.271C909.31 185.22 912.011 184.561 913.5 185.777C914.989 186.992 914.716 189.664 912.87 191.715Z" fill="#DBCCB1"/>
<path opacity="0.82" d="M875.815 231.96C873.92 233.968 871.175 234.558 869.704 233.275C868.233 231.993 868.578 229.341 870.474 227.332C872.37 225.323 875.1 224.729 876.585 226.016C878.059 227.285 877.725 229.954 875.826 231.977L875.815 231.96Z" fill="#DBCCB1"/>
<path opacity="0.3" d="M837.717 271.297C835.771 273.264 833.001 273.775 831.534 272.421C830.078 271.085 830.473 268.417 832.419 266.451C834.365 264.484 837.131 263.986 838.587 265.322C840.047 266.645 839.663 269.33 837.702 271.293L837.717 271.297Z" fill="#DBCCB1"/>
<path opacity="0.65" d="M798.635 309.752C796.639 311.676 793.848 312.096 792.406 310.706C790.964 309.316 791.41 306.633 793.417 304.726C795.409 302.814 798.2 302.395 799.646 303.772C801.091 305.148 800.646 307.831 798.65 309.756L798.635 309.752Z" fill="#DBCCB1"/>
<path opacity="0.35" d="M758.516 347.196C756.571 348.99 753.88 349.321 752.514 347.937C751.147 346.553 751.636 343.996 753.582 342.202C755.527 340.408 758.214 340.089 759.57 341.457C760.936 342.841 760.462 345.401 758.506 347.178L758.516 347.196Z" fill="#DBCCB1"/>
<path opacity="0.42" d="M717.651 383.886C715.659 385.625 712.954 385.896 711.605 384.444C710.264 383.023 710.789 380.448 712.781 378.709C714.773 376.97 717.474 376.714 718.815 378.134C720.157 379.555 719.646 382.134 717.651 383.886Z" fill="#DBCCB1"/>
<path opacity="0.38" d="M675.843 419.544C673.912 421.17 671.312 421.339 670.05 419.91C668.784 418.495 669.333 416.056 671.264 414.43C673.192 412.817 675.782 412.631 677.047 414.046C678.317 415.448 677.778 417.905 675.847 419.531L675.843 419.544Z" fill="#DBCCB1"/>
<path opacity="0.59" d="M633.396 454.449C631.429 456.036 628.818 456.13 627.577 454.679C626.326 453.21 626.911 450.752 628.885 449.195C630.849 447.621 633.449 447.51 634.704 448.965C635.959 450.42 635.374 452.878 633.407 454.466L633.396 454.449Z" fill="#DBCCB1"/>
<path opacity="0.38" d="M590.118 488.324C588.216 489.785 585.731 489.812 584.562 488.38C583.393 486.948 583.989 484.621 585.881 483.143C587.779 481.695 590.264 481.668 591.437 483.087C592.609 484.506 592.02 486.863 590.118 488.324Z" fill="#DBCCB1"/>
<path opacity="0.72" d="M546.172 521.302C544.346 522.654 541.972 522.61 540.886 521.214C539.799 519.818 540.384 517.59 542.218 516.268C544.041 514.93 546.404 514.956 547.505 516.356C548.594 517.738 548.009 519.967 546.183 521.319L546.172 521.302Z" fill="#DBCCB1"/>
<path opacity="0.81" d="M501.702 553.478C499.854 554.795 497.469 554.677 496.394 553.241C495.318 551.805 495.946 549.587 497.794 548.27C499.639 546.966 502.012 547.067 503.091 548.49C504.17 549.912 503.55 552.16 501.702 553.478Z" fill="#DBCCB1"/>
<path opacity="0.36" d="M456.544 584.629C454.772 585.837 452.524 585.669 451.516 584.265C450.509 582.862 451.133 580.773 452.906 579.565C454.674 578.37 456.926 578.524 457.933 579.928C458.944 581.318 458.327 583.438 456.558 584.633L456.544 584.629Z" fill="#DBCCB1"/>
<path opacity="0.93" d="M410.826 614.805C409.143 615.908 407.014 615.7 406.075 614.329C405.147 612.975 405.757 610.997 407.435 609.907C409.118 608.804 411.244 609.026 412.176 610.366C413.107 611.707 412.508 613.702 410.815 614.788L410.826 614.805Z" fill="#DBCCB1"/>
<path opacity="0.91" d="M364.593 644.037C363.001 645.035 360.994 644.773 360.13 643.465C359.266 642.157 359.858 640.304 361.461 639.323C363.054 638.326 365.05 638.571 365.914 639.878C366.778 641.186 366.186 643.04 364.593 644.037Z" fill="#DBCCB1"/>
<path opacity="0.55" d="M317.857 672.294C316.35 673.2 314.476 672.902 313.688 671.657C312.889 670.395 313.462 668.666 314.975 667.791C316.478 666.898 318.345 667.166 319.144 668.428C319.947 669.676 319.37 671.419 317.867 672.311L317.857 672.294Z" fill="#DBCCB1"/>
<path opacity="0.37" d="M270.643 699.517C269.227 700.317 267.492 700.013 266.754 698.811C266.023 697.639 266.572 696.004 267.988 695.203C269.404 694.403 271.138 694.707 271.876 695.909C272.607 697.081 272.059 698.716 270.643 699.517Z" fill="#DBCCB1"/>
<path opacity="0.46" d="M1030.98 108.79C1029.11 111.208 1026.25 112.227 1024.58 111.036C1022.92 109.845 1023.09 106.931 1024.96 104.513C1026.82 102.094 1029.67 101.071 1031.33 102.262C1033 103.44 1032.84 106.371 1030.98 108.79Z" fill="#DBCCB1"/>
<path opacity="0.94" d="M996.538 152.419C994.606 154.791 991.696 155.711 990.046 154.466C988.395 153.222 988.633 150.282 990.561 147.923C992.493 145.551 995.39 144.628 997.04 145.872C998.69 147.117 998.47 150.046 996.535 152.432L996.538 152.419Z" fill="#DBCCB1"/>
<path opacity="0.4" d="M960.891 195.153C958.894 197.48 955.948 198.303 954.312 197.005C952.68 195.694 952.978 192.756 954.971 190.443C956.964 188.13 959.9 187.289 961.536 188.587C963.172 189.885 962.884 192.84 960.887 195.166L960.891 195.153Z" fill="#DBCCB1"/>
<path opacity="0.93" d="M924.093 236.96C922.032 239.24 919.05 239.968 917.432 238.603C915.814 237.238 916.178 234.289 918.235 232.022C920.293 229.754 923.264 229.009 924.882 230.374C926.5 231.74 926.151 234.692 924.089 236.973L924.093 236.96Z" fill="#DBCCB1"/>
<path opacity="0.94" d="M886.206 277.847C884.084 280.068 881.063 280.714 879.463 279.282C877.863 277.849 878.277 274.885 880.396 272.677C882.514 270.469 885.521 269.82 887.124 271.239C888.728 272.658 888.325 275.639 886.203 277.86L886.206 277.847Z" fill="#DBCCB1"/>
<path opacity="0.45" d="M847.295 317.841C845.123 320.02 842.065 320.57 840.484 319.07C838.898 317.585 839.377 314.609 841.546 312.443C843.714 310.277 846.757 309.724 848.346 311.196C849.931 312.682 849.467 315.662 847.295 317.841Z" fill="#DBCCB1"/>
<path opacity="0.68" d="M807.425 356.947C805.202 359.084 802.124 359.542 800.557 357.989C798.989 356.436 799.529 353.463 801.744 351.352C803.963 349.229 807.031 348.754 808.602 350.293C810.173 351.832 809.648 354.81 807.425 356.947Z" fill="#DBCCB1"/>
<path opacity="0.81" d="M766.524 395.02C764.341 397.009 761.378 397.383 759.889 395.822C758.401 394.262 758.965 391.424 761.145 389.448C763.324 387.472 766.287 387.098 767.769 388.628C769.26 390.175 768.707 393.03 766.524 395.02Z" fill="#DBCCB1"/>
<path opacity="0.85" d="M724.896 432.307C722.678 434.258 719.682 434.523 718.215 432.939C716.749 431.356 717.356 428.472 719.571 426.534C721.786 424.596 724.771 424.314 726.249 425.915C727.715 427.499 727.111 430.369 724.893 432.32L724.896 432.307Z" fill="#DBCCB1"/>
<path opacity="0.82" d="M682.361 468.608C680.197 470.416 677.312 470.609 675.925 469.018C674.537 467.427 675.166 464.693 677.33 462.885C679.495 461.077 682.365 460.88 683.756 462.457C685.148 464.035 684.526 466.8 682.361 468.608Z" fill="#DBCCB1"/>
<path opacity="0.82" d="M639.2 504.112C636.999 505.882 634.108 505.987 632.735 504.343C631.362 502.698 632.041 499.948 634.238 498.192C636.435 496.436 639.329 496.317 640.692 497.945C642.069 499.576 641.4 502.343 639.2 504.112Z" fill="#DBCCB1"/>
<path opacity="0.43" d="M595.238 538.581C593.102 540.224 590.326 540.245 589.035 538.637C587.745 537.029 588.424 534.394 590.559 532.751C592.692 531.121 595.457 531.083 596.751 532.678C598.042 534.286 597.363 536.921 595.242 538.568L595.238 538.581Z" fill="#DBCCB1"/>
<path opacity="0.59" d="M550.63 572.125C548.57 573.659 545.919 573.613 544.7 572.024C543.482 570.434 544.171 567.932 546.217 566.394C548.273 564.873 550.924 564.919 552.146 566.495C553.369 568.071 552.69 570.591 550.63 572.125Z" fill="#DBCCB1"/>
<path opacity="0.84" d="M505.421 604.75C503.44 606.162 500.905 606.031 499.765 604.492C498.625 602.952 499.304 600.547 501.281 599.149C503.258 597.751 505.787 597.851 506.927 599.39C508.066 600.93 507.391 603.322 505.41 604.733L505.421 604.75Z" fill="#DBCCB1"/>
<path opacity="0.83" d="M459.648 636.454C457.746 637.743 455.344 637.576 454.272 636.069C453.204 634.549 453.875 632.286 455.777 630.997C457.679 629.708 460.081 629.874 461.149 631.395C462.217 632.915 461.546 635.179 459.644 636.467L459.648 636.454Z" fill="#DBCCB1"/>
<path opacity="0.67" d="M413.466 667.347C411.543 668.601 409.13 668.36 408.072 666.799C407.015 665.239 407.719 662.97 409.638 661.729C411.558 660.488 413.96 660.712 415.021 662.259C416.082 663.806 415.379 666.075 413.466 667.347Z" fill="#DBCCB1"/>
<path opacity="0.55" d="M366.561 696.962C364.839 698.04 362.681 697.767 361.756 696.342C360.828 694.931 361.481 692.907 363.203 691.829C364.925 690.75 367.068 691.02 368.007 692.449C368.935 693.86 368.297 695.887 366.571 696.979L366.561 696.962Z" fill="#DBCCB1"/>
<path opacity="0.4" d="M319.297 725.736C317.665 726.709 315.64 726.399 314.777 725.033C313.917 723.655 314.544 721.782 316.18 720.796C317.812 719.823 319.837 720.133 320.69 721.481C321.55 722.86 320.922 724.733 319.287 725.719L319.297 725.736Z" fill="#DBCCB1"/>
<path opacity="0.92" d="M271.575 753.483C270.033 754.35 268.14 754.004 267.348 752.715C266.56 751.413 267.159 749.648 268.694 748.75C270.236 747.882 272.117 748.211 272.92 749.517C273.708 750.819 273.109 752.585 271.575 753.483Z" fill="#DBCCB1"/>
<path opacity="0.94" d="M1044.17 152.861C1042.1 155.527 1038.97 156.646 1037.18 155.305C1035.39 153.996 1035.61 150.765 1037.68 148.1C1039.75 145.447 1042.87 144.325 1044.67 145.639C1046.46 146.935 1046.25 150.182 1044.18 152.848L1044.17 152.861Z" fill="#DBCCB1"/>
<path opacity="0.3" d="M1008.9 197.217C1006.76 199.85 1003.57 200.838 1001.79 199.444C1000.01 198.05 1000.31 194.826 1002.45 192.223C1004.59 189.604 1007.77 188.612 1009.55 189.992C1011.33 191.373 1011.04 194.614 1008.9 197.217Z" fill="#DBCCB1"/>
<path opacity="0.48" d="M972.406 240.615C970.19 243.185 966.964 244.077 965.202 242.617C963.441 241.156 963.805 237.92 966.017 235.363C968.226 232.82 971.442 231.91 973.21 233.344C974.975 234.792 974.622 238.045 972.41 240.602L972.406 240.615Z" fill="#DBCCB1"/>
<path opacity="0.73" d="M934.785 283.095C932.508 285.605 929.231 286.398 927.488 284.871C925.741 283.356 926.173 280.095 928.461 277.602C930.734 275.105 933.996 274.308 935.747 275.809C937.497 277.31 937.076 280.588 934.799 283.099L934.785 283.095Z" fill="#DBCCB1"/>
<path opacity="0.65" d="M896.083 324.656C893.741 327.121 890.432 327.805 888.703 326.223C886.975 324.642 887.471 321.369 889.809 318.918C892.144 316.48 895.442 315.779 897.174 317.347C898.907 318.915 898.421 322.205 896.083 324.656Z" fill="#DBCCB1"/>
<path opacity="0.85" d="M856.382 365.303C853.979 367.708 850.645 368.313 848.927 366.634C847.216 364.986 847.778 361.702 850.173 359.323C852.572 356.931 855.892 356.322 857.617 357.975C859.331 359.61 858.784 362.897 856.382 365.303Z" fill="#DBCCB1"/>
<path opacity="0.36" d="M815.616 404.933C813.253 407.19 810.016 407.664 808.385 406.008C806.753 404.351 807.354 401.207 809.713 398.963C812.072 396.718 815.298 396.228 816.933 397.871C818.569 399.514 817.979 402.675 815.616 404.933Z" fill="#DBCCB1"/>
<path opacity="0.43" d="M774.078 443.77C771.669 445.973 768.407 446.367 766.793 444.644C765.18 442.921 765.831 439.761 768.237 437.572C770.642 435.383 773.893 434.972 775.511 436.681C777.128 438.391 776.488 441.568 774.078 443.77Z" fill="#DBCCB1"/>
<path opacity="0.55" d="M731.605 481.568C729.246 483.64 726.093 483.919 724.565 482.219C723.038 480.519 723.706 477.465 726.062 475.406C728.417 473.347 731.56 473.05 733.091 474.737C734.622 476.424 733.954 479.478 731.598 481.537L731.605 481.568Z" fill="#DBCCB1"/>
<path opacity="0.56" d="M688.361 518.45C686.067 520.396 683.018 520.574 681.58 518.883C680.128 517.189 680.822 514.271 683.112 512.338C685.403 510.406 688.441 510.21 689.894 511.905C691.349 513.586 690.666 516.522 688.361 518.45Z" fill="#DBCCB1"/>
<path opacity="0.81" d="M644.524 554.559C642.186 556.435 639.137 556.556 637.699 554.808C636.262 553.06 637.002 550.14 639.329 548.246C641.662 546.383 644.711 546.262 646.138 547.992C647.576 549.741 646.85 552.665 644.509 554.555L644.524 554.559Z" fill="#DBCCB1"/>
<path opacity="0.47" d="M599.909 589.636C597.647 591.404 594.706 591.409 593.354 589.684C592.003 587.959 592.743 585.154 595.001 583.4C597.259 581.645 600.19 581.622 601.545 583.334C602.9 585.046 602.17 587.868 599.898 589.619L599.909 589.636Z" fill="#DBCCB1"/>
<path opacity="0.69" d="M554.692 623.778C552.499 625.406 549.684 625.345 548.411 623.67C547.131 621.964 547.871 619.273 550.061 617.659C552.25 616.045 555.055 616.088 556.339 617.781C557.622 619.474 556.882 622.164 554.689 623.792L554.692 623.778Z" fill="#DBCCB1"/>
<path opacity="0.32" d="M508.897 657C506.783 658.505 504.093 658.377 502.892 656.721C501.692 655.065 502.428 652.502 504.531 650.98C506.645 649.475 509.324 649.586 510.536 651.259C511.737 652.916 511.011 655.495 508.897 657Z" fill="#DBCCB1"/>
<path opacity="0.91" d="M462.555 689.264C460.531 690.664 457.967 690.469 456.835 688.845C455.702 687.222 456.434 684.788 458.458 683.388C460.483 681.988 463.047 682.183 464.179 683.807C465.312 685.431 464.59 687.882 462.555 689.264Z" fill="#DBCCB1"/>
<path opacity="0.67" d="M415.73 720.585C413.785 721.863 411.357 721.618 410.289 720.04C409.225 718.449 409.939 716.14 411.884 714.863C413.825 713.599 416.256 713.83 417.321 715.421C418.385 717.012 417.671 719.321 415.726 720.599L415.73 720.585Z" fill="#DBCCB1"/>
<path opacity="0.52" d="M368.424 750.901C366.569 752.073 364.264 751.774 363.275 750.246C362.286 748.718 362.986 746.52 364.837 745.361C366.688 744.203 368.994 744.501 369.986 746.016C370.979 747.53 370.29 749.746 368.435 750.918L368.424 750.901Z" fill="#DBCCB1"/>
<path opacity="0.83" d="M1056.83 197.873C1054.55 200.799 1051.13 202 1049.21 200.523C1047.29 199.064 1047.58 195.522 1049.87 192.626C1052.15 189.714 1055.55 188.509 1057.47 189.955C1059.4 191.387 1059.11 194.947 1056.83 197.873Z" fill="#DBCCB1"/>
<path opacity="0.54" d="M1020.72 242.927C1018.36 245.804 1014.88 246.874 1012.98 245.331C1011.07 243.788 1011.45 240.255 1013.8 237.405C1016.16 234.542 1019.62 233.468 1021.52 234.981C1023.44 236.497 1023.07 240.065 1020.7 242.924L1020.72 242.927Z" fill="#DBCCB1"/>
<path opacity="0.69" d="M983.399 287.02C980.963 289.833 977.442 290.791 975.552 289.181C973.661 287.571 974.108 284.026 976.54 281.227C978.972 278.427 982.478 277.465 984.362 279.045C986.256 280.642 985.82 284.203 983.388 287.003L983.399 287.02Z" fill="#DBCCB1"/>
<path opacity="0.3" d="M944.958 330.171C942.451 332.908 938.894 333.77 937.018 332.106C935.146 330.429 935.661 326.859 938.165 324.136C940.668 321.413 944.214 320.534 946.09 322.198C947.966 323.862 947.466 327.435 944.955 330.185L944.958 330.171Z" fill="#DBCCB1"/>
<path opacity="0.88" d="M905.464 372.398C902.892 375.089 899.288 375.837 897.438 374.08C895.583 372.335 896.163 368.755 898.731 366.078C901.299 363.401 904.888 362.648 906.746 364.379C908.604 366.11 908.035 369.708 905.467 372.385L905.464 372.398Z" fill="#DBCCB1"/>
<path opacity="0.65" d="M864.987 413.701C862.354 416.332 858.719 416.972 856.883 415.161C855.046 413.349 855.691 409.757 858.32 407.139C860.949 404.522 864.57 403.878 866.41 405.676C868.25 407.474 867.616 411.083 864.984 413.714L864.987 413.701Z" fill="#DBCCB1"/>
<path opacity="0.52" d="M823.462 453.96C820.869 456.443 817.331 456.951 815.588 455.136C813.834 453.304 814.518 449.851 817.107 447.381C819.697 444.911 823.224 444.386 824.971 446.187C826.732 447.993 826.055 451.476 823.462 453.96Z" fill="#DBCCB1"/>
<path opacity="0.43" d="M781.203 493.419C778.553 495.83 775.004 496.262 773.265 494.376C771.529 492.477 772.267 488.996 774.914 486.598C777.56 484.201 781.099 483.751 782.838 485.637C784.581 487.509 783.854 491.008 781.203 493.419Z" fill="#DBCCB1"/>
<path opacity="0.39" d="M738.033 531.869C735.437 534.136 731.992 534.467 730.336 532.56C728.686 530.684 729.442 527.308 732.034 525.054C734.627 522.8 738.057 522.465 739.721 524.345C741.374 526.208 740.619 529.584 738.033 531.869Z" fill="#DBCCB1"/>
<path opacity="0.86" d="M694.123 569.393C691.592 571.534 688.258 571.737 686.684 569.866C685.11 567.996 685.891 564.756 688.419 562.628C690.947 560.5 694.28 560.297 695.857 562.155C697.435 564.012 696.665 567.269 694.123 569.393Z" fill="#DBCCB1"/>
<path opacity="0.61" d="M649.646 606.127C647.067 608.212 643.727 608.327 642.171 606.39C640.615 604.452 641.442 601.21 644.013 599.151C646.588 597.079 649.928 596.964 651.488 598.889C653.047 600.813 652.231 604.072 649.656 606.144L649.646 606.127Z" fill="#DBCCB1"/>
<path opacity="0.43" d="M604.426 641.817C601.916 643.763 598.691 643.794 597.211 641.862C595.726 639.943 596.568 636.82 599.059 634.884C601.565 632.952 604.78 632.904 606.264 634.822C607.748 636.741 606.921 639.868 604.415 641.8L604.426 641.817Z" fill="#DBCCB1"/>
<path opacity="0.64" d="M558.618 676.577C556.187 678.4 553.081 678.333 551.683 676.438C550.285 674.542 551.108 671.543 553.535 669.734C555.962 667.924 559.068 667.991 560.47 669.873C561.871 671.755 561.045 674.767 558.618 676.577Z" fill="#DBCCB1"/>
<path opacity="0.92" d="M512.274 710.396C509.926 712.083 506.935 711.932 505.616 710.086C504.286 708.223 505.12 705.357 507.468 703.669C509.815 701.982 512.792 702.13 514.126 703.979C515.455 705.842 514.636 708.713 512.285 710.413L512.274 710.396Z" fill="#DBCCB1"/>
<path opacity="0.3" d="M465.432 743.26C463.164 744.825 460.309 744.624 459.051 742.78C457.793 740.936 458.609 738.194 460.877 736.63C463.142 735.079 465.997 735.279 467.248 737.092C468.509 738.923 467.69 741.678 465.422 743.243L465.432 743.26Z" fill="#DBCCB1"/>
<path opacity="0.88" d="M1104.66 197.118C1102.24 200.367 1098.6 201.767 1096.54 200.239C1094.47 198.711 1094.77 194.868 1097.18 191.632C1099.59 188.396 1103.22 186.992 1105.27 188.489C1107.34 190.004 1107.06 193.851 1104.65 197.1L1104.66 197.118Z" fill="#DBCCB1"/>
<path opacity="0.87" d="M1068.96 243.831C1066.46 247.014 1062.75 248.297 1060.71 246.702C1058.66 245.107 1059.04 241.243 1061.53 238.087C1064.03 234.918 1067.72 233.631 1069.77 235.212C1071.82 236.794 1071.47 240.666 1068.97 243.862L1068.96 243.831Z" fill="#DBCCB1"/>
<path opacity="0.54" d="M1032.01 289.577C1029.41 292.692 1025.67 293.863 1023.63 292.17C1021.59 290.477 1022.05 286.619 1024.64 283.517C1027.22 280.428 1030.96 279.241 1033 280.92C1035.05 282.585 1034.6 286.461 1032.02 289.594L1032.01 289.577Z" fill="#DBCCB1"/>
<path opacity="0.48" d="M993.875 334.354C991.205 337.406 987.4 338.446 985.381 336.687C983.361 334.927 983.898 331.048 986.55 328.005C989.212 324.979 993.006 323.922 995.029 325.668C997.052 327.414 996.54 331.315 993.875 334.354Z" fill="#DBCCB1"/>
<path opacity="0.32" d="M954.643 378.167C951.899 381.156 948.051 382.07 946.049 380.243C944.051 378.403 944.653 374.512 947.391 371.55C950.128 368.587 953.965 367.656 955.97 369.469C957.975 371.283 957.384 375.191 954.654 378.184L954.643 378.167Z" fill="#DBCCB1"/>
<path opacity="0.48" d="M914.365 421.056C911.56 423.986 907.665 424.787 905.675 422.863C903.695 420.956 904.365 417.04 907.163 414.137C909.965 411.22 913.845 410.416 915.829 412.309C917.812 414.203 917.156 418.123 914.351 421.052L914.365 421.056Z" fill="#DBCCB1"/>
<path opacity="0.54" d="M873.02 462.907C870.243 465.673 866.446 466.341 864.549 464.413C862.651 462.485 863.364 458.696 866.134 455.957C868.907 453.205 872.69 452.533 874.594 454.434C876.495 456.349 875.796 460.142 873.02 462.907Z" fill="#DBCCB1"/>
<path opacity="0.81" d="M830.894 503.928C828.057 506.634 824.227 507.193 822.348 505.198C820.469 503.203 821.247 499.402 824.077 496.723C826.907 494.044 830.726 493.467 832.609 495.449C834.491 497.431 833.728 501.235 830.89 503.941L830.894 503.928Z" fill="#DBCCB1"/>
<path opacity="0.43" d="M787.825 543.938C785.03 546.483 781.309 546.927 779.512 544.911C777.716 542.894 778.519 539.23 781.306 536.711C784.096 534.18 787.803 533.731 789.607 535.721C791.411 537.71 790.619 541.393 787.825 543.938Z" fill="#DBCCB1"/>
<path opacity="0.48" d="M743.991 583.005C741.251 585.406 737.641 585.723 735.931 583.73C734.21 581.719 735.041 578.176 737.774 575.802C740.507 573.427 744.109 573.081 745.823 575.06C747.537 577.04 746.728 580.617 743.991 583.005Z" fill="#DBCCB1"/>
<path opacity="0.46" d="M699.451 621.155C696.779 623.417 693.277 623.618 691.643 621.631C690.008 619.643 690.853 616.22 693.521 613.971C696.189 611.723 699.681 611.505 701.319 613.479C702.958 615.453 702.123 618.894 699.451 621.155Z" fill="#DBCCB1"/>
<path opacity="0.76" d="M654.378 658.544C651.663 660.737 648.15 660.863 646.533 658.809C644.917 656.754 645.798 653.311 648.509 651.132C651.22 648.953 654.722 648.809 656.342 650.85C657.963 652.891 657.092 656.351 654.378 658.544Z" fill="#DBCCB1"/>
<path opacity="0.81" d="M608.586 694.838C605.95 696.909 602.545 696.92 601.004 694.872C599.459 692.836 600.351 689.525 602.993 687.486C605.625 685.429 609.019 685.401 610.564 687.436C612.113 689.458 611.232 692.786 608.596 694.856L608.586 694.838Z" fill="#DBCCB1"/>
<path opacity="0.67" d="M562.251 730.225C559.684 732.155 556.412 732.073 554.95 730.074C553.477 728.058 554.368 724.862 556.932 722.945C559.495 721.028 562.756 721.093 564.233 723.096C565.71 725.099 564.818 728.295 562.262 730.242L562.251 730.225Z" fill="#DBCCB1"/>
<path opacity="0.77" d="M1117.08 243.288C1114.44 246.808 1110.51 248.304 1108.33 246.644C1106.13 244.967 1106.5 240.798 1109.14 237.292C1111.77 233.799 1115.68 232.282 1117.88 233.932C1120.08 235.583 1119.72 239.769 1117.1 243.292L1117.08 243.288Z" fill="#DBCCB1"/>
<path opacity="0.57" d="M1080.68 290.815C1077.86 294.373 1073.74 295.775 1071.5 293.971C1069.25 292.15 1069.72 287.836 1072.54 284.305C1075.35 280.774 1079.44 279.351 1081.69 281.128C1083.95 282.922 1083.49 287.24 1080.68 290.815Z" fill="#DBCCB1"/>
<path opacity="0.85" d="M1042.79 337.151C1039.97 340.537 1035.92 341.755 1033.76 339.93C1031.61 338.105 1032.14 333.895 1034.95 330.536C1037.77 327.177 1041.8 325.924 1043.97 327.753C1046.14 329.581 1045.62 333.796 1042.8 337.168L1042.79 337.151Z" fill="#DBCCB1"/>
<path opacity="0.62" d="M1003.86 382.597C1000.95 385.902 996.853 387.007 994.708 385.085C992.563 383.163 993.176 378.944 996.075 375.666C998.975 372.388 1003.05 371.248 1005.2 373.143C1007.36 375.039 1006.75 379.275 1003.86 382.597Z" fill="#DBCCB1"/>
<path opacity="0.92" d="M963.852 427.114C960.87 430.356 956.724 431.348 954.59 429.328C952.467 427.325 953.159 423.099 956.134 419.884C959.108 416.669 963.24 415.673 965.371 417.649C967.501 419.625 966.831 423.885 963.852 427.114Z" fill="#DBCCB1"/>
<path opacity="0.41" d="M922.83 470.672C919.777 473.837 915.588 474.703 913.475 472.602C911.363 470.502 912.13 466.282 915.181 463.13C918.227 459.991 922.405 459.108 924.514 461.164C926.634 463.238 925.877 467.476 922.834 470.658L922.83 470.672Z" fill="#DBCCB1"/>
<path opacity="0.91" d="M880.764 513.185C877.739 516.186 873.651 516.906 871.617 514.798C869.595 512.707 870.401 508.569 873.419 505.595C876.436 502.621 880.514 501.884 882.54 503.961C884.566 506.039 883.774 510.18 880.764 513.185Z" fill="#DBCCB1"/>
<path opacity="0.77" d="M837.934 554.865C834.852 557.793 830.731 558.404 828.72 556.216C826.708 554.027 827.587 549.909 830.654 546.977C833.733 544.062 837.843 543.434 839.858 545.609C841.873 547.784 841.02 551.924 837.938 554.852L837.934 554.865Z" fill="#DBCCB1"/>
<path opacity="0.65" d="M794.21 595.533C791.182 598.317 787.148 598.778 785.23 596.586C783.312 594.394 784.204 590.394 787.229 587.623C790.253 584.852 794.273 584.386 796.198 586.552C798.124 588.717 797.238 592.748 794.21 595.533Z" fill="#DBCCB1"/>
<path opacity="0.5" d="M749.741 635.252C746.76 637.862 742.848 638.212 741.005 636.026C739.162 633.839 740.084 629.962 743.054 627.334C746.031 624.738 749.932 624.37 751.779 626.543C753.625 628.716 752.715 632.611 749.744 635.238L749.741 635.252Z" fill="#DBCCB1"/>
<path opacity="0.44" d="M704.621 674.082C701.704 676.566 697.904 676.788 696.141 674.594C694.377 672.399 695.312 668.641 698.221 666.184C701.13 663.727 704.92 663.487 706.691 665.655C708.462 667.822 707.537 671.598 704.621 674.082Z" fill="#DBCCB1"/>
<path opacity="0.42" d="M658.993 712.102C656.034 714.517 652.216 714.634 650.47 712.372C648.724 710.111 649.696 706.333 652.648 703.945C655.6 701.557 659.411 701.409 661.16 703.657C662.913 705.892 661.942 709.67 658.993 712.102Z" fill="#DBCCB1"/>
<path opacity="0.94" d="M612.567 748.913C609.791 751.104 606.232 751.117 604.615 748.948C602.999 746.779 603.945 743.267 606.727 741.107C609.5 738.93 613.048 738.898 614.668 741.054C616.278 743.193 615.343 746.722 612.567 748.913Z" fill="#DBCCB1"/>
<path opacity="0.53" d="M1165.17 241.378C1162.32 245.375 1158.06 247.154 1155.66 245.392C1153.26 243.617 1153.61 238.972 1156.46 235.02C1159.3 231.05 1163.54 229.25 1165.95 230.998C1168.36 232.746 1168.03 237.412 1165.18 241.409L1165.17 241.378Z" fill="#DBCCB1"/>
<path opacity="0.83" d="M1129.12 290.529C1126.17 294.442 1121.82 296.083 1119.43 294.21C1117.04 292.338 1117.51 287.692 1120.45 283.794C1123.4 279.926 1127.72 278.246 1130.12 280.092C1132.51 281.937 1132.07 286.604 1129.12 290.516L1129.12 290.529Z" fill="#DBCCB1"/>
<path opacity="0.43" d="M1091.77 338.651C1088.72 342.492 1084.31 343.973 1081.93 342.002C1079.55 340.032 1080.11 335.369 1083.15 331.568C1086.21 327.771 1090.59 326.252 1092.97 328.196C1095.36 330.139 1094.82 334.823 1091.77 338.651Z" fill="#DBCCB1"/>
<path opacity="0.42" d="M1053.08 385.684C1050.02 389.323 1045.68 390.65 1043.39 388.645C1041.09 386.641 1041.72 382.095 1044.77 378.47C1047.82 374.858 1052.16 373.514 1054.44 375.488C1056.74 377.466 1056.13 382.015 1053.08 385.684Z" fill="#DBCCB1"/>
<path opacity="0.37" d="M1013.37 431.826C1010.23 435.384 1005.83 436.581 1003.55 434.478C1001.28 432.393 1001.98 427.826 1005.12 424.282C1008.27 420.737 1012.65 419.55 1014.93 421.608C1017.2 423.666 1016.52 428.254 1013.37 431.826Z" fill="#DBCCB1"/>
<path opacity="0.45" d="M972.611 477.003C969.392 480.498 964.937 481.552 962.677 479.369C960.418 477.186 961.203 472.612 964.43 469.147C967.642 465.679 972.083 464.622 974.339 466.761C976.606 468.917 975.83 473.508 972.611 477.003Z" fill="#DBCCB1"/>
<path opacity="0.37" d="M930.752 521.141C927.551 524.454 923.186 525.344 921.02 523.158C918.843 520.954 919.686 516.509 922.884 513.21C926.077 509.924 930.421 508.999 932.601 511.189C934.782 513.38 933.964 517.845 930.763 521.158L930.752 521.141Z" fill="#DBCCB1"/>
<path opacity="0.36" d="M888.106 564.436C884.844 567.689 880.436 568.453 878.285 566.156C876.129 563.872 877.037 559.416 880.296 556.175C883.551 552.949 887.944 552.181 890.096 554.421C892.255 556.692 891.372 561.169 888.099 564.405L888.106 564.436Z" fill="#DBCCB1"/>
<path opacity="0.77" d="M844.513 606.674C841.283 609.749 836.99 610.372 834.918 608.067C832.845 605.761 833.781 601.428 837.007 598.366C840.23 595.317 844.515 594.664 846.592 596.956C848.671 599.234 847.742 603.598 844.527 606.678L844.513 606.674Z" fill="#DBCCB1"/>
<path opacity="0.38" d="M800.165 647.99C796.993 650.908 792.798 651.399 790.804 649.086C788.811 646.773 789.776 642.562 792.944 639.657C796.112 636.752 800.293 636.258 802.291 638.557C804.288 640.857 803.334 645.085 800.162 648.003L800.165 647.99Z" fill="#DBCCB1"/>
<path opacity="0.43" d="M755.116 688.379C752.001 691.14 747.918 691.502 746.003 689.181C744.088 686.861 745.078 682.786 748.189 680.038C751.299 677.29 755.369 676.924 757.291 679.218C759.209 681.525 758.23 685.617 755.116 688.379Z" fill="#DBCCB1"/>
<path opacity="0.63" d="M709.449 727.862C706.392 730.467 702.431 730.718 700.595 728.389C698.76 726.061 699.76 722.118 702.813 719.527C705.866 716.936 709.824 716.699 711.656 718.983C713.488 721.267 712.505 725.258 709.449 727.862Z" fill="#DBCCB1"/>
<path opacity="0.72" d="M1177.29 288.669C1174.29 292.826 1169.85 294.675 1167.38 292.81C1164.92 290.931 1165.36 286.079 1168.34 281.931C1171.33 277.801 1175.75 275.932 1178.22 277.783C1180.69 279.635 1180.28 284.525 1177.28 288.682L1177.29 288.669Z" fill="#DBCCB1"/>
<path opacity="0.47" d="M1140.41 338.507C1137.31 342.594 1132.79 344.291 1130.34 342.301C1127.88 340.325 1128.42 335.456 1131.52 331.396C1134.61 327.337 1139.1 325.632 1141.57 327.581C1144.03 329.53 1143.51 334.421 1140.41 338.507Z" fill="#DBCCB1"/>
<path opacity="0.89" d="M1102.26 387.337C1099.05 391.34 1094.47 392.889 1092.03 390.802C1089.58 388.728 1090.22 383.842 1093.42 379.866C1096.62 375.908 1101.18 374.32 1103.62 376.38C1106.06 378.423 1105.46 383.335 1102.26 387.337Z" fill="#DBCCB1"/>
<path opacity="0.74" d="M1062.9 435.158C1059.6 439.076 1054.95 440.465 1052.53 438.297C1050.11 436.13 1050.83 431.236 1054.12 427.344C1057.42 423.453 1062.05 422.044 1064.47 424.184C1066.9 426.325 1066.2 431.254 1062.9 435.158Z" fill="#DBCCB1"/>
<path opacity="0.6" d="M1022.44 481.997C1019.05 485.835 1014.34 487.093 1011.94 484.814C1009.53 482.549 1010.35 477.638 1013.73 473.827C1017.11 470.016 1021.8 468.737 1024.21 470.988C1026.62 473.227 1025.83 478.159 1022.44 481.997Z" fill="#DBCCB1"/>
<path opacity="0.31" d="M980.96 527.867C977.485 531.624 972.725 532.726 970.344 530.367C967.962 528.008 968.846 523.071 972.31 519.355C975.777 515.624 980.516 514.488 982.905 516.82C985.293 519.153 984.435 524.11 980.964 527.854L980.96 527.867Z" fill="#DBCCB1"/>
<path opacity="0.67" d="M938.404 572.669C934.962 576.248 930.288 577.201 927.979 574.803C925.68 572.423 926.61 567.6 930.056 564.065C933.501 560.53 938.15 559.557 940.456 561.91C942.762 564.263 941.846 569.09 938.404 572.669Z" fill="#DBCCB1"/>
<path opacity="0.71" d="M895.107 616.668C891.593 620.17 886.88 620.982 884.596 618.491C882.311 616 883.313 611.196 886.82 607.72C890.326 604.245 895.015 603.411 897.31 605.862C899.601 608.326 898.61 613.148 895.096 616.65L895.107 616.668Z" fill="#DBCCB1"/>
<path opacity="0.86" d="M850.897 659.589C847.426 662.93 842.817 663.584 840.616 661.071C838.41 658.573 839.444 653.878 842.918 650.58C846.392 647.282 850.98 646.595 853.189 649.08C855.398 651.565 854.378 656.264 850.907 659.606L850.897 659.589Z" fill="#DBCCB1"/>
<path opacity="0.94" d="M805.967 701.604C802.543 704.771 798.039 705.266 795.923 702.776C793.801 700.257 794.859 695.697 798.276 692.557C801.692 689.416 806.175 688.887 808.305 691.38C810.435 693.873 809.383 698.463 805.963 701.617L805.967 701.604Z" fill="#DBCCB1"/>
<path opacity="0.65" d="M760.376 742.678C757.014 745.675 752.621 746.041 750.584 743.544C748.541 741.017 749.614 736.576 752.983 733.61C756.342 730.626 760.724 730.243 762.761 732.74C764.811 735.241 763.746 739.712 760.383 742.709L760.376 742.678Z" fill="#DBCCB1"/>
<path opacity="0.83" d="M1189.02 337.012C1185.79 341.466 1181.04 343.42 1178.45 341.392C1175.86 339.364 1176.38 334.147 1179.61 329.706C1182.84 325.279 1187.55 323.304 1190.14 325.301C1192.74 327.302 1192.25 332.558 1189.02 337.012Z" fill="#DBCCB1"/>
<path opacity="0.43" d="M1151.34 387.57C1148 391.936 1143.17 393.725 1140.59 391.586C1138.02 389.447 1138.64 384.212 1141.98 379.873C1145.32 375.534 1150.12 373.724 1152.7 375.836C1155.29 377.948 1154.69 383.204 1151.34 387.57Z" fill="#DBCCB1"/>
<path opacity="0.59" d="M1112.39 437.094C1108.94 441.376 1104.04 443 1101.48 440.764C1098.91 438.527 1099.63 433.261 1103.08 429.024C1106.53 424.786 1111.4 423.124 1113.96 425.316C1116.54 427.525 1115.84 432.799 1112.38 437.077L1112.39 437.094Z" fill="#DBCCB1"/>
<path opacity="0.44" d="M1072.29 485.62C1068.74 489.818 1063.78 491.281 1061.23 488.951C1058.68 486.603 1059.5 481.334 1063.05 477.18C1066.59 473.009 1071.52 471.508 1074.08 473.828C1076.64 476.149 1075.85 481.44 1072.29 485.62Z" fill="#DBCCB1"/>
<path opacity="0.78" d="M1031.1 533.151C1027.46 537.251 1022.44 538.601 1019.91 536.129C1017.38 533.688 1018.28 528.397 1021.92 524.324C1025.56 520.251 1030.54 518.893 1033.09 521.312C1035.62 523.726 1034.75 529.038 1031.1 533.138L1031.1 533.151Z" fill="#DBCCB1"/>
<path opacity="0.81" d="M988.792 579.597C985.166 583.515 980.226 584.655 977.784 582.179C975.331 579.686 976.301 574.543 979.916 570.665C983.534 566.774 988.449 565.613 990.902 568.049C993.356 570.484 992.418 575.679 988.792 579.597Z" fill="#DBCCB1"/>
<path opacity="0.3" d="M945.589 625.093C941.996 628.833 937.146 629.81 934.775 627.296C932.405 624.782 933.418 619.765 937.007 616.038C940.604 612.342 945.429 611.344 947.796 613.814C950.163 616.284 949.182 621.353 945.589 625.093Z" fill="#DBCCB1"/>
<path opacity="0.95" d="M901.671 669.78C898.006 673.444 893.12 674.268 890.771 671.673C888.426 669.065 889.493 664.02 893.151 660.383C896.809 656.747 901.673 655.888 904.025 658.469C906.377 661.05 905.321 666.113 901.66 669.763L901.671 669.78Z" fill="#DBCCB1"/>
<path opacity="0.53" d="M856.888 713.416C853.27 716.905 848.485 717.584 846.222 714.955C843.956 712.339 845.055 707.403 848.666 703.941C852.277 700.478 857.047 699.796 859.321 702.385C861.59 704.987 860.506 709.927 856.891 713.403L856.888 713.416Z" fill="#DBCCB1"/>
<path opacity="0.69" d="M811.42 756.103C807.852 759.405 803.183 759.941 800.988 757.288C798.794 754.634 799.914 749.847 803.478 746.559C807.042 743.271 811.698 742.73 813.888 745.34C816.079 747.95 814.977 752.785 811.409 756.086L811.42 756.103Z" fill="#DBCCB1"/>
<path opacity="0.49" d="M1237.43 334.018C1234.08 338.87 1229.12 341.097 1226.39 339.018C1223.65 336.939 1224.16 331.341 1227.5 326.529C1230.85 321.704 1235.77 319.451 1238.51 321.504C1241.25 323.556 1240.77 329.161 1237.43 334.018Z" fill="#DBCCB1"/>
<path opacity="0.82" d="M1200.41 386.436C1196.84 391.319 1191.67 393.431 1188.88 391.178C1186.08 388.924 1186.72 383.189 1190.28 378.364C1193.85 373.538 1198.98 371.387 1201.77 373.597C1204.57 375.824 1203.97 381.566 1200.4 386.449L1200.41 386.436Z" fill="#DBCCB1"/>
<path opacity="0.54" d="M1161.8 437.594C1158.21 442.253 1153.08 444.148 1150.36 441.829C1147.65 439.51 1148.37 433.9 1151.97 429.285C1155.56 424.653 1160.66 422.751 1163.37 425.012C1166.09 427.273 1165.4 432.922 1161.8 437.581L1161.8 437.594Z" fill="#DBCCB1"/>
<path opacity="0.56" d="M1122.09 487.821C1118.39 492.379 1113.19 494.126 1110.49 491.696C1107.79 489.266 1108.62 483.656 1112.32 479.125C1116.02 474.594 1121.19 472.84 1123.89 475.212C1126.59 477.584 1125.8 483.25 1122.09 487.821Z" fill="#DBCCB1"/>
<path opacity="0.56" d="M1081.25 537.043C1077.44 541.516 1072.17 543.085 1069.5 540.561C1066.82 538.038 1067.74 532.406 1071.54 527.96C1075.34 523.513 1080.58 521.937 1083.27 524.42C1085.95 526.917 1085.07 532.587 1081.26 537.06L1081.25 537.043Z" fill="#DBCCB1"/>
<path opacity="0.31" d="M1039.36 585.295C1035.47 589.687 1030.14 591.082 1027.48 588.447C1024.82 585.813 1025.82 580.146 1029.71 575.811C1033.6 571.445 1038.9 570.03 1041.57 572.637C1044.24 575.245 1043.26 580.919 1039.37 585.312L1039.36 585.295Z" fill="#DBCCB1"/>
<path opacity="0.67" d="M996.411 632.465C992.53 636.645 987.288 637.877 984.703 635.19C982.117 632.504 983.188 626.986 987.051 622.815C990.925 618.661 996.142 617.409 998.735 620.068C1001.32 622.71 1000.28 628.267 996.411 632.465Z" fill="#DBCCB1"/>
<path opacity="0.31" d="M952.583 678.659C948.735 682.661 943.576 683.699 941.076 680.978C938.577 678.257 939.676 672.862 943.532 668.89C947.374 664.915 952.507 663.855 955.018 666.536C957.528 669.216 956.435 674.643 952.587 678.645L952.583 678.659Z" fill="#DBCCB1"/>
<path opacity="0.38" d="M907.971 723.929C904.158 727.74 899.093 728.602 896.676 725.86C894.259 723.118 895.391 717.831 899.207 714.065C903.012 710.281 908.056 709.384 910.48 712.099C912.904 714.814 911.783 720.119 907.971 723.929Z" fill="#DBCCB1"/>
<path opacity="0.52" d="M862.656 768.282C858.89 771.919 853.929 772.622 851.595 769.859C849.261 767.096 850.418 761.945 854.179 758.322C857.938 754.713 862.873 753.988 865.218 756.711C867.56 759.447 866.414 764.615 862.648 768.252L862.656 768.282Z" fill="#DBCCB1"/>
<path opacity="0.82" d="M1249.16 383.688C1245.47 388.97 1240.08 391.383 1237.15 389.078C1234.21 386.772 1234.83 380.658 1238.51 375.434C1242.19 370.18 1247.54 367.755 1250.47 370.003C1253.42 372.268 1252.83 378.39 1249.15 383.702L1249.16 383.688Z" fill="#DBCCB1"/>
<path opacity="0.73" d="M1211.2 436.726C1207.38 441.916 1201.89 444.13 1198.97 441.713C1196.05 439.297 1196.78 433.156 1200.6 428.024C1204.41 422.892 1209.85 420.636 1212.78 423.012C1215.71 425.388 1215.01 431.537 1211.2 436.726Z" fill="#DBCCB1"/>
<path opacity="0.72" d="M1171.83 488.598C1167.98 493.564 1162.54 495.546 1159.7 493.065C1156.85 490.583 1157.68 484.597 1161.52 479.659C1165.36 474.733 1170.76 472.713 1173.62 475.154C1176.46 477.609 1175.68 483.619 1171.83 488.585L1171.83 488.598Z" fill="#DBCCB1"/>
<path opacity="0.57" d="M1131.38 539.55C1127.43 544.414 1121.9 546.231 1119.08 543.625C1116.25 541.033 1117.18 535.016 1121.13 530.179C1125.08 525.355 1130.57 523.5 1133.4 526.065C1136.23 528.631 1135.34 534.672 1131.39 539.536L1131.38 539.55Z" fill="#DBCCB1"/>
<path opacity="0.64" d="M1089.72 589.386C1085.75 594.047 1080.3 595.653 1077.55 592.996C1074.81 590.338 1075.81 584.456 1079.76 579.835C1083.71 575.214 1089.14 573.586 1091.89 576.187C1094.63 578.8 1093.67 584.707 1089.71 589.368L1089.72 589.386Z" fill="#DBCCB1"/>
<path opacity="0.75" d="M1047.16 638.339C1043.12 642.906 1037.6 644.352 1034.87 641.583C1032.14 638.815 1033.22 632.911 1037.27 628.388C1041.32 623.865 1046.8 622.381 1049.54 625.122C1052.27 627.847 1051.22 633.789 1047.16 638.339Z" fill="#DBCCB1"/>
<path opacity="0.64" d="M1003.58 686.195C999.543 690.549 994.122 691.82 991.465 688.999C988.818 686.196 989.947 680.405 993.976 676.078C998.004 671.75 1003.41 670.476 1006.05 673.235C1008.71 676.011 1007.6 681.823 1003.57 686.178L1003.58 686.195Z" fill="#DBCCB1"/>
<path opacity="0.72" d="M959.181 733.13C955.177 737.307 949.843 738.37 947.282 735.532C944.711 732.678 945.89 727.044 949.883 722.908C953.879 718.758 959.188 717.674 961.77 720.488C964.338 723.299 963.195 728.971 959.192 733.148L959.181 733.13Z" fill="#DBCCB1"/>
<path opacity="0.52" d="M1297.67 379.412C1293.88 385.139 1288.28 387.857 1285.2 385.513C1282.13 383.17 1282.72 376.677 1286.51 371.007C1290.3 365.336 1295.84 362.559 1298.92 364.876C1302 367.162 1301.45 373.698 1297.66 379.425L1297.67 379.412Z" fill="#DBCCB1"/>
<path opacity="0.46" d="M1260.3 434.27C1256.37 439.888 1250.66 442.403 1247.6 439.935C1244.53 437.449 1245.26 430.964 1249.19 425.403C1253.12 419.842 1258.78 417.285 1261.85 419.713C1264.92 422.141 1264.25 428.686 1260.31 434.287L1260.3 434.27Z" fill="#DBCCB1"/>
<path opacity="0.41" d="M1221.56 488.024C1217.49 493.533 1211.69 495.866 1208.64 493.256C1205.58 490.66 1206.43 484.148 1210.49 478.679C1214.56 473.227 1220.31 470.852 1223.37 473.422C1226.43 475.991 1225.63 482.528 1221.56 488.024Z" fill="#DBCCB1"/>
<path opacity="0.34" d="M1181.43 540.61C1177.33 545.895 1171.57 547.966 1168.59 545.304C1165.62 542.629 1166.55 536.255 1170.64 531.01C1174.74 525.782 1180.45 523.656 1183.43 526.274C1186.41 528.908 1185.52 535.321 1181.42 540.593L1181.43 540.61Z" fill="#DBCCB1"/>
<path opacity="0.61" d="M1140.28 592.289C1136.07 597.473 1130.23 599.365 1127.27 596.579C1124.31 593.794 1125.35 587.388 1129.56 582.262C1133.77 577.136 1139.56 575.188 1142.53 577.934C1145.5 580.679 1144.5 587.123 1140.28 592.289Z" fill="#DBCCB1"/>
<path opacity="0.72" d="M1309.15 430.259C1305.1 436.32 1299.2 439.156 1296 436.65C1292.78 434.126 1293.48 427.231 1297.53 421.241C1301.56 415.234 1307.42 412.342 1310.64 414.808C1313.85 417.274 1313.2 424.198 1309.16 430.276L1309.15 430.259Z" fill="#DBCCB1"/>
</svg>
