<svg width="163" height="186" viewBox="0 0 163 186" fill="none" xmlns="http://www.w3.org/2000/svg">
<g opacity="0.2">
<path d="M51.1646 42.8851C49.663 41.2177 46.4265 41.1603 43.9473 43.6703C41.6971 45.9508 41.3448 48.9857 43.1635 50.8692C45.0658 52.841 48.364 52.1043 50.3896 50.062C52.6178 47.8167 52.8952 44.429 51.1646 42.8807" fill="#A2FF48"/>
<path d="M32.5953 61.6422C34.8015 63.8522 38.0204 64.2183 39.751 62.4186C41.3363 60.7688 41.4111 57.7737 38.9628 55.2858C36.5541 52.8376 33.4892 52.7935 31.7983 54.4609C30.0193 56.2121 30.3848 59.4234 32.5953 61.6422Z" fill="#A2FF48"/>
<path d="M38.839 66.8563C36.6108 64.6419 33.5548 64.3287 31.7978 66.1417C30.0936 67.8973 30.4415 71.0468 32.5948 73.1862C34.6204 75.2021 37.7821 75.8814 39.68 73.9538C41.6308 71.9732 40.8249 68.7134 38.839 66.8563Z" fill="#A2FF48"/>
<path d="M38.8479 90.0448C36.8795 87.9627 33.6077 87.4643 31.8419 89.2684C30.1114 91.0373 30.4196 94.1074 32.6169 96.3174C34.9068 98.62 37.976 98.8229 39.6934 97.0849C41.534 95.2235 40.8603 91.9151 38.8479 90.0448Z" fill="#A2FF48"/>
<path d="M38.8261 78.4526C36.6332 76.2691 33.6036 75.9736 31.829 77.716C30.4199 79.1011 30.0236 82.1359 32.6304 84.7561C34.9731 87.1117 38.0247 87.2484 39.698 85.4928C41.6356 83.4593 40.7505 80.27 38.8217 78.4526" fill="#A2FF48"/>
<path d="M31.8601 100.737C30.2705 102.206 30.2661 105.351 32.6352 107.773C34.4538 109.635 37.6287 110.57 39.6763 108.47C41.7152 106.379 40.6055 103.146 38.8529 101.456C36.6335 99.3214 33.6039 98.9729 31.8645 100.737" fill="#A2FF48"/>
<path d="M39.6586 120.054C41.2791 118.576 41.1822 115.307 38.8748 113.036C36.6686 110.865 33.661 110.53 31.8776 112.25C30.2351 113.838 30.2924 117.006 32.6658 119.344C35.1362 121.783 38.2583 121.62 39.6586 120.049" fill="#A2FF48"/>
<path d="M39.6667 50.7378C41.3796 48.9998 41.0186 45.8371 38.8608 43.6932C37.0598 41.9067 33.9025 40.8745 31.8461 42.961C30.0495 44.7828 30.4986 47.7824 32.6563 50.0232C34.7524 52.1979 37.9449 52.4846 39.6667 50.7378Z" fill="#A2FF48"/>
<path d="M44.0968 55.3432C41.9963 57.3724 41.5868 60.5616 43.291 62.3084C44.7573 63.8126 47.8265 63.9493 50.2309 61.5497C52.6087 59.1765 52.5559 56.1064 51.0279 54.5845C49.3061 52.873 46.2457 53.1994 44.0968 55.3476" fill="#A2FF48"/>
<path d="M38.813 124.716C37.1617 122.898 33.9251 121.892 31.9127 123.944C30.0809 125.81 30.7678 128.897 32.7186 130.834C34.8411 132.938 37.8839 133.282 39.5704 131.584C41.3142 129.832 40.8606 126.652 38.813 124.716Z" fill="#A2FF48"/>
<path d="M54.9606 43.1319C53.2917 44.6934 53.5955 47.7503 55.6608 49.85C57.7304 51.9541 60.7644 52.285 62.4421 50.6264C63.8821 49.2016 64.0626 46.2241 61.6495 43.82C59.4346 41.6189 56.4314 41.5174 54.9606 43.1275" fill="#A2FF48"/>
<path d="M50.7947 66.4021C49.2094 64.6729 46.127 65.2243 44.2555 67.1255C42.2431 69.1723 42.0273 72.1189 43.5245 73.6452C45.0525 75.1979 47.9368 75.0788 50.0725 72.9747C52.1201 70.9544 52.4151 68.0342 50.7947 66.4021Z" fill="#A2FF48"/>
<path d="M50.029 38.1437C51.8608 36.4058 52.4333 33.3665 50.7071 31.6638C49.2892 30.2699 46.5458 30.1817 44.3044 32.4137C42.2128 34.5002 42.0586 37.3497 43.6263 38.8936C45.3128 40.5522 48.316 39.9655 50.029 38.1437Z" fill="#A2FF48"/>
<path d="M50.0245 84.4686C51.9884 82.4969 52.3495 79.6164 50.7466 78.0416C49.0513 76.3786 46.3299 76.7492 44.3484 78.7254C41.922 81.1471 42.3272 83.9746 43.6218 85.2141C45.2423 86.758 48.0473 86.4581 50.0245 84.4686Z" fill="#A2FF48"/>
<path d="M50.7021 89.6163C49.337 88.1474 46.3999 88.218 44.3215 90.3662C42.3355 92.4218 42.0449 95.1214 43.6433 96.7623C45.2242 98.3856 48.1833 97.9224 50.0372 96.0257C51.9923 94.023 52.3006 91.2087 50.7021 89.6163Z" fill="#A2FF48"/>
<path d="M44.3566 101.792C42.309 103.755 42.0756 106.684 43.6036 108.206C45.1845 109.781 48.0424 109.468 50.0063 107.5C51.9747 105.529 52.3005 102.657 50.7417 101.069C49.1696 99.4766 46.3514 99.7942 44.3566 101.792Z" fill="#A2FF48"/>
<path d="M44.3303 113.349C42.3487 115.352 42.0404 118.161 43.6301 119.758C45.1757 121.315 48.082 120.971 50.0372 119C51.9835 117.037 52.2962 114.147 50.7197 112.581C49.2093 111.077 46.3162 111.267 44.3303 113.349Z" fill="#A2FF48"/>
<path d="M55.8762 38.1036C57.871 40.1107 60.6496 40.4283 62.2437 38.8226C63.8289 37.2258 63.5075 34.4115 61.5127 32.4221C59.5487 30.4636 56.7745 30.1548 55.1981 31.7163C53.5864 33.3176 53.8814 36.0922 55.8762 38.1036Z" fill="#A2FF48"/>
<path d="M66.7356 50.4073C68.2196 52.0306 71.2492 51.5542 73.0414 49.6927C74.9922 47.668 75.3312 44.8537 73.7416 43.2834C72.1695 41.7262 69.2896 42.0835 67.3389 44.0862C65.3397 46.1373 65.19 49.0355 66.7356 50.4073Z" fill="#A2FF48"/>
<path d="M73.0766 38.0471C74.9657 36.1238 75.2827 33.2786 73.7503 31.7744C72.2179 30.2703 69.5097 30.3938 67.4357 32.4846C65.366 34.5667 65.2471 37.2839 66.7619 38.819C68.3032 40.385 71.1346 40.0277 73.0766 38.0515" fill="#A2FF48"/>
<path d="M50.6185 124.271C49.0773 122.731 46.2987 123.044 44.3744 124.976C42.4501 126.913 42.155 129.674 43.7139 131.231C45.2859 132.797 47.9941 132.493 49.936 130.526C51.8735 128.563 52.173 125.823 50.6185 124.271Z" fill="#A2FF48"/>
<path d="M78.3478 43.398C76.767 44.9639 77.0576 47.6768 79.0083 49.6397C80.9371 51.5806 83.7157 51.8894 85.2525 50.3411C86.7585 48.8237 86.459 46.0314 84.5832 44.1302C82.65 42.1717 79.9111 41.8497 78.3478 43.398Z" fill="#A2FF48"/>
<path d="M79.0347 38.0552C80.6463 39.749 83.4514 40.5122 85.2128 38.7918C87.071 36.9789 86.2124 34.1293 84.5302 32.4663C82.6103 30.5695 79.7392 30.2475 78.2817 31.8399C76.6436 33.6308 77.2953 36.3569 79.0302 38.0552" fill="#A2FF48"/>
<path d="M32.362 135.925C30.7019 137.403 31.2259 140.345 32.9873 142.083C34.9381 144.007 37.5934 144.351 39.1434 142.824C40.7066 141.285 40.4336 138.471 38.5137 136.578C36.5982 134.69 33.7579 134.355 32.362 135.93" fill="#A2FF48"/>
<path d="M39.1255 38.6732C40.6491 37.1514 40.3541 34.4694 38.4562 32.5638C36.5627 30.6626 33.8986 30.3847 32.3618 31.8933C31.1816 33.0579 30.8161 35.6428 33.0223 37.9586C34.8409 39.8686 37.6239 40.173 39.1211 38.6732" fill="#A2FF48"/>
<path d="M95.9702 37.9494C97.7008 36.3172 98.2424 33.5603 96.6528 31.9194C95.2084 30.4284 92.4695 30.7813 90.6332 32.6428C88.9379 34.3587 88.405 37.0186 89.9727 38.6199C91.5359 40.2167 94.3013 39.7226 95.9746 37.9538" fill="#A2FF48"/>
<path d="M96.6041 43.5255C95.1157 42.061 92.5044 42.3565 90.6726 44.2048C89.0036 45.8899 88.3519 48.563 90.0385 50.226C91.7162 51.8846 94.4464 51.1435 96.0448 49.4629C97.8371 47.5837 98.0969 44.9988 96.5997 43.5255" fill="#A2FF48"/>
<path d="M26.8264 95.8011C28.6362 93.9793 28.918 91.3767 27.4649 89.9255C26.0249 88.4831 23.3961 88.783 21.5994 90.5916C19.8028 92.4001 19.521 95.0203 20.9697 96.4716C22.4141 97.9229 25.0121 97.6229 26.822 95.8011" fill="#A2FF48"/>
<path d="M27.4383 101.39C26.0424 99.8816 23.3519 100.27 21.5993 102.047C19.8511 103.821 19.5252 106.45 20.9916 107.919C22.3963 109.321 25.0384 109.074 26.8438 107.244C28.6272 105.435 28.9311 102.74 27.4383 101.39Z" fill="#A2FF48"/>
<path d="M27.4522 66.7845C26.0255 65.2141 23.2381 65.7523 21.6088 67.4329C19.9135 69.1797 19.4159 71.7646 20.9835 73.3129C22.6128 74.923 25.2065 74.2878 26.8401 72.638C28.7204 70.7412 28.879 68.0549 27.4522 66.7801" fill="#A2FF48"/>
<path d="M26.84 61.0292C28.575 59.2912 28.9669 56.6931 27.4521 55.1492C26.0342 53.7068 23.3656 54.0596 21.5734 55.855C19.9441 57.4871 19.4553 60.222 20.9834 61.7306C22.3396 63.0716 24.9817 62.9392 26.8356 61.0292" fill="#A2FF48"/>
<path d="M27.4694 78.365C26.0206 76.9137 23.4138 77.2005 21.6172 79.009C19.8205 80.8132 19.5299 83.4554 20.9654 84.8979C22.4054 86.3403 25.0166 86.0448 26.8265 84.2362C28.6407 82.4232 28.9225 79.8251 27.4694 78.3694" fill="#A2FF48"/>
<path d="M27.4388 112.96C26.1266 111.438 23.3435 111.813 21.5954 113.604C19.8031 115.439 19.6094 118.09 20.9965 119.427C22.4981 120.869 25.0257 120.596 26.8531 118.756C28.5969 117.001 28.9316 114.275 27.4388 112.96Z" fill="#A2FF48"/>
<path d="M55.4848 55.2679C54.2959 56.3398 54.0537 58.9424 56.1849 61.0774C57.9684 62.8639 60.5356 63.0668 61.9535 61.6023C63.323 60.1863 63.0324 57.5308 61.2622 55.8458C59.0648 53.7549 56.546 54.0328 55.4804 55.2679" fill="#A2FF48"/>
<path d="M26.7433 130.306C28.3902 128.749 28.9671 126.173 27.3994 124.589C25.8538 123.027 23.3262 123.592 21.6925 125.215C19.9575 126.94 19.6272 129.49 21.0452 130.95C22.3354 132.278 24.9335 132.207 26.7433 130.306Z" fill="#A2FF48"/>
<path d="M21.0889 49.9865C22.3483 51.4377 25.0432 51.0893 26.699 49.3954C28.4604 47.5912 28.7598 45.0901 27.3287 43.683C25.9284 42.3023 23.4624 42.6199 21.6922 44.3535C20.151 45.8621 19.5389 48.5837 21.0933 49.9865" fill="#A2FF48"/>
<path d="M44.6741 136.846C42.8731 138.575 42.7234 141.2 44.0709 142.492C45.4668 143.833 47.9636 143.569 49.6589 141.875C51.4115 140.128 51.6757 137.64 50.293 136.211C48.8442 134.711 46.1537 135.218 44.6697 136.846" fill="#A2FF48"/>
<path d="M26.474 141.656C28.1033 140.037 28.3587 137.778 27.0597 136.486C25.7915 135.22 23.5457 135.462 21.9648 137.033C20.362 138.621 20.0757 140.972 21.3792 142.216C22.8455 143.614 25.0737 143.08 26.474 141.656Z" fill="#A2FF48"/>
<path d="M102.624 37.5739C104.209 39.1531 106.459 39.4045 107.71 38.1297C108.921 36.8946 108.846 34.7331 107.168 33.0128C105.543 31.3498 103.254 31.1733 102.007 32.457C100.757 33.7406 101.039 35.9859 102.628 37.5739" fill="#A2FF48"/>
<path d="M102.628 49.1529C104.218 50.7409 106.433 50.9747 107.714 49.7087C108.943 48.4868 108.819 46.2592 107.168 44.5962C105.455 42.8671 103.209 42.7788 102.003 44.036C100.752 45.3373 101.03 47.609 102.628 49.1573" fill="#A2FF48"/>
<path d="M26.3904 37.4193C27.8347 35.9548 28.0725 33.7669 26.9232 32.5891C25.7739 31.4113 23.4797 31.6672 22.0397 33.1405C20.5998 34.6138 20.362 36.8061 21.5201 37.9751C22.7047 39.1705 24.9152 38.9191 26.3904 37.4193Z" fill="#A2FF48"/>
<path d="M67.5811 61.1168C68.7744 62.3078 70.9013 62.0872 72.3809 60.6139C73.6403 59.3611 74.27 57.1159 72.8917 55.7264C71.7732 54.6015 69.5406 54.8397 68.0919 56.3042C66.5771 57.8349 66.4582 60.0934 67.5811 61.1123" fill="#A2FF48"/>
<path d="M60.7468 67.8695C59.6635 66.7006 57.4354 65.9639 56.0483 67.4152C54.8197 68.7032 55.1279 70.7059 56.6119 72.1615C58.3117 73.8289 60.3109 73.7451 61.3853 72.6115C62.6491 71.2749 62.0502 69.0296 60.7512 67.8695" fill="#A2FF48"/>
<path d="M37.7735 148.854C36.3512 147.443 34.3168 147.205 33.1939 148.352C32.1546 149.415 32.1458 151.386 33.6915 152.957C35.1578 154.452 37.1746 154.607 38.3372 153.451C39.4689 152.326 39.2002 150.27 37.7735 148.854Z" fill="#A2FF48"/>
<path d="M79.2768 55.9248C78.176 57.0276 78.3917 59.0523 79.7612 60.4374C81.1571 61.8534 83.218 62.0784 84.3232 60.9403C85.4065 59.8199 85.1643 57.7775 83.7816 56.4145C82.3857 55.0382 80.3821 54.8221 79.2812 55.9248" fill="#A2FF48"/>
<path d="M72.7374 21.2178C71.7026 20.0223 69.5801 20.3444 68.2767 21.6721C66.8808 23.0969 66.6474 25.0157 67.7218 26.1803C68.5585 27.089 70.496 27.4551 72.2663 25.6995C73.7855 24.1864 73.8207 22.1838 72.7374 21.2178Z" fill="#A2FF48"/>
<path d="M61.1913 26.2067C62.3186 25.0818 62.1029 23.1542 60.7246 21.7206C59.3639 20.3002 57.2766 20.0928 56.189 21.2089C55.1674 22.2543 55.2995 24.2922 56.7174 25.7082C58.2982 27.283 60.3635 27.1683 61.1913 26.2067Z" fill="#A2FF48"/>
<path d="M79.3251 21.2088C78.026 22.3733 78.5941 24.5304 79.7566 25.6861C81.1437 27.0668 83.1253 27.3094 84.2438 26.211C85.3622 25.1082 85.1729 23.088 83.7946 21.7205C82.2402 20.1722 80.2234 20.1722 79.3251 21.2088Z" fill="#A2FF48"/>
<path d="M45.22 21.7024C43.6524 23.136 43.7316 25.2975 44.696 26.1973C45.8497 27.2781 47.8005 27.0707 49.1964 25.6724C50.4514 24.4197 50.7904 22.3817 49.6896 21.2216C48.6371 20.1144 46.4442 20.3217 45.22 21.7024Z" fill="#A2FF48"/>
<path d="M56.2641 79.1989C55.2029 80.2708 55.4186 82.2426 56.7617 83.5615C58.1268 84.8981 60.0027 85.1892 61.1124 84.0644C62.3321 82.8248 61.9006 80.9854 60.6764 79.7018C59.3598 78.3167 57.3474 78.1049 56.2641 79.1989Z" fill="#A2FF48"/>
<path d="M95.2305 25.6081C96.578 24.2539 96.7938 22.3351 95.7193 21.2632C94.6493 20.1957 92.7249 20.4163 91.3863 21.7617C90.0344 23.1159 89.8318 25.0038 90.9195 26.0934C92.016 27.1917 93.861 26.9844 95.2305 25.6081Z" fill="#A2FF48"/>
<path d="M61.0769 107.071C62.169 105.986 61.9884 104.102 60.6586 102.73C59.3464 101.376 57.4132 101.147 56.3256 102.21C55.2335 103.277 55.4184 105.179 56.7483 106.546C58.0649 107.9 60.0025 108.134 61.0769 107.067" fill="#A2FF48"/>
<path d="M60.6058 91.2224C59.2495 89.9035 57.2988 89.7138 56.2728 90.799C55.2336 91.8973 55.4757 93.8603 56.81 95.1616C58.1575 96.4761 60.1214 96.6746 61.1386 95.5806C62.2043 94.4337 61.9489 92.6163 60.6058 91.218" fill="#A2FF48"/>
<path d="M56.2946 113.785C55.229 114.866 55.4623 116.829 56.8098 118.143C58.1793 119.48 60.064 119.652 61.1385 118.536C62.1645 117.468 61.9355 115.528 60.6321 114.235C59.2758 112.89 57.3735 112.696 56.2946 113.79" fill="#A2FF48"/>
<path d="M95.7063 56.0659C94.6274 54.9808 92.7119 55.2013 91.3776 56.5644C90.083 57.8833 89.8805 59.8021 90.9241 60.852C91.9941 61.9327 93.9096 61.7033 95.2571 60.3359C96.5694 59.0081 96.7631 57.129 95.7019 56.0659" fill="#A2FF48"/>
<path d="M56.832 129.63C57.9065 130.843 59.9101 131.222 61.0153 130.159C62.125 129.096 61.918 127.199 60.553 125.845C59.2627 124.566 57.4001 124.349 56.3608 125.368C55.2996 126.405 55.511 128.306 56.8276 129.63" fill="#A2FF48"/>
<path d="M49.4782 148.58C48.4478 147.557 46.5499 147.764 45.2817 149.043C44.0091 150.327 43.8065 152.224 44.8281 153.256C45.885 154.323 47.7741 154.107 49.0775 152.766C50.3501 151.456 50.5262 149.617 49.4782 148.576" fill="#A2FF48"/>
<path d="M37.6107 21.8499C36.3029 20.5266 34.4975 20.3193 33.4494 21.3647C32.4058 22.4057 32.5952 24.2363 33.881 25.5508C35.1448 26.8433 37.0383 27.0639 38.0643 26.0361C39.0991 24.995 38.901 23.1512 37.6107 21.8499Z" fill="#A2FF48"/>
<path d="M22.1019 153.084C23.2071 154.098 24.9025 153.741 25.9901 152.59C27.1791 151.328 27.3332 149.722 26.3424 148.765C25.3384 147.79 23.7312 147.94 22.4629 149.259C21.2212 150.547 21.1903 152.113 22.1019 153.084Z" fill="#A2FF48"/>
<path d="M60.8169 141.434C61.7813 140.455 61.5831 138.871 60.3766 137.631C59.3286 136.56 57.6288 136.145 56.5808 137.221C55.568 138.262 55.8498 139.886 57.0255 141.041C58.3466 142.347 59.9274 142.347 60.8169 141.434Z" fill="#A2FF48"/>
<path d="M102.804 21.6723C101.902 22.5987 102.109 24.1779 103.232 25.3468C104.09 26.2423 105.847 26.8554 106.957 25.7129C107.833 24.8131 107.587 23.0839 106.468 22.012C105.319 20.9092 103.694 20.7548 102.804 21.6723Z" fill="#A2FF48"/>
<path d="M103.236 60.0667C104.377 61.2225 105.949 61.3989 106.887 60.5079C107.741 59.7006 107.807 58.0773 106.486 56.7805C105.398 55.713 103.936 55.3865 102.818 56.3879C101.889 57.2172 102.118 58.9375 103.232 60.0667" fill="#A2FF48"/>
<path d="M10.6874 56.4621C9.81991 57.331 10.0005 59.0073 11.0661 60.0527C12.1626 61.1246 13.7963 61.2966 14.6549 60.4277C15.5401 59.5366 15.3067 57.9133 14.241 56.8458C13.193 55.796 11.5329 55.5401 10.6874 56.4621Z" fill="#A2FF48"/>
<path d="M14.6642 71.9809C15.5537 71.1472 15.3336 69.4842 14.2459 68.4078C13.1714 67.3448 11.5554 67.1374 10.6791 68.0241C9.82919 68.8887 10.0141 70.5693 11.093 71.6324C12.1146 72.6381 13.8276 72.9381 14.6598 71.9809" fill="#A2FF48"/>
<path d="M14.2105 79.982C13.1845 78.8704 11.5244 78.7293 10.6569 79.6203C9.82025 80.4805 10.0316 82.2229 11.1149 83.233C12.2554 84.3005 13.7922 84.4549 14.6817 83.555C15.4523 82.7743 15.4215 81.0451 14.2105 79.982Z" fill="#A2FF48"/>
<path d="M14.2461 103.057C13.2068 101.91 11.5379 101.782 10.688 102.638C9.97908 103.353 9.75891 104.897 11.0844 106.229C12.3922 107.543 13.9378 107.349 14.66 106.626C15.5099 105.783 15.391 104.111 14.2461 103.057Z" fill="#A2FF48"/>
<path d="M14.2633 114.605C13.2417 113.472 11.5947 113.286 10.7052 114.151C9.83335 115.002 9.97866 116.687 11.0575 117.742C12.3037 118.964 13.8405 118.924 14.642 118.165C15.4082 117.437 15.4962 115.752 14.2633 114.601" fill="#A2FF48"/>
<path d="M14.206 91.5746C13.2505 90.4939 11.5023 90.3306 10.6656 91.2349C9.72328 92.2539 10.1064 93.8684 11.1148 94.8212C12.3081 95.9504 13.7965 96.0166 14.6772 95.1432C15.4302 94.3977 15.4522 92.6774 14.2104 91.5746" fill="#A2FF48"/>
<path d="M117.957 48.4088C119.04 47.3193 119.203 45.7798 118.331 44.9108C117.455 44.0418 115.931 44.2139 114.848 45.3078C113.756 46.4106 113.593 47.9236 114.473 48.8014C115.345 49.666 116.882 49.494 117.957 48.4088Z" fill="#A2FF48"/>
<path d="M10.727 125.863C9.84193 126.772 10.0269 128.245 11.1674 129.357C12.2506 130.411 13.739 130.57 14.6021 129.719C15.474 128.863 15.2934 127.297 14.2058 126.203C13.1225 125.113 11.5989 124.963 10.727 125.863Z" fill="#A2FF48"/>
<path d="M117.93 36.8548C119.022 35.774 119.212 34.2257 118.362 33.3523C117.503 32.4701 115.971 32.6201 114.879 33.6964C113.782 34.7815 113.593 36.321 114.452 37.1988C115.31 38.0811 116.847 37.9267 117.93 36.8548Z" fill="#A2FF48"/>
<path d="M14.2455 45.3564C13.2238 44.3154 11.665 44.1257 10.7975 44.9329C9.93884 45.7357 10.0974 47.2929 11.1454 48.3648C12.1934 49.4411 13.7126 49.6264 14.5625 48.7882C15.4212 47.9413 15.2759 46.4062 14.2455 45.3564Z" fill="#A2FF48"/>
<path d="M25.7127 25.108C26.6771 24.1773 26.9281 22.6819 26.0342 21.8306C25.0698 20.9131 23.6167 21.3101 22.6875 22.3114C21.6968 23.3745 21.5823 24.7728 22.4365 25.5756C23.282 26.3696 24.6823 26.1711 25.7127 25.108Z" fill="#A2FF48"/>
<path d="M11.2908 140.729C12.2508 141.699 13.5983 141.849 14.3909 141.069C15.2099 140.261 15.0778 139.004 14.0959 137.976C13.039 136.865 11.6739 136.852 10.9297 137.597C10.1679 138.36 10.3441 139.772 11.2908 140.729Z" fill="#A2FF48"/>
<path d="M71.8783 68.391C71.1385 67.6544 69.8219 67.8 68.9148 68.7219C68.0076 69.6438 67.8667 70.9583 68.6021 71.7038C69.3199 72.436 70.6453 72.2772 71.5701 71.3509C72.5036 70.4113 72.6357 69.1453 71.8783 68.391Z" fill="#A2FF48"/>
<path d="M11.0529 33.6351C10.3263 34.363 10.4848 35.7172 11.4007 36.6171C12.2814 37.4816 13.6025 37.6228 14.307 36.9258C15.0336 36.2068 14.8707 34.835 13.9592 33.9439C13.0653 33.0749 11.753 32.9338 11.0529 33.6351Z" fill="#A2FF48"/>
<path d="M57.1534 149.353C56.44 149.931 56.4928 151.223 57.4528 152.229C58.241 153.058 59.659 153.195 60.2798 152.494C61.0461 151.625 60.7026 150.429 59.9496 149.666C59.0821 148.784 57.7346 148.647 57.1578 149.353" fill="#A2FF48"/>
<path d="M35.7702 164.486C36.9415 164.482 37.7473 163.644 37.7253 162.444C37.7077 161.332 36.8446 160.481 35.7481 160.494C34.6341 160.507 33.7357 161.438 33.7622 162.563C33.7842 163.666 34.6473 164.491 35.7702 164.486Z" fill="#A2FF48"/>
<path d="M117.78 22.3167C117.146 21.6771 116.076 21.8006 115.288 22.6034C114.544 23.3666 114.416 24.4341 115.002 25.0604C115.601 25.7001 116.715 25.5942 117.507 24.8222C118.3 24.0503 118.419 22.9563 117.785 22.3167" fill="#A2FF48"/>
<path d="M117.503 59.5632C118.274 58.7912 118.415 57.6223 117.803 57.0224C117.19 56.4224 116.037 56.5724 115.271 57.3576C114.526 58.1207 114.399 59.2059 114.976 59.8278C115.557 60.4542 116.728 60.3263 117.499 59.5588" fill="#A2FF48"/>
<path d="M45.8713 163.851C46.4041 164.385 47.4697 164.27 48.1655 163.6C48.9273 162.863 49.0594 161.866 48.4737 161.253C47.9189 160.671 46.8356 160.768 46.1223 161.469C45.4441 162.126 45.3252 163.3 45.8713 163.851Z" fill="#A2FF48"/>
<path d="M13.6644 149.851C12.9334 149.141 11.969 149.048 11.3922 149.635C10.8153 150.222 10.9386 151.316 11.6652 152.004C12.3785 152.679 13.4046 152.776 13.9594 152.216C14.5451 151.624 14.4174 150.588 13.6644 149.856" fill="#A2FF48"/>
<path d="M82.7816 69.0397C82.0462 68.2854 81.1127 68.1796 80.5226 68.7839C79.9634 69.3573 80.0426 70.2881 80.7119 71.0027C81.3813 71.7129 82.4513 71.8628 83.0106 71.3247C83.6006 70.7557 83.5038 69.7808 82.7816 69.0441" fill="#A2FF48"/>
<path d="M58.6775 10.5395C57.8804 10.5527 57.2948 11.2894 57.3036 12.2642C57.3124 13.2038 57.9597 13.9669 58.7303 13.9448C59.4921 13.9228 60.1306 13.12 60.113 12.198C60.0954 11.2497 59.4701 10.5262 58.6731 10.5395" fill="#A2FF48"/>
<path d="M71.4255 11.0292C70.8618 10.4778 69.8886 10.5748 69.2369 11.2542C68.5896 11.9247 68.5015 12.9304 69.052 13.4641C69.6112 14.0067 70.5888 13.8964 71.2493 13.2171C71.9319 12.5157 72.0067 11.5982 71.4299 11.0336" fill="#A2FF48"/>
<path d="M47.14 10.5379C46.1095 10.5467 45.4226 11.2349 45.4358 12.2494C45.449 13.2022 46.224 13.9521 47.1928 13.9433C48.1219 13.9345 48.941 13.1052 48.9146 12.2009C48.8837 11.2128 48.1616 10.5291 47.1444 10.5423" fill="#A2FF48"/>
<path d="M80.6019 11.0237C80.0955 11.456 80.003 12.4441 80.8089 13.2028C81.4826 13.838 82.4118 13.9791 82.9446 13.4807C83.517 12.9513 83.4422 11.9676 82.7772 11.2795C82.0639 10.5384 81.192 10.437 80.5975 11.0193" fill="#A2FF48"/>
<path d="M71.6101 81.5671C71.5925 80.676 70.9584 79.9041 70.2406 79.8997C69.5096 79.8997 68.8315 80.7554 68.8535 81.6553C68.8755 82.5155 69.5493 83.3315 70.2362 83.3359C70.9716 83.3359 71.6277 82.4978 71.6101 81.5671Z" fill="#A2FF48"/>
<path d="M94.2525 13.2124C94.9439 12.5419 95.0584 11.6641 94.53 11.095C94.0015 10.5216 93.112 10.5701 92.4339 11.2097C91.7249 11.8802 91.584 12.833 92.1389 13.4064C92.6497 13.9314 93.6625 13.874 94.2525 13.2168" fill="#A2FF48"/>
<path d="M94.495 68.8587C93.9754 68.3293 93.0198 68.444 92.3769 69.1057C91.756 69.7453 91.646 70.6628 92.1259 71.1745C92.6279 71.7127 93.5879 71.6289 94.2396 70.9893C94.9001 70.3408 95.0146 69.388 94.495 68.8587Z" fill="#A2FF48"/>
<path d="M24.2285 160.865C23.4931 160.861 22.9383 161.531 22.9206 162.453C22.8986 163.388 23.4887 164.178 24.2153 164.178C24.9154 164.178 25.5011 163.454 25.5231 162.563C25.5451 161.584 24.9991 160.869 24.2285 160.865Z" fill="#A2FF48"/>
<path d="M71.5 104.632C71.4956 103.724 70.9099 102.996 70.2053 103.022C69.5316 103.044 68.9768 103.75 68.9591 104.61C68.9459 105.51 69.5184 106.265 70.223 106.273C70.9231 106.282 71.5 105.541 71.4956 104.632" fill="#A2FF48"/>
<path d="M71.5045 93.1986C71.5045 92.259 70.9717 91.5885 70.2275 91.6062C69.4965 91.6238 68.9461 92.334 68.9637 93.2383C68.9813 94.1073 69.5185 94.7645 70.2187 94.7866C70.9584 94.8086 71.5001 94.1381 71.5001 93.1986" fill="#A2FF48"/>
<path d="M37.0167 12.1932C37.0035 11.2846 36.4178 10.592 35.6957 10.6317C35.0219 10.667 34.4627 11.4081 34.4671 12.2418C34.4759 13.124 35.0704 13.8033 35.8102 13.7724C36.5588 13.7415 37.0255 13.124 37.0123 12.1932" fill="#A2FF48"/>
<path d="M70.2584 114.592C69.5274 114.579 68.9682 115.267 68.9682 116.18C68.9682 117.054 69.5759 117.826 70.2584 117.812C70.919 117.799 71.4826 117.084 71.5046 116.233C71.5266 115.302 71.0026 114.61 70.2584 114.592Z" fill="#A2FF48"/>
<path d="M13.5278 22.7793C12.9333 22.2103 12.0086 22.1486 11.5462 22.6426C11.0662 23.1543 11.1939 24.0145 11.8369 24.6276C12.4445 25.2099 13.4001 25.2893 13.8228 24.7996C14.25 24.3012 14.1091 23.3307 13.5322 22.7793" fill="#A2FF48"/>
<path d="M71.4785 127.803C71.4961 126.908 70.9721 126.224 70.2675 126.22C69.5674 126.215 68.9949 126.903 68.9905 127.75C68.9861 128.566 69.5145 129.246 70.1839 129.285C70.8928 129.325 71.4609 128.672 71.4785 127.803Z" fill="#A2FF48"/>
<path d="M103.808 69.0087C103.394 69.4587 103.522 70.2835 104.095 70.8438C104.698 71.4393 105.521 71.5054 105.957 70.9937C106.371 70.5085 106.23 69.7057 105.636 69.1631C105.059 68.6338 104.222 68.5632 103.808 69.0087Z" fill="#A2FF48"/>
<path d="M105.693 11.4075C105.125 10.8297 104.337 10.7371 103.879 11.1914C103.439 11.6281 103.514 12.4662 104.038 13.0264C104.57 13.5866 105.372 13.6704 105.847 13.2117C106.327 12.7485 106.266 11.9898 105.693 11.4075Z" fill="#A2FF48"/>
<path d="M70.2408 140.742C70.8705 140.742 71.3681 140.081 71.3461 139.273C71.3285 138.55 70.8661 137.981 70.2805 137.963C69.6288 137.946 69.1092 138.581 69.1312 139.37C69.1532 140.147 69.6332 140.742 70.2408 140.738" fill="#A2FF48"/>
<path d="M128.578 34.5563C128.072 34.027 127.31 33.9078 126.887 34.2872C126.469 34.6621 126.526 35.4297 127.02 35.9634C127.552 36.5457 128.327 36.6648 128.759 36.2413C129.164 35.8443 129.085 35.0856 128.578 34.5563Z" fill="#A2FF48"/>
<path d="M128.498 46.0928C127.952 45.5723 127.287 45.5237 126.856 45.9781C126.429 46.428 126.512 47.0809 127.067 47.6322C127.627 48.188 128.38 48.2542 128.785 47.7866C129.15 47.3588 129.022 46.5956 128.494 46.0972" fill="#A2FF48"/>
<path d="M25.2236 12.236C25.228 11.5082 24.8184 10.9877 24.2372 10.9744C23.6559 10.9612 23.2288 11.4729 23.22 12.1963C23.2112 12.9418 23.6031 13.4403 24.2063 13.4491C24.8228 13.4579 25.2192 12.9903 25.2236 12.2404" fill="#A2FF48"/>
<path d="M59.6722 162.463C59.6546 161.845 59.1922 161.289 58.6858 161.289C58.1618 161.289 57.717 161.911 57.7479 162.599C57.7787 163.283 58.175 163.711 58.7562 163.68C59.3023 163.654 59.6854 163.142 59.6678 162.463" fill="#A2FF48"/>
<path d="M0.00451425 93.212C0.0133212 93.8251 0.537339 94.3588 1.13181 94.3633C1.77912 94.3677 2.29874 93.8075 2.26351 93.1326C2.23268 92.515 1.68225 91.9857 1.10099 92.021C0.497708 92.0562 -0.00869381 92.6032 0.000113173 93.2075" fill="#A2FF48"/>
<path d="M2.26366 81.5451C2.23284 80.9187 1.71763 80.4467 1.08793 80.4732C0.467034 80.4997 -0.0129442 81.0158 0.000266243 81.6421C0.0134767 82.2244 0.581526 82.7934 1.14077 82.789C1.77487 82.789 2.29449 82.2112 2.25926 81.5407" fill="#A2FF48"/>
<path d="M2.26846 104.62C2.25525 103.971 1.76646 103.499 1.11475 103.508C0.471836 103.521 -0.00374281 104.02 0.00506418 104.664C0.0182747 105.308 0.515871 105.784 1.15878 105.775C1.80169 105.762 2.27727 105.264 2.26846 104.62Z" fill="#A2FF48"/>
<path d="M2.2683 116.194C2.28151 115.55 1.80153 115.061 1.15862 115.052C0.511304 115.043 0.00490235 115.533 0.00930584 116.159C0.00930584 116.803 0.49369 117.302 1.12339 117.31C1.7663 117.319 2.25949 116.843 2.2683 116.199" fill="#A2FF48"/>
<path d="M1.11888 71.1561C1.7794 71.1649 2.25498 70.7106 2.26379 70.0489C2.277 69.3961 1.80142 68.8976 1.15851 68.8932C0.515601 68.8932 0.0180053 69.3652 0.00479486 70.0092C-0.0128191 70.6444 0.475968 71.1429 1.11888 71.1517" fill="#A2FF48"/>
<path d="M1.1896 59.5776C1.8237 59.56 2.29487 59.0439 2.26845 58.3955C2.24203 57.7514 1.74003 57.2927 1.09272 57.3191C0.458618 57.3412 -0.0213628 57.8573 0.00946167 58.4925C0.0402861 59.1277 0.551092 59.5953 1.194 59.5776" fill="#A2FF48"/>
<path d="M1.10182 128.88C1.73152 128.902 2.24672 128.417 2.26874 127.791C2.29076 127.151 1.81078 126.639 1.18108 126.626C0.542575 126.613 0.0229615 127.089 0.00975107 127.711C-0.0078629 128.351 0.467716 128.858 1.10182 128.88Z" fill="#A2FF48"/>
<path d="M1.14973 45.8051C0.55085 45.8051 0.0576567 46.2771 0.0532532 46.8505C0.0532532 47.4328 0.524427 47.8915 1.13651 47.9004C1.77502 47.9048 2.21097 47.4901 2.21097 46.8681C2.21097 46.2726 1.7442 45.8051 1.14973 45.8051Z" fill="#A2FF48"/>
<path d="M71.0638 150.825C71.0286 150.208 70.6411 149.811 70.1435 149.877C69.7031 149.934 69.3861 150.406 69.4037 150.98C69.4257 151.619 69.7648 151.99 70.2976 151.955C70.804 151.924 71.0991 151.492 71.0638 150.825Z" fill="#A2FF48"/>
<path d="M11.8858 162.489C11.8858 163.062 12.2249 163.495 12.6873 163.49C13.1188 163.49 13.5019 162.996 13.4843 162.467C13.4711 161.99 13.088 161.514 12.7049 161.496C12.2866 161.479 11.8858 161.96 11.8858 162.489Z" fill="#A2FF48"/>
<path d="M117.094 69.3222C116.75 69.009 116.208 69.0928 115.821 69.5251C115.478 69.9045 115.42 70.4779 115.689 70.7602C115.971 71.0602 116.605 70.9764 116.988 70.5926C117.38 70.2 117.428 69.6222 117.098 69.3178" fill="#A2FF48"/>
<path d="M115.852 11.6409C115.416 12.0644 115.359 12.5629 115.702 12.9113C116.033 13.2466 116.57 13.1804 116.975 12.7614C117.336 12.3864 117.406 11.8394 117.129 11.5307C116.825 11.191 116.266 11.2395 115.852 11.6409Z" fill="#A2FF48"/>
<path d="M128.526 59.0997C128.851 58.7512 128.772 58.2395 128.323 57.8293C127.953 57.4852 127.367 57.419 127.094 57.6881C126.817 57.9616 126.896 58.6542 127.244 59.0026C127.618 59.3776 128.213 59.4217 128.521 59.0953" fill="#A2FF48"/>
<path d="M128.358 23.1541C127.953 22.7306 127.424 22.66 127.09 22.9909C126.777 23.2996 126.843 23.904 127.235 24.2789C127.565 24.5965 128.195 24.6803 128.481 24.4377C128.798 24.1686 128.737 23.5511 128.358 23.1541Z" fill="#A2FF48"/>
<path d="M1.12754 138.36C0.541874 138.369 0.141157 138.806 0.171981 139.406C0.198402 139.939 0.638749 140.345 1.16717 140.328C1.66036 140.31 2.13594 139.847 2.15355 139.362C2.17557 138.819 1.69119 138.351 1.12754 138.36Z" fill="#A2FF48"/>
<path d="M1.09682 34.3986C0.586017 34.4163 0.216125 34.7956 0.220528 35.2985C0.220528 35.819 0.665281 36.2028 1.22452 36.1587C1.74414 36.119 2.0744 35.7396 2.03917 35.2147C2.00394 34.6942 1.63845 34.381 1.09682 34.3986Z" fill="#A2FF48"/>
<path d="M13.246 12.2449C13.2548 11.8347 13.0391 11.5171 12.722 11.4906C12.3918 11.4642 12.0835 11.8126 12.0791 12.2141C12.0747 12.6022 12.3918 12.9992 12.7 12.986C12.9994 12.9728 13.2416 12.6463 13.2504 12.2405" fill="#A2FF48"/>
<path d="M1.84991 150.944C1.86312 150.543 1.57249 150.203 1.19819 150.177C0.80188 150.15 0.414375 150.53 0.423182 150.931C0.431989 151.288 0.784269 151.637 1.14976 151.65C1.51965 151.663 1.84111 151.341 1.85432 150.94" fill="#A2FF48"/>
<path d="M82.368 81.616C82.368 81.2543 82.095 80.8838 81.8131 80.8617C81.5005 80.8441 81.2054 81.2323 81.2187 81.6469C81.2319 82.0616 81.4653 82.335 81.7999 82.3218C82.117 82.3086 82.368 81.9998 82.368 81.616Z" fill="#A2FF48"/>
<path d="M36.4966 174.104C36.501 173.729 36.1532 173.38 35.7745 173.38C35.3737 173.38 35.0567 173.693 35.0567 174.095C35.0567 174.509 35.3517 174.809 35.7613 174.818C36.14 174.827 36.4878 174.487 36.4922 174.108" fill="#A2FF48"/>
<path d="M70.7206 162.489C70.7074 162.158 70.4917 161.876 70.2451 161.871C69.9808 161.867 69.7122 162.228 69.7386 162.555C69.7651 162.868 69.9941 163.106 70.2671 163.097C70.5445 163.093 70.7338 162.837 70.7206 162.489Z" fill="#A2FF48"/>
<path d="M1.13195 23.1007C0.784074 23.1007 0.546285 23.3389 0.550689 23.6962C0.550689 24.0359 0.801686 24.3094 1.12314 24.3182C1.4534 24.327 1.80128 23.9785 1.78366 23.6565C1.77045 23.361 1.46661 23.1007 1.13635 23.1007" fill="#A2FF48"/>
<path d="M24.2021 174.681C24.5323 174.69 24.8053 174.452 24.8274 174.134C24.8494 173.799 24.6292 173.557 24.2813 173.526C23.8894 173.495 23.6032 173.737 23.6076 174.104C23.6076 174.417 23.8718 174.673 24.2021 174.681Z" fill="#A2FF48"/>
<path d="M47.7915 174.06C47.7694 173.742 47.492 173.517 47.1397 173.526C46.7786 173.539 46.5585 173.773 46.5805 174.126C46.5981 174.466 46.8711 174.704 47.2058 174.673C47.536 174.642 47.8135 174.351 47.7915 174.056" fill="#A2FF48"/>
<path d="M128.208 12.3834C128.208 11.9687 127.992 11.7085 127.776 11.7394C127.547 11.7702 127.428 11.9511 127.42 12.2334C127.411 12.5157 127.649 12.8289 127.838 12.7407C127.996 12.6701 128.12 12.4716 128.208 12.3878" fill="#A2FF48"/>
<path d="M93.8256 81.633C93.7904 81.3419 93.6231 81.1875 93.3324 81.1699C93.0594 81.1566 92.8084 81.3639 92.8304 81.6066C92.8568 81.8889 93.0154 82.0697 93.3104 82.0741C93.601 82.0785 93.7684 81.9153 93.8212 81.6286" fill="#A2FF48"/>
<path d="M1.54591 0.463098C1.51069 0.171964 1.34335 0.0175661 1.05272 -7.83205e-05C0.779707 -0.0133117 0.528709 0.19402 0.550726 0.436632C0.577147 0.718944 0.735671 0.899799 1.03071 0.90421C1.32134 0.908621 1.48867 0.745405 1.54151 0.458682" fill="#A2FF48"/>
<path d="M13.0744 0.463098C13.0392 0.171964 12.8718 0.0175661 12.5812 -7.83205e-05C12.3082 -0.0133117 12.0572 0.19402 12.0792 0.436632C12.1056 0.718944 12.2641 0.899799 12.5592 0.90421C12.8498 0.908621 13.0171 0.745405 13.07 0.458682" fill="#A2FF48"/>
<path d="M24.6028 0.463098C24.5676 0.171964 24.4003 0.0175661 24.1096 -7.83205e-05C23.8366 -0.0133117 23.5856 0.19402 23.6076 0.436632C23.6341 0.718944 23.7926 0.899799 24.0876 0.90421C24.3783 0.908621 24.5456 0.745405 24.5984 0.458682" fill="#A2FF48"/>
<path d="M36.1356 0.463098C36.1004 0.171964 35.9331 0.0175661 35.6424 -7.83205e-05C35.3694 -0.0133117 35.1184 0.19402 35.1404 0.436632C35.1669 0.718944 35.3254 0.899799 35.6204 0.90421C35.9111 0.908621 36.0784 0.745405 36.1312 0.458682" fill="#A2FF48"/>
<path d="M47.664 0.463098C47.6288 0.171964 47.4614 0.0175661 47.1752 -7.83205e-05C46.9022 -0.0133117 46.6512 0.19402 46.6732 0.436632C46.6996 0.718944 46.8582 0.899799 47.1532 0.90421C47.4482 0.908621 47.6112 0.745405 47.664 0.458682" fill="#A2FF48"/>
<path d="M59.1925 0.463098C59.1573 0.171964 58.9899 0.0175661 58.7037 -7.83205e-05C58.4307 -0.0133117 58.1797 0.19402 58.2017 0.436632C58.2281 0.718944 58.3866 0.899799 58.6817 0.90421C58.9767 0.908621 59.1396 0.745405 59.1925 0.458682" fill="#A2FF48"/>
<path d="M70.7246 0.463098C70.6894 0.171964 70.5221 0.0175661 70.2359 -7.83205e-05C69.9628 -0.0133117 69.7118 0.19402 69.7339 0.436632C69.7603 0.718944 69.9188 0.899799 70.2138 0.90421C70.5089 0.908621 70.6718 0.745405 70.7246 0.458682" fill="#A2FF48"/>
<path d="M82.2531 0.463098C82.2179 0.171964 82.0506 0.0175661 81.7643 -7.83205e-05C81.4913 -0.0133117 81.2403 0.19402 81.2623 0.436632C81.2888 0.718944 81.4473 0.899799 81.7423 0.90421C82.0373 0.908621 82.2003 0.745405 82.2531 0.458682" fill="#A2FF48"/>
<path d="M93.7816 0.463098C93.7463 0.171964 93.579 0.0175661 93.2928 -7.83205e-05C93.0198 -0.0133117 92.7688 0.19402 92.7908 0.436632C92.8172 0.718944 92.9757 0.899799 93.2708 0.90421C93.5614 0.908621 93.7287 0.745405 93.7816 0.458682" fill="#A2FF48"/>
<path d="M105.314 0.463098C105.279 0.171964 105.112 0.0175661 104.826 -7.83205e-05C104.553 -0.0133117 104.302 0.19402 104.324 0.436632C104.35 0.718944 104.508 0.899799 104.804 0.90421C105.094 0.908621 105.261 0.745405 105.314 0.458682" fill="#A2FF48"/>
<path d="M116.843 0.463098C116.808 0.171964 116.64 0.0175661 116.354 -7.83205e-05C116.081 -0.0133117 115.83 0.19402 115.852 0.436632C115.878 0.718944 116.037 0.899799 116.332 0.90421C116.623 0.908621 116.79 0.745405 116.843 0.458682" fill="#A2FF48"/>
<path d="M128.371 0.463098C128.336 0.171964 128.169 0.0175661 127.882 -7.83205e-05C127.609 -0.0133117 127.358 0.19402 127.38 0.436632C127.407 0.718944 127.565 0.899799 127.86 0.90421C128.151 0.908621 128.318 0.745405 128.371 0.458682" fill="#A2FF48"/>
<path d="M139.904 0.463098C139.868 0.171964 139.701 0.0175661 139.41 -7.83205e-05C139.137 -0.0133117 138.886 0.19402 138.908 0.436632C138.935 0.718944 139.093 0.899799 139.388 0.90421C139.683 0.908621 139.846 0.745405 139.899 0.458682" fill="#A2FF48"/>
<path d="M139.904 12.0393C139.868 11.7481 139.701 11.5938 139.41 11.5761C139.137 11.5629 138.886 11.7702 138.908 12.0128C138.935 12.2951 139.093 12.476 139.388 12.4804C139.683 12.4848 139.846 12.3216 139.899 12.0393" fill="#A2FF48"/>
<path d="M139.904 23.6096C139.868 23.3184 139.701 23.1641 139.41 23.1464C139.137 23.1332 138.886 23.3405 138.908 23.5831C138.935 23.8654 139.093 24.0463 139.388 24.0507C139.683 24.0551 139.846 23.8919 139.899 23.6052" fill="#A2FF48"/>
<path d="M139.904 35.1838C139.868 34.8927 139.701 34.7383 139.41 34.7206C139.137 34.7074 138.886 34.9147 138.908 35.1573C138.935 35.4396 139.093 35.6205 139.388 35.6249C139.683 35.6293 139.846 35.4661 139.899 35.1794" fill="#A2FF48"/>
<path d="M139.904 46.758C139.868 46.4669 139.701 46.3125 139.41 46.2949C139.137 46.2816 138.886 46.4889 138.908 46.7316C138.935 47.0139 139.093 47.1947 139.388 47.1991C139.683 47.2035 139.846 47.0403 139.899 46.758" fill="#A2FF48"/>
<path d="M139.904 58.3342C139.868 58.0431 139.701 57.8887 139.41 57.871C139.137 57.8578 138.886 58.0651 138.908 58.3077C138.935 58.59 139.093 58.7709 139.388 58.7753C139.683 58.7797 139.846 58.6165 139.899 58.3298" fill="#A2FF48"/>
<path d="M139.904 69.9084C139.868 69.6173 139.701 69.4629 139.41 69.4452C139.137 69.432 138.886 69.6393 138.908 69.8819C138.935 70.1643 139.093 70.3451 139.388 70.3495C139.683 70.3539 139.846 70.1907 139.899 69.904" fill="#A2FF48"/>
<path d="M139.904 81.4826C139.868 81.1915 139.701 81.0371 139.41 81.0195C139.137 81.0062 138.886 81.2136 138.908 81.4562C138.935 81.7385 139.093 81.9193 139.388 81.9237C139.683 81.9282 139.846 81.7649 139.899 81.4826" fill="#A2FF48"/>
<path d="M139.904 93.0568C139.868 92.7657 139.701 92.6113 139.41 92.5937C139.137 92.5805 138.886 92.7878 138.908 93.0304C138.935 93.3127 139.093 93.4935 139.388 93.498C139.683 93.5024 139.846 93.3392 139.899 93.0524" fill="#A2FF48"/>
<path d="M139.904 104.627C139.868 104.336 139.701 104.182 139.41 104.164C139.137 104.151 138.886 104.358 138.908 104.601C138.935 104.883 139.093 105.064 139.388 105.068C139.683 105.073 139.846 104.909 139.899 104.623" fill="#A2FF48"/>
<path d="M139.904 116.203C139.868 115.912 139.701 115.758 139.41 115.74C139.137 115.727 138.886 115.934 138.908 116.177C138.935 116.459 139.093 116.64 139.388 116.644C139.683 116.649 139.846 116.486 139.899 116.199" fill="#A2FF48"/>
<path d="M139.904 127.778C139.868 127.486 139.701 127.332 139.41 127.314C139.137 127.301 138.886 127.508 138.908 127.751C138.935 128.033 139.093 128.214 139.388 128.219C139.683 128.223 139.846 128.06 139.899 127.773" fill="#A2FF48"/>
<path d="M139.904 139.352C139.868 139.061 139.701 138.906 139.41 138.889C139.137 138.875 138.886 139.083 138.908 139.325C138.935 139.608 139.093 139.788 139.388 139.793C139.683 139.797 139.846 139.634 139.899 139.347" fill="#A2FF48"/>
<path d="M139.904 150.928C139.868 150.637 139.701 150.482 139.41 150.465C139.137 150.452 138.886 150.659 138.908 150.901C138.935 151.184 139.093 151.365 139.388 151.369C139.683 151.373 139.846 151.21 139.899 150.924" fill="#A2FF48"/>
<path d="M139.904 162.502C139.868 162.211 139.701 162.057 139.41 162.039C139.137 162.026 138.886 162.233 138.908 162.476C138.935 162.758 139.093 162.939 139.388 162.943C139.683 162.948 139.846 162.784 139.899 162.498" fill="#A2FF48"/>
<path d="M139.904 174.072C139.868 173.781 139.701 173.627 139.41 173.609C139.137 173.596 138.886 173.803 138.908 174.046C138.935 174.328 139.093 174.509 139.388 174.514C139.683 174.518 139.846 174.355 139.899 174.068" fill="#A2FF48"/>
<path d="M116.843 81.4826C116.808 81.1915 116.64 81.0371 116.354 81.0195C116.081 81.0062 115.83 81.2136 115.852 81.4562C115.878 81.7385 116.037 81.9193 116.332 81.9237C116.623 81.9282 116.79 81.7649 116.843 81.4826Z" fill="#A2FF48"/>
<path d="M116.843 93.0568C116.808 92.7657 116.64 92.6113 116.354 92.5937C116.081 92.5805 115.83 92.7878 115.852 93.0304C115.878 93.3127 116.037 93.4935 116.332 93.498C116.623 93.5024 116.79 93.3392 116.843 93.0524" fill="#A2FF48"/>
<path d="M116.843 104.627C116.808 104.336 116.64 104.182 116.354 104.164C116.081 104.151 115.83 104.358 115.852 104.601C115.878 104.883 116.037 105.064 116.332 105.068C116.623 105.073 116.79 104.909 116.843 104.623" fill="#A2FF48"/>
<path d="M116.843 116.203C116.808 115.912 116.64 115.758 116.354 115.74C116.081 115.727 115.83 115.934 115.852 116.177C115.878 116.459 116.037 116.64 116.332 116.644C116.623 116.649 116.79 116.486 116.843 116.199" fill="#A2FF48"/>
<path d="M116.843 127.778C116.808 127.486 116.64 127.332 116.354 127.314C116.081 127.301 115.83 127.508 115.852 127.751C115.878 128.033 116.037 128.214 116.332 128.219C116.623 128.223 116.79 128.06 116.843 127.773" fill="#A2FF48"/>
<path d="M116.843 139.352C116.808 139.061 116.64 138.906 116.354 138.889C116.081 138.875 115.83 139.083 115.852 139.325C115.878 139.608 116.037 139.788 116.332 139.793C116.623 139.797 116.79 139.634 116.843 139.347" fill="#A2FF48"/>
<path d="M116.843 150.928C116.808 150.637 116.64 150.482 116.354 150.465C116.081 150.452 115.83 150.659 115.852 150.901C115.878 151.184 116.037 151.365 116.332 151.369C116.623 151.373 116.79 151.21 116.843 150.924" fill="#A2FF48"/>
<path d="M116.843 162.502C116.808 162.211 116.64 162.057 116.354 162.039C116.081 162.026 115.83 162.233 115.852 162.476C115.878 162.758 116.037 162.939 116.332 162.943C116.623 162.948 116.79 162.784 116.843 162.498" fill="#A2FF48"/>
<path d="M116.843 174.072C116.808 173.781 116.64 173.627 116.354 173.609C116.081 173.596 115.83 173.803 115.852 174.046C115.878 174.328 116.037 174.509 116.332 174.514C116.623 174.518 116.79 174.355 116.843 174.068" fill="#A2FF48"/>
<path d="M105.314 81.4826C105.279 81.1915 105.112 81.0371 104.826 81.0195C104.553 81.0062 104.302 81.2136 104.324 81.4562C104.35 81.7385 104.508 81.9193 104.804 81.9237C105.094 81.9282 105.261 81.7649 105.314 81.4826Z" fill="#A2FF48"/>
<path d="M105.314 93.0568C105.279 92.7657 105.112 92.6113 104.826 92.5937C104.553 92.5805 104.302 92.7878 104.324 93.0304C104.35 93.3127 104.508 93.4935 104.804 93.498C105.094 93.5024 105.261 93.3392 105.314 93.0524" fill="#A2FF48"/>
<path d="M105.314 104.627C105.279 104.336 105.112 104.182 104.826 104.164C104.553 104.151 104.302 104.358 104.324 104.601C104.35 104.883 104.508 105.064 104.804 105.068C105.094 105.073 105.261 104.909 105.314 104.623" fill="#A2FF48"/>
<path d="M105.314 116.203C105.279 115.912 105.112 115.758 104.826 115.74C104.553 115.727 104.302 115.934 104.324 116.177C104.35 116.459 104.508 116.64 104.804 116.644C105.094 116.649 105.261 116.486 105.314 116.199" fill="#A2FF48"/>
<path d="M105.314 127.778C105.279 127.486 105.112 127.332 104.826 127.314C104.553 127.301 104.302 127.508 104.324 127.751C104.35 128.033 104.508 128.214 104.804 128.219C105.094 128.223 105.261 128.06 105.314 127.773" fill="#A2FF48"/>
<path d="M105.314 139.352C105.279 139.061 105.112 138.906 104.826 138.889C104.553 138.875 104.302 139.083 104.324 139.325C104.35 139.608 104.508 139.788 104.804 139.793C105.094 139.797 105.261 139.634 105.314 139.347" fill="#A2FF48"/>
<path d="M105.314 150.928C105.279 150.637 105.112 150.482 104.826 150.465C104.553 150.452 104.302 150.659 104.324 150.901C104.35 151.184 104.508 151.365 104.804 151.369C105.094 151.373 105.261 151.21 105.314 150.924" fill="#A2FF48"/>
<path d="M105.314 162.502C105.279 162.211 105.112 162.057 104.826 162.039C104.553 162.026 104.302 162.233 104.324 162.476C104.35 162.758 104.508 162.939 104.804 162.943C105.094 162.948 105.261 162.784 105.314 162.498" fill="#A2FF48"/>
<path d="M105.314 174.072C105.279 173.781 105.112 173.627 104.826 173.609C104.553 173.596 104.302 173.803 104.324 174.046C104.35 174.328 104.508 174.509 104.804 174.514C105.094 174.518 105.261 174.355 105.314 174.068" fill="#A2FF48"/>
<path d="M93.7816 93.0568C93.7463 92.7657 93.579 92.6113 93.2928 92.5937C93.0198 92.5805 92.7688 92.7878 92.7908 93.0304C92.8172 93.3127 92.9757 93.4935 93.2708 93.498C93.5614 93.5024 93.7287 93.3392 93.7816 93.0524" fill="#A2FF48"/>
<path d="M93.7816 104.627C93.7463 104.336 93.579 104.182 93.2928 104.164C93.0198 104.151 92.7688 104.358 92.7908 104.601C92.8172 104.883 92.9757 105.064 93.2708 105.068C93.5614 105.073 93.7287 104.909 93.7816 104.623" fill="#A2FF48"/>
<path d="M93.7816 116.203C93.7463 115.912 93.579 115.758 93.2928 115.74C93.0198 115.727 92.7688 115.934 92.7908 116.177C92.8172 116.459 92.9757 116.64 93.2708 116.644C93.5614 116.649 93.7287 116.486 93.7816 116.199" fill="#A2FF48"/>
<path d="M93.7816 127.778C93.7463 127.486 93.579 127.332 93.2928 127.314C93.0198 127.301 92.7688 127.508 92.7908 127.751C92.8172 128.033 92.9757 128.214 93.2708 128.219C93.5614 128.223 93.7287 128.06 93.7816 127.773" fill="#A2FF48"/>
<path d="M93.7816 139.352C93.7463 139.061 93.579 138.906 93.2928 138.889C93.0198 138.875 92.7688 139.083 92.7908 139.325C92.8172 139.608 92.9757 139.788 93.2708 139.793C93.5614 139.797 93.7287 139.634 93.7816 139.347" fill="#A2FF48"/>
<path d="M93.7816 150.928C93.7463 150.637 93.579 150.482 93.2928 150.465C93.0198 150.452 92.7688 150.659 92.7908 150.901C92.8172 151.184 92.9757 151.365 93.2708 151.369C93.5614 151.373 93.7287 151.21 93.7816 150.924" fill="#A2FF48"/>
<path d="M93.7816 162.502C93.7463 162.211 93.579 162.057 93.2928 162.039C93.0198 162.026 92.7688 162.233 92.7908 162.476C92.8172 162.758 92.9757 162.939 93.2708 162.943C93.5614 162.948 93.7287 162.784 93.7816 162.498" fill="#A2FF48"/>
<path d="M93.7816 174.072C93.7463 173.781 93.579 173.627 93.2928 173.609C93.0198 173.596 92.7688 173.803 92.7908 174.046C92.8172 174.328 92.9757 174.509 93.2708 174.514C93.5614 174.518 93.7287 174.355 93.7816 174.068" fill="#A2FF48"/>
<path d="M82.2531 93.0568C82.2179 92.7657 82.0506 92.6113 81.7643 92.5937C81.4913 92.5805 81.2403 92.7878 81.2623 93.0304C81.2888 93.3127 81.4473 93.4935 81.7423 93.498C82.0373 93.5024 82.2003 93.3392 82.2531 93.0524" fill="#A2FF48"/>
<path d="M82.2531 104.627C82.2179 104.336 82.0506 104.182 81.7643 104.164C81.4913 104.151 81.2403 104.358 81.2623 104.601C81.2888 104.883 81.4473 105.064 81.7423 105.068C82.0373 105.073 82.2003 104.909 82.2531 104.623" fill="#A2FF48"/>
<path d="M82.2531 116.203C82.2179 115.912 82.0506 115.758 81.7643 115.74C81.4913 115.727 81.2403 115.934 81.2623 116.177C81.2888 116.459 81.4473 116.64 81.7423 116.644C82.0373 116.649 82.2003 116.486 82.2531 116.199" fill="#A2FF48"/>
<path d="M82.2531 127.778C82.2179 127.486 82.0506 127.332 81.7643 127.314C81.4913 127.301 81.2403 127.508 81.2623 127.751C81.2888 128.033 81.4473 128.214 81.7423 128.219C82.0373 128.223 82.2003 128.06 82.2531 127.773" fill="#A2FF48"/>
<path d="M82.2531 139.352C82.2179 139.061 82.0506 138.906 81.7643 138.889C81.4913 138.875 81.2403 139.083 81.2623 139.325C81.2888 139.608 81.4473 139.788 81.7423 139.793C82.0373 139.797 82.2003 139.634 82.2531 139.347" fill="#A2FF48"/>
<path d="M82.2531 150.928C82.2179 150.637 82.0506 150.482 81.7643 150.465C81.4913 150.452 81.2403 150.659 81.2623 150.901C81.2888 151.184 81.4473 151.365 81.7423 151.369C82.0373 151.373 82.2003 151.21 82.2531 150.924" fill="#A2FF48"/>
<path d="M82.2531 162.502C82.2179 162.211 82.0506 162.057 81.7643 162.039C81.4913 162.026 81.2403 162.233 81.2623 162.476C81.2888 162.758 81.4473 162.939 81.7423 162.943C82.0373 162.948 82.2003 162.784 82.2531 162.498" fill="#A2FF48"/>
<path d="M82.2531 174.072C82.2179 173.781 82.0506 173.627 81.7643 173.609C81.4913 173.596 81.2403 173.803 81.2623 174.046C81.2888 174.328 81.4473 174.509 81.7423 174.514C82.0373 174.518 82.2003 174.355 82.2531 174.068" fill="#A2FF48"/>
<path d="M128.411 81.4826C128.376 81.1915 128.208 81.0371 127.922 81.0195C127.649 81.0062 127.398 81.2136 127.42 81.4562C127.447 81.7385 127.605 81.9193 127.9 81.9237C128.191 81.9282 128.358 81.7649 128.411 81.4826Z" fill="#A2FF48"/>
<path d="M128.411 93.0568C128.376 92.7657 128.208 92.6113 127.922 92.5937C127.649 92.5805 127.398 92.7878 127.42 93.0304C127.447 93.3127 127.605 93.4935 127.9 93.498C128.191 93.5024 128.358 93.3392 128.411 93.0524" fill="#A2FF48"/>
<path d="M128.411 104.627C128.376 104.336 128.208 104.182 127.922 104.164C127.649 104.151 127.398 104.358 127.42 104.601C127.447 104.883 127.605 105.064 127.9 105.068C128.191 105.073 128.358 104.909 128.411 104.623" fill="#A2FF48"/>
<path d="M128.411 116.203C128.376 115.912 128.208 115.758 127.922 115.74C127.649 115.727 127.398 115.934 127.42 116.177C127.447 116.459 127.605 116.64 127.9 116.644C128.191 116.649 128.358 116.486 128.411 116.199" fill="#A2FF48"/>
<path d="M128.411 127.778C128.376 127.486 128.208 127.332 127.922 127.314C127.649 127.301 127.398 127.508 127.42 127.751C127.447 128.033 127.605 128.214 127.9 128.219C128.191 128.223 128.358 128.06 128.411 127.773" fill="#A2FF48"/>
<path d="M128.411 139.352C128.376 139.061 128.208 138.906 127.922 138.889C127.649 138.875 127.398 139.083 127.42 139.325C127.447 139.608 127.605 139.788 127.9 139.793C128.191 139.797 128.358 139.634 128.411 139.347" fill="#A2FF48"/>
<path d="M128.411 150.928C128.376 150.637 128.208 150.482 127.922 150.465C127.649 150.452 127.398 150.659 127.42 150.901C127.447 151.184 127.605 151.365 127.9 151.369C128.191 151.373 128.358 151.21 128.411 150.924" fill="#A2FF48"/>
<path d="M128.411 162.502C128.376 162.211 128.208 162.057 127.922 162.039C127.649 162.026 127.398 162.233 127.42 162.476C127.447 162.758 127.605 162.939 127.9 162.943C128.191 162.948 128.358 162.784 128.411 162.498" fill="#A2FF48"/>
<path d="M128.411 174.072C128.376 173.781 128.208 173.627 127.922 173.609C127.649 173.596 127.398 173.803 127.42 174.046C127.447 174.328 127.605 174.509 127.9 174.514C128.191 174.518 128.358 174.355 128.411 174.068" fill="#A2FF48"/>
<path d="M139.904 185.559C139.868 185.268 139.701 185.113 139.41 185.096C139.137 185.082 138.886 185.29 138.908 185.532C138.935 185.815 139.093 185.996 139.388 186C139.683 186.004 139.846 185.841 139.899 185.554" fill="#A2FF48"/>
<path d="M116.843 185.559C116.808 185.268 116.64 185.113 116.354 185.096C116.081 185.082 115.83 185.29 115.852 185.532C115.878 185.815 116.037 185.996 116.332 186C116.623 186.004 116.79 185.841 116.843 185.554" fill="#A2FF48"/>
<path d="M105.314 185.559C105.279 185.268 105.112 185.113 104.826 185.096C104.553 185.082 104.302 185.29 104.324 185.532C104.35 185.815 104.508 185.996 104.804 186C105.094 186.004 105.261 185.841 105.314 185.554" fill="#A2FF48"/>
<path d="M93.7816 185.559C93.7463 185.268 93.579 185.113 93.2928 185.096C93.0198 185.082 92.7688 185.29 92.7908 185.532C92.8172 185.815 92.9757 185.996 93.2708 186C93.5614 186.004 93.7287 185.841 93.7816 185.554" fill="#A2FF48"/>
<path d="M128.411 185.559C128.376 185.268 128.208 185.113 127.922 185.096C127.649 185.082 127.398 185.29 127.42 185.532C127.447 185.815 127.605 185.996 127.9 186C128.191 186.004 128.358 185.841 128.411 185.554" fill="#A2FF48"/>
<path d="M82.2711 185.559C82.2358 185.268 82.0685 185.113 81.7823 185.096C81.5093 185.082 81.2583 185.29 81.2803 185.532C81.3067 185.815 81.4652 185.996 81.7603 186C82.0553 186.004 82.2182 185.841 82.2711 185.554" fill="#A2FF48"/>
<path d="M59.2099 185.559C59.1747 185.268 59.0073 185.113 58.7167 185.096C58.4437 185.082 58.1927 185.29 58.2147 185.532C58.2411 185.815 58.3996 185.996 58.6947 186C58.9853 186.004 59.1526 185.841 59.2055 185.554" fill="#A2FF48"/>
<path d="M47.6814 185.559C47.6462 185.268 47.4789 185.113 47.1883 185.096C46.9152 185.082 46.6642 185.29 46.6863 185.532C46.7127 185.815 46.8712 185.996 47.1662 186C47.4569 186.004 47.6242 185.841 47.677 185.554" fill="#A2FF48"/>
<path d="M36.153 185.559C36.1177 185.268 35.9504 185.113 35.6598 185.096C35.3868 185.082 35.1358 185.29 35.1578 185.532C35.1842 185.815 35.3427 185.996 35.6378 186C35.9284 186.004 36.0957 185.841 36.1486 185.554" fill="#A2FF48"/>
<path d="M70.7779 185.559C70.7427 185.268 70.5753 185.113 70.2891 185.096C70.0161 185.082 69.7651 185.29 69.7871 185.532C69.8135 185.815 69.9721 185.996 70.2671 186C70.5621 186.004 70.7251 185.841 70.7779 185.554" fill="#A2FF48"/>
<path d="M24.6381 185.559C24.6028 185.268 24.4355 185.113 24.1493 185.096C23.8763 185.082 23.6253 185.29 23.6473 185.532C23.6737 185.815 23.8322 185.996 24.1273 186C24.4223 186.004 24.5852 185.841 24.6381 185.554" fill="#A2FF48"/>
<path d="M1.58115 185.559C1.54593 185.268 1.37859 185.113 1.09237 185.096C0.81935 185.082 0.568351 185.29 0.590368 185.532C0.616789 185.815 0.775317 185.996 1.07035 186C1.36539 186.004 1.52831 185.841 1.58115 185.554" fill="#A2FF48"/>
<path d="M13.1449 185.559C13.1097 185.268 12.9424 185.113 12.6561 185.096C12.3831 185.082 12.1321 185.29 12.1542 185.532C12.1806 185.815 12.3391 185.996 12.6341 186C12.9292 186.004 13.0921 185.841 13.1449 185.554" fill="#A2FF48"/>
<path d="M151.454 0.463098C151.419 0.171964 151.252 0.0175661 150.965 -7.83205e-05C150.692 -0.0133117 150.441 0.19402 150.463 0.436632C150.49 0.718944 150.648 0.899799 150.943 0.90421C151.238 0.908621 151.401 0.745405 151.454 0.458682" fill="#A2FF48"/>
<path d="M151.454 12.0393C151.419 11.7481 151.252 11.5938 150.965 11.5761C150.692 11.5629 150.441 11.7702 150.463 12.0128C150.49 12.2951 150.648 12.476 150.943 12.4804C151.238 12.4848 151.401 12.3216 151.454 12.0393Z" fill="#A2FF48"/>
<path d="M151.454 23.6096C151.419 23.3184 151.252 23.1641 150.965 23.1464C150.692 23.1332 150.441 23.3405 150.463 23.5831C150.49 23.8654 150.648 24.0463 150.943 24.0507C151.238 24.0551 151.401 23.8919 151.454 23.6052" fill="#A2FF48"/>
<path d="M151.454 35.1838C151.419 34.8927 151.252 34.7383 150.965 34.7206C150.692 34.7074 150.441 34.9147 150.463 35.1573C150.49 35.4396 150.648 35.6205 150.943 35.6249C151.238 35.6293 151.401 35.4661 151.454 35.1794" fill="#A2FF48"/>
<path d="M151.454 46.758C151.419 46.4669 151.252 46.3125 150.965 46.2949C150.692 46.2816 150.441 46.4889 150.463 46.7316C150.49 47.0139 150.648 47.1947 150.943 47.1991C151.238 47.2035 151.401 47.0403 151.454 46.758Z" fill="#A2FF48"/>
<path d="M151.454 58.3342C151.419 58.0431 151.252 57.8887 150.965 57.871C150.692 57.8578 150.441 58.0651 150.463 58.3077C150.49 58.59 150.648 58.7709 150.943 58.7753C151.238 58.7797 151.401 58.6165 151.454 58.3298" fill="#A2FF48"/>
<path d="M151.454 69.9084C151.419 69.6173 151.252 69.4629 150.965 69.4452C150.692 69.432 150.441 69.6393 150.463 69.8819C150.49 70.1643 150.648 70.3451 150.943 70.3495C151.238 70.3539 151.401 70.1907 151.454 69.904" fill="#A2FF48"/>
<path d="M151.454 81.4826C151.419 81.1915 151.252 81.0371 150.965 81.0195C150.692 81.0062 150.441 81.2136 150.463 81.4562C150.49 81.7385 150.648 81.9193 150.943 81.9237C151.238 81.9282 151.401 81.7649 151.454 81.4826Z" fill="#A2FF48"/>
<path d="M151.454 93.0568C151.419 92.7657 151.252 92.6113 150.965 92.5937C150.692 92.5805 150.441 92.7878 150.463 93.0304C150.49 93.3127 150.648 93.4935 150.943 93.498C151.238 93.5024 151.401 93.3392 151.454 93.0524" fill="#A2FF48"/>
<path d="M151.454 104.627C151.419 104.336 151.252 104.182 150.965 104.164C150.692 104.151 150.441 104.358 150.463 104.601C150.49 104.883 150.648 105.064 150.943 105.068C151.238 105.073 151.401 104.909 151.454 104.623" fill="#A2FF48"/>
<path d="M151.454 116.203C151.419 115.912 151.252 115.758 150.965 115.74C150.692 115.727 150.441 115.934 150.463 116.177C150.49 116.459 150.648 116.64 150.943 116.644C151.238 116.649 151.401 116.486 151.454 116.199" fill="#A2FF48"/>
<path d="M151.454 127.778C151.419 127.486 151.252 127.332 150.965 127.314C150.692 127.301 150.441 127.508 150.463 127.751C150.49 128.033 150.648 128.214 150.943 128.219C151.238 128.223 151.401 128.06 151.454 127.773" fill="#A2FF48"/>
<path d="M151.454 139.352C151.419 139.061 151.252 138.906 150.965 138.889C150.692 138.875 150.441 139.083 150.463 139.325C150.49 139.608 150.648 139.788 150.943 139.793C151.238 139.797 151.401 139.634 151.454 139.347" fill="#A2FF48"/>
<path d="M151.454 150.928C151.419 150.637 151.252 150.482 150.965 150.465C150.692 150.452 150.441 150.659 150.463 150.901C150.49 151.184 150.648 151.365 150.943 151.369C151.238 151.373 151.401 151.21 151.454 150.924" fill="#A2FF48"/>
<path d="M151.454 162.502C151.419 162.211 151.252 162.057 150.965 162.039C150.692 162.026 150.441 162.233 150.463 162.476C150.49 162.758 150.648 162.939 150.943 162.943C151.238 162.948 151.401 162.784 151.454 162.498" fill="#A2FF48"/>
<path d="M151.454 174.072C151.419 173.781 151.252 173.627 150.965 173.609C150.692 173.596 150.441 173.803 150.463 174.046C150.49 174.328 150.648 174.509 150.943 174.514C151.238 174.518 151.401 174.355 151.454 174.068" fill="#A2FF48"/>
<path d="M151.454 185.559C151.419 185.268 151.252 185.113 150.965 185.096C150.692 185.082 150.441 185.29 150.463 185.532C150.49 185.815 150.648 185.996 150.943 186C151.238 186.004 151.401 185.841 151.454 185.554" fill="#A2FF48"/>
<path d="M163 0.463098C162.965 0.171964 162.797 0.0175661 162.511 -7.83205e-05C162.238 -0.0133117 161.987 0.19402 162.009 0.436632C162.036 0.718944 162.194 0.899799 162.489 0.90421C162.78 0.908621 162.947 0.745405 163 0.458682" fill="#A2FF48"/>
<path d="M163 12.0393C162.965 11.7481 162.797 11.5938 162.511 11.5761C162.238 11.5629 161.987 11.7702 162.009 12.0128C162.036 12.2951 162.194 12.476 162.489 12.4804C162.78 12.4848 162.947 12.3216 163 12.0393Z" fill="#A2FF48"/>
<path d="M163 23.6096C162.965 23.3184 162.797 23.1641 162.511 23.1464C162.238 23.1332 161.987 23.3405 162.009 23.5831C162.036 23.8654 162.194 24.0463 162.489 24.0507C162.78 24.0551 162.947 23.8919 163 23.6052" fill="#A2FF48"/>
<path d="M163 35.1838C162.965 34.8927 162.797 34.7383 162.511 34.7206C162.238 34.7074 161.987 34.9147 162.009 35.1573C162.036 35.4396 162.194 35.6205 162.489 35.6249C162.78 35.6293 162.947 35.4661 163 35.1794" fill="#A2FF48"/>
<path d="M163 46.758C162.965 46.4669 162.797 46.3125 162.511 46.2949C162.238 46.2816 161.987 46.4889 162.009 46.7316C162.036 47.0139 162.194 47.1947 162.489 47.1991C162.78 47.2035 162.947 47.0403 163 46.758Z" fill="#A2FF48"/>
<path d="M163 58.3342C162.965 58.0431 162.797 57.8887 162.511 57.871C162.238 57.8578 161.987 58.0651 162.009 58.3077C162.036 58.59 162.194 58.7709 162.489 58.7753C162.78 58.7797 162.947 58.6165 163 58.3298" fill="#A2FF48"/>
<path d="M163 69.9084C162.965 69.6173 162.797 69.4629 162.511 69.4452C162.238 69.432 161.987 69.6393 162.009 69.8819C162.036 70.1643 162.194 70.3451 162.489 70.3495C162.78 70.3539 162.947 70.1907 163 69.904" fill="#A2FF48"/>
<path d="M163 81.4826C162.965 81.1915 162.797 81.0371 162.511 81.0195C162.238 81.0062 161.987 81.2136 162.009 81.4562C162.036 81.7385 162.194 81.9193 162.489 81.9237C162.78 81.9282 162.947 81.7649 163 81.4826Z" fill="#A2FF48"/>
<path d="M163 93.0568C162.965 92.7657 162.797 92.6113 162.511 92.5937C162.238 92.5805 161.987 92.7878 162.009 93.0304C162.036 93.3127 162.194 93.4935 162.489 93.498C162.78 93.5024 162.947 93.3392 163 93.0524" fill="#A2FF48"/>
<path d="M163 104.627C162.965 104.336 162.797 104.182 162.511 104.164C162.238 104.151 161.987 104.358 162.009 104.601C162.036 104.883 162.194 105.064 162.489 105.068C162.78 105.073 162.947 104.909 163 104.623" fill="#A2FF48"/>
<path d="M163 116.203C162.965 115.912 162.797 115.758 162.511 115.74C162.238 115.727 161.987 115.934 162.009 116.177C162.036 116.459 162.194 116.64 162.489 116.644C162.78 116.649 162.947 116.486 163 116.199" fill="#A2FF48"/>
<path d="M163 127.778C162.965 127.486 162.797 127.332 162.511 127.314C162.238 127.301 161.987 127.508 162.009 127.751C162.036 128.033 162.194 128.214 162.489 128.219C162.78 128.223 162.947 128.06 163 127.773" fill="#A2FF48"/>
<path d="M163 139.352C162.965 139.061 162.797 138.906 162.511 138.889C162.238 138.875 161.987 139.083 162.009 139.325C162.036 139.608 162.194 139.788 162.489 139.793C162.78 139.797 162.947 139.634 163 139.347" fill="#A2FF48"/>
<path d="M163 150.928C162.965 150.637 162.797 150.482 162.511 150.465C162.238 150.452 161.987 150.659 162.009 150.901C162.036 151.184 162.194 151.365 162.489 151.369C162.78 151.373 162.947 151.21 163 150.924" fill="#A2FF48"/>
<path d="M163 162.502C162.965 162.211 162.797 162.057 162.511 162.039C162.238 162.026 161.987 162.233 162.009 162.476C162.036 162.758 162.194 162.939 162.489 162.943C162.78 162.948 162.947 162.784 163 162.498" fill="#A2FF48"/>
<path d="M163 174.072C162.965 173.781 162.797 173.627 162.511 173.609C162.238 173.596 161.987 173.803 162.009 174.046C162.036 174.328 162.194 174.509 162.489 174.514C162.78 174.518 162.947 174.355 163 174.068" fill="#A2FF48"/>
<path d="M163 185.559C162.965 185.268 162.797 185.113 162.511 185.096C162.238 185.082 161.987 185.29 162.009 185.532C162.036 185.815 162.194 185.996 162.489 186C162.78 186.004 162.947 185.841 163 185.554" fill="#A2FF48"/>
<path d="M1.54591 12.0393C1.51069 11.7481 1.34335 11.5938 1.05272 11.5761C0.779707 11.5629 0.528709 11.7702 0.550726 12.0128C0.577147 12.2951 0.735671 12.476 1.03071 12.4804C1.32134 12.4848 1.48867 12.3216 1.54151 12.0393" fill="#A2FF48"/>
<path d="M1.54591 162.502C1.51069 162.211 1.34335 162.057 1.05272 162.039C0.779707 162.026 0.528709 162.233 0.550726 162.476C0.577147 162.758 0.735671 162.939 1.03071 162.943C1.32134 162.948 1.48867 162.784 1.54151 162.498" fill="#A2FF48"/>
<path d="M1.54591 174.072C1.51069 173.781 1.34335 173.627 1.05272 173.609C0.779707 173.596 0.528709 173.803 0.550726 174.046C0.577147 174.328 0.735671 174.509 1.03071 174.514C1.32134 174.518 1.48867 174.355 1.54151 174.068" fill="#A2FF48"/>
<path d="M59.1875 174.072C59.1523 173.781 58.9849 173.627 58.6987 173.609C58.4257 173.596 58.1747 173.803 58.1967 174.046C58.2231 174.328 58.3817 174.509 58.6767 174.514C58.9717 174.518 59.1347 174.355 59.1875 174.068" fill="#A2FF48"/>
<path d="M70.7246 174.072C70.6894 173.781 70.5221 173.627 70.2359 173.609C69.9628 173.596 69.7118 173.803 69.7339 174.046C69.7603 174.328 69.9188 174.509 70.2138 174.514C70.5089 174.518 70.6718 174.355 70.7246 174.068" fill="#A2FF48"/>
<path d="M13.0744 174.072C13.0392 173.781 12.8718 173.627 12.5812 173.609C12.3082 173.596 12.0572 173.803 12.0792 174.046C12.1056 174.328 12.2641 174.509 12.5592 174.514C12.8498 174.518 13.0171 174.355 13.07 174.068" fill="#A2FF48"/>
</g>
</svg>
