<svg width="163" height="186" viewBox="0 0 163 186" fill="none" xmlns="http://www.w3.org/2000/svg">
<g opacity="0.2">
<path d="M111.835 143.115C113.337 144.782 116.574 144.84 119.053 142.33C121.303 140.049 121.655 137.014 119.837 135.131C117.934 133.159 114.636 133.896 112.61 135.938C110.382 138.183 110.105 141.571 111.835 143.119" fill="#A2FF48"/>
<path d="M130.405 124.358C128.199 122.148 124.98 121.782 123.249 123.581C121.664 125.231 121.589 128.226 124.037 130.714C126.446 133.162 129.511 133.206 131.202 131.539C132.981 129.788 132.615 126.577 130.405 124.358Z" fill="#A2FF48"/>
<path d="M124.161 119.144C126.389 121.358 129.445 121.671 131.202 119.858C132.906 118.103 132.558 114.953 130.405 112.814C128.38 110.798 125.218 110.119 123.32 112.046C121.369 114.027 122.175 117.287 124.161 119.144Z" fill="#A2FF48"/>
<path d="M124.152 95.9552C126.12 98.0373 129.392 98.5357 131.158 96.7316C132.889 94.9627 132.58 91.8926 130.383 89.6826C128.093 87.38 125.024 87.1771 123.307 88.9151C121.466 90.7765 122.14 94.0849 124.152 95.9552Z" fill="#A2FF48"/>
<path d="M124.174 107.547C126.367 109.731 129.396 110.026 131.171 108.284C132.58 106.899 132.976 103.864 130.37 101.244C128.027 98.8883 124.975 98.7516 123.302 100.507C121.364 102.541 122.25 105.73 124.178 107.547" fill="#A2FF48"/>
<path d="M131.14 85.2626C132.73 83.7937 132.734 80.6486 130.365 78.2269C128.546 76.3654 125.371 75.4302 123.324 77.5299C121.285 79.6208 122.395 82.8541 124.147 84.5436C126.366 86.6786 129.396 87.0271 131.135 85.2626" fill="#A2FF48"/>
<path d="M123.341 65.9462C121.721 67.424 121.818 70.6926 124.125 72.9643C126.331 75.1346 129.339 75.4698 131.122 73.7495C132.765 72.1615 132.708 68.9943 130.334 66.6564C127.864 64.2171 124.742 64.3803 123.341 65.9507" fill="#A2FF48"/>
<path d="M123.333 135.262C121.62 137 121.981 140.163 124.139 142.307C125.94 144.093 129.097 145.125 131.154 143.039C132.951 141.217 132.501 138.218 130.344 135.977C128.248 133.802 125.055 133.515 123.333 135.262Z" fill="#A2FF48"/>
<path d="M118.903 130.657C121.004 128.628 121.413 125.438 119.709 123.692C118.243 122.187 115.173 122.051 112.769 124.45C110.391 126.824 110.444 129.894 111.972 131.415C113.694 133.127 116.754 132.801 118.903 130.652" fill="#A2FF48"/>
<path d="M124.187 61.2844C125.838 63.1018 129.075 64.1075 131.087 62.0564C132.919 60.1904 132.232 57.1027 130.281 55.1662C128.159 53.0621 125.116 52.718 123.43 54.4163C121.686 56.1675 122.139 59.3479 124.187 61.2844Z" fill="#A2FF48"/>
<path d="M108.039 142.868C109.708 141.307 109.404 138.25 107.339 136.15C105.27 134.046 102.236 133.715 100.558 135.374C99.1179 136.798 98.9374 139.776 101.35 142.18C103.565 144.381 106.569 144.483 108.039 142.873" fill="#A2FF48"/>
<path d="M112.205 119.598C113.791 121.327 116.873 120.776 118.745 118.874C120.757 116.828 120.973 113.881 119.476 112.355C117.947 110.802 115.063 110.921 112.928 113.025C110.88 115.046 110.585 117.966 112.205 119.598Z" fill="#A2FF48"/>
<path d="M112.971 147.856C111.139 149.594 110.567 152.634 112.293 154.336C113.711 155.73 116.454 155.818 118.696 153.586C120.787 151.5 120.941 148.65 119.374 147.106C117.687 145.448 114.684 146.034 112.971 147.856Z" fill="#A2FF48"/>
<path d="M112.976 101.531C111.012 103.503 110.65 106.384 112.253 107.958C113.949 109.621 116.67 109.251 118.652 107.275C121.078 104.853 120.673 102.025 119.378 100.786C117.758 99.242 114.953 99.5419 112.976 101.531Z" fill="#A2FF48"/>
<path d="M112.298 96.3837C113.663 97.8526 116.6 97.782 118.679 95.6338C120.665 93.5782 120.955 90.8786 119.357 89.2377C117.776 87.6144 114.817 88.0776 112.963 89.9743C111.008 91.977 110.699 94.7913 112.298 96.3837Z" fill="#A2FF48"/>
<path d="M118.643 84.2076C120.691 82.2446 120.924 79.3157 119.396 77.7938C117.816 76.219 114.958 76.5322 112.994 78.4996C111.025 80.4714 110.699 83.343 112.258 84.931C113.83 86.5234 116.649 86.2058 118.643 84.2076Z" fill="#A2FF48"/>
<path d="M118.67 72.6511C120.651 70.6485 120.96 67.8386 119.37 66.2418C117.824 64.6847 114.918 65.0287 112.963 67.0005C111.016 68.9634 110.704 71.8527 112.28 73.4187C113.791 74.9229 116.684 74.7332 118.67 72.6511Z" fill="#A2FF48"/>
<path d="M107.124 147.896C105.129 145.889 102.35 145.572 100.756 147.177C99.1711 148.774 99.4925 151.588 101.487 153.578C103.451 155.536 106.225 155.845 107.802 154.284C109.414 152.682 109.119 149.908 107.124 147.896Z" fill="#A2FF48"/>
<path d="M96.2644 135.593C94.7804 133.969 91.7508 134.446 89.9586 136.307C88.0078 138.332 87.6688 141.146 89.2584 142.717C90.8305 144.274 93.7104 143.916 95.6611 141.914C97.6603 139.863 97.81 136.965 96.2644 135.593Z" fill="#A2FF48"/>
<path d="M89.9234 147.953C88.0343 149.876 87.7173 152.721 89.2497 154.226C90.7821 155.73 93.4903 155.606 95.5643 153.515C97.634 151.433 97.7529 148.716 96.2381 147.181C94.6968 145.615 91.8654 145.972 89.9234 147.949" fill="#A2FF48"/>
<path d="M112.381 61.7294C113.923 63.2689 116.701 62.9557 118.626 61.0236C120.55 59.0871 120.845 56.3258 119.286 54.7686C117.714 53.2027 115.006 53.5071 113.064 55.4744C111.126 57.4374 110.827 60.1767 112.381 61.7294Z" fill="#A2FF48"/>
<path d="M84.6522 142.602C86.233 141.036 85.9424 138.323 83.9917 136.36C82.0629 134.419 79.2843 134.111 77.7475 135.659C76.2415 137.176 76.541 139.969 78.4168 141.87C80.35 143.828 83.0889 144.15 84.6522 142.602Z" fill="#A2FF48"/>
<path d="M83.9653 147.945C82.3537 146.251 79.5486 145.488 77.7872 147.208C75.929 149.021 76.7876 151.871 78.4698 153.534C80.3897 155.431 83.2608 155.753 84.7183 154.16C86.3564 152.369 85.7047 149.643 83.9698 147.945" fill="#A2FF48"/>
<path d="M130.638 50.0746C132.298 48.5969 131.774 45.6546 130.013 43.9167C128.062 41.9934 125.407 41.6493 123.857 43.1756C122.293 44.7151 122.566 47.5294 124.486 49.4217C126.402 51.3097 129.242 51.6449 130.638 50.0702" fill="#A2FF48"/>
<path d="M123.874 147.327C122.351 148.849 122.646 151.531 124.544 153.436C126.437 155.337 129.101 155.615 130.638 154.107C131.818 152.942 132.184 150.357 129.978 148.041C128.159 146.131 125.376 145.827 123.879 147.327" fill="#A2FF48"/>
<path d="M67.0298 148.051C65.2992 149.683 64.7576 152.44 66.3472 154.081C67.7916 155.572 70.5305 155.219 72.3668 153.357C74.0621 151.641 74.595 148.981 73.0273 147.38C71.4641 145.783 68.6987 146.277 67.0254 148.046" fill="#A2FF48"/>
<path d="M66.3959 142.475C67.8843 143.939 70.4956 143.643 72.3274 141.795C73.9964 140.11 74.6481 137.437 72.9615 135.774C71.2838 134.115 68.5536 134.857 66.9552 136.537C65.1629 138.416 64.9031 141.001 66.4003 142.475" fill="#A2FF48"/>
<path d="M136.174 90.1989C134.364 92.0207 134.082 94.6233 135.535 96.0745C136.975 97.5169 139.604 97.217 141.401 95.4084C143.197 93.5999 143.479 90.9797 142.03 89.5284C140.586 88.0771 137.988 88.3771 136.178 90.1989" fill="#A2FF48"/>
<path d="M135.562 84.6098C136.958 86.1184 139.648 85.7302 141.401 83.9525C143.149 82.1792 143.475 79.5502 142.008 78.0813C140.604 76.6786 137.962 76.9256 136.156 78.7562C134.373 80.5648 134.069 83.26 135.562 84.6098Z" fill="#A2FF48"/>
<path d="M135.548 119.216C136.974 120.786 139.762 120.248 141.391 118.567C143.087 116.82 143.584 114.235 142.017 112.687C140.387 111.077 137.794 111.712 136.16 113.362C134.28 115.259 134.121 117.945 135.548 119.22" fill="#A2FF48"/>
<path d="M136.16 124.971C134.425 126.709 134.033 129.307 135.548 130.851C136.966 132.293 139.634 131.94 141.427 130.145C143.056 128.513 143.545 125.778 142.017 124.269C140.66 122.928 138.018 123.061 136.164 124.971" fill="#A2FF48"/>
<path d="M135.531 107.635C136.979 109.086 139.586 108.8 141.383 106.991C143.179 105.187 143.47 102.545 142.035 101.102C140.595 99.6597 137.983 99.9552 136.174 101.764C134.359 103.577 134.077 106.175 135.531 107.631" fill="#A2FF48"/>
<path d="M135.561 73.0399C136.873 74.5617 139.656 74.1868 141.405 72.3959C143.197 70.5609 143.391 67.9098 142.004 66.5732C140.502 65.1308 137.974 65.4043 136.147 67.2437C134.403 68.9993 134.068 71.7254 135.561 73.0399Z" fill="#A2FF48"/>
<path d="M107.515 130.732C108.704 129.66 108.946 127.058 106.815 124.923C105.032 123.136 102.464 122.933 101.046 124.398C99.677 125.814 99.9676 128.469 101.738 130.154C103.935 132.245 106.454 131.967 107.52 130.732" fill="#A2FF48"/>
<path d="M136.257 55.6942C134.61 57.2514 134.033 59.8275 135.601 61.4111C137.146 62.9726 139.674 62.408 141.308 60.7847C143.042 59.0599 143.373 56.5103 141.955 55.0502C140.665 53.7225 138.067 53.7931 136.257 55.6942Z" fill="#A2FF48"/>
<path d="M141.911 136.014C140.652 134.562 137.957 134.911 136.301 136.605C134.54 138.409 134.24 140.91 135.671 142.317C137.072 143.698 139.538 143.38 141.308 141.647C142.849 140.138 143.461 137.416 141.907 136.014" fill="#A2FF48"/>
<path d="M118.326 49.1538C120.127 47.4246 120.277 44.8 118.929 43.5076C117.533 42.1666 115.036 42.4313 113.341 44.1251C111.589 45.8719 111.324 48.3598 112.707 49.789C114.156 51.2888 116.846 50.7815 118.33 49.1538" fill="#A2FF48"/>
<path d="M136.526 44.3444C134.897 45.9633 134.641 48.2218 135.94 49.5143C137.209 50.7802 139.454 50.5376 141.035 48.9673C142.638 47.3793 142.924 45.0281 141.621 43.7842C140.154 42.3859 137.926 42.9196 136.526 44.3444Z" fill="#A2FF48"/>
<path d="M60.3761 148.426C58.7909 146.847 56.5407 146.596 55.2901 147.87C54.0791 149.105 54.154 151.267 55.8317 152.987C57.4566 154.65 59.7464 154.827 60.9926 153.543C62.2432 152.259 61.9614 150.014 60.3717 148.426" fill="#A2FF48"/>
<path d="M60.3718 136.847C58.7822 135.259 56.5672 135.025 55.2858 136.291C54.0572 137.513 54.1805 139.741 55.8318 141.404C57.5448 143.133 59.7906 143.221 60.9971 141.964C62.2477 140.663 61.9703 138.391 60.3718 136.843" fill="#A2FF48"/>
<path d="M136.61 148.581C135.165 150.045 134.927 152.233 136.077 153.411C137.226 154.589 139.52 154.333 140.96 152.86C142.4 151.386 142.638 149.194 141.48 148.025C140.295 146.829 138.085 147.081 136.61 148.581Z" fill="#A2FF48"/>
<path d="M95.4189 124.883C94.2256 123.692 92.0987 123.913 90.6191 125.386C89.3597 126.639 88.73 128.884 90.1083 130.274C91.2268 131.398 93.4594 131.16 94.9081 129.696C96.4229 128.165 96.5418 125.907 95.4189 124.888" fill="#A2FF48"/>
<path d="M102.253 118.13C103.336 119.299 105.565 120.036 106.952 118.585C108.18 117.297 107.872 115.294 106.388 113.838C104.688 112.171 102.689 112.255 101.615 113.389C100.351 114.725 100.95 116.97 102.249 118.13" fill="#A2FF48"/>
<path d="M125.226 37.1455C126.649 38.5571 128.683 38.7953 129.806 37.6484C130.845 36.5853 130.854 34.6135 129.309 33.0432C127.842 31.5478 125.825 31.3934 124.663 32.5491C123.531 33.674 123.8 35.7295 125.226 37.1455Z" fill="#A2FF48"/>
<path d="M83.7232 130.075C84.824 128.972 84.6083 126.948 83.2388 125.563C81.8429 124.147 79.782 123.922 78.6768 125.06C77.5935 126.18 77.8357 128.222 79.2184 129.586C80.6143 130.962 82.6179 131.178 83.7188 130.075" fill="#A2FF48"/>
<path d="M90.2626 164.782C91.2974 165.978 93.4199 165.656 94.7233 164.328C96.1192 162.903 96.3526 160.984 95.2782 159.82C94.4415 158.911 92.504 158.545 90.7337 160.301C89.2145 161.814 89.1793 163.816 90.2626 164.782Z" fill="#A2FF48"/>
<path d="M101.809 159.793C100.681 160.918 100.897 162.846 102.275 164.279C103.636 165.7 105.723 165.907 106.811 164.791C107.833 163.746 107.701 161.708 106.283 160.292C104.702 158.717 102.637 158.832 101.809 159.793Z" fill="#A2FF48"/>
<path d="M83.6749 164.791C84.974 163.627 84.4059 161.47 83.2434 160.314C81.8563 158.933 79.8747 158.691 78.7562 159.789C77.6378 160.892 77.8271 162.912 79.2054 164.279C80.7598 165.828 82.7766 165.828 83.6749 164.791Z" fill="#A2FF48"/>
<path d="M117.78 164.298C119.348 162.864 119.268 160.703 118.304 159.803C117.15 158.722 115.2 158.929 113.804 160.328C112.549 161.58 112.21 163.618 113.31 164.778C114.363 165.886 116.556 165.678 117.78 164.298Z" fill="#A2FF48"/>
<path d="M106.736 106.801C107.797 105.729 107.581 103.757 106.238 102.439C104.873 101.102 102.997 100.811 101.888 101.936C100.668 103.175 101.099 105.015 102.324 106.298C103.64 107.683 105.653 107.895 106.736 106.801Z" fill="#A2FF48"/>
<path d="M67.7695 160.392C66.422 161.746 66.2062 163.665 67.2807 164.737C68.3507 165.804 70.2751 165.584 71.6137 164.238C72.9656 162.884 73.1682 160.996 72.0805 159.907C70.984 158.808 69.139 159.016 67.7695 160.392Z" fill="#A2FF48"/>
<path d="M101.923 78.9291C100.831 80.0142 101.012 81.8978 102.341 83.2696C103.654 84.6238 105.587 84.8532 106.674 83.7901C107.767 82.7227 107.582 80.8215 106.252 79.454C104.935 78.0998 102.998 77.866 101.923 78.9335" fill="#A2FF48"/>
<path d="M102.394 94.7776C103.75 96.0965 105.701 96.2862 106.727 95.201C107.766 94.1027 107.524 92.1397 106.19 90.8384C104.843 89.5239 102.879 89.3254 101.861 90.4194C100.796 91.5663 101.051 93.3837 102.394 94.782" fill="#A2FF48"/>
<path d="M106.705 72.2149C107.771 71.1342 107.538 69.1712 106.19 67.8567C104.821 66.5201 102.936 66.3481 101.862 67.4641C100.836 68.5316 101.065 70.4725 102.368 71.7649C103.724 73.1103 105.627 73.3044 106.705 72.2105" fill="#A2FF48"/>
<path d="M67.2937 129.934C68.3726 131.019 70.2881 130.799 71.6224 129.436C72.917 128.117 73.1195 126.198 72.0759 125.148C71.0059 124.067 69.0904 124.297 67.7429 125.664C66.4306 126.992 66.2369 128.871 67.2981 129.934" fill="#A2FF48"/>
<path d="M106.168 56.3704C105.094 55.1573 103.09 54.778 101.985 55.8411C100.875 56.9041 101.082 58.8009 102.447 60.1551C103.737 61.4344 105.6 61.6505 106.639 60.6315C107.7 59.5949 107.489 57.6937 106.172 56.3704" fill="#A2FF48"/>
<path d="M113.522 37.4199C114.552 38.4433 116.45 38.2359 117.718 36.9567C118.991 35.6731 119.193 33.7763 118.172 32.7441C117.115 31.6766 115.226 31.8927 113.923 33.2337C112.65 34.5438 112.474 36.3833 113.522 37.4243" fill="#A2FF48"/>
<path d="M125.389 164.15C126.697 165.473 128.503 165.681 129.551 164.635C130.594 163.594 130.405 161.764 129.119 160.449C127.855 159.157 125.962 158.936 124.936 159.964C123.901 161.005 124.099 162.849 125.389 164.15Z" fill="#A2FF48"/>
<path d="M140.898 32.9163C139.793 31.9018 138.098 32.2591 137.01 33.4104C135.821 34.672 135.667 36.2776 136.658 37.2348C137.662 38.2097 139.269 38.0597 140.537 36.7408C141.779 35.4527 141.81 33.8868 140.898 32.9163Z" fill="#A2FF48"/>
<path d="M102.183 44.5661C101.219 45.5454 101.417 47.129 102.623 48.3685C103.671 49.4404 105.371 49.8551 106.419 48.7787C107.432 47.7377 107.15 46.1144 105.974 44.9587C104.653 43.653 103.073 43.653 102.183 44.5661Z" fill="#A2FF48"/>
<path d="M60.1956 164.328C61.0983 163.401 60.8913 161.822 59.7684 160.653C58.9098 159.758 57.1528 159.145 56.0431 160.287C55.1668 161.187 55.4134 162.916 56.5319 163.988C57.6812 165.091 59.3061 165.245 60.1956 164.328Z" fill="#A2FF48"/>
<path d="M59.7637 125.933C58.6232 124.778 57.0512 124.601 56.1132 125.492C55.259 126.299 55.1929 127.923 56.5139 129.22C57.6016 130.287 59.0636 130.613 60.1821 129.612C61.1112 128.783 60.8822 127.063 59.7681 125.933" fill="#A2FF48"/>
<path d="M152.313 129.538C153.18 128.669 153 126.993 151.934 125.947C150.837 124.875 149.204 124.703 148.345 125.572C147.46 126.463 147.693 128.087 148.759 129.154C149.807 130.204 151.467 130.46 152.313 129.538Z" fill="#A2FF48"/>
<path d="M148.336 114.019C147.446 114.853 147.666 116.516 148.754 117.592C149.829 118.655 151.445 118.863 152.321 117.976C153.171 117.111 152.986 115.431 151.907 114.368C150.885 113.362 149.172 113.062 148.34 114.019" fill="#A2FF48"/>
<path d="M148.789 106.018C149.815 107.13 151.476 107.271 152.343 106.38C153.18 105.52 152.968 103.777 151.885 102.767C150.745 101.699 149.208 101.545 148.318 102.445C147.548 103.226 147.579 104.955 148.789 106.018Z" fill="#A2FF48"/>
<path d="M148.754 82.9429C149.793 84.0898 151.462 84.2177 152.312 83.3619C153.021 82.6473 153.241 81.1034 151.916 79.7713C150.608 78.4568 149.062 78.6509 148.34 79.3743C147.49 80.2168 147.609 81.8886 148.754 82.9429Z" fill="#A2FF48"/>
<path d="M148.737 71.3947C149.758 72.5283 151.405 72.7136 152.295 71.849C153.167 70.9977 153.021 69.3126 151.942 68.2584C150.696 67.0365 149.159 67.0762 148.358 67.8349C147.592 68.5627 147.504 70.2478 148.737 71.3991" fill="#A2FF48"/>
<path d="M148.794 94.4254C149.75 95.5061 151.498 95.6694 152.334 94.7651C153.277 93.7461 152.894 92.1316 151.885 91.1788C150.692 90.0496 149.203 89.9834 148.323 90.8568C147.57 91.6023 147.548 93.3226 148.79 94.4254" fill="#A2FF48"/>
<path d="M45.0434 137.591C43.9602 138.681 43.7973 140.22 44.6692 141.089C45.5454 141.958 47.0691 141.786 48.1523 140.692C49.2444 139.589 49.4073 138.076 48.5266 137.199C47.6547 136.334 46.1179 136.506 45.0434 137.591Z" fill="#A2FF48"/>
<path d="M152.273 60.1367C153.158 59.228 152.973 57.7547 151.833 56.6431C150.749 55.5889 149.261 55.4301 148.398 56.2814C147.526 57.1372 147.707 58.7031 148.794 59.7971C149.877 60.8866 151.401 61.0366 152.273 60.1367Z" fill="#A2FF48"/>
<path d="M45.0696 149.145C43.9775 150.226 43.7882 151.774 44.638 152.648C45.4967 153.53 47.0291 153.38 48.1212 152.304C49.2177 151.218 49.407 149.679 48.5484 148.801C47.6897 147.919 46.1529 148.073 45.0696 149.145Z" fill="#A2FF48"/>
<path d="M148.755 140.644C149.776 141.685 151.335 141.874 152.202 141.067C153.061 140.264 152.903 138.707 151.855 137.635C150.807 136.559 149.287 136.374 148.437 137.212C147.579 138.059 147.724 139.594 148.755 140.644Z" fill="#A2FF48"/>
<path d="M137.287 160.892C136.323 161.823 136.072 163.318 136.966 164.169C137.93 165.087 139.383 164.69 140.312 163.689C141.303 162.626 141.418 161.227 140.563 160.424C139.718 159.63 138.318 159.829 137.287 160.892Z" fill="#A2FF48"/>
<path d="M151.709 45.271C150.749 44.3005 149.402 44.1505 148.609 44.9313C147.79 45.7386 147.922 46.9957 148.904 48.0235C149.961 49.1351 151.326 49.1483 152.07 48.4029C152.832 47.6397 152.656 46.2282 151.709 45.271Z" fill="#A2FF48"/>
<path d="M91.1217 117.609C91.8615 118.346 93.1781 118.2 94.0852 117.278C94.9924 116.356 95.1333 115.042 94.3979 114.296C93.6801 113.564 92.3547 113.723 91.4299 114.649C90.4964 115.589 90.3643 116.855 91.1217 117.609Z" fill="#A2FF48"/>
<path d="M151.947 152.365C152.674 151.637 152.515 150.283 151.599 149.383C150.719 148.518 149.398 148.377 148.693 149.074C147.966 149.793 148.129 151.165 149.041 152.056C149.935 152.925 151.247 153.066 151.947 152.365Z" fill="#A2FF48"/>
<path d="M105.847 36.6469C106.56 36.069 106.507 34.7766 105.547 33.7708C104.759 32.9416 103.341 32.8048 102.72 33.5062C101.954 34.3752 102.297 35.5706 103.05 36.3337C103.918 37.2159 105.265 37.3527 105.842 36.6469" fill="#A2FF48"/>
<path d="M127.23 21.5137C126.059 21.5181 125.253 22.3562 125.275 23.556C125.292 24.6676 126.155 25.519 127.252 25.5058C128.366 25.4925 129.264 24.5618 129.238 23.4369C129.216 22.3342 128.353 21.5093 127.23 21.5137Z" fill="#A2FF48"/>
<path d="M45.2196 163.683C45.8537 164.323 46.9237 164.199 47.7119 163.397C48.4561 162.633 48.5838 161.566 47.9982 160.94C47.3993 160.3 46.2852 160.406 45.4926 161.178C44.6999 161.95 44.5811 163.044 45.2152 163.683" fill="#A2FF48"/>
<path d="M45.4969 126.437C44.7262 127.209 44.5853 128.378 45.1974 128.978C45.8095 129.578 46.9632 129.428 47.7294 128.642C48.4736 127.879 48.6013 126.794 48.0245 126.172C47.4432 125.546 46.2719 125.674 45.5013 126.441" fill="#A2FF48"/>
<path d="M117.129 22.1488C116.596 21.615 115.53 21.7297 114.835 22.4002C114.073 23.1369 113.941 24.1338 114.526 24.7469C115.081 25.3292 116.164 25.2321 116.878 24.5308C117.556 23.8735 117.675 22.7002 117.129 22.1488Z" fill="#A2FF48"/>
<path d="M149.336 36.1488C150.067 36.859 151.031 36.9516 151.608 36.3649C152.185 35.7783 152.061 34.6843 151.335 33.9962C150.621 33.3213 149.595 33.2242 149.041 33.7844C148.455 34.3755 148.583 35.4121 149.336 36.1444" fill="#A2FF48"/>
<path d="M80.2184 116.96C80.9538 117.715 81.8873 117.82 82.4774 117.216C83.0366 116.643 82.9574 115.712 82.2881 114.997C81.6187 114.287 80.5487 114.137 79.9894 114.675C79.3994 115.244 79.4962 116.219 80.2184 116.956" fill="#A2FF48"/>
<path d="M104.323 175.461C105.12 175.447 105.705 174.711 105.696 173.736C105.688 172.796 105.04 172.033 104.27 172.055C103.508 172.077 102.869 172.88 102.887 173.802C102.905 174.75 103.53 175.474 104.327 175.461" fill="#A2FF48"/>
<path d="M91.5745 174.971C92.1382 175.522 93.1114 175.425 93.7631 174.746C94.4104 174.075 94.4985 173.07 93.948 172.536C93.3888 171.993 92.4112 172.104 91.7507 172.783C91.0681 173.484 90.9933 174.402 91.5701 174.966" fill="#A2FF48"/>
<path d="M115.86 175.462C116.89 175.453 117.577 174.765 117.564 173.751C117.551 172.798 116.776 172.048 115.807 172.057C114.878 172.066 114.059 172.895 114.085 173.799C114.116 174.787 114.838 175.471 115.856 175.458" fill="#A2FF48"/>
<path d="M82.3981 174.976C82.9045 174.544 82.997 173.556 82.1911 172.797C81.5174 172.162 80.5882 172.021 80.0554 172.519C79.483 173.049 79.5578 174.032 80.2228 174.72C80.9361 175.462 81.808 175.563 82.4025 174.981" fill="#A2FF48"/>
<path d="M91.3899 104.433C91.4075 105.324 92.0416 106.096 92.7594 106.1C93.4904 106.1 94.1685 105.245 94.1465 104.345C94.1245 103.485 93.4507 102.668 92.7638 102.664C92.0284 102.664 91.3723 103.502 91.3899 104.433Z" fill="#A2FF48"/>
<path d="M68.7475 172.788C68.0561 173.458 67.9416 174.336 68.47 174.905C68.9985 175.478 69.888 175.43 70.5661 174.79C71.2751 174.12 71.416 173.167 70.8611 172.594C70.3503 172.069 69.3375 172.126 68.7475 172.783" fill="#A2FF48"/>
<path d="M68.505 117.141C69.0246 117.671 69.9802 117.556 70.6231 116.894C71.244 116.255 71.354 115.337 70.8741 114.825C70.3721 114.287 69.4121 114.371 68.7604 115.011C68.0999 115.659 67.9854 116.612 68.505 117.141Z" fill="#A2FF48"/>
<path d="M138.772 25.135C139.507 25.1394 140.062 24.4689 140.079 23.547C140.101 22.6119 139.511 21.8223 138.785 21.8223C138.085 21.8223 137.499 22.5457 137.477 23.4367C137.455 24.416 138.001 25.1306 138.772 25.135Z" fill="#A2FF48"/>
<path d="M91.5 81.3676C91.5044 82.2763 92.0901 83.0041 92.7947 82.9776C93.4684 82.9556 94.0232 82.2498 94.0409 81.3896C94.0541 80.4898 93.4816 79.7355 92.777 79.7266C92.0769 79.7178 91.5 80.4589 91.5044 81.3676" fill="#A2FF48"/>
<path d="M91.4955 92.8014C91.4955 93.741 92.0283 94.4115 92.7725 94.3938C93.5035 94.3762 94.0539 93.666 94.0363 92.7617C94.0187 91.8927 93.4815 91.2355 92.7813 91.2134C92.0416 91.1914 91.4999 91.8619 91.4999 92.8014" fill="#A2FF48"/>
<path d="M125.983 173.807C125.996 174.715 126.582 175.408 127.304 175.368C127.978 175.333 128.537 174.592 128.533 173.758C128.524 172.876 127.93 172.197 127.19 172.228C126.441 172.258 125.974 172.876 125.988 173.807" fill="#A2FF48"/>
<path d="M92.7416 71.4078C93.4726 71.421 94.0318 70.7329 94.0318 69.8198C94.0318 68.9464 93.4241 68.1744 92.7416 68.1877C92.081 68.2009 91.5174 68.9155 91.4954 69.7668C91.4734 70.6976 91.9974 71.3901 92.7416 71.4078Z" fill="#A2FF48"/>
<path d="M149.472 163.221C150.067 163.79 150.991 163.851 151.454 163.357C151.934 162.846 151.806 161.986 151.163 161.372C150.555 160.79 149.6 160.711 149.177 161.2C148.75 161.699 148.891 162.669 149.468 163.221" fill="#A2FF48"/>
<path d="M91.5215 58.1967C91.5039 59.0922 92.0279 59.7759 92.7325 59.7803C93.4326 59.7847 94.0051 59.0966 94.0095 58.2497C94.0139 57.4336 93.4855 56.7543 92.8161 56.7146C92.1072 56.6749 91.5391 57.3278 91.5215 58.1967Z" fill="#A2FF48"/>
<path d="M59.1917 116.991C59.6056 116.541 59.4779 115.716 58.9055 115.156C58.3022 114.561 57.4787 114.495 57.0428 115.006C56.6289 115.491 56.7698 116.294 57.3643 116.837C57.9411 117.366 58.7778 117.437 59.1917 116.991Z" fill="#A2FF48"/>
<path d="M57.3067 174.592C57.8748 175.17 58.663 175.263 59.121 174.809C59.5613 174.372 59.4865 173.534 58.9625 172.974C58.4296 172.413 57.6282 172.33 57.1526 172.788C56.6726 173.251 56.7343 174.01 57.3067 174.592Z" fill="#A2FF48"/>
<path d="M92.7592 45.2578C92.1295 45.2578 91.6319 45.9195 91.6539 46.7267C91.6715 47.4501 92.1339 48.0192 92.7195 48.0368C93.3712 48.0545 93.8908 47.4193 93.8688 46.6297C93.8468 45.8533 93.3668 45.2578 92.7592 45.2622" fill="#A2FF48"/>
<path d="M34.4216 151.444C34.928 151.973 35.6898 152.092 36.1125 151.713C36.5309 151.338 36.4736 150.57 35.9804 150.037C35.4476 149.454 34.6726 149.335 34.2411 149.759C33.8359 150.156 33.9152 150.914 34.4216 151.444Z" fill="#A2FF48"/>
<path d="M34.5016 139.907C35.0476 140.428 35.7125 140.476 36.1441 140.022C36.5712 139.572 36.4875 138.919 35.9327 138.368C35.3735 137.812 34.6205 137.746 34.2153 138.213C33.8498 138.641 33.9775 139.404 34.506 139.903" fill="#A2FF48"/>
<path d="M137.776 173.764C137.772 174.492 138.182 175.012 138.763 175.026C139.344 175.039 139.771 174.527 139.78 173.804C139.789 173.058 139.397 172.56 138.794 172.551C138.177 172.542 137.781 173.01 137.776 173.76" fill="#A2FF48"/>
<path d="M103.328 23.5374C103.345 24.155 103.808 24.7108 104.314 24.7108C104.838 24.7108 105.283 24.0888 105.252 23.4007C105.221 22.7169 104.825 22.289 104.244 22.3199C103.698 22.3464 103.315 22.8581 103.332 23.5374" fill="#A2FF48"/>
<path d="M162.995 92.788C162.987 92.1749 162.463 91.6412 161.868 91.6367C161.221 91.6323 160.701 92.1925 160.736 92.8674C160.767 93.485 161.318 94.0143 161.899 93.979C162.502 93.9438 163.009 93.3968 163 92.7925" fill="#A2FF48"/>
<path d="M160.736 104.455C160.767 105.081 161.282 105.553 161.912 105.527C162.533 105.5 163.013 104.984 163 104.358C162.987 103.776 162.418 103.207 161.859 103.211C161.225 103.211 160.706 103.789 160.741 104.459" fill="#A2FF48"/>
<path d="M160.732 81.3804C160.745 82.0289 161.234 82.5009 161.885 82.492C162.528 82.4788 163.004 81.9804 162.995 81.3363C162.982 80.6923 162.484 80.2159 161.841 80.2247C161.198 80.238 160.723 80.7364 160.732 81.3804Z" fill="#A2FF48"/>
<path d="M160.732 69.8056C160.718 70.4496 161.198 70.9393 161.841 70.9481C162.489 70.9569 162.995 70.4673 162.991 69.8409C162.991 69.1969 162.506 68.6984 161.877 68.6896C161.234 68.6808 160.741 69.1572 160.732 69.8012" fill="#A2FF48"/>
<path d="M161.881 114.844C161.221 114.835 160.745 115.289 160.736 115.951C160.723 116.604 161.199 117.102 161.841 117.107C162.484 117.107 162.982 116.635 162.995 115.991C163.013 115.356 162.524 114.857 161.881 114.848" fill="#A2FF48"/>
<path d="M161.81 126.422C161.176 126.44 160.705 126.956 160.732 127.605C160.758 128.249 161.26 128.707 161.907 128.681C162.541 128.659 163.021 128.143 162.991 127.508C162.96 126.872 162.449 126.405 161.806 126.422" fill="#A2FF48"/>
<path d="M161.898 57.1199C161.268 57.0978 160.753 57.583 160.731 58.2094C160.709 58.849 161.189 59.3607 161.819 59.3739C162.457 59.3872 162.977 58.9108 162.99 58.2888C163.008 57.6492 162.532 57.1419 161.898 57.1199Z" fill="#A2FF48"/>
<path d="M161.85 140.195C162.449 140.195 162.942 139.723 162.947 139.149C162.947 138.567 162.476 138.108 161.863 138.1C161.225 138.095 160.789 138.51 160.789 139.132C160.789 139.727 161.256 140.195 161.85 140.195Z" fill="#A2FF48"/>
<path d="M91.9362 35.1745C91.9714 35.7921 92.3589 36.1891 92.8565 36.1229C93.2969 36.0656 93.6139 35.5936 93.5963 35.0201C93.5743 34.3805 93.2352 34.01 92.7024 34.0453C92.196 34.0762 91.9009 34.5084 91.9362 35.1745Z" fill="#A2FF48"/>
<path d="M151.114 23.5111C151.114 22.9377 150.775 22.5054 150.313 22.5098C149.881 22.5098 149.498 23.0038 149.516 23.5332C149.529 24.0096 149.912 24.486 150.295 24.5036C150.713 24.5213 151.114 24.0405 151.114 23.5111Z" fill="#A2FF48"/>
<path d="M45.9064 116.678C46.2499 116.991 46.7915 116.907 47.179 116.475C47.5225 116.096 47.5797 115.522 47.3111 115.24C47.0293 114.94 46.3952 115.024 46.0121 115.407C45.6202 115.8 45.5717 116.378 45.902 116.682" fill="#A2FF48"/>
<path d="M47.148 174.359C47.584 173.936 47.6412 173.437 47.2978 173.089C46.9675 172.753 46.4303 172.82 46.0251 173.239C45.6641 173.614 45.5936 174.161 45.871 174.469C46.1749 174.809 46.7341 174.76 47.148 174.359Z" fill="#A2FF48"/>
<path d="M34.4744 126.9C34.1486 127.249 34.2279 127.76 34.677 128.171C35.0469 128.515 35.6326 128.581 35.9056 128.312C36.183 128.038 36.1037 127.346 35.7559 126.997C35.3816 126.622 34.7871 126.578 34.4788 126.905" fill="#A2FF48"/>
<path d="M34.642 162.846C35.0471 163.269 35.5756 163.34 35.9102 163.009C36.2229 162.7 36.1568 162.096 35.7649 161.721C35.4346 161.403 34.8049 161.32 34.5187 161.562C34.2017 161.831 34.2633 162.449 34.642 162.846Z" fill="#A2FF48"/>
<path d="M161.872 47.6398C162.458 47.631 162.859 47.1943 162.828 46.5944C162.802 46.0606 162.361 45.6548 161.833 45.6724C161.34 45.6901 160.864 46.1532 160.846 46.6385C160.824 47.181 161.309 47.6486 161.872 47.6398Z" fill="#A2FF48"/>
<path d="M161.903 151.601C162.414 151.584 162.784 151.204 162.779 150.702C162.779 150.181 162.335 149.797 161.775 149.841C161.256 149.881 160.926 150.26 160.961 150.785C160.996 151.306 161.362 151.619 161.903 151.601Z" fill="#A2FF48"/>
<path d="M149.754 173.755C149.745 174.165 149.961 174.483 150.278 174.509C150.608 174.536 150.916 174.187 150.921 173.786C150.925 173.398 150.608 173.001 150.3 173.014C150.001 173.027 149.758 173.354 149.75 173.759" fill="#A2FF48"/>
<path d="M161.15 35.0558C161.137 35.4572 161.428 35.7969 161.802 35.8233C162.198 35.8498 162.586 35.4704 162.577 35.069C162.568 34.7117 162.216 34.3632 161.85 34.35C161.48 34.3368 161.159 34.6588 161.146 35.0602" fill="#A2FF48"/>
<path d="M80.632 104.384C80.632 104.746 80.905 105.116 81.1869 105.138C81.4995 105.156 81.7946 104.768 81.7813 104.353C81.7681 103.938 81.5347 103.665 81.2001 103.678C80.883 103.691 80.632 104 80.632 104.384Z" fill="#A2FF48"/>
<path d="M126.503 11.8964C126.499 12.2714 126.847 12.6198 127.226 12.6198C127.626 12.6198 127.943 12.3066 127.943 11.9052C127.943 11.4906 127.648 11.1906 127.239 11.1818C126.86 11.173 126.512 11.5126 126.508 11.892" fill="#A2FF48"/>
<path d="M92.2794 23.5113C92.2926 23.8422 92.5083 24.1245 92.7549 24.1289C93.0192 24.1333 93.2878 23.7716 93.2614 23.4451C93.2349 23.132 93.0059 22.8938 92.7329 22.9026C92.4555 22.907 92.2662 23.1628 92.2794 23.5113Z" fill="#A2FF48"/>
<path d="M161.868 162.899C162.216 162.899 162.454 162.661 162.449 162.304C162.449 161.964 162.198 161.691 161.877 161.682C161.547 161.673 161.199 162.021 161.216 162.343C161.23 162.639 161.533 162.899 161.864 162.899" fill="#A2FF48"/>
<path d="M138.798 11.3186C138.468 11.3098 138.195 11.548 138.173 11.8656C138.151 12.2008 138.371 12.4434 138.719 12.4743C139.111 12.5052 139.397 12.2626 139.392 11.8965C139.392 11.5833 139.128 11.3274 138.798 11.3186Z" fill="#A2FF48"/>
<path d="M115.209 11.9401C115.231 12.2577 115.508 12.4826 115.86 12.4738C116.221 12.4606 116.442 12.2268 116.42 11.8739C116.402 11.5342 116.129 11.296 115.794 11.3269C115.464 11.3578 115.187 11.6489 115.209 11.9445" fill="#A2FF48"/>
<path d="M34.7921 173.617C34.7921 174.031 35.0079 174.292 35.2237 174.261C35.4527 174.23 35.5716 174.049 35.5804 173.767C35.5892 173.484 35.3514 173.171 35.162 173.259C35.0035 173.33 34.8802 173.528 34.7921 173.612" fill="#A2FF48"/>
<path d="M69.1744 104.367C69.2096 104.658 69.3769 104.813 69.6676 104.83C69.9406 104.843 70.1916 104.636 70.1696 104.393C70.1432 104.111 69.9846 103.93 69.6896 103.926C69.399 103.921 69.2316 104.085 69.1788 104.371" fill="#A2FF48"/>
<path d="M161.454 185.537C161.489 185.828 161.657 185.982 161.947 186C162.22 186.013 162.471 185.806 162.449 185.563C162.423 185.281 162.264 185.1 161.969 185.096C161.679 185.091 161.511 185.255 161.458 185.541" fill="#A2FF48"/>
<path d="M149.926 185.537C149.961 185.828 150.128 185.982 150.419 186C150.692 186.013 150.943 185.806 150.921 185.563C150.894 185.281 150.736 185.1 150.441 185.096C150.15 185.091 149.983 185.255 149.93 185.541" fill="#A2FF48"/>
<path d="M138.397 185.537C138.432 185.828 138.6 185.982 138.89 186C139.163 186.013 139.414 185.806 139.392 185.563C139.366 185.281 139.207 185.1 138.912 185.096C138.622 185.091 138.454 185.255 138.402 185.541" fill="#A2FF48"/>
<path d="M126.864 185.537C126.9 185.828 127.067 185.982 127.358 186C127.631 186.013 127.882 185.806 127.86 185.563C127.833 185.281 127.675 185.1 127.38 185.096C127.089 185.091 126.922 185.255 126.869 185.541" fill="#A2FF48"/>
<path d="M115.336 185.537C115.371 185.828 115.539 185.982 115.825 186C116.098 186.013 116.349 185.806 116.327 185.563C116.3 185.281 116.142 185.1 115.847 185.096C115.552 185.091 115.389 185.255 115.336 185.541" fill="#A2FF48"/>
<path d="M103.808 185.537C103.843 185.828 104.01 185.982 104.296 186C104.569 186.013 104.82 185.806 104.798 185.563C104.772 185.281 104.613 185.1 104.318 185.096C104.023 185.091 103.86 185.255 103.808 185.541" fill="#A2FF48"/>
<path d="M92.2754 185.537C92.3106 185.828 92.4779 185.982 92.7641 186C93.0372 186.013 93.2882 185.806 93.2661 185.563C93.2397 185.281 93.0812 185.1 92.7862 185.096C92.4911 185.091 92.3282 185.255 92.2754 185.541" fill="#A2FF48"/>
<path d="M80.7469 185.537C80.7821 185.828 80.9494 185.982 81.2357 186C81.5087 186.013 81.7597 185.806 81.7377 185.563C81.7112 185.281 81.5527 185.1 81.2577 185.096C80.9627 185.091 80.7997 185.255 80.7469 185.541" fill="#A2FF48"/>
<path d="M69.2184 185.537C69.2537 185.828 69.421 185.982 69.7072 186C69.9802 186.013 70.2312 185.806 70.2092 185.563C70.1828 185.281 70.0243 185.1 69.7292 185.096C69.4386 185.091 69.2713 185.255 69.2184 185.541" fill="#A2FF48"/>
<path d="M57.6857 185.537C57.7209 185.828 57.8882 185.982 58.1744 186C58.4475 186.013 58.6985 185.806 58.6764 185.563C58.65 185.281 58.4915 185.1 58.1965 185.096C57.9058 185.091 57.7385 185.255 57.6857 185.541" fill="#A2FF48"/>
<path d="M46.1572 185.537C46.1924 185.828 46.3598 185.982 46.646 186C46.919 186.013 47.17 185.806 47.148 185.563C47.1216 185.281 46.963 185.1 46.668 185.096C46.3774 185.091 46.21 185.255 46.1572 185.541" fill="#A2FF48"/>
<path d="M34.6287 185.537C34.664 185.828 34.8313 185.982 35.1175 186C35.3905 186.013 35.6415 185.806 35.6195 185.563C35.5931 185.281 35.4346 185.1 35.1395 185.096C34.8489 185.091 34.6816 185.255 34.6287 185.541" fill="#A2FF48"/>
<path d="M23.0965 185.537C23.1317 185.828 23.299 185.982 23.5897 186C23.8627 186.013 24.1137 185.806 24.0917 185.563C24.0653 185.281 23.9067 185.1 23.6117 185.096C23.3167 185.091 23.1537 185.255 23.1009 185.541" fill="#A2FF48"/>
<path d="M23.0965 173.961C23.1317 174.252 23.299 174.406 23.5897 174.424C23.8627 174.437 24.1137 174.23 24.0917 173.987C24.0653 173.705 23.9067 173.524 23.6117 173.52C23.3167 173.515 23.1537 173.678 23.1009 173.961" fill="#A2FF48"/>
<path d="M23.0965 162.39C23.1317 162.682 23.299 162.836 23.5897 162.854C23.8627 162.867 24.1137 162.659 24.0917 162.417C24.0653 162.135 23.9067 161.954 23.6117 161.949C23.3167 161.945 23.1537 162.108 23.1009 162.395" fill="#A2FF48"/>
<path d="M23.0965 150.816C23.1317 151.107 23.299 151.262 23.5897 151.279C23.8627 151.293 24.1137 151.085 24.0917 150.843C24.0653 150.56 23.9067 150.379 23.6117 150.375C23.3167 150.371 23.1537 150.534 23.1009 150.821" fill="#A2FF48"/>
<path d="M23.0965 139.242C23.1317 139.533 23.299 139.687 23.5897 139.705C23.8627 139.718 24.1137 139.511 24.0917 139.268C24.0653 138.986 23.9067 138.805 23.6117 138.801C23.3167 138.796 23.1537 138.96 23.1009 139.242" fill="#A2FF48"/>
<path d="M23.0965 127.666C23.1317 127.957 23.299 128.111 23.5897 128.129C23.8627 128.142 24.1137 127.935 24.0917 127.692C24.0653 127.41 23.9067 127.229 23.6117 127.225C23.3167 127.22 23.1537 127.384 23.1009 127.67" fill="#A2FF48"/>
<path d="M23.0965 116.092C23.1317 116.383 23.299 116.537 23.5897 116.555C23.8627 116.568 24.1137 116.361 24.0917 116.118C24.0653 115.836 23.9067 115.655 23.6117 115.65C23.3167 115.646 23.1537 115.809 23.1009 116.096" fill="#A2FF48"/>
<path d="M23.0965 104.517C23.1317 104.809 23.299 104.963 23.5897 104.981C23.8627 104.994 24.1137 104.786 24.0917 104.544C24.0653 104.262 23.9067 104.081 23.6117 104.076C23.3167 104.072 23.1537 104.235 23.1009 104.517" fill="#A2FF48"/>
<path d="M23.0965 92.9432C23.1317 93.2343 23.299 93.3887 23.5897 93.4063C23.8627 93.4195 24.1137 93.2122 24.0917 92.9696C24.0653 92.6873 23.9067 92.5065 23.6117 92.502C23.3167 92.4976 23.1537 92.6608 23.1009 92.9476" fill="#A2FF48"/>
<path d="M23.0965 81.3728C23.1317 81.664 23.299 81.8184 23.5897 81.836C23.8627 81.8492 24.1137 81.6419 24.0917 81.3993C24.0653 81.117 23.9067 80.9361 23.6117 80.9317C23.3167 80.9273 23.1537 81.0905 23.1009 81.3773" fill="#A2FF48"/>
<path d="M23.0965 69.7967C23.1317 70.0878 23.299 70.2422 23.5897 70.2598C23.8627 70.2731 24.1137 70.0657 24.0917 69.8231C24.0653 69.5408 23.9067 69.36 23.6117 69.3556C23.3167 69.3511 23.1537 69.5144 23.1009 69.8011" fill="#A2FF48"/>
<path d="M23.0965 58.2224C23.1317 58.5136 23.299 58.668 23.5897 58.6856C23.8627 58.6989 24.1137 58.4915 24.0917 58.2489C24.0653 57.9666 23.9067 57.7857 23.6117 57.7813C23.3167 57.7769 23.1537 57.9401 23.1009 58.2269" fill="#A2FF48"/>
<path d="M23.0965 46.6482C23.1317 46.9394 23.299 47.0938 23.5897 47.1114C23.8627 47.1246 24.1137 46.9173 24.0917 46.6747C24.0653 46.3924 23.9067 46.2115 23.6117 46.2071C23.3167 46.2027 23.1537 46.3659 23.1009 46.6526" fill="#A2FF48"/>
<path d="M23.0965 35.0721C23.1317 35.3632 23.299 35.5176 23.5897 35.5352C23.8627 35.5485 24.1137 35.3411 24.0917 35.0985C24.0653 34.8162 23.9067 34.6354 23.6117 34.6309C23.3167 34.6265 23.1537 34.7897 23.1009 35.0765" fill="#A2FF48"/>
<path d="M23.0965 23.4978C23.1317 23.789 23.299 23.9434 23.5897 23.961C23.8627 23.9742 24.1137 23.7669 24.0917 23.5243C24.0653 23.242 23.9067 23.0611 23.6117 23.0567C23.3167 23.0523 23.1537 23.2155 23.1009 23.5023" fill="#A2FF48"/>
<path d="M23.0965 11.9275C23.1317 12.2187 23.299 12.3731 23.5897 12.3907C23.8627 12.4039 24.1137 12.1966 24.0917 11.954C24.0653 11.6717 23.9067 11.4908 23.6117 11.4864C23.3167 11.482 23.1537 11.6452 23.1009 11.9319" fill="#A2FF48"/>
<path d="M46.1572 104.517C46.1924 104.809 46.3598 104.963 46.646 104.981C46.919 104.994 47.17 104.786 47.148 104.544C47.1216 104.262 46.963 104.081 46.668 104.076C46.3774 104.072 46.21 104.235 46.1572 104.517Z" fill="#A2FF48"/>
<path d="M46.1572 92.9432C46.1924 93.2343 46.3598 93.3887 46.646 93.4063C46.919 93.4195 47.17 93.2122 47.148 92.9696C47.1216 92.6873 46.963 92.5065 46.668 92.502C46.3774 92.4976 46.21 92.6608 46.1572 92.9476" fill="#A2FF48"/>
<path d="M46.1572 81.3728C46.1924 81.664 46.3598 81.8184 46.646 81.836C46.919 81.8492 47.17 81.6419 47.148 81.3993C47.1216 81.117 46.963 80.9361 46.668 80.9317C46.3774 80.9273 46.21 81.0905 46.1572 81.3773" fill="#A2FF48"/>
<path d="M46.1572 69.7967C46.1924 70.0878 46.3598 70.2422 46.646 70.2598C46.919 70.2731 47.17 70.0657 47.148 69.8231C47.1216 69.5408 46.963 69.36 46.668 69.3556C46.3774 69.3511 46.21 69.5144 46.1572 69.8011" fill="#A2FF48"/>
<path d="M46.1572 58.2224C46.1924 58.5136 46.3598 58.668 46.646 58.6856C46.919 58.6989 47.17 58.4915 47.148 58.2489C47.1216 57.9666 46.963 57.7857 46.668 57.7813C46.3774 57.7769 46.21 57.9401 46.1572 58.2269" fill="#A2FF48"/>
<path d="M46.1572 46.6482C46.1924 46.9394 46.3598 47.0938 46.646 47.1114C46.919 47.1246 47.17 46.9173 47.148 46.6747C47.1216 46.3924 46.963 46.2115 46.668 46.2071C46.3774 46.2027 46.21 46.3659 46.1572 46.6526" fill="#A2FF48"/>
<path d="M46.1572 35.0721C46.1924 35.3632 46.3598 35.5176 46.646 35.5352C46.919 35.5485 47.17 35.3411 47.148 35.0985C47.1216 34.8162 46.963 34.6354 46.668 34.6309C46.3774 34.6265 46.21 34.7897 46.1572 35.0765" fill="#A2FF48"/>
<path d="M46.1572 23.4978C46.1924 23.789 46.3598 23.9434 46.646 23.961C46.919 23.9742 47.17 23.7669 47.148 23.5243C47.1216 23.242 46.963 23.0611 46.668 23.0567C46.3774 23.0523 46.21 23.2155 46.1572 23.5023" fill="#A2FF48"/>
<path d="M46.1572 11.9275C46.1924 12.2187 46.3598 12.3731 46.646 12.3907C46.919 12.4039 47.17 12.1966 47.148 11.954C47.1216 11.6717 46.963 11.4908 46.668 11.4864C46.3774 11.482 46.21 11.6452 46.1572 11.9319" fill="#A2FF48"/>
<path d="M57.6857 104.517C57.7209 104.809 57.8882 104.963 58.1744 104.981C58.4475 104.994 58.6985 104.786 58.6764 104.544C58.65 104.262 58.4915 104.081 58.1965 104.076C57.9058 104.072 57.7385 104.235 57.6857 104.517Z" fill="#A2FF48"/>
<path d="M57.6857 92.9432C57.7209 93.2343 57.8882 93.3887 58.1744 93.4063C58.4475 93.4195 58.6985 93.2122 58.6764 92.9696C58.65 92.6873 58.4915 92.5065 58.1965 92.502C57.9058 92.4976 57.7385 92.6608 57.6857 92.9476" fill="#A2FF48"/>
<path d="M57.6857 81.3728C57.7209 81.664 57.8882 81.8184 58.1744 81.836C58.4475 81.8492 58.6985 81.6419 58.6764 81.3993C58.65 81.117 58.4915 80.9361 58.1965 80.9317C57.9058 80.9273 57.7385 81.0905 57.6857 81.3773" fill="#A2FF48"/>
<path d="M57.6857 69.7967C57.7209 70.0878 57.8882 70.2422 58.1744 70.2598C58.4475 70.2731 58.6985 70.0657 58.6764 69.8231C58.65 69.5408 58.4915 69.36 58.1965 69.3556C57.9058 69.3511 57.7385 69.5144 57.6857 69.8011" fill="#A2FF48"/>
<path d="M57.6857 58.2224C57.7209 58.5136 57.8882 58.668 58.1744 58.6856C58.4475 58.6989 58.6985 58.4915 58.6764 58.2489C58.65 57.9666 58.4915 57.7857 58.1965 57.7813C57.9058 57.7769 57.7385 57.9401 57.6857 58.2269" fill="#A2FF48"/>
<path d="M57.6857 46.6482C57.7209 46.9394 57.8882 47.0938 58.1744 47.1114C58.4475 47.1246 58.6985 46.9173 58.6764 46.6747C58.65 46.3924 58.4915 46.2115 58.1965 46.2071C57.9058 46.2027 57.7385 46.3659 57.6857 46.6526" fill="#A2FF48"/>
<path d="M57.6857 35.0721C57.7209 35.3632 57.8882 35.5176 58.1744 35.5352C58.4475 35.5485 58.6985 35.3411 58.6764 35.0985C58.65 34.8162 58.4915 34.6354 58.1965 34.6309C57.9058 34.6265 57.7385 34.7897 57.6857 35.0765" fill="#A2FF48"/>
<path d="M57.6857 23.4978C57.7209 23.789 57.8882 23.9434 58.1744 23.961C58.4475 23.9742 58.6985 23.7669 58.6764 23.5243C58.65 23.242 58.4915 23.0611 58.1965 23.0567C57.9058 23.0523 57.7385 23.2155 57.6857 23.5023" fill="#A2FF48"/>
<path d="M57.6857 11.9275C57.7209 12.2187 57.8882 12.3731 58.1744 12.3907C58.4475 12.4039 58.6985 12.1966 58.6764 11.954C58.65 11.6717 58.4915 11.4908 58.1965 11.4864C57.9058 11.482 57.7385 11.6452 57.6857 11.9319" fill="#A2FF48"/>
<path d="M69.2184 92.9432C69.2537 93.2343 69.421 93.3887 69.7072 93.4063C69.9802 93.4195 70.2312 93.2122 70.2092 92.9696C70.1828 92.6873 70.0243 92.5065 69.7292 92.502C69.4386 92.4976 69.2713 92.6608 69.2184 92.9476" fill="#A2FF48"/>
<path d="M69.2184 81.3728C69.2537 81.664 69.421 81.8184 69.7072 81.836C69.9802 81.8492 70.2312 81.6419 70.2092 81.3993C70.1828 81.117 70.0243 80.9361 69.7292 80.9317C69.4386 80.9273 69.2713 81.0905 69.2184 81.3773" fill="#A2FF48"/>
<path d="M69.2184 69.7967C69.2537 70.0878 69.421 70.2422 69.7072 70.2598C69.9802 70.2731 70.2312 70.0657 70.2092 69.8231C70.1828 69.5408 70.0243 69.36 69.7292 69.3556C69.4386 69.3511 69.2713 69.5144 69.2184 69.8011" fill="#A2FF48"/>
<path d="M69.2184 58.2224C69.2537 58.5136 69.421 58.668 69.7072 58.6856C69.9802 58.6989 70.2312 58.4915 70.2092 58.2489C70.1828 57.9666 70.0243 57.7857 69.7292 57.7813C69.4386 57.7769 69.2713 57.9401 69.2184 58.2269" fill="#A2FF48"/>
<path d="M69.2184 46.6482C69.2537 46.9394 69.421 47.0938 69.7072 47.1114C69.9802 47.1246 70.2312 46.9173 70.2092 46.6747C70.1828 46.3924 70.0243 46.2115 69.7292 46.2071C69.4386 46.2027 69.2713 46.3659 69.2184 46.6526" fill="#A2FF48"/>
<path d="M69.2184 35.0721C69.2537 35.3632 69.421 35.5176 69.7072 35.5352C69.9802 35.5485 70.2312 35.3411 70.2092 35.0985C70.1828 34.8162 70.0243 34.6354 69.7292 34.6309C69.4386 34.6265 69.2713 34.7897 69.2184 35.0765" fill="#A2FF48"/>
<path d="M69.2184 23.4978C69.2537 23.789 69.421 23.9434 69.7072 23.961C69.9802 23.9742 70.2312 23.7669 70.2092 23.5243C70.1828 23.242 70.0243 23.0611 69.7292 23.0567C69.4386 23.0523 69.2713 23.2155 69.2184 23.5023" fill="#A2FF48"/>
<path d="M69.2184 11.9275C69.2537 12.2187 69.421 12.3731 69.7072 12.3907C69.9802 12.4039 70.2312 12.1966 70.2092 11.954C70.1828 11.6717 70.0243 11.4908 69.7292 11.4864C69.4386 11.482 69.2713 11.6452 69.2184 11.9319" fill="#A2FF48"/>
<path d="M80.7469 92.9432C80.7821 93.2343 80.9494 93.3887 81.2357 93.4063C81.5087 93.4195 81.7597 93.2122 81.7377 92.9696C81.7112 92.6873 81.5527 92.5065 81.2577 92.502C80.9627 92.4976 80.7997 92.6608 80.7469 92.9476" fill="#A2FF48"/>
<path d="M80.7469 81.3728C80.7821 81.664 80.9494 81.8184 81.2357 81.836C81.5087 81.8492 81.7597 81.6419 81.7377 81.3993C81.7112 81.117 81.5527 80.9361 81.2577 80.9317C80.9627 80.9273 80.7997 81.0905 80.7469 81.3773" fill="#A2FF48"/>
<path d="M80.7469 69.7967C80.7821 70.0878 80.9494 70.2422 81.2357 70.2598C81.5087 70.2731 81.7597 70.0657 81.7377 69.8231C81.7112 69.5408 81.5527 69.36 81.2577 69.3556C80.9627 69.3511 80.7997 69.5144 80.7469 69.8011" fill="#A2FF48"/>
<path d="M80.7469 58.2224C80.7821 58.5136 80.9494 58.668 81.2357 58.6856C81.5087 58.6989 81.7597 58.4915 81.7377 58.2489C81.7112 57.9666 81.5527 57.7857 81.2577 57.7813C80.9627 57.7769 80.7997 57.9401 80.7469 58.2269" fill="#A2FF48"/>
<path d="M80.7469 46.6482C80.7821 46.9394 80.9494 47.0938 81.2357 47.1114C81.5087 47.1246 81.7597 46.9173 81.7377 46.6747C81.7112 46.3924 81.5527 46.2115 81.2577 46.2071C80.9627 46.2027 80.7997 46.3659 80.7469 46.6526" fill="#A2FF48"/>
<path d="M80.7469 35.0721C80.7821 35.3632 80.9494 35.5176 81.2357 35.5352C81.5087 35.5485 81.7597 35.3411 81.7377 35.0985C81.7112 34.8162 81.5527 34.6354 81.2577 34.6309C80.9627 34.6265 80.7997 34.7897 80.7469 35.0765" fill="#A2FF48"/>
<path d="M80.7469 23.4978C80.7821 23.789 80.9494 23.9434 81.2357 23.961C81.5087 23.9742 81.7597 23.7669 81.7377 23.5243C81.7112 23.242 81.5527 23.0611 81.2577 23.0567C80.9627 23.0523 80.7997 23.2155 80.7469 23.5023" fill="#A2FF48"/>
<path d="M80.7469 11.9275C80.7821 12.2187 80.9494 12.3731 81.2357 12.3907C81.5087 12.4039 81.7597 12.1966 81.7377 11.954C81.7112 11.6717 81.5527 11.4908 81.2577 11.4864C80.9627 11.482 80.7997 11.6452 80.7469 11.9319" fill="#A2FF48"/>
<path d="M34.5891 104.517C34.6243 104.809 34.7917 104.963 35.0779 104.981C35.3509 104.994 35.6019 104.786 35.5799 104.544C35.5535 104.262 35.3949 104.081 35.0999 104.076C34.8093 104.072 34.6419 104.235 34.5891 104.517Z" fill="#A2FF48"/>
<path d="M34.5891 92.9432C34.6243 93.2343 34.7917 93.3887 35.0779 93.4063C35.3509 93.4195 35.6019 93.2122 35.5799 92.9696C35.5535 92.6873 35.3949 92.5065 35.0999 92.502C34.8093 92.4976 34.6419 92.6608 34.5891 92.9476" fill="#A2FF48"/>
<path d="M34.5891 81.3728C34.6243 81.664 34.7917 81.8184 35.0779 81.836C35.3509 81.8492 35.6019 81.6419 35.5799 81.3993C35.5535 81.117 35.3949 80.9361 35.0999 80.9317C34.8093 80.9273 34.6419 81.0905 34.5891 81.3773" fill="#A2FF48"/>
<path d="M34.5891 69.7967C34.6243 70.0878 34.7917 70.2422 35.0779 70.2598C35.3509 70.2731 35.6019 70.0657 35.5799 69.8231C35.5535 69.5408 35.3949 69.36 35.0999 69.3556C34.8093 69.3511 34.6419 69.5144 34.5891 69.8011" fill="#A2FF48"/>
<path d="M34.5891 58.2224C34.6243 58.5136 34.7917 58.668 35.0779 58.6856C35.3509 58.6989 35.6019 58.4915 35.5799 58.2489C35.5535 57.9666 35.3949 57.7857 35.0999 57.7813C34.8093 57.7769 34.6419 57.9401 34.5891 58.2269" fill="#A2FF48"/>
<path d="M34.5891 46.6482C34.6243 46.9394 34.7917 47.0938 35.0779 47.1114C35.3509 47.1246 35.6019 46.9173 35.5799 46.6747C35.5535 46.3924 35.3949 46.2115 35.0999 46.2071C34.8093 46.2027 34.6419 46.3659 34.5891 46.6526" fill="#A2FF48"/>
<path d="M34.5891 35.0721C34.6243 35.3632 34.7917 35.5176 35.0779 35.5352C35.3509 35.5485 35.6019 35.3411 35.5799 35.0985C35.5535 34.8162 35.3949 34.6354 35.0999 34.6309C34.8093 34.6265 34.6419 34.7897 34.5891 35.0765" fill="#A2FF48"/>
<path d="M34.5891 23.4978C34.6243 23.789 34.7917 23.9434 35.0779 23.961C35.3509 23.9742 35.6019 23.7669 35.5799 23.5243C35.5535 23.242 35.3949 23.0611 35.0999 23.0567C34.8093 23.0523 34.6419 23.2155 34.5891 23.5023" fill="#A2FF48"/>
<path d="M34.5891 11.9275C34.6243 12.2187 34.7917 12.3731 35.0779 12.3907C35.3509 12.4039 35.6019 12.1966 35.5799 11.954C35.5535 11.6717 35.3949 11.4908 35.0999 11.4864C34.8093 11.482 34.6419 11.6452 34.5891 11.9319" fill="#A2FF48"/>
<path d="M23.0965 0.441199C23.1317 0.732333 23.299 0.886723 23.5897 0.904367C23.8627 0.9176 24.1137 0.710278 24.0917 0.467666C24.0653 0.185354 23.9067 0.00449828 23.6117 8.71624e-05C23.3167 -0.00432396 23.1537 0.158888 23.1009 0.44561" fill="#A2FF48"/>
<path d="M46.1572 0.441199C46.1924 0.732333 46.3598 0.886723 46.646 0.904367C46.919 0.9176 47.17 0.710278 47.148 0.467666C47.1216 0.185354 46.963 0.00449828 46.668 8.71624e-05C46.3774 -0.00432396 46.21 0.158888 46.1572 0.44561" fill="#A2FF48"/>
<path d="M57.6857 0.441199C57.7209 0.732333 57.8882 0.886723 58.1744 0.904367C58.4475 0.9176 58.6985 0.710278 58.6764 0.467666C58.65 0.185354 58.4915 0.00449828 58.1965 8.71624e-05C57.9058 -0.00432396 57.7385 0.158888 57.6857 0.44561" fill="#A2FF48"/>
<path d="M69.2184 0.441199C69.2537 0.732333 69.421 0.886723 69.7072 0.904367C69.9802 0.9176 70.2312 0.710278 70.2092 0.467666C70.1828 0.185354 70.0243 0.00449828 69.7292 8.71624e-05C69.4386 -0.00432396 69.2713 0.158888 69.2184 0.44561" fill="#A2FF48"/>
<path d="M34.5891 0.441199C34.6243 0.732333 34.7917 0.886723 35.0779 0.904367C35.3509 0.9176 35.6019 0.710278 35.5799 0.467666C35.5535 0.185354 35.3949 0.00449828 35.0999 8.71624e-05C34.8093 -0.00432396 34.6419 0.158888 34.5891 0.44561" fill="#A2FF48"/>
<path d="M80.7289 0.441199C80.7642 0.732333 80.9315 0.886723 81.2177 0.904367C81.4907 0.9176 81.7417 0.710278 81.7197 0.467666C81.6933 0.185354 81.5348 0.00449828 81.2397 8.71624e-05C80.9447 -0.00432396 80.7818 0.158888 80.7289 0.44561" fill="#A2FF48"/>
<path d="M103.79 0.441199C103.825 0.732333 103.993 0.886723 104.283 0.904367C104.556 0.9176 104.807 0.710278 104.785 0.467666C104.759 0.185354 104.6 0.00449828 104.305 8.71624e-05C104.015 -0.00432396 103.847 0.158888 103.795 0.44561" fill="#A2FF48"/>
<path d="M115.319 0.441199C115.354 0.732333 115.521 0.886723 115.812 0.904367C116.085 0.9176 116.336 0.710278 116.314 0.467666C116.287 0.185354 116.129 0.00449828 115.834 8.71624e-05C115.543 -0.00432396 115.376 0.158888 115.323 0.44561" fill="#A2FF48"/>
<path d="M126.847 0.441199C126.882 0.732333 127.05 0.886723 127.34 0.904367C127.613 0.9176 127.864 0.710278 127.842 0.467666C127.816 0.185354 127.657 0.00449828 127.362 8.71624e-05C127.072 -0.00432396 126.904 0.158888 126.851 0.44561" fill="#A2FF48"/>
<path d="M92.2221 0.441199C92.2573 0.732333 92.4247 0.886723 92.7109 0.904367C92.9839 0.9176 93.2349 0.710278 93.2129 0.467666C93.1865 0.185354 93.0279 0.00449828 92.7329 8.71624e-05C92.4379 -0.00432396 92.2749 0.158888 92.2221 0.44561" fill="#A2FF48"/>
<path d="M138.362 0.441199C138.397 0.732333 138.564 0.886723 138.851 0.904367C139.124 0.9176 139.375 0.710278 139.353 0.467666C139.326 0.185354 139.168 0.00449828 138.873 8.71624e-05C138.578 -0.00432396 138.415 0.158888 138.362 0.44561" fill="#A2FF48"/>
<path d="M161.419 0.441199C161.454 0.732333 161.621 0.886723 161.908 0.904367C162.181 0.9176 162.432 0.710278 162.41 0.467666C162.383 0.185354 162.225 0.00449828 161.93 8.71624e-05C161.635 -0.00432396 161.472 0.158888 161.419 0.44561" fill="#A2FF48"/>
<path d="M149.855 0.441199C149.89 0.732333 150.058 0.886723 150.344 0.904367C150.617 0.9176 150.868 0.710278 150.846 0.467666C150.819 0.185354 150.661 0.00449828 150.366 8.71624e-05C150.071 -0.00432396 149.908 0.158888 149.855 0.44561" fill="#A2FF48"/>
<path d="M11.5458 185.537C11.581 185.828 11.7484 185.982 12.0346 186C12.3076 186.013 12.5586 185.806 12.5366 185.563C12.5102 185.281 12.3516 185.1 12.0566 185.096C11.7616 185.091 11.5986 185.255 11.5458 185.541" fill="#A2FF48"/>
<path d="M11.5458 173.961C11.581 174.252 11.7484 174.406 12.0346 174.424C12.3076 174.437 12.5586 174.23 12.5366 173.987C12.5102 173.705 12.3516 173.524 12.0566 173.52C11.7616 173.515 11.5986 173.678 11.5458 173.961Z" fill="#A2FF48"/>
<path d="M11.5458 162.39C11.581 162.682 11.7484 162.836 12.0346 162.854C12.3076 162.867 12.5586 162.659 12.5366 162.417C12.5102 162.135 12.3516 161.954 12.0566 161.949C11.7616 161.945 11.5986 162.108 11.5458 162.395" fill="#A2FF48"/>
<path d="M11.5458 150.816C11.581 151.107 11.7484 151.262 12.0346 151.279C12.3076 151.293 12.5586 151.085 12.5366 150.843C12.5102 150.56 12.3516 150.379 12.0566 150.375C11.7616 150.371 11.5986 150.534 11.5458 150.821" fill="#A2FF48"/>
<path d="M11.5458 139.242C11.581 139.533 11.7484 139.687 12.0346 139.705C12.3076 139.718 12.5586 139.511 12.5366 139.268C12.5102 138.986 12.3516 138.805 12.0566 138.801C11.7616 138.796 11.5986 138.96 11.5458 139.242Z" fill="#A2FF48"/>
<path d="M11.5458 127.666C11.581 127.957 11.7484 128.111 12.0346 128.129C12.3076 128.142 12.5586 127.935 12.5366 127.692C12.5102 127.41 12.3516 127.229 12.0566 127.225C11.7616 127.22 11.5986 127.384 11.5458 127.67" fill="#A2FF48"/>
<path d="M11.5458 116.092C11.581 116.383 11.7484 116.537 12.0346 116.555C12.3076 116.568 12.5586 116.361 12.5366 116.118C12.5102 115.836 12.3516 115.655 12.0566 115.65C11.7616 115.646 11.5986 115.809 11.5458 116.096" fill="#A2FF48"/>
<path d="M11.5458 104.517C11.581 104.809 11.7484 104.963 12.0346 104.981C12.3076 104.994 12.5586 104.786 12.5366 104.544C12.5102 104.262 12.3516 104.081 12.0566 104.076C11.7616 104.072 11.5986 104.235 11.5458 104.517Z" fill="#A2FF48"/>
<path d="M11.5458 92.9432C11.581 93.2343 11.7484 93.3887 12.0346 93.4063C12.3076 93.4195 12.5586 93.2122 12.5366 92.9696C12.5102 92.6873 12.3516 92.5065 12.0566 92.502C11.7616 92.4976 11.5986 92.6608 11.5458 92.9476" fill="#A2FF48"/>
<path d="M11.5458 81.3728C11.581 81.664 11.7484 81.8184 12.0346 81.836C12.3076 81.8492 12.5586 81.6419 12.5366 81.3993C12.5102 81.117 12.3516 80.9361 12.0566 80.9317C11.7616 80.9273 11.5986 81.0905 11.5458 81.3773" fill="#A2FF48"/>
<path d="M11.5458 69.7967C11.581 70.0878 11.7484 70.2422 12.0346 70.2598C12.3076 70.2731 12.5586 70.0657 12.5366 69.8231C12.5102 69.5408 12.3516 69.36 12.0566 69.3556C11.7616 69.3511 11.5986 69.5144 11.5458 69.8011" fill="#A2FF48"/>
<path d="M11.5458 58.2224C11.581 58.5136 11.7484 58.668 12.0346 58.6856C12.3076 58.6989 12.5586 58.4915 12.5366 58.2489C12.5102 57.9666 12.3516 57.7857 12.0566 57.7813C11.7616 57.7769 11.5986 57.9401 11.5458 58.2269" fill="#A2FF48"/>
<path d="M11.5458 46.6482C11.581 46.9394 11.7484 47.0938 12.0346 47.1114C12.3076 47.1246 12.5586 46.9173 12.5366 46.6747C12.5102 46.3924 12.3516 46.2115 12.0566 46.2071C11.7616 46.2027 11.5986 46.3659 11.5458 46.6526" fill="#A2FF48"/>
<path d="M11.5458 35.0721C11.581 35.3632 11.7484 35.5176 12.0346 35.5352C12.3076 35.5485 12.5586 35.3411 12.5366 35.0985C12.5102 34.8162 12.3516 34.6354 12.0566 34.6309C11.7616 34.6265 11.5986 34.7897 11.5458 35.0765" fill="#A2FF48"/>
<path d="M11.5458 23.4978C11.581 23.789 11.7484 23.9434 12.0346 23.961C12.3076 23.9742 12.5586 23.7669 12.5366 23.5243C12.5102 23.242 12.3516 23.0611 12.0566 23.0567C11.7616 23.0523 11.5986 23.2155 11.5458 23.5023" fill="#A2FF48"/>
<path d="M11.5458 11.9275C11.581 12.2187 11.7484 12.3731 12.0346 12.3907C12.3076 12.4039 12.5586 12.1966 12.5366 11.954C12.5102 11.6717 12.3516 11.4908 12.0566 11.4864C11.7616 11.482 11.5986 11.6452 11.5458 11.9319" fill="#A2FF48"/>
<path d="M11.5458 0.441199C11.581 0.732333 11.7484 0.886723 12.0346 0.904367C12.3076 0.9176 12.5586 0.710278 12.5366 0.467666C12.5102 0.185354 12.3516 0.00449828 12.0566 8.71624e-05C11.7616 -0.00432396 11.5986 0.158888 11.5458 0.44561" fill="#A2FF48"/>
<path d="M7.09295e-06 185.537C0.035235 185.828 0.202561 185.982 0.488788 186C0.761805 186.013 1.01281 185.806 0.990793 185.563C0.964372 185.281 0.805848 185.1 0.510814 185.096C0.220183 185.091 0.052849 185.255 7.09295e-06 185.541" fill="#A2FF48"/>
<path d="M7.09295e-06 173.961C0.035235 174.252 0.202561 174.406 0.488788 174.424C0.761805 174.437 1.01281 174.23 0.990793 173.987C0.964372 173.705 0.805848 173.524 0.510814 173.52C0.220183 173.515 0.052849 173.678 7.09295e-06 173.961Z" fill="#A2FF48"/>
<path d="M7.09295e-06 162.39C0.035235 162.682 0.202561 162.836 0.488788 162.854C0.761805 162.867 1.01281 162.659 0.990793 162.417C0.964372 162.135 0.805848 161.954 0.510814 161.949C0.220183 161.945 0.052849 162.108 7.09295e-06 162.395" fill="#A2FF48"/>
<path d="M7.09295e-06 150.816C0.035235 151.107 0.202561 151.262 0.488788 151.279C0.761805 151.293 1.01281 151.085 0.990793 150.843C0.964372 150.56 0.805848 150.379 0.510814 150.375C0.220183 150.371 0.052849 150.534 7.09295e-06 150.821" fill="#A2FF48"/>
<path d="M7.09295e-06 139.242C0.035235 139.533 0.202561 139.687 0.488788 139.705C0.761805 139.718 1.01281 139.511 0.990793 139.268C0.964372 138.986 0.805848 138.805 0.510814 138.801C0.220183 138.796 0.052849 138.96 7.09295e-06 139.242Z" fill="#A2FF48"/>
<path d="M7.09295e-06 127.666C0.035235 127.957 0.202561 128.111 0.488788 128.129C0.761805 128.142 1.01281 127.935 0.990793 127.692C0.964372 127.41 0.805848 127.229 0.510814 127.225C0.220183 127.22 0.052849 127.384 7.09295e-06 127.67" fill="#A2FF48"/>
<path d="M7.09295e-06 116.092C0.035235 116.383 0.202561 116.537 0.488788 116.555C0.761805 116.568 1.01281 116.361 0.990793 116.118C0.964372 115.836 0.805848 115.655 0.510814 115.65C0.220183 115.646 0.052849 115.809 7.09295e-06 116.096" fill="#A2FF48"/>
<path d="M7.09295e-06 104.517C0.035235 104.809 0.202561 104.963 0.488788 104.981C0.761805 104.994 1.01281 104.786 0.990793 104.544C0.964372 104.262 0.805848 104.081 0.510814 104.076C0.220183 104.072 0.052849 104.235 7.09295e-06 104.517Z" fill="#A2FF48"/>
<path d="M7.09295e-06 92.9432C0.035235 93.2343 0.202561 93.3887 0.488788 93.4063C0.761805 93.4195 1.01281 93.2122 0.990793 92.9696C0.964372 92.6873 0.805848 92.5065 0.510814 92.502C0.220183 92.4976 0.052849 92.6608 7.09295e-06 92.9476" fill="#A2FF48"/>
<path d="M7.09295e-06 81.3728C0.035235 81.664 0.202561 81.8184 0.488788 81.836C0.761805 81.8492 1.01281 81.6419 0.990793 81.3993C0.964372 81.117 0.805848 80.9361 0.510814 80.9317C0.220183 80.9273 0.052849 81.0905 7.09295e-06 81.3773" fill="#A2FF48"/>
<path d="M7.09295e-06 69.7967C0.035235 70.0878 0.202561 70.2422 0.488788 70.2598C0.761805 70.2731 1.01281 70.0657 0.990793 69.8231C0.964372 69.5408 0.805848 69.36 0.510814 69.3556C0.220183 69.3511 0.052849 69.5144 7.09295e-06 69.8011" fill="#A2FF48"/>
<path d="M7.09295e-06 58.2224C0.035235 58.5136 0.202561 58.668 0.488788 58.6856C0.761805 58.6989 1.01281 58.4915 0.990793 58.2489C0.964372 57.9666 0.805848 57.7857 0.510814 57.7813C0.220183 57.7769 0.052849 57.9401 7.09295e-06 58.2269" fill="#A2FF48"/>
<path d="M7.09295e-06 46.6482C0.035235 46.9394 0.202561 47.0938 0.488788 47.1114C0.761805 47.1246 1.01281 46.9173 0.990793 46.6747C0.964372 46.3924 0.805848 46.2115 0.510814 46.2071C0.220183 46.2027 0.052849 46.3659 7.09295e-06 46.6526" fill="#A2FF48"/>
<path d="M7.09295e-06 35.0721C0.035235 35.3632 0.202561 35.5176 0.488788 35.5352C0.761805 35.5485 1.01281 35.3411 0.990793 35.0985C0.964372 34.8162 0.805848 34.6354 0.510814 34.6309C0.220183 34.6265 0.052849 34.7897 7.09295e-06 35.0765" fill="#A2FF48"/>
<path d="M7.09295e-06 23.4978C0.035235 23.789 0.202561 23.9434 0.488788 23.961C0.761805 23.9742 1.01281 23.7669 0.990793 23.5243C0.964372 23.242 0.805848 23.0611 0.510814 23.0567C0.220183 23.0523 0.052849 23.2155 7.09295e-06 23.5023" fill="#A2FF48"/>
<path d="M7.09295e-06 11.9275C0.035235 12.2187 0.202561 12.3731 0.488788 12.3907C0.761805 12.4039 1.01281 12.1966 0.990793 11.954C0.964372 11.6717 0.805848 11.4908 0.510814 11.4864C0.220183 11.482 0.052849 11.6452 7.09295e-06 11.9319" fill="#A2FF48"/>
<path d="M7.09295e-06 0.441199C0.035235 0.732333 0.202561 0.886723 0.488788 0.904367C0.761805 0.9176 1.01281 0.710278 0.990793 0.467666C0.964372 0.185354 0.805848 0.00449828 0.510814 8.71624e-05C0.220183 -0.00432396 0.052849 0.158888 7.09295e-06 0.44561" fill="#A2FF48"/>
<path d="M161.454 173.961C161.489 174.252 161.657 174.406 161.947 174.424C162.22 174.437 162.471 174.23 162.449 173.987C162.423 173.705 162.264 173.524 161.969 173.52C161.679 173.515 161.511 173.678 161.458 173.961" fill="#A2FF48"/>
<path d="M161.454 23.4978C161.489 23.789 161.657 23.9434 161.947 23.961C162.22 23.9742 162.471 23.7669 162.449 23.5243C162.423 23.242 162.264 23.0611 161.969 23.0567C161.679 23.0523 161.511 23.2155 161.458 23.5023" fill="#A2FF48"/>
<path d="M161.454 11.9275C161.489 12.2187 161.657 12.3731 161.947 12.3907C162.22 12.4039 162.471 12.1966 162.449 11.954C162.423 11.6717 162.264 11.4908 161.969 11.4864C161.679 11.482 161.511 11.6452 161.458 11.9319" fill="#A2FF48"/>
<path d="M103.812 11.9275C103.848 12.2187 104.015 12.3731 104.301 12.3907C104.574 12.4039 104.825 12.1966 104.803 11.954C104.777 11.6717 104.618 11.4908 104.323 11.4864C104.028 11.482 103.865 11.6452 103.812 11.9319" fill="#A2FF48"/>
<path d="M92.2754 11.9275C92.3106 12.2187 92.4779 12.3731 92.7641 12.3907C93.0372 12.4039 93.2882 12.1966 93.2661 11.954C93.2397 11.6717 93.0812 11.4908 92.7862 11.4864C92.4911 11.482 92.3282 11.6452 92.2754 11.9319" fill="#A2FF48"/>
<path d="M149.926 11.9275C149.961 12.2187 150.128 12.3731 150.419 12.3907C150.692 12.4039 150.943 12.1966 150.921 11.954C150.894 11.6717 150.736 11.4908 150.441 11.4864C150.15 11.482 149.983 11.6452 149.93 11.9319" fill="#A2FF48"/>
</g>
</svg>
