<svg width="207" height="236" viewBox="0 0 207 236" fill="none" xmlns="http://www.w3.org/2000/svg">
<g opacity="0.2">
<path d="M64.9552 180.868C63.0489 182.975 58.9399 183.048 55.7926 179.876C52.9359 176.994 52.4886 173.158 54.7975 170.778C57.2125 168.286 61.3997 169.217 63.9713 171.798C66.8 174.635 67.1522 178.917 64.9552 180.874" fill="#A2FF48"/>
<path d="M41.381 157.168C44.1818 154.375 48.2683 153.912 50.4654 156.186C52.4779 158.271 52.5729 162.057 49.4647 165.201C46.4067 168.295 42.5158 168.351 40.3691 166.243C38.1106 164.03 38.5746 159.972 41.381 157.168Z" fill="#A2FF48"/>
<path d="M49.3069 150.576C46.4782 153.374 42.5985 153.77 40.3679 151.479C38.2044 149.26 38.6461 145.28 41.3798 142.576C43.9513 140.028 47.9652 139.17 50.3747 141.606C52.8512 144.109 51.8282 148.229 49.3069 150.576Z" fill="#A2FF48"/>
<path d="M49.3186 121.269C46.8197 123.9 42.666 124.53 40.4243 122.25C38.2272 120.015 38.6186 116.135 41.4082 113.342C44.3152 110.432 48.2117 110.175 50.3919 112.372C52.7287 114.724 51.8734 118.905 49.3186 121.269Z" fill="#A2FF48"/>
<path d="M49.2912 135.922C46.5072 138.681 42.661 139.055 40.4081 136.853C38.6192 135.102 38.116 131.267 41.4255 127.955C44.3996 124.979 48.2738 124.806 50.3981 127.024C52.8579 129.594 51.7342 133.625 49.2856 135.922" fill="#A2FF48"/>
<path d="M40.4478 107.755C38.4297 105.899 38.4241 101.924 41.4317 98.8635C43.7405 96.5109 47.7712 95.329 50.3707 97.9826C52.9591 100.625 51.5503 104.711 49.3253 106.847C46.5078 109.545 42.6616 109.985 40.4534 107.755" fill="#A2FF48"/>
<path d="M50.3482 83.3442C52.4054 85.2118 52.2825 89.3428 49.3531 92.2138C46.5523 94.9566 42.7341 95.3803 40.47 93.2061C38.3848 91.1992 38.4574 87.1964 41.4707 84.2418C44.6069 81.1589 48.5704 81.3652 50.3482 83.3498" fill="#A2FF48"/>
<path d="M50.3578 170.945C52.5325 173.141 52.0741 177.139 49.3348 179.848C47.0483 182.106 43.04 183.41 40.4293 180.773C38.1484 178.471 38.7187 174.68 41.458 171.848C44.119 169.1 48.172 168.737 50.3578 170.945Z" fill="#A2FF48"/>
<path d="M55.982 165.127C53.3154 162.562 52.7955 158.532 54.959 156.324C56.8206 154.423 60.7171 154.25 63.7694 157.283C66.7882 160.282 66.7211 164.162 64.7813 166.085C62.5954 168.249 58.7101 167.836 55.982 165.121" fill="#A2FF48"/>
<path d="M49.2743 77.4516C47.1779 79.7485 43.069 81.0195 40.5142 78.4272C38.1886 76.0691 39.0607 72.1667 41.5372 69.7193C44.2318 67.0601 48.0947 66.6253 50.2359 68.7716C52.4496 70.9848 51.8738 75.0043 49.2743 77.4516Z" fill="#A2FF48"/>
<path d="M69.7745 180.557C67.6558 178.583 68.0415 174.72 70.6634 172.066C73.2909 169.407 77.1427 168.989 79.2726 171.085C81.1006 172.886 81.3299 176.649 78.2663 179.687C75.4544 182.469 71.6417 182.597 69.7745 180.562" fill="#A2FF48"/>
<path d="M64.4855 151.152C62.473 153.337 58.5597 152.64 56.1838 150.237C53.629 147.651 53.3551 143.927 55.2558 141.998C57.1957 140.035 60.8574 140.186 63.5687 142.845C66.1682 145.398 66.5428 149.089 64.4855 151.152Z" fill="#A2FF48"/>
<path d="M63.5134 186.863C65.839 189.059 66.5658 192.9 64.3743 195.052C62.5742 196.814 59.0914 196.925 56.2459 194.104C53.5905 191.468 53.3948 187.866 55.385 185.915C57.5261 183.819 61.3388 184.56 63.5134 186.863Z" fill="#A2FF48"/>
<path d="M63.5074 128.315C66.0007 130.807 66.4591 134.447 64.4242 136.438C62.2719 138.539 58.8171 138.071 56.3014 135.573C53.2211 132.513 53.7354 128.939 55.379 127.373C57.4363 125.422 60.9973 125.801 63.5074 128.315Z" fill="#A2FF48"/>
<path d="M64.3681 121.809C62.6351 123.666 58.9063 123.577 56.2676 120.862C53.7464 118.264 53.3774 114.852 55.4067 112.778C57.4136 110.727 61.1704 111.312 63.5239 113.709C66.0061 116.24 66.3974 119.797 64.3681 121.809Z" fill="#A2FF48"/>
<path d="M56.3123 106.424C53.7127 103.943 53.4165 100.241 55.3563 98.3181C57.3633 96.3279 60.9914 96.7237 63.4847 99.2101C65.9836 101.702 66.3973 105.331 64.4183 107.338C62.4225 109.351 58.8447 108.949 56.3123 106.424Z" fill="#A2FF48"/>
<path d="M56.279 91.8183C53.7633 89.2873 53.372 85.7361 55.3901 83.7181C57.3523 81.7501 61.042 82.185 63.5241 84.6769C65.9951 87.1577 66.392 90.8092 64.3906 92.7883C62.4731 94.6893 58.8002 94.4496 56.279 91.8183Z" fill="#A2FF48"/>
<path d="M70.9364 186.913C73.4688 184.376 76.9964 183.975 79.0201 186.004C81.0326 188.022 80.6245 191.579 78.0921 194.093C75.5988 196.568 72.0768 196.958 70.0755 194.985C68.0294 192.961 68.404 189.455 70.9364 186.913Z" fill="#A2FF48"/>
<path d="M84.7231 171.365C86.6071 169.313 90.4533 169.915 92.7286 172.268C95.2051 174.827 95.6356 178.384 93.6174 180.368C91.6217 182.336 87.9656 181.885 85.489 179.354C82.951 176.761 82.7609 173.099 84.7231 171.365Z" fill="#A2FF48"/>
<path d="M92.7734 186.985C95.1716 189.416 95.5741 193.011 93.6287 194.912C91.6832 196.813 88.2452 196.657 85.6121 194.015C82.9846 191.383 82.8337 187.949 84.7568 186.009C86.7134 184.03 90.308 184.482 92.7734 186.979" fill="#A2FF48"/>
<path d="M64.2624 78.0129C62.3057 79.9585 58.7782 79.5627 56.3352 77.1209C53.8922 74.6736 53.5176 71.1837 55.4966 69.2158C57.4924 67.2367 60.9305 67.6214 63.3958 70.1078C65.8556 72.5886 66.2358 76.0505 64.2624 78.0129Z" fill="#A2FF48"/>
<path d="M99.4653 180.223C97.4583 178.244 97.8273 174.815 100.304 172.335C102.752 169.882 106.28 169.491 108.231 171.448C110.143 173.366 109.763 176.895 107.381 179.297C104.927 181.773 101.45 182.18 99.4653 180.223Z" fill="#A2FF48"/>
<path d="M100.337 186.976C102.383 184.835 105.944 183.87 108.18 186.045C110.539 188.336 109.449 191.937 107.314 194.039C104.876 196.436 101.231 196.843 99.3808 194.831C97.3012 192.567 98.1286 189.122 100.331 186.976" fill="#A2FF48"/>
<path d="M41.0849 63.2852C38.9773 61.4176 39.6425 57.6992 41.8787 55.5027C44.3552 53.0721 47.7262 52.6373 49.694 54.5662C51.6786 56.5118 51.332 60.0685 48.8946 62.4601C46.4628 64.8462 42.857 65.2698 41.0849 63.2796" fill="#A2FF48"/>
<path d="M49.6714 186.193C51.6057 188.116 51.2311 191.505 48.8217 193.914C46.4178 196.317 43.0356 196.668 41.0846 194.761C39.5864 193.289 39.1224 190.023 41.9232 187.096C44.232 184.682 47.7651 184.297 49.6658 186.193" fill="#A2FF48"/>
<path d="M121.837 187.107C124.034 189.17 124.722 192.654 122.704 194.728C120.87 196.612 117.393 196.166 115.062 193.814C112.91 191.645 112.233 188.284 114.223 186.26C116.208 184.242 119.719 184.866 121.843 187.102" fill="#A2FF48"/>
<path d="M122.642 180.06C120.753 181.911 117.437 181.538 115.112 179.202C112.993 177.072 112.166 173.694 114.307 171.592C116.437 169.496 119.903 170.433 121.932 172.557C124.207 174.932 124.537 178.198 122.637 180.06" fill="#A2FF48"/>
<path d="M34.0572 113.993C36.3548 116.296 36.7126 119.585 34.8678 121.419C33.0397 123.242 29.7023 122.863 27.4214 120.577C25.1405 118.291 24.7828 114.98 26.622 113.146C28.4556 111.312 31.754 111.691 34.0516 113.993" fill="#A2FF48"/>
<path d="M34.8337 106.931C33.0615 108.837 29.6458 108.347 27.4208 106.1C25.2015 103.859 24.7878 100.536 26.6494 98.68C28.4327 96.9072 31.7869 97.2194 34.079 99.5329C36.3431 101.819 36.7288 105.225 34.8337 106.931Z" fill="#A2FF48"/>
<path d="M34.8516 150.664C33.0403 152.649 29.5016 151.969 27.4332 149.845C25.2809 147.637 24.6491 144.37 26.6393 142.414C28.7078 140.379 32.0005 141.182 34.0745 143.267C36.4616 145.664 36.6629 149.059 34.8516 150.67" fill="#A2FF48"/>
<path d="M34.0747 157.939C36.2774 160.136 36.7749 163.419 34.8518 165.37C33.0517 167.193 29.6639 166.747 27.3886 164.478C25.3202 162.416 24.6997 158.959 26.6395 157.053C28.3614 155.358 31.7156 155.525 34.0692 157.939" fill="#A2FF48"/>
<path d="M34.8736 136.033C33.0344 137.867 29.7249 137.505 27.444 135.219C25.1631 132.939 24.7942 129.6 26.6166 127.777C28.4447 125.954 31.7598 126.328 34.0574 128.613C36.3607 130.904 36.7185 134.188 34.8736 136.028" fill="#A2FF48"/>
<path d="M34.8347 92.3091C33.1688 94.2325 29.6357 93.7586 27.4163 91.4952C25.141 89.1761 24.895 85.8256 26.656 84.1364C28.5623 82.3135 31.7712 82.6591 34.0912 84.9838C36.305 87.2026 36.7299 90.6479 34.8347 92.3091Z" fill="#A2FF48"/>
<path d="M70.4397 165.222C68.9303 163.867 68.6229 160.578 71.3286 157.88C73.5927 155.622 76.8519 155.366 78.652 157.217C80.3906 159.006 80.0216 162.362 77.7743 164.492C74.9847 167.134 71.787 166.783 70.4341 165.222" fill="#A2FF48"/>
<path d="M33.9517 70.3897C36.0426 72.3576 36.7749 75.6133 34.7847 77.6147C32.8225 79.5881 29.6136 78.8746 27.5396 76.823C25.337 74.6433 24.9177 71.421 26.7178 69.5758C28.3558 67.8977 31.6541 67.9869 33.9517 70.3897Z" fill="#A2FF48"/>
<path d="M26.7729 171.896C28.3718 170.062 31.7931 170.502 33.895 172.643C36.1312 174.923 36.5113 178.084 34.6945 179.863C32.9167 181.608 29.7861 181.206 27.5388 179.015C25.5822 177.109 24.8051 173.669 26.7785 171.896" fill="#A2FF48"/>
<path d="M56.7149 62.1204C54.4284 59.9351 54.2383 56.618 55.949 54.9846C57.7211 53.2899 60.8909 53.6244 63.0432 55.7651C65.2681 57.9727 65.6036 61.1169 63.8482 62.9232C62.0089 64.8186 58.5932 64.1775 56.7093 62.1204" fill="#A2FF48"/>
<path d="M33.6095 56.0457C35.678 58.0917 36.0022 60.946 34.3531 62.5794C32.743 64.1794 29.8919 63.8728 27.885 61.8882C25.8501 59.8812 25.4867 56.9098 27.1415 55.3377C29.0031 53.5705 31.8318 54.2451 33.6095 56.0457Z" fill="#A2FF48"/>
<path d="M130.284 187.582C132.297 185.587 135.154 185.269 136.741 186.88C138.279 188.441 138.184 191.173 136.054 193.347C133.991 195.448 131.084 195.671 129.502 194.049C127.914 192.427 128.272 189.589 130.29 187.582" fill="#A2FF48"/>
<path d="M130.29 172.948C132.308 170.941 135.12 170.646 136.747 172.246C138.307 173.79 138.15 176.605 136.054 178.707C133.879 180.893 131.028 181.004 129.496 179.415C127.909 177.771 128.261 174.9 130.29 172.943" fill="#A2FF48"/>
<path d="M33.5039 187.778C35.3375 189.629 35.6394 192.394 34.1803 193.883C32.7212 195.371 29.8086 195.048 27.9806 193.186C26.1525 191.324 25.8506 188.553 27.3209 187.076C28.8247 185.565 31.6311 185.883 33.5039 187.778Z" fill="#A2FF48"/>
<path d="M85.7961 157.828C87.3111 156.322 90.0113 156.601 91.8896 158.463C93.4885 160.046 94.2879 162.884 92.5381 164.64C91.1182 166.062 88.2838 165.761 86.4446 163.91C84.5215 161.975 84.3706 159.121 85.7961 157.833" fill="#A2FF48"/>
<path d="M77.1201 149.296C75.7449 150.773 72.9162 151.704 71.1552 149.87C69.5955 148.242 69.9868 145.711 71.8708 143.871C74.0286 141.764 76.5667 141.87 77.9307 143.303C79.5352 144.992 78.7749 147.83 77.1257 149.296" fill="#A2FF48"/>
<path d="M47.9546 46.9439C46.1489 48.7278 43.5662 49.0289 42.1406 47.5794C40.8213 46.2359 40.8101 43.7439 42.7724 41.7593C44.634 39.8694 47.1943 39.6743 48.6702 41.1349C50.1069 42.5565 49.7659 45.1544 47.9546 46.9439Z" fill="#A2FF48"/>
<path d="M100.644 164.392C99.2465 162.999 99.5204 160.44 101.259 158.689C103.031 156.9 105.648 156.616 107.051 158.054C108.426 159.47 108.118 162.051 106.363 163.774C104.591 165.513 102.047 165.786 100.65 164.392" fill="#A2FF48"/>
<path d="M92.3423 208.255C91.0285 209.765 88.334 209.358 86.6792 207.68C84.9071 205.88 84.6108 203.455 85.9748 201.983C87.037 200.834 89.4968 200.372 91.7441 202.591C93.6728 204.503 93.7175 207.034 92.3423 208.255Z" fill="#A2FF48"/>
<path d="M77.6843 201.949C79.1154 203.37 78.8415 205.806 77.0917 207.618C75.3643 209.413 72.7145 209.675 71.3336 208.265C70.0367 206.944 70.2044 204.368 72.0045 202.579C74.0114 200.588 76.6333 200.733 77.6843 201.949Z" fill="#A2FF48"/>
<path d="M100.705 208.263C99.0563 206.792 99.7774 204.066 101.253 202.605C103.014 200.86 105.53 200.553 106.95 201.942C108.37 203.335 108.129 205.889 106.38 207.617C104.406 209.573 101.846 209.573 100.705 208.263Z" fill="#A2FF48"/>
<path d="M57.4088 207.639C55.4186 205.828 55.5192 203.096 56.7435 201.959C58.2082 200.593 60.6847 200.855 62.4569 202.622C64.0501 204.205 64.4806 206.781 63.083 208.247C61.7469 209.646 58.9629 209.384 57.4088 207.639Z" fill="#A2FF48"/>
<path d="M71.4291 134.977C70.0818 133.622 70.3557 131.13 72.0608 129.464C73.7938 127.774 76.1753 127.407 77.5841 128.828C79.1326 130.395 78.5848 132.719 77.0306 134.342C75.3591 136.092 72.8043 136.36 71.4291 134.977Z" fill="#A2FF48"/>
<path d="M120.898 202.705C122.609 204.417 122.883 206.842 121.519 208.197C120.16 209.546 117.717 209.267 116.018 207.567C114.301 205.855 114.044 203.469 115.425 202.092C116.817 200.704 119.159 200.966 120.898 202.705Z" fill="#A2FF48"/>
<path d="M77.5393 99.7511C78.9257 101.123 78.6965 103.503 77.0082 105.237C75.3423 106.948 72.8881 107.238 71.5073 105.895C70.1209 104.545 70.3557 102.143 72.0439 100.415C73.7155 98.703 76.1752 98.4076 77.5393 99.7567" fill="#A2FF48"/>
<path d="M76.9413 119.782C75.2195 121.449 72.7429 121.689 71.4404 120.317C70.121 118.929 70.4285 116.448 72.1224 114.804C73.8331 113.143 76.3264 112.892 77.6177 114.274C78.9706 115.724 78.6464 118.021 76.9413 119.788" fill="#A2FF48"/>
<path d="M71.4675 91.2658C70.1146 89.8999 70.4109 87.4191 72.1216 85.7578C73.8602 84.0687 76.2528 83.8512 77.6169 85.2617C78.9195 86.6108 78.6288 89.0637 76.974 90.6971C75.2522 92.3975 72.8371 92.6428 71.4675 91.2602" fill="#A2FF48"/>
<path d="M121.502 164.21C120.133 165.582 117.701 165.303 116.007 163.58C114.363 161.914 114.106 159.489 115.431 158.162C116.79 156.796 119.221 157.086 120.932 158.814C122.598 160.492 122.844 162.867 121.497 164.21" fill="#A2FF48"/>
<path d="M72.1502 71.2406C73.5143 69.7075 76.0579 69.2281 77.4611 70.5716C78.8699 71.9152 78.6071 74.3124 76.8741 76.0238C75.2361 77.6405 72.8714 77.9137 71.5521 76.6259C70.2048 75.3158 70.4731 72.9131 72.1446 71.2406" fill="#A2FF48"/>
<path d="M62.814 47.2931C61.5059 48.5865 59.0964 48.3245 57.4864 46.7078C55.8708 45.0855 55.6136 42.6883 56.9106 41.3838C58.2523 40.0347 60.6505 40.3079 62.3053 42.0026C63.9209 43.6583 64.1445 45.983 62.814 47.2987" fill="#A2FF48"/>
<path d="M47.748 207.457C46.0876 209.129 43.7956 209.391 42.4651 208.07C41.1401 206.754 41.3805 204.441 43.0129 202.779C44.6174 201.146 47.0212 200.867 48.3238 202.166C49.6375 203.482 49.386 205.812 47.748 207.457Z" fill="#A2FF48"/>
<path d="M28.0593 41.6009C29.4625 40.3187 31.6148 40.7703 32.9956 42.2253C34.505 43.8197 34.7007 45.8489 33.4429 47.0587C32.1683 48.2907 30.1278 48.1012 28.5177 46.4343C26.9413 44.8064 26.9021 42.8274 28.0593 41.6009Z" fill="#A2FF48"/>
<path d="M77.2089 56.3235C78.4332 57.5611 78.1817 59.5624 76.6499 61.129C75.3194 62.4837 73.1615 63.0077 71.831 61.6474C70.5452 60.3318 70.903 58.2802 72.3956 56.8196C74.0727 55.1695 76.0797 55.1695 77.2089 56.3235Z" fill="#A2FF48"/>
<path d="M130.514 207.679C129.368 206.508 129.63 204.513 131.056 203.035C132.146 201.904 134.377 201.129 135.785 202.573C136.898 203.71 136.585 205.895 135.165 207.25C133.706 208.644 131.643 208.839 130.514 207.679Z" fill="#A2FF48"/>
<path d="M131.062 159.158C132.51 157.697 134.506 157.474 135.696 158.6C136.781 159.62 136.865 161.672 135.188 163.311C133.807 164.66 131.951 165.072 130.531 163.807C129.351 162.759 129.642 160.585 131.056 159.158" fill="#A2FF48"/>
<path d="M13.5682 163.709C12.4669 162.611 12.6961 160.492 14.049 159.171C15.441 157.816 17.5151 157.599 18.6052 158.697C19.7288 159.823 19.4326 161.875 18.0797 163.224C16.7492 164.551 14.6416 164.874 13.5682 163.709Z" fill="#A2FF48"/>
<path d="M18.6167 144.098C19.746 145.152 19.4664 147.254 18.0856 148.614C16.7216 149.958 14.6699 150.22 13.5574 149.099C12.4785 148.006 12.7133 145.882 14.0829 144.539C15.3799 143.268 17.5545 142.889 18.6111 144.098" fill="#A2FF48"/>
<path d="M18.0403 133.985C16.7378 135.39 14.6302 135.568 13.5289 134.442C12.4667 133.355 12.735 131.153 14.1103 129.876C15.5582 128.527 17.5092 128.332 18.6385 129.469C19.6168 130.456 19.5777 132.641 18.0403 133.985Z" fill="#A2FF48"/>
<path d="M18.0854 104.825C16.7661 106.275 14.6473 106.436 13.5684 105.355C12.6684 104.452 12.3888 102.5 14.0715 100.817C15.7319 99.1555 17.6941 99.4008 18.6109 100.315C19.6899 101.38 19.5389 103.493 18.0854 104.825Z" fill="#A2FF48"/>
<path d="M18.1073 90.2296C16.8103 91.6624 14.7195 91.8965 13.5903 90.8038C12.4834 89.7279 12.6679 87.5983 14.0375 86.2659C15.6196 84.7217 17.5706 84.7719 18.5881 85.7307C19.5608 86.6506 19.6726 88.7802 18.1073 90.2352" fill="#A2FF48"/>
<path d="M18.035 119.335C16.8219 120.701 14.6025 120.907 13.5403 119.764C12.344 118.476 12.8303 116.436 14.1105 115.232C15.6255 113.805 17.5151 113.721 18.6331 114.825C19.5891 115.767 19.617 117.941 18.0406 119.335" fill="#A2FF48"/>
<path d="M149.749 173.891C151.125 175.268 151.331 177.213 150.225 178.311C149.112 179.41 147.178 179.192 145.803 177.81C144.416 176.416 144.209 174.504 145.327 173.394C146.434 172.302 148.385 172.519 149.749 173.891Z" fill="#A2FF48"/>
<path d="M13.6179 76.0013C12.4942 74.8528 12.729 72.9908 14.1769 71.586C15.5522 70.2536 17.4417 70.0529 18.5374 71.1289C19.6443 72.2104 19.4151 74.1894 18.0343 75.572C16.659 76.949 14.7248 77.1385 13.6179 76.0013Z" fill="#A2FF48"/>
<path d="M149.716 188.491C151.103 189.856 151.343 191.813 150.264 192.917C149.174 194.032 147.229 193.842 145.842 192.482C144.45 191.111 144.21 189.165 145.3 188.056C146.39 186.941 148.341 187.136 149.716 188.491Z" fill="#A2FF48"/>
<path d="M18.085 177.75C16.7881 179.065 14.8091 179.305 13.7078 178.285C12.6176 177.27 12.8189 175.302 14.1494 173.948C15.4799 172.587 17.4086 172.353 18.4875 173.413C19.5777 174.483 19.3932 176.423 18.085 177.75Z" fill="#A2FF48"/>
<path d="M32.6428 203.337C33.8671 204.513 34.1857 206.403 33.0509 207.479C31.8266 208.638 29.9817 208.137 28.8022 206.871C27.5443 205.528 27.399 203.76 28.4835 202.746C29.5569 201.742 31.3346 201.993 32.6428 203.337Z" fill="#A2FF48"/>
<path d="M14.3341 57.2131C15.5528 55.9866 17.2635 55.7971 18.2697 56.7838C19.3095 57.804 19.1418 59.3929 17.8952 60.6918C16.5535 62.0966 14.8205 62.1134 13.8757 61.1712C12.9085 60.2068 13.1322 58.4228 14.3341 57.2131Z" fill="#A2FF48"/>
<path d="M91.2517 148.636C90.3126 149.567 88.641 149.383 87.4894 148.217C86.3378 147.052 86.1589 145.391 87.0925 144.449C88.0037 143.523 89.6864 143.724 90.8604 144.895C92.0456 146.082 92.2133 147.682 91.2517 148.636Z" fill="#A2FF48"/>
<path d="M14.0318 192.559C13.1094 191.639 13.3106 189.928 14.4734 188.79C15.5915 187.698 17.2686 187.519 18.1631 188.4C19.0855 189.309 18.8786 191.043 17.7214 192.169C16.5866 193.267 14.9207 193.445 14.0318 192.559Z" fill="#A2FF48"/>
<path d="M72.5578 46.3172C71.6521 45.5869 71.7192 43.9535 72.9379 42.6824C73.9386 41.6344 75.7387 41.4615 76.527 42.3479C77.4997 43.4462 77.0636 44.957 76.1077 45.9214C75.0064 47.0364 73.2957 47.2092 72.5634 46.3172" fill="#A2FF48"/>
<path d="M45.4113 27.1875C46.8983 27.1931 47.9213 28.2523 47.8934 29.7687C47.871 31.1735 46.7753 32.2495 45.3833 32.2327C43.9689 32.216 42.8285 31.0397 42.862 29.6181C42.89 28.2244 43.9857 27.1819 45.4113 27.1875Z" fill="#A2FF48"/>
<path d="M149.526 206.867C148.721 207.675 147.363 207.519 146.362 206.505C145.418 205.54 145.255 204.191 145.999 203.399C146.759 202.591 148.174 202.725 149.18 203.701C150.186 204.676 150.337 206.059 149.532 206.867" fill="#A2FF48"/>
<path d="M149.174 159.792C150.153 160.767 150.332 162.244 149.555 163.003C148.777 163.761 147.313 163.571 146.34 162.579C145.395 161.615 145.233 160.243 145.965 159.457C146.703 158.665 148.19 158.827 149.169 159.797" fill="#A2FF48"/>
<path d="M58.2355 27.9914C58.912 27.3168 60.2648 27.4618 61.1481 28.3091C62.1153 29.2401 62.283 30.5001 61.5395 31.275C60.8351 32.0108 59.4598 31.8882 58.5542 31.0018C57.6933 30.1711 57.5423 28.6882 58.2355 27.9914Z" fill="#A2FF48"/>
<path d="M17.3471 45.6871C16.4191 46.5846 15.1948 46.7017 14.4625 45.9602C13.7302 45.2188 13.8867 43.8362 14.8091 42.9666C15.7147 42.1136 17.0173 41.991 17.7217 42.699C18.4652 43.446 18.3031 44.7561 17.3471 45.6815" fill="#A2FF48"/>
<path d="M105.093 147.816C104.16 148.77 102.975 148.904 102.226 148.14C101.516 147.415 101.616 146.239 102.466 145.336C103.316 144.438 104.674 144.249 105.384 144.929C106.133 145.648 106.01 146.88 105.093 147.811" fill="#A2FF48"/>
<path d="M74.4934 221.75C73.4815 221.733 72.738 220.802 72.7491 219.57C72.7603 218.382 73.5821 217.418 74.5604 217.446C75.5276 217.474 76.3382 218.488 76.3158 219.654C76.2935 220.852 75.4996 221.766 74.4878 221.75" fill="#A2FF48"/>
<path d="M90.6765 221.13C89.961 221.827 88.7255 221.704 87.8981 220.846C87.0763 219.998 86.9645 218.727 87.6633 218.053C88.3733 217.367 89.6144 217.506 90.4529 218.365C91.3194 219.251 91.4145 220.411 90.6821 221.124" fill="#A2FF48"/>
<path d="M59.8454 221.749C58.5372 221.738 57.6651 220.868 57.6819 219.586C57.6986 218.382 58.6826 217.434 59.9124 217.445C61.092 217.457 62.1318 218.505 62.0983 219.647C62.0592 220.896 61.1423 221.76 59.8509 221.744" fill="#A2FF48"/>
<path d="M102.327 221.137C101.684 220.591 101.566 219.342 102.589 218.383C103.445 217.581 104.624 217.402 105.301 218.032C106.027 218.701 105.932 219.944 105.088 220.814C104.183 221.751 103.076 221.879 102.321 221.143" fill="#A2FF48"/>
<path d="M90.9114 131.986C90.889 133.112 90.084 134.087 89.1728 134.093C88.2448 134.093 87.3838 133.011 87.4118 131.874C87.4397 130.787 88.2951 129.756 89.1672 129.75C90.1008 129.75 90.9337 130.809 90.9114 131.986Z" fill="#A2FF48"/>
<path d="M119.657 218.372C120.534 219.219 120.68 220.328 120.009 221.047C119.338 221.772 118.209 221.711 117.348 220.902C116.448 220.055 116.269 218.851 116.973 218.126C117.622 217.463 118.907 217.535 119.657 218.366" fill="#A2FF48"/>
<path d="M119.965 148.047C119.305 148.716 118.092 148.571 117.276 147.735C116.487 146.927 116.348 145.767 116.957 145.12C117.594 144.44 118.813 144.546 119.64 145.354C120.479 146.174 120.624 147.378 119.965 148.047Z" fill="#A2FF48"/>
<path d="M30.7588 31.7648C29.8252 31.7704 29.1208 30.923 29.0984 29.7579C29.0705 28.576 29.8196 27.5781 30.742 27.5781C31.6308 27.5781 32.3744 28.4924 32.4023 29.6185C32.4303 30.8561 31.7371 31.7592 30.7588 31.7648Z" fill="#A2FF48"/>
<path d="M90.7718 102.832C90.7662 103.98 90.0227 104.9 89.1283 104.867C88.2729 104.839 87.5685 103.947 87.5462 102.86C87.5294 101.722 88.2562 100.769 89.1506 100.758C90.0395 100.747 90.7718 101.683 90.7662 102.832" fill="#A2FF48"/>
<path d="M90.7769 117.285C90.7769 118.472 90.1005 119.32 89.1557 119.297C88.2277 119.275 87.5289 118.378 87.5513 117.235C87.5737 116.137 88.2557 115.306 89.1446 115.278C90.0837 115.25 90.7714 116.098 90.7714 117.285" fill="#A2FF48"/>
<path d="M46.9937 219.661C46.9769 220.81 46.2334 221.685 45.3166 221.635C44.4613 221.59 43.7513 220.653 43.7569 219.6C43.768 218.485 44.5227 217.626 45.4619 217.665C46.4123 217.704 47.0049 218.485 46.9881 219.661" fill="#A2FF48"/>
<path d="M89.1956 90.2456C88.2676 90.2623 87.5576 89.3927 87.5576 88.2387C87.5576 87.1349 88.3291 86.1593 89.1956 86.176C90.0342 86.1927 90.7497 87.0958 90.7777 88.1718C90.8056 89.3481 90.1404 90.2233 89.1956 90.2456Z" fill="#A2FF48"/>
<path d="M17.1743 206.28C16.4196 206.999 15.2456 207.077 14.6586 206.453C14.0492 205.806 14.2114 204.719 15.0276 203.944C15.799 203.208 17.0121 203.108 17.5488 203.727C18.0911 204.357 17.9122 205.583 17.1799 206.28" fill="#A2FF48"/>
<path d="M90.7445 73.5472C90.7669 74.6789 90.1016 75.543 89.2072 75.5486C88.3183 75.5541 87.5916 74.6845 87.586 73.6141C87.5804 72.5827 88.2512 71.7242 89.101 71.674C90.001 71.6239 90.7222 72.4489 90.7445 73.5472Z" fill="#A2FF48"/>
<path d="M131.788 147.858C131.262 147.289 131.425 146.247 132.151 145.539C132.917 144.786 133.963 144.702 134.516 145.349C135.042 145.962 134.863 146.977 134.108 147.663C133.376 148.332 132.313 148.421 131.788 147.858Z" fill="#A2FF48"/>
<path d="M134.181 220.65C133.46 221.381 132.459 221.498 131.878 220.924C131.319 220.372 131.414 219.312 132.079 218.604C132.756 217.896 133.773 217.791 134.377 218.37C134.986 218.956 134.908 219.915 134.181 220.65Z" fill="#A2FF48"/>
<path d="M89.1733 57.1992C89.9727 57.1992 90.6044 58.0354 90.5765 59.0556C90.5541 59.9699 89.9671 60.6891 89.2236 60.7114C88.3962 60.7337 87.7366 59.9309 87.7645 58.933C87.7925 57.9518 88.4018 57.1992 89.1733 57.2048" fill="#A2FF48"/>
<path d="M163.235 191.394C162.592 192.063 161.625 192.214 161.088 191.734C160.557 191.261 160.63 190.291 161.256 189.616C161.932 188.88 162.916 188.73 163.464 189.265C163.978 189.767 163.878 190.725 163.235 191.394Z" fill="#A2FF48"/>
<path d="M163.133 176.819C162.44 177.477 161.596 177.538 161.048 176.964C160.506 176.395 160.612 175.57 161.316 174.873C162.026 174.171 162.982 174.087 163.497 174.678C163.961 175.219 163.798 176.183 163.128 176.813" fill="#A2FF48"/>
<path d="M32.0223 219.604C32.0279 220.523 31.508 221.181 30.7701 221.198C30.0321 221.215 29.4899 220.568 29.4787 219.654C29.4675 218.712 29.9651 218.082 30.7309 218.07C31.5136 218.059 32.0167 218.65 32.0223 219.598" fill="#A2FF48"/>
<path d="M75.7555 29.7477C75.7331 30.5281 75.1461 31.2306 74.5032 31.2306C73.838 31.2306 73.2733 30.4445 73.3125 29.5748C73.3516 28.7107 73.8547 28.17 74.5927 28.209C75.2859 28.2425 75.7722 28.8891 75.7499 29.7477" fill="#A2FF48"/>
<path d="M0.00573099 117.268C0.0169117 116.493 0.68217 115.818 1.43687 115.813C2.25866 115.807 2.91832 116.515 2.8736 117.368C2.83447 118.148 2.13567 118.817 1.39774 118.773C0.631857 118.728 -0.0110371 118.037 0.000143676 117.273" fill="#A2FF48"/>
<path d="M2.87379 132.014C2.83466 132.805 2.18058 133.402 1.38116 133.368C0.592915 133.335 -0.0164331 132.683 0.000338004 131.891C0.0171091 131.155 0.738266 130.436 1.44824 130.441C2.25326 130.441 2.91292 131.172 2.8682 132.019" fill="#A2FF48"/>
<path d="M2.87947 102.851C2.8627 103.671 2.24217 104.267 1.41479 104.256C0.598595 104.24 -0.00516862 103.61 0.00601214 102.796C0.0227833 101.982 0.654498 101.38 1.47069 101.391C2.28689 101.408 2.89065 102.037 2.87947 102.851Z" fill="#A2FF48"/>
<path d="M2.87962 88.2231C2.89639 89.037 2.28704 89.6558 1.47084 89.667C0.649059 89.6781 0.00616455 89.0593 0.0117549 88.2677C0.0117549 87.4538 0.626696 86.8238 1.42612 86.8127C2.24232 86.8015 2.86844 87.4036 2.87962 88.2175" fill="#A2FF48"/>
<path d="M1.42081 145.141C2.25937 145.13 2.86313 145.704 2.87431 146.54C2.89108 147.365 2.28732 147.995 1.47113 148.001C0.654931 148.001 0.0232162 147.404 0.00644509 146.59C-0.0159164 145.787 0.604615 145.158 1.42081 145.146" fill="#A2FF48"/>
<path d="M1.50977 159.774C2.31479 159.796 2.91295 160.449 2.87941 161.268C2.84587 162.082 2.20857 162.662 1.38678 162.628C0.581768 162.601 -0.0275833 161.948 0.0115494 161.145C0.050682 160.343 0.699167 159.752 1.51536 159.774" fill="#A2FF48"/>
<path d="M1.39874 72.1884C2.19816 72.1605 2.85223 72.7738 2.88018 73.5654C2.90814 74.3737 2.29879 75.0204 1.49936 75.0372C0.688758 75.0539 0.0290913 74.4518 0.0123202 73.6657C-0.0100414 72.8574 0.593722 72.2163 1.39874 72.1884Z" fill="#A2FF48"/>
<path d="M1.45939 177.179C0.699099 177.179 0.0729732 176.583 0.0673828 175.858C0.0673828 175.122 0.665553 174.542 1.44262 174.531C2.25322 174.526 2.80667 175.05 2.80667 175.836C2.80667 176.588 2.21409 177.179 1.45939 177.179Z" fill="#A2FF48"/>
<path d="M90.2178 44.4535C90.1731 45.234 89.6812 45.7357 89.0494 45.6521C88.4904 45.5796 88.0879 44.9831 88.1103 44.2584C88.1382 43.45 88.5687 42.9818 89.2451 43.0264C89.888 43.0654 90.2626 43.6117 90.2178 44.4535Z" fill="#A2FF48"/>
<path d="M15.0898 29.7147C15.0898 28.99 15.5203 28.4437 16.1073 28.4493C16.6551 28.4493 17.1415 29.0736 17.1191 29.7426C17.1024 30.3447 16.616 30.9468 16.1297 30.9691C15.5986 30.9914 15.0898 30.3837 15.0898 29.7147Z" fill="#A2FF48"/>
<path d="M148.654 147.46C148.218 147.856 147.53 147.75 147.038 147.204C146.602 146.725 146.53 146 146.871 145.643C147.229 145.264 148.034 145.37 148.52 145.855C149.017 146.351 149.079 147.081 148.66 147.466" fill="#A2FF48"/>
<path d="M147.078 220.356C146.525 219.821 146.452 219.191 146.888 218.75C147.307 218.327 147.989 218.41 148.504 218.94C148.962 219.414 149.052 220.105 148.699 220.495C148.314 220.925 147.604 220.863 147.078 220.356Z" fill="#A2FF48"/>
<path d="M163.167 160.377C163.581 160.817 163.48 161.464 162.91 161.982C162.44 162.417 161.697 162.501 161.35 162.161C160.998 161.815 161.099 160.94 161.54 160.5C162.015 160.026 162.77 159.97 163.162 160.382" fill="#A2FF48"/>
<path d="M162.954 205.808C162.44 206.343 161.769 206.432 161.344 206.014C160.948 205.624 161.031 204.86 161.529 204.386C161.948 203.985 162.748 203.879 163.111 204.185C163.514 204.525 163.435 205.306 162.954 205.808Z" fill="#A2FF48"/>
<path d="M1.43104 60.2097C0.687522 60.1986 0.178799 59.6467 0.217931 58.8885C0.251473 58.2139 0.810508 57.7011 1.48135 57.7234C2.10748 57.7457 2.71124 58.331 2.7336 58.9442C2.76155 59.6299 2.14661 60.2209 1.43104 60.2097Z" fill="#A2FF48"/>
<path d="M1.39281 191.596C0.744323 191.574 0.274732 191.094 0.280323 190.459C0.280323 189.801 0.84495 189.316 1.55493 189.372C2.21459 189.422 2.63387 189.901 2.58915 190.565C2.54442 191.222 2.08042 191.618 1.39281 191.596Z" fill="#A2FF48"/>
<path d="M16.8165 219.593C16.8276 220.112 16.5537 220.513 16.1512 220.547C15.7319 220.58 15.3406 220.14 15.335 219.632C15.3294 219.142 15.7319 218.64 16.1233 218.657C16.5034 218.673 16.8109 219.086 16.8221 219.599" fill="#A2FF48"/>
<path d="M2.34858 44.3026C2.36535 44.8099 1.99638 45.2392 1.5212 45.2726C1.01807 45.3061 0.526116 44.8267 0.537296 44.3194C0.548477 43.8678 0.995708 43.4274 1.45971 43.4107C1.9293 43.3939 2.3374 43.8009 2.35417 44.3082" fill="#A2FF48"/>
<path d="M104.569 131.924C104.569 132.381 104.222 132.849 103.865 132.877C103.468 132.899 103.093 132.409 103.11 131.885C103.127 131.361 103.423 131.015 103.848 131.032C104.25 131.049 104.569 131.439 104.569 131.924Z" fill="#A2FF48"/>
<path d="M46.3339 15.0361C46.3395 15.51 45.8979 15.9504 45.4171 15.9504C44.9084 15.9504 44.5059 15.5546 44.5059 15.0473C44.5059 14.5233 44.8804 14.1442 45.4003 14.133C45.8811 14.1219 46.3227 14.5511 46.3283 15.0306" fill="#A2FF48"/>
<path d="M89.7821 29.7149C89.7654 30.1331 89.4915 30.4898 89.1784 30.4954C88.843 30.501 88.5019 30.0439 88.5355 29.6313C88.569 29.2355 88.8597 28.9345 89.2063 28.9456C89.5585 28.9512 89.7989 29.2745 89.7821 29.7149Z" fill="#A2FF48"/>
<path d="M1.43722 205.875C0.995585 205.875 0.693705 205.574 0.699295 205.122C0.699295 204.693 1.01794 204.347 1.42604 204.336C1.84532 204.325 2.28696 204.765 2.2646 205.172C2.24783 205.546 1.86209 205.875 1.44281 205.875" fill="#A2FF48"/>
<path d="M30.7255 14.305C31.1447 14.2938 31.4913 14.5949 31.5193 14.9963C31.5472 15.42 31.2677 15.7266 30.8261 15.7656C30.3286 15.8046 29.9652 15.498 29.9708 15.0353C29.9708 14.6395 30.3062 14.3161 30.7255 14.305Z" fill="#A2FF48"/>
<path d="M60.6731 15.0908C60.6451 15.4922 60.2929 15.7765 59.8457 15.7654C59.3873 15.7486 59.1078 15.4532 59.1357 15.0072C59.1581 14.5779 59.5047 14.2769 59.9295 14.3159C60.3488 14.3549 60.701 14.7229 60.6731 15.0964" fill="#A2FF48"/>
<path d="M162.764 219.42C162.764 219.944 162.49 220.273 162.216 220.234C161.925 220.195 161.774 219.966 161.763 219.609C161.752 219.253 162.054 218.857 162.294 218.968C162.495 219.058 162.652 219.308 162.764 219.414" fill="#A2FF48"/>
<path d="M119.115 131.901C119.07 132.269 118.858 132.464 118.489 132.487C118.142 132.503 117.823 132.241 117.851 131.935C117.885 131.578 118.086 131.349 118.461 131.344C118.83 131.338 119.042 131.545 119.109 131.907" fill="#A2FF48"/>
<path d="M1.9624 234.483C1.91768 234.851 1.70525 235.046 1.33628 235.069C0.989677 235.085 0.671026 234.823 0.698978 234.517C0.73252 234.16 0.933772 233.931 1.30833 233.926C1.67729 233.92 1.88973 234.127 1.95681 234.489" fill="#A2FF48"/>
<path d="M16.5981 234.483C16.5534 234.851 16.341 235.046 15.972 235.069C15.6254 235.085 15.3068 234.823 15.3347 234.517C15.3683 234.16 15.5695 233.931 15.9441 233.926C16.313 233.92 16.5255 234.127 16.5926 234.489" fill="#A2FF48"/>
<path d="M31.2339 234.483C31.1892 234.851 30.9767 235.046 30.6078 235.069C30.2612 235.085 29.9425 234.823 29.9705 234.517C30.004 234.16 30.2053 233.931 30.5798 233.926C30.9488 233.92 31.1612 234.127 31.2283 234.489" fill="#A2FF48"/>
<path d="M45.8755 234.483C45.8308 234.851 45.6183 235.046 45.2494 235.069C44.9028 235.085 44.5841 234.823 44.6121 234.517C44.6456 234.16 44.8469 233.931 45.2214 233.926C45.5904 233.92 45.8028 234.127 45.8699 234.489" fill="#A2FF48"/>
<path d="M60.5115 234.483C60.4668 234.851 60.2543 235.046 59.891 235.069C59.5444 235.085 59.2257 234.823 59.2537 234.517C59.2872 234.16 59.4885 233.931 59.863 233.926C60.2376 233.92 60.4444 234.127 60.5115 234.489" fill="#A2FF48"/>
<path d="M75.1472 234.483C75.1025 234.851 74.8901 235.046 74.5267 235.069C74.1801 235.085 73.8615 234.823 73.8894 234.517C73.9229 234.16 74.1242 233.931 74.4988 233.926C74.8733 233.92 75.0802 234.127 75.1472 234.489" fill="#A2FF48"/>
<path d="M89.7869 234.483C89.7422 234.851 89.5297 235.046 89.1664 235.069C88.8198 235.085 88.5011 234.823 88.5291 234.517C88.5626 234.16 88.7638 233.931 89.1384 233.926C89.513 233.92 89.7198 234.127 89.7869 234.489" fill="#A2FF48"/>
<path d="M104.423 234.483C104.378 234.851 104.165 235.046 103.802 235.069C103.456 235.085 103.137 234.823 103.165 234.517C103.198 234.16 103.4 233.931 103.774 233.926C104.149 233.92 104.356 234.127 104.423 234.489" fill="#A2FF48"/>
<path d="M119.058 234.483C119.014 234.851 118.801 235.046 118.438 235.069C118.091 235.085 117.773 234.823 117.801 234.517C117.834 234.16 118.035 233.931 118.41 233.926C118.779 233.92 118.991 234.127 119.058 234.489" fill="#A2FF48"/>
<path d="M133.7 234.483C133.655 234.851 133.443 235.046 133.079 235.069C132.733 235.085 132.414 234.823 132.442 234.517C132.476 234.16 132.677 233.931 133.051 233.926C133.42 233.92 133.633 234.127 133.7 234.489" fill="#A2FF48"/>
<path d="M148.336 234.483C148.291 234.851 148.079 235.046 147.715 235.069C147.369 235.085 147.05 234.823 147.078 234.517C147.111 234.16 147.313 233.931 147.687 233.926C148.056 233.92 148.269 234.127 148.336 234.489" fill="#A2FF48"/>
<path d="M162.971 234.483C162.927 234.851 162.714 235.046 162.351 235.069C162.004 235.085 161.686 234.823 161.714 234.517C161.747 234.16 161.948 233.931 162.323 233.926C162.692 233.92 162.904 234.127 162.971 234.489" fill="#A2FF48"/>
<path d="M177.612 234.483C177.567 234.851 177.355 235.046 176.986 235.069C176.639 235.085 176.32 234.823 176.348 234.517C176.382 234.16 176.583 233.931 176.958 233.926C177.332 233.92 177.539 234.127 177.606 234.489" fill="#A2FF48"/>
<path d="M177.612 219.854C177.567 220.222 177.355 220.418 176.986 220.44C176.639 220.457 176.32 220.195 176.348 219.888C176.382 219.531 176.583 219.303 176.958 219.297C177.332 219.291 177.539 219.498 177.606 219.854" fill="#A2FF48"/>
<path d="M177.612 205.233C177.567 205.601 177.355 205.796 176.986 205.819C176.639 205.835 176.32 205.573 176.348 205.267C176.382 204.91 176.583 204.681 176.958 204.676C177.332 204.67 177.539 204.877 177.606 205.239" fill="#A2FF48"/>
<path d="M177.612 190.604C177.567 190.972 177.355 191.168 176.986 191.19C176.639 191.207 176.32 190.945 176.348 190.638C176.382 190.281 176.583 190.053 176.958 190.047C177.332 190.041 177.539 190.248 177.606 190.61" fill="#A2FF48"/>
<path d="M177.612 175.976C177.567 176.344 177.355 176.539 176.986 176.561C176.639 176.578 176.32 176.316 176.348 176.009C176.382 175.652 176.583 175.424 176.958 175.418C177.332 175.413 177.539 175.619 177.606 175.976" fill="#A2FF48"/>
<path d="M177.612 161.347C177.567 161.715 177.355 161.91 176.986 161.932C176.639 161.949 176.32 161.687 176.348 161.38C176.382 161.023 176.583 160.795 176.958 160.789C177.332 160.784 177.539 160.99 177.606 161.352" fill="#A2FF48"/>
<path d="M177.612 146.718C177.567 147.086 177.355 147.281 176.986 147.303C176.639 147.32 176.32 147.058 176.348 146.751C176.382 146.394 176.583 146.166 176.958 146.16C177.332 146.155 177.539 146.361 177.606 146.723" fill="#A2FF48"/>
<path d="M177.612 132.089C177.567 132.457 177.355 132.652 176.986 132.674C176.639 132.691 176.32 132.429 176.348 132.122C176.382 131.766 176.583 131.537 176.958 131.531C177.332 131.526 177.539 131.732 177.606 132.089" fill="#A2FF48"/>
<path d="M177.612 117.46C177.567 117.828 177.355 118.023 176.986 118.045C176.639 118.062 176.32 117.8 176.348 117.493C176.382 117.137 176.583 116.908 176.958 116.902C177.332 116.897 177.539 117.103 177.606 117.466" fill="#A2FF48"/>
<path d="M177.612 102.839C177.567 103.207 177.355 103.402 176.986 103.424C176.639 103.441 176.32 103.179 176.348 102.872C176.382 102.516 176.583 102.287 176.958 102.281C177.332 102.276 177.539 102.482 177.606 102.844" fill="#A2FF48"/>
<path d="M177.612 88.2099C177.567 88.5779 177.355 88.773 176.986 88.7953C176.639 88.812 176.32 88.55 176.348 88.2434C176.382 87.8866 176.583 87.658 176.958 87.6525C177.332 87.6469 177.539 87.8531 177.606 88.2155" fill="#A2FF48"/>
<path d="M177.612 73.581C177.567 73.949 177.355 74.1441 176.986 74.1664C176.639 74.1831 176.32 73.9211 176.348 73.6145C176.382 73.2577 176.583 73.0291 176.958 73.0235C177.332 73.018 177.539 73.2242 177.606 73.5866" fill="#A2FF48"/>
<path d="M177.612 58.9521C177.567 59.3201 177.355 59.5152 176.986 59.5375C176.639 59.5542 176.32 59.2922 176.348 58.9856C176.382 58.6288 176.583 58.4002 176.958 58.3946C177.332 58.3891 177.539 58.5953 177.606 58.9577" fill="#A2FF48"/>
<path d="M177.612 44.3271C177.567 44.6951 177.355 44.8902 176.986 44.9125C176.639 44.9292 176.32 44.6672 176.348 44.3606C176.382 44.0038 176.583 43.7752 176.958 43.7696C177.332 43.7641 177.539 43.9703 177.606 44.3327" fill="#A2FF48"/>
<path d="M177.612 29.6982C177.567 30.0662 177.355 30.2613 176.986 30.2836C176.639 30.3003 176.32 30.0383 176.348 29.7317C176.382 29.3749 176.583 29.1463 176.958 29.1407C177.332 29.1352 177.539 29.3414 177.606 29.7038" fill="#A2FF48"/>
<path d="M177.612 15.0732C177.567 15.4412 177.355 15.6363 176.986 15.6586C176.639 15.6753 176.32 15.4133 176.348 15.1067C176.382 14.7499 176.583 14.5213 176.958 14.5157C177.332 14.5102 177.539 14.7164 177.606 15.0788" fill="#A2FF48"/>
<path d="M148.336 132.089C148.291 132.457 148.079 132.652 147.715 132.674C147.369 132.691 147.05 132.429 147.078 132.122C147.111 131.766 147.313 131.537 147.687 131.531C148.056 131.526 148.269 131.732 148.336 132.089Z" fill="#A2FF48"/>
<path d="M148.336 117.46C148.291 117.828 148.079 118.023 147.715 118.045C147.369 118.062 147.05 117.8 147.078 117.493C147.111 117.137 147.313 116.908 147.687 116.902C148.056 116.897 148.269 117.103 148.336 117.466" fill="#A2FF48"/>
<path d="M148.336 102.839C148.291 103.207 148.079 103.402 147.715 103.424C147.369 103.441 147.05 103.179 147.078 102.872C147.111 102.516 147.313 102.287 147.687 102.281C148.056 102.276 148.269 102.482 148.336 102.844" fill="#A2FF48"/>
<path d="M148.336 88.2099C148.291 88.5779 148.079 88.773 147.715 88.7953C147.369 88.812 147.05 88.55 147.078 88.2434C147.111 87.8866 147.313 87.658 147.687 87.6525C148.056 87.6469 148.269 87.8531 148.336 88.2155" fill="#A2FF48"/>
<path d="M148.336 73.581C148.291 73.949 148.079 74.1441 147.715 74.1664C147.369 74.1831 147.05 73.9211 147.078 73.6145C147.111 73.2577 147.313 73.0291 147.687 73.0235C148.056 73.018 148.269 73.2242 148.336 73.5866" fill="#A2FF48"/>
<path d="M148.336 58.9521C148.291 59.3201 148.079 59.5152 147.715 59.5375C147.369 59.5542 147.05 59.2922 147.078 58.9856C147.111 58.6288 147.313 58.4002 147.687 58.3946C148.056 58.3891 148.269 58.5953 148.336 58.9577" fill="#A2FF48"/>
<path d="M148.336 44.3271C148.291 44.6951 148.079 44.8902 147.715 44.9125C147.369 44.9292 147.05 44.6672 147.078 44.3606C147.111 44.0038 147.313 43.7752 147.687 43.7696C148.056 43.7641 148.269 43.9703 148.336 44.3327" fill="#A2FF48"/>
<path d="M148.336 29.6982C148.291 30.0662 148.079 30.2613 147.715 30.2836C147.369 30.3003 147.05 30.0383 147.078 29.7317C147.111 29.3749 147.313 29.1463 147.687 29.1407C148.056 29.1352 148.269 29.3414 148.336 29.7038" fill="#A2FF48"/>
<path d="M148.336 15.0732C148.291 15.4412 148.079 15.6363 147.715 15.6586C147.369 15.6753 147.05 15.4133 147.078 15.1067C147.111 14.7499 147.313 14.5213 147.687 14.5157C148.056 14.5102 148.269 14.7164 148.336 15.0788" fill="#A2FF48"/>
<path d="M133.7 132.089C133.655 132.457 133.443 132.652 133.079 132.674C132.733 132.691 132.414 132.429 132.442 132.122C132.476 131.766 132.677 131.537 133.051 131.531C133.42 131.526 133.633 131.732 133.7 132.089Z" fill="#A2FF48"/>
<path d="M133.7 117.46C133.655 117.828 133.443 118.023 133.079 118.045C132.733 118.062 132.414 117.8 132.442 117.493C132.476 117.137 132.677 116.908 133.051 116.902C133.42 116.897 133.633 117.103 133.7 117.466" fill="#A2FF48"/>
<path d="M133.7 102.839C133.655 103.207 133.443 103.402 133.079 103.424C132.733 103.441 132.414 103.179 132.442 102.872C132.476 102.516 132.677 102.287 133.051 102.281C133.42 102.276 133.633 102.482 133.7 102.844" fill="#A2FF48"/>
<path d="M133.7 88.2099C133.655 88.5779 133.443 88.773 133.079 88.7953C132.733 88.812 132.414 88.55 132.442 88.2434C132.476 87.8866 132.677 87.658 133.051 87.6525C133.42 87.6469 133.633 87.8531 133.7 88.2155" fill="#A2FF48"/>
<path d="M133.7 73.581C133.655 73.949 133.443 74.1441 133.079 74.1664C132.733 74.1831 132.414 73.9211 132.442 73.6145C132.476 73.2577 132.677 73.0291 133.051 73.0235C133.42 73.018 133.633 73.2242 133.7 73.5866" fill="#A2FF48"/>
<path d="M133.7 58.9521C133.655 59.3201 133.443 59.5152 133.079 59.5375C132.733 59.5542 132.414 59.2922 132.442 58.9856C132.476 58.6288 132.677 58.4002 133.051 58.3946C133.42 58.3891 133.633 58.5953 133.7 58.9577" fill="#A2FF48"/>
<path d="M133.7 44.3271C133.655 44.6951 133.443 44.8902 133.079 44.9125C132.733 44.9292 132.414 44.6672 132.442 44.3606C132.476 44.0038 132.677 43.7752 133.051 43.7696C133.42 43.7641 133.633 43.9703 133.7 44.3327" fill="#A2FF48"/>
<path d="M133.7 29.6982C133.655 30.0662 133.443 30.2613 133.079 30.2836C132.733 30.3003 132.414 30.0383 132.442 29.7317C132.476 29.3749 132.677 29.1463 133.051 29.1407C133.42 29.1352 133.633 29.3414 133.7 29.7038" fill="#A2FF48"/>
<path d="M133.7 15.0732C133.655 15.4412 133.443 15.6363 133.079 15.6586C132.733 15.6753 132.414 15.4133 132.442 15.1067C132.476 14.7499 132.677 14.5213 133.051 14.5157C133.42 14.5102 133.633 14.7164 133.7 15.0788" fill="#A2FF48"/>
<path d="M119.058 117.46C119.014 117.828 118.801 118.023 118.438 118.045C118.091 118.062 117.773 117.8 117.801 117.493C117.834 117.137 118.035 116.908 118.41 116.902C118.779 116.897 118.991 117.103 119.058 117.466" fill="#A2FF48"/>
<path d="M119.058 102.839C119.014 103.207 118.801 103.402 118.438 103.424C118.091 103.441 117.773 103.179 117.801 102.872C117.834 102.516 118.035 102.287 118.41 102.281C118.779 102.276 118.991 102.482 119.058 102.844" fill="#A2FF48"/>
<path d="M119.058 88.2099C119.014 88.5779 118.801 88.773 118.438 88.7953C118.091 88.812 117.773 88.55 117.801 88.2434C117.834 87.8866 118.035 87.658 118.41 87.6525C118.779 87.6469 118.991 87.8531 119.058 88.2155" fill="#A2FF48"/>
<path d="M119.058 73.581C119.014 73.949 118.801 74.1441 118.438 74.1664C118.091 74.1831 117.773 73.9211 117.801 73.6145C117.834 73.2577 118.035 73.0291 118.41 73.0235C118.779 73.018 118.991 73.2242 119.058 73.5866" fill="#A2FF48"/>
<path d="M119.058 58.9521C119.014 59.3201 118.801 59.5152 118.438 59.5375C118.091 59.5542 117.773 59.2922 117.801 58.9856C117.834 58.6288 118.035 58.4002 118.41 58.3946C118.779 58.3891 118.991 58.5953 119.058 58.9577" fill="#A2FF48"/>
<path d="M119.058 44.3271C119.014 44.6951 118.801 44.8902 118.438 44.9125C118.091 44.9292 117.773 44.6672 117.801 44.3606C117.834 44.0038 118.035 43.7752 118.41 43.7696C118.779 43.7641 118.991 43.9703 119.058 44.3327" fill="#A2FF48"/>
<path d="M119.058 29.6982C119.014 30.0662 118.801 30.2613 118.438 30.2836C118.091 30.3003 117.773 30.0383 117.801 29.7317C117.834 29.3749 118.035 29.1463 118.41 29.1407C118.779 29.1352 118.991 29.3414 119.058 29.7038" fill="#A2FF48"/>
<path d="M119.058 15.0732C119.014 15.4412 118.801 15.6363 118.438 15.6586C118.091 15.6753 117.773 15.4133 117.801 15.1067C117.834 14.7499 118.035 14.5213 118.41 14.5157C118.779 14.5102 118.991 14.7164 119.058 15.0788" fill="#A2FF48"/>
<path d="M104.423 117.46C104.378 117.828 104.165 118.023 103.802 118.045C103.456 118.062 103.137 117.8 103.165 117.493C103.198 117.137 103.4 116.908 103.774 116.902C104.149 116.897 104.356 117.103 104.423 117.466" fill="#A2FF48"/>
<path d="M104.423 102.839C104.378 103.207 104.165 103.402 103.802 103.424C103.456 103.441 103.137 103.179 103.165 102.872C103.198 102.516 103.4 102.287 103.774 102.281C104.149 102.276 104.356 102.482 104.423 102.844" fill="#A2FF48"/>
<path d="M104.423 88.2099C104.378 88.5779 104.165 88.773 103.802 88.7953C103.456 88.812 103.137 88.55 103.165 88.2434C103.198 87.8866 103.4 87.658 103.774 87.6525C104.149 87.6469 104.356 87.8531 104.423 88.2155" fill="#A2FF48"/>
<path d="M104.423 73.581C104.378 73.949 104.165 74.1441 103.802 74.1664C103.456 74.1831 103.137 73.9211 103.165 73.6145C103.198 73.2577 103.4 73.0291 103.774 73.0235C104.149 73.018 104.356 73.2242 104.423 73.5866" fill="#A2FF48"/>
<path d="M104.423 58.9521C104.378 59.3201 104.165 59.5152 103.802 59.5375C103.456 59.5542 103.137 59.2922 103.165 58.9856C103.198 58.6288 103.4 58.4002 103.774 58.3946C104.149 58.3891 104.356 58.5953 104.423 58.9577" fill="#A2FF48"/>
<path d="M104.423 44.3271C104.378 44.6951 104.165 44.8902 103.802 44.9125C103.456 44.9292 103.137 44.6672 103.165 44.3606C103.198 44.0038 103.4 43.7752 103.774 43.7696C104.149 43.7641 104.356 43.9703 104.423 44.3327" fill="#A2FF48"/>
<path d="M104.423 29.6982C104.378 30.0662 104.165 30.2613 103.802 30.2836C103.456 30.3003 103.137 30.0383 103.165 29.7317C103.198 29.3749 103.4 29.1463 103.774 29.1407C104.149 29.1352 104.356 29.3414 104.423 29.7038" fill="#A2FF48"/>
<path d="M104.423 15.0732C104.378 15.4412 104.165 15.6363 103.802 15.6586C103.456 15.6753 103.137 15.4133 103.165 15.1067C103.198 14.7499 103.4 14.5213 103.774 14.5157C104.149 14.5102 104.356 14.7164 104.423 15.0788" fill="#A2FF48"/>
<path d="M163.022 132.089C162.978 132.457 162.765 132.652 162.402 132.674C162.055 132.691 161.736 132.429 161.764 132.122C161.798 131.766 161.999 131.537 162.374 131.531C162.743 131.526 162.955 131.732 163.022 132.089Z" fill="#A2FF48"/>
<path d="M163.022 117.46C162.978 117.828 162.765 118.023 162.402 118.045C162.055 118.062 161.736 117.8 161.764 117.493C161.798 117.137 161.999 116.908 162.374 116.902C162.743 116.897 162.955 117.103 163.022 117.466" fill="#A2FF48"/>
<path d="M163.022 102.839C162.978 103.207 162.765 103.402 162.402 103.424C162.055 103.441 161.736 103.179 161.764 102.872C161.798 102.516 161.999 102.287 162.374 102.281C162.743 102.276 162.955 102.482 163.022 102.844" fill="#A2FF48"/>
<path d="M163.022 88.2099C162.978 88.5779 162.765 88.773 162.402 88.7953C162.055 88.812 161.736 88.55 161.764 88.2434C161.798 87.8866 161.999 87.658 162.374 87.6525C162.743 87.6469 162.955 87.8531 163.022 88.2155" fill="#A2FF48"/>
<path d="M163.022 73.581C162.978 73.949 162.765 74.1441 162.402 74.1664C162.055 74.1831 161.736 73.9211 161.764 73.6145C161.798 73.2577 161.999 73.0291 162.374 73.0235C162.743 73.018 162.955 73.2242 163.022 73.5866" fill="#A2FF48"/>
<path d="M163.022 58.9521C162.978 59.3201 162.765 59.5152 162.402 59.5375C162.055 59.5542 161.736 59.2922 161.764 58.9856C161.798 58.6288 161.999 58.4002 162.374 58.3946C162.743 58.3891 162.955 58.5953 163.022 58.9577" fill="#A2FF48"/>
<path d="M163.022 44.3271C162.978 44.6951 162.765 44.8902 162.402 44.9125C162.055 44.9292 161.736 44.6672 161.764 44.3606C161.798 44.0038 161.999 43.7752 162.374 43.7696C162.743 43.7641 162.955 43.9703 163.022 44.3327" fill="#A2FF48"/>
<path d="M163.022 29.6982C162.978 30.0662 162.765 30.2613 162.402 30.2836C162.055 30.3003 161.736 30.0383 161.764 29.7317C161.798 29.3749 161.999 29.1463 162.374 29.1407C162.743 29.1352 162.955 29.3414 163.022 29.7038" fill="#A2FF48"/>
<path d="M163.022 15.0732C162.978 15.4412 162.765 15.6363 162.402 15.6586C162.055 15.6753 161.736 15.4133 161.764 15.1067C161.798 14.7499 161.999 14.5213 162.374 14.5157C162.743 14.5102 162.955 14.7164 163.022 15.0788" fill="#A2FF48"/>
<path d="M177.612 0.557593C177.567 0.925532 177.355 1.12065 176.986 1.14295C176.639 1.15967 176.32 0.897658 176.348 0.591042C176.382 0.234253 176.583 0.00568499 176.958 0.000110157C177.332 -0.00546467 177.539 0.200804 177.606 0.563168" fill="#A2FF48"/>
<path d="M148.336 0.557593C148.291 0.925532 148.079 1.12065 147.715 1.14295C147.369 1.15967 147.05 0.897658 147.078 0.591042C147.111 0.234253 147.313 0.00568499 147.687 0.000110157C148.056 -0.00546467 148.269 0.200804 148.336 0.563168" fill="#A2FF48"/>
<path d="M133.7 0.557593C133.655 0.925532 133.443 1.12065 133.079 1.14295C132.733 1.15967 132.414 0.897658 132.442 0.591042C132.476 0.234253 132.677 0.00568499 133.051 0.000110157C133.42 -0.00546467 133.633 0.200804 133.7 0.563168" fill="#A2FF48"/>
<path d="M119.058 0.557593C119.014 0.925532 118.801 1.12065 118.438 1.14295C118.091 1.15967 117.773 0.897658 117.801 0.591042C117.834 0.234253 118.035 0.00568499 118.41 0.000110157C118.779 -0.00546467 118.991 0.200804 119.058 0.563168" fill="#A2FF48"/>
<path d="M163.022 0.557593C162.978 0.925532 162.765 1.12065 162.402 1.14295C162.055 1.15967 161.736 0.897658 161.764 0.591042C161.798 0.234253 161.999 0.00568499 162.374 0.000110157C162.743 -0.00546467 162.955 0.200804 163.022 0.563168" fill="#A2FF48"/>
<path d="M104.446 0.557593C104.401 0.925532 104.189 1.12065 103.826 1.14295C103.479 1.15967 103.16 0.897658 103.188 0.591042C103.222 0.234253 103.423 0.00568499 103.798 0.000110157C104.172 -0.00546467 104.379 0.200804 104.446 0.563168" fill="#A2FF48"/>
<path d="M75.1685 0.557593C75.1237 0.925532 74.9113 1.12065 74.5423 1.14295C74.1957 1.15967 73.8771 0.897658 73.905 0.591042C73.9386 0.234253 74.1398 0.00568499 74.5144 0.000110157C74.8833 -0.00546467 75.0958 0.200804 75.1629 0.563168" fill="#A2FF48"/>
<path d="M60.5327 0.557593C60.488 0.925532 60.2756 1.12065 59.9066 1.14295C59.56 1.15967 59.2413 0.897658 59.2693 0.591042C59.3028 0.234253 59.5041 0.00568499 59.8786 0.000110157C60.2476 -0.00546467 60.46 0.200804 60.5271 0.563168" fill="#A2FF48"/>
<path d="M45.897 0.557593C45.8522 0.925532 45.6398 1.12065 45.2709 1.14295C44.9242 1.15967 44.6056 0.897658 44.6335 0.591042C44.6671 0.234253 44.8683 0.00568499 45.2429 0.000110157C45.6119 -0.00546467 45.8243 0.200804 45.8914 0.563168" fill="#A2FF48"/>
<path d="M89.8553 0.557593C89.8105 0.925532 89.5981 1.12065 89.2347 1.14295C88.8881 1.15967 88.5695 0.897658 88.5974 0.591042C88.631 0.234253 88.8322 0.00568499 89.2068 0.000110157C89.5813 -0.00546467 89.7882 0.200804 89.8553 0.563168" fill="#A2FF48"/>
<path d="M31.2791 0.557593C31.2344 0.925532 31.0219 1.12065 30.6585 1.14295C30.3119 1.15967 29.9933 0.897658 30.0212 0.591042C30.0548 0.234253 30.256 0.00568499 30.6306 0.000110157C31.0051 -0.00546467 31.212 0.200804 31.2791 0.563168" fill="#A2FF48"/>
<path d="M2.00759 0.557593C1.96287 0.925532 1.75044 1.12065 1.38706 1.14295C1.04046 1.15967 0.721807 0.897658 0.749759 0.591042C0.783301 0.234253 0.984557 0.00568499 1.35911 0.000110157C1.73367 -0.00546467 1.94051 0.200804 2.00759 0.563168" fill="#A2FF48"/>
<path d="M16.6883 0.557593C16.6435 0.925532 16.4311 1.12065 16.0677 1.14295C15.7211 1.15967 15.4025 0.897658 15.4304 0.591042C15.464 0.234253 15.6652 0.00568499 16.0398 0.000110157C16.4143 -0.00546467 16.6212 0.200804 16.6883 0.563168" fill="#A2FF48"/>
<path d="M192.276 234.483C192.231 234.851 192.019 235.046 191.656 235.069C191.309 235.085 190.99 234.823 191.018 234.517C191.052 234.16 191.253 233.931 191.628 233.926C192.002 233.92 192.209 234.127 192.276 234.489" fill="#A2FF48"/>
<path d="M192.276 219.854C192.231 220.222 192.019 220.418 191.656 220.44C191.309 220.457 190.99 220.195 191.018 219.888C191.052 219.531 191.253 219.303 191.628 219.297C192.002 219.291 192.209 219.498 192.276 219.854Z" fill="#A2FF48"/>
<path d="M192.276 205.233C192.231 205.601 192.019 205.796 191.656 205.819C191.309 205.835 190.99 205.573 191.018 205.267C191.052 204.91 191.253 204.681 191.628 204.676C192.002 204.67 192.209 204.877 192.276 205.239" fill="#A2FF48"/>
<path d="M192.276 190.604C192.231 190.972 192.019 191.168 191.656 191.19C191.309 191.207 190.99 190.945 191.018 190.638C191.052 190.281 191.253 190.053 191.628 190.047C192.002 190.041 192.209 190.248 192.276 190.61" fill="#A2FF48"/>
<path d="M192.276 175.976C192.231 176.344 192.019 176.539 191.656 176.561C191.309 176.578 190.99 176.316 191.018 176.009C191.052 175.652 191.253 175.424 191.628 175.418C192.002 175.413 192.209 175.619 192.276 175.976Z" fill="#A2FF48"/>
<path d="M192.276 161.347C192.231 161.715 192.019 161.91 191.656 161.932C191.309 161.949 190.99 161.687 191.018 161.38C191.052 161.023 191.253 160.795 191.628 160.789C192.002 160.784 192.209 160.99 192.276 161.352" fill="#A2FF48"/>
<path d="M192.276 146.718C192.231 147.086 192.019 147.281 191.656 147.303C191.309 147.32 190.99 147.058 191.018 146.751C191.052 146.394 191.253 146.166 191.628 146.16C192.002 146.155 192.209 146.361 192.276 146.723" fill="#A2FF48"/>
<path d="M192.276 132.089C192.231 132.457 192.019 132.652 191.656 132.674C191.309 132.691 190.99 132.429 191.018 132.122C191.052 131.766 191.253 131.537 191.628 131.531C192.002 131.526 192.209 131.732 192.276 132.089Z" fill="#A2FF48"/>
<path d="M192.276 117.46C192.231 117.828 192.019 118.023 191.656 118.045C191.309 118.062 190.99 117.8 191.018 117.493C191.052 117.137 191.253 116.908 191.628 116.902C192.002 116.897 192.209 117.103 192.276 117.466" fill="#A2FF48"/>
<path d="M192.276 102.839C192.231 103.207 192.019 103.402 191.656 103.424C191.309 103.441 190.99 103.179 191.018 102.872C191.052 102.516 191.253 102.287 191.628 102.281C192.002 102.276 192.209 102.482 192.276 102.844" fill="#A2FF48"/>
<path d="M192.276 88.2099C192.231 88.5779 192.019 88.773 191.656 88.7953C191.309 88.812 190.99 88.55 191.018 88.2434C191.052 87.8866 191.253 87.658 191.628 87.6525C192.002 87.6469 192.209 87.8531 192.276 88.2155" fill="#A2FF48"/>
<path d="M192.276 73.581C192.231 73.949 192.019 74.1441 191.656 74.1664C191.309 74.1831 190.99 73.9211 191.018 73.6145C191.052 73.2577 191.253 73.0291 191.628 73.0235C192.002 73.018 192.209 73.2242 192.276 73.5866" fill="#A2FF48"/>
<path d="M192.276 58.9521C192.231 59.3201 192.019 59.5152 191.656 59.5375C191.309 59.5542 190.99 59.2922 191.018 58.9856C191.052 58.6288 191.253 58.4002 191.628 58.3946C192.002 58.3891 192.209 58.5953 192.276 58.9577" fill="#A2FF48"/>
<path d="M192.276 44.3271C192.231 44.6951 192.019 44.8902 191.656 44.9125C191.309 44.9292 190.99 44.6672 191.018 44.3606C191.052 44.0038 191.253 43.7752 191.628 43.7696C192.002 43.7641 192.209 43.9703 192.276 44.3327" fill="#A2FF48"/>
<path d="M192.276 29.6982C192.231 30.0662 192.019 30.2613 191.656 30.2836C191.309 30.3003 190.99 30.0383 191.018 29.7317C191.052 29.3749 191.253 29.1463 191.628 29.1407C192.002 29.1352 192.209 29.3414 192.276 29.7038" fill="#A2FF48"/>
<path d="M192.276 15.0732C192.231 15.4412 192.019 15.6363 191.656 15.6586C191.309 15.6753 190.99 15.4133 191.018 15.1067C191.052 14.7499 191.253 14.5213 191.628 14.5157C192.002 14.5102 192.209 14.7164 192.276 15.0788" fill="#A2FF48"/>
<path d="M192.276 0.557593C192.231 0.925532 192.019 1.12065 191.656 1.14295C191.309 1.15967 190.99 0.897658 191.018 0.591042C191.052 0.234253 191.253 0.00568499 191.628 0.000110157C192.002 -0.00546467 192.209 0.200804 192.276 0.563168" fill="#A2FF48"/>
<path d="M206.933 234.483C206.889 234.851 206.676 235.046 206.313 235.069C205.966 235.085 205.648 234.823 205.676 234.517C205.709 234.16 205.91 233.931 206.285 233.926C206.654 233.92 206.866 234.127 206.933 234.489" fill="#A2FF48"/>
<path d="M206.933 219.854C206.889 220.222 206.676 220.418 206.313 220.44C205.966 220.457 205.648 220.195 205.676 219.888C205.709 219.531 205.91 219.303 206.285 219.297C206.654 219.291 206.866 219.498 206.933 219.854Z" fill="#A2FF48"/>
<path d="M206.933 205.233C206.889 205.601 206.676 205.796 206.313 205.819C205.966 205.835 205.648 205.573 205.676 205.267C205.709 204.91 205.91 204.681 206.285 204.676C206.654 204.67 206.866 204.877 206.933 205.239" fill="#A2FF48"/>
<path d="M206.933 190.604C206.889 190.972 206.676 191.168 206.313 191.19C205.966 191.207 205.648 190.945 205.676 190.638C205.709 190.281 205.91 190.053 206.285 190.047C206.654 190.041 206.866 190.248 206.933 190.61" fill="#A2FF48"/>
<path d="M206.933 175.976C206.889 176.344 206.676 176.539 206.313 176.561C205.966 176.578 205.648 176.316 205.676 176.009C205.709 175.652 205.91 175.424 206.285 175.418C206.654 175.413 206.866 175.619 206.933 175.976Z" fill="#A2FF48"/>
<path d="M206.933 161.347C206.889 161.715 206.676 161.91 206.313 161.932C205.966 161.949 205.648 161.687 205.676 161.38C205.709 161.023 205.91 160.795 206.285 160.789C206.654 160.784 206.866 160.99 206.933 161.352" fill="#A2FF48"/>
<path d="M206.933 146.718C206.889 147.086 206.676 147.281 206.313 147.303C205.966 147.32 205.648 147.058 205.676 146.751C205.709 146.394 205.91 146.166 206.285 146.16C206.654 146.155 206.866 146.361 206.933 146.723" fill="#A2FF48"/>
<path d="M206.933 132.089C206.889 132.457 206.676 132.652 206.313 132.674C205.966 132.691 205.648 132.429 205.676 132.122C205.709 131.766 205.91 131.537 206.285 131.531C206.654 131.526 206.866 131.732 206.933 132.089Z" fill="#A2FF48"/>
<path d="M206.933 117.46C206.889 117.828 206.676 118.023 206.313 118.045C205.966 118.062 205.648 117.8 205.676 117.493C205.709 117.137 205.91 116.908 206.285 116.902C206.654 116.897 206.866 117.103 206.933 117.466" fill="#A2FF48"/>
<path d="M206.933 102.839C206.889 103.207 206.676 103.402 206.313 103.424C205.966 103.441 205.648 103.179 205.676 102.872C205.709 102.516 205.91 102.287 206.285 102.281C206.654 102.276 206.866 102.482 206.933 102.844" fill="#A2FF48"/>
<path d="M206.933 88.2099C206.889 88.5779 206.676 88.773 206.313 88.7953C205.966 88.812 205.648 88.55 205.676 88.2434C205.709 87.8866 205.91 87.658 206.285 87.6525C206.654 87.6469 206.866 87.8531 206.933 88.2155" fill="#A2FF48"/>
<path d="M206.933 73.581C206.889 73.949 206.676 74.1441 206.313 74.1664C205.966 74.1831 205.648 73.9211 205.676 73.6145C205.709 73.2577 205.91 73.0291 206.285 73.0235C206.654 73.018 206.866 73.2242 206.933 73.5866" fill="#A2FF48"/>
<path d="M206.933 58.9521C206.889 59.3201 206.676 59.5152 206.313 59.5375C205.966 59.5542 205.648 59.2922 205.676 58.9856C205.709 58.6288 205.91 58.4002 206.285 58.3946C206.654 58.3891 206.866 58.5953 206.933 58.9577" fill="#A2FF48"/>
<path d="M206.933 44.3271C206.889 44.6951 206.676 44.8902 206.313 44.9125C205.966 44.9292 205.648 44.6672 205.676 44.3606C205.709 44.0038 205.91 43.7752 206.285 43.7696C206.654 43.7641 206.866 43.9703 206.933 44.3327" fill="#A2FF48"/>
<path d="M206.933 29.6982C206.889 30.0662 206.676 30.2613 206.313 30.2836C205.966 30.3003 205.648 30.0383 205.676 29.7317C205.709 29.3749 205.91 29.1463 206.285 29.1407C206.654 29.1352 206.866 29.3414 206.933 29.7038" fill="#A2FF48"/>
<path d="M206.933 15.0732C206.889 15.4412 206.676 15.6363 206.313 15.6586C205.966 15.6753 205.648 15.4133 205.676 15.1067C205.709 14.7499 205.91 14.5213 206.285 14.5157C206.654 14.5102 206.866 14.7164 206.933 15.0788" fill="#A2FF48"/>
<path d="M206.933 0.557593C206.889 0.925532 206.676 1.12065 206.313 1.14295C205.966 1.15967 205.648 0.897658 205.676 0.591042C205.709 0.234253 205.91 0.00568499 206.285 0.000110157C206.654 -0.00546467 206.866 0.200804 206.933 0.563168" fill="#A2FF48"/>
<path d="M1.9624 219.854C1.91768 220.222 1.70525 220.418 1.33628 220.44C0.989677 220.457 0.671026 220.195 0.698978 219.888C0.73252 219.531 0.933772 219.303 1.30833 219.297C1.67729 219.291 1.88973 219.498 1.95681 219.854" fill="#A2FF48"/>
<path d="M1.9624 29.6982C1.91768 30.0662 1.70525 30.2613 1.33628 30.2836C0.989677 30.3003 0.671026 30.0383 0.698978 29.7317C0.73252 29.3749 0.933772 29.1463 1.30833 29.1407C1.67729 29.1352 1.88973 29.3414 1.95681 29.7038" fill="#A2FF48"/>
<path d="M1.9624 15.0732C1.91768 15.4412 1.70525 15.6363 1.33628 15.6586C0.989677 15.6753 0.671026 15.4133 0.698978 15.1067C0.73252 14.7499 0.933772 14.5213 1.30833 14.5157C1.67729 14.5102 1.88973 14.7164 1.95681 15.0788" fill="#A2FF48"/>
<path d="M75.1404 15.0732C75.0957 15.4412 74.8832 15.6363 74.5199 15.6586C74.1733 15.6753 73.8546 15.4133 73.8826 15.1067C73.9161 14.7499 74.1174 14.5213 74.4919 14.5157C74.8665 14.5102 75.0733 14.7164 75.1404 15.0788" fill="#A2FF48"/>
<path d="M89.7869 15.0732C89.7422 15.4412 89.5297 15.6363 89.1664 15.6586C88.8198 15.6753 88.5011 15.4133 88.5291 15.1067C88.5626 14.7499 88.7638 14.5213 89.1384 14.5157C89.513 14.5102 89.7198 14.7164 89.7869 15.0788" fill="#A2FF48"/>
<path d="M16.5981 15.0732C16.5534 15.4412 16.341 15.6363 15.972 15.6586C15.6254 15.6753 15.3068 15.4133 15.3347 15.1067C15.3683 14.7499 15.5695 14.5213 15.9441 14.5157C16.313 14.5102 16.5255 14.7164 16.5926 15.0788" fill="#A2FF48"/>
</g>
</svg>
