<svg width="519" height="592" viewBox="0 0 519 592" fill="none" xmlns="http://www.w3.org/2000/svg">
<ellipse cx="259.336" cy="295.901" rx="74.9642" ry="95.1697" transform="rotate(30 259.336 295.901)" stroke="#DBCCB1"/>
<path d="M399.872 328.722C408.251 304.865 412.302 280.293 411.755 256.633C411.208 232.974 406.077 210.767 396.7 191.485" stroke="#DBCCB1"/>
<path d="M121.959 254.628C106.36 293.884 102.713 335.318 111.661 371.609C120.609 407.9 141.577 436.714 170.861 452.96" stroke="#DBCCB1"/>
<path d="M41.2009 232.036C56.2661 193.616 78.0796 157.689 105.118 126.762" stroke="#DBCCB1"/>
<path d="M216.195 44.2235C250.294 29.5712 285.326 22.8675 318.911 24.5678C352.495 26.2681 383.846 36.3327 410.831 54.0774" stroke="#DBCCB1"/>
<path d="M313.58 542.508C254.952 570.862 193.389 575.251 140.952 554.815" stroke="#DBCCB1"/>
<path d="M500.4 225.606C502.615 268.518 495.123 313.595 478.581 356.887C462.039 400.178 436.951 440.362 405.518 473.914" stroke="#DBCCB1"/>
<path d="M22.0869 399.782C19.2537 383.926 17.8476 367.484 17.8876 350.676" stroke="#DBCCB1"/>
<rect x="1.22445" y="0.707387" width="189.813" height="297.131" rx="7" transform="matrix(0.965976 -0.25863 0.258477 0.966017 127.721 177.724)" fill="white" stroke="#6F685D" stroke-width="2"/>
<path d="M129.93 185.111C128.787 180.843 131.322 176.456 135.59 175.314L305.421 129.843C309.689 128.7 314.074 131.234 315.216 135.502L347.843 257.438L162.556 307.047L129.93 185.111Z" fill="#6F685D"/>
<path d="M173.527 251.14L198.929 196.698L276.526 254.138" stroke="white" stroke-linecap="round" stroke-linejoin="round"/>
<rect width="143.22" height="92.0402" rx="8" transform="matrix(0.965976 -0.25863 0.258477 0.966017 157.37 190.758)" stroke="white"/>
<path d="M286.252 190.456C282.436 197.026 274.558 199.548 268.691 196.235C262.825 192.922 261.043 184.946 264.859 178.376C268.674 171.806 276.553 169.285 282.42 172.597C288.286 175.91 290.068 183.886 286.252 190.456Z" stroke="white"/>
<path d="M264.353 244.954L281.498 210.855L315.598 235.238" stroke="white" stroke-linecap="round" stroke-linejoin="round"/>
<rect width="161.123" height="3.83501" rx="1.91751" transform="matrix(0.965976 -0.25863 0.258477 0.966017 181.344 317.898)" fill="#6F685D"/>
<rect width="161.123" height="3.83501" rx="1.91751" transform="matrix(0.965976 -0.25863 0.258477 0.966017 185.309 332.715)" fill="#6F685D"/>
<rect width="161.123" height="3.83501" rx="1.91751" transform="matrix(0.965976 -0.25863 0.258477 0.966017 189.274 347.535)" fill="#6F685D"/>
<rect width="65.4828" height="65.4801" rx="32.7401" transform="matrix(0.54162 -0.840392 0.841105 0.541232 112.81 309.625)" fill="#FF5F45"/>
<path fill-rule="evenodd" clip-rule="evenodd" d="M143.03 292.77C141.75 290.979 143.252 288.648 145.414 289.07L155.456 291.032L161.463 283.229C162.757 281.548 165.54 282.319 165.881 284.452L167.464 294.357L177.122 297.851C179.202 298.603 179.421 301.41 177.469 302.306L168.405 306.466L168.367 316.429C168.359 318.574 165.71 319.538 164.163 317.959L156.979 310.625L147.297 313.288C145.212 313.862 143.357 311.651 144.352 309.779L148.976 301.086L143.03 292.77ZM145.807 291.939L151.384 299.739C151.924 300.494 151.999 301.465 151.579 302.254L147.242 310.408L156.324 307.91C157.203 307.668 158.166 307.935 158.818 308.601L165.557 315.479L165.592 306.135C165.596 305.23 166.115 304.424 166.938 304.046L175.44 300.144L166.38 296.867C165.503 296.55 164.862 295.785 164.718 294.886L163.234 285.595L157.599 292.914C157.053 293.623 156.137 293.956 155.226 293.778L145.807 291.939Z" fill="white"/>
<path fill-rule="evenodd" clip-rule="evenodd" d="M31.1477 269.957C21.0244 271.575 14.1352 281.092 15.7603 291.214C17.3854 301.337 26.9093 308.23 37.0326 306.612C42.0948 305.803 46.3455 303.022 49.1319 299.172C51.9183 295.323 53.2326 290.416 52.4199 285.355C50.7949 275.232 41.271 268.339 31.1477 269.957ZM11.687 291.865C9.70083 279.494 18.1209 267.862 30.4938 265.884C42.8667 263.906 54.507 272.332 56.4932 284.703C57.3685 290.155 56.2213 295.466 53.6077 299.867L68.3893 310.567C69.3123 311.235 69.5193 312.524 68.8516 313.447C68.1839 314.369 66.8944 314.575 65.9714 313.907L51.1898 303.207C47.8257 307.065 43.1388 309.814 37.6865 310.685C25.3136 312.663 13.6732 304.237 11.687 291.865Z" fill="#DBCCB1"/>
<path fill-rule="evenodd" clip-rule="evenodd" d="M443.426 291.64C444.293 292.025 444.785 292.952 444.619 293.885L440.981 314.378L460.887 312.582C461.705 312.508 462.489 312.926 462.883 313.647C463.277 314.368 463.206 315.253 462.703 315.902L436.743 349.307C436.161 350.056 435.143 350.311 434.276 349.925C433.41 349.54 432.917 348.613 433.083 347.68L436.721 327.187L416.815 328.984C415.997 329.057 415.213 328.639 414.819 327.918C414.425 327.197 414.496 326.312 414.999 325.663L440.96 292.258C441.541 291.509 442.559 291.254 443.426 291.64ZM421.169 324.449L439.038 322.837C439.678 322.779 440.309 323.023 440.743 323.497C441.178 323.97 441.367 324.619 441.255 325.252L438.603 340.189L456.533 317.116L438.665 318.728C438.024 318.786 437.394 318.542 436.959 318.069C436.524 317.595 436.335 316.946 436.447 316.313L439.099 301.376L421.169 324.449Z" fill="#DBCCB1"/>
<g clip-path="url(#clip0_205_11987)">
<path fill-rule="evenodd" clip-rule="evenodd" d="M197.263 74.5491C197.884 70.5303 195.084 67.1617 191.525 66.2086L183.21 63.9825C183.184 63.9754 183.164 63.9417 183.159 63.8549C183.095 63.6671 183.145 63.4811 183.227 63.3891C185.342 60.9094 186.966 57.9279 187.869 54.5542C189.042 50.171 186.443 45.6317 182.033 44.451C179.828 43.8607 177.572 45.164 176.982 47.3689L176.527 49.069C176.192 50.3176 175.612 51.5287 174.821 52.5695C173.853 53.8475 172.277 54.7352 170.395 55.1709C166.753 56.0175 163.304 57.6279 160.312 59.8729C159.42 60.5451 158.426 60.9622 157.49 61.0534C157.169 59.914 156.325 58.9194 154.917 58.5425L152.128 57.7957C149.232 57.0204 145.91 57.839 143.959 60.4482C141.414 63.8947 139.467 67.8714 138.293 72.2546C137.376 75.6815 136.992 79.1372 137.109 82.5279C137.225 86.0319 139.822 88.6633 142.904 89.4884L145.321 90.1356C147.659 90.7615 149.554 89.1053 149.921 87.0968L151.355 87.4809C152.418 87.7654 153.431 88.2358 154.382 88.832L161.903 93.8067C163.21 94.6689 164.634 95.3063 166.121 95.7046L176.8 98.5637C178.952 99.1398 181.384 98.8801 183.336 97.4383C189.561 92.899 194.327 86.2608 196.482 78.2117C196.809 76.9897 197.076 75.78 197.263 74.5491ZM146.263 74.3883C145.345 77.8152 145.135 81.2604 145.553 84.5894C145.599 85.0571 145.671 85.5319 145.75 85.9802L143.971 85.5037C142.35 85.0698 141.297 83.7916 141.247 82.3832C141.13 79.4194 141.467 76.3498 142.278 73.3215C143.316 69.443 145.049 65.9497 147.287 62.905C148.051 61.8571 149.52 61.3678 151.061 61.7804L153.186 62.3493C149.957 65.5843 147.529 69.6598 146.263 74.3883ZM180.896 94.1091C180.086 94.6893 178.982 94.8777 177.867 94.579L167.188 91.7199C166.125 91.4354 165.105 90.9915 164.162 90.3688L156.64 85.3941C155.333 84.5319 153.91 83.8945 152.422 83.4962L149.527 82.721C149.366 80.3435 149.593 77.8991 150.247 75.4552C151.328 71.4173 153.434 67.9102 156.214 65.1814C158.632 65.4017 161.001 64.5272 162.792 63.1561C163.4 62.6926 164.054 62.2699 164.701 61.8737C166.736 60.6534 168.999 59.7505 171.343 59.1824C173.834 58.5968 176.416 57.3522 178.115 55.0457C178.525 54.4722 178.908 53.8915 179.212 53.2895C179.788 52.3052 180.22 51.225 180.511 50.1359L180.966 48.4357C183.171 49.0261 184.475 51.2824 183.884 53.4873C183.337 55.5328 182.472 57.3795 181.371 59.0489C180.988 59.6296 180.551 60.196 180.096 60.7288C179.551 61.3801 179.212 62.1149 179.093 62.8801L177.233 62.3822C176.436 62.1688 175.618 62.4621 175.114 63.0674C174.917 63.2709 174.786 63.5489 174.708 63.8411C174.409 64.9569 175.077 66.0753 176.167 66.3669L190.458 70.1934C192.344 70.6983 193.444 72.3309 193.191 73.9144C193.02 74.9788 192.789 76.0556 192.497 77.1448C190.599 84.2376 186.386 90.0845 180.896 94.1091Z" fill="#DBCCB1"/>
</g>
<rect width="47.0272" height="47.0643" rx="23.5136" transform="matrix(-0.10189 -0.994796 0.994812 -0.101733 4.79297 480.309)" fill="#FF5F45"/>
<path fill-rule="evenodd" clip-rule="evenodd" d="M13.6906 457.427C12.1024 456.976 11.8904 454.907 13.3541 454.142L20.1508 450.592L20.0138 443.204C19.9843 441.613 21.9746 440.762 23.1728 441.853L28.737 446.922L36.0272 444.45C37.5971 443.918 39.0392 445.462 38.3161 446.901L34.9582 453.583L39.6008 459.444C40.6006 460.706 39.5015 462.511 37.8564 462.309L30.2169 461.37L25.796 467.464C24.844 468.777 22.7227 468.348 22.429 466.784L21.0655 459.522L13.6906 457.427ZM14.9269 455.64L21.8444 457.605C22.5139 457.795 23.0128 458.329 23.1366 458.989L24.4155 465.801L28.5622 460.085C28.9636 459.531 29.6521 459.237 30.3456 459.322L37.5113 460.202L33.1566 454.705C32.7352 454.173 32.6618 453.457 32.9667 452.851L36.1163 446.583L29.2783 448.901C28.6164 449.126 27.8826 448.977 27.3775 448.517L22.1584 443.763L22.2869 450.693C22.2994 451.364 21.9192 451.988 21.3021 452.311L14.9269 455.64Z" fill="white"/>
<rect width="47.0272" height="47.0643" rx="23.5136" transform="matrix(-0.10189 -0.994796 0.994812 -0.101733 464.652 137.57)" fill="#FF5F45"/>
<path fill-rule="evenodd" clip-rule="evenodd" d="M473.55 114.689C471.962 114.238 471.75 112.168 473.213 111.404L480.01 107.854L479.873 100.465C479.844 98.8744 481.834 98.0236 483.032 99.1151L488.596 104.183L495.887 101.712C497.457 101.179 498.899 102.723 498.175 104.162L494.818 110.845L499.46 116.706C500.46 117.968 499.361 119.773 497.716 119.571L490.076 118.632L485.655 124.726C484.703 126.038 482.582 125.61 482.288 124.046L480.925 116.784L473.55 114.689ZM474.786 112.902L481.704 114.867C482.373 115.057 482.872 115.591 482.996 116.25L484.275 123.062L488.422 117.346C488.823 116.793 489.511 116.499 490.205 116.584L497.371 117.464L493.016 111.967C492.595 111.435 492.521 110.719 492.826 110.112L495.976 103.844L489.138 106.163C488.476 106.387 487.742 106.239 487.237 105.779L482.018 101.025L482.146 107.955C482.159 108.626 481.779 109.25 481.162 109.572L474.786 112.902Z" fill="white"/>
<rect x="1.36601" y="0.366424" width="73.2489" height="115.384" rx="7" transform="matrix(0.866195 -0.499707 0.499818 0.866131 371.648 128.775)" fill="white" stroke="#6F685D" stroke-width="2"/>
<path d="M375.647 134.972C373.439 131.145 374.751 126.253 378.578 124.045L429.899 94.4382C433.726 92.2304 438.619 93.5428 440.827 97.3696L463.155 136.062L397.975 173.664L375.647 134.972Z" fill="#6F685D"/>
<path d="M396.45 151.36L400.544 128.15L435.79 142.045" stroke="white" stroke-linecap="round" stroke-linejoin="round"/>
<rect width="56.1845" height="36.1171" rx="2" transform="matrix(0.866195 -0.499707 0.499818 0.866131 384.191 130.117)" stroke="white"/>
<path d="M432.709 116.851C431.967 119.595 429.385 121.216 427.015 120.605C424.645 119.994 423.22 117.339 423.963 114.595C424.705 111.851 427.287 110.23 429.657 110.841C432.027 111.452 433.452 114.107 432.709 116.851Z" stroke="white"/>
<path d="M430.243 139.801L433.275 125.139L448.675 130.919" stroke="white" stroke-linecap="round" stroke-linejoin="round"/>
<rect width="63.2075" height="1.50488" rx="0.752441" transform="matrix(0.866195 -0.499707 0.499818 0.866131 406.198 175.871)" fill="#6F685D"/>
<rect width="63.2075" height="1.50488" rx="0.752441" transform="matrix(0.866195 -0.499707 0.499818 0.866131 409.207 181.082)" fill="#6F685D"/>
<rect width="63.2075" height="1.50488" rx="0.752441" transform="matrix(0.866195 -0.499707 0.499818 0.866131 412.216 186.297)" fill="#6F685D"/>
<rect x="0.706438" y="1.22436" width="73.2596" height="115.367" rx="7" transform="matrix(0.965976 0.25863 -0.259538 0.965733 66.803 435.859)" fill="white" stroke="#6F685D" stroke-width="2"/>
<path d="M64.3849 443.726C65.5316 439.459 69.921 436.926 74.189 438.069L131.432 453.395C135.7 454.538 138.231 458.923 137.084 463.19L125.492 506.324L52.7927 486.86L64.3849 443.726Z" fill="#6F685D"/>
<path d="M67.4975 470.011L86.8175 456.492L101.907 491.221" stroke="white" stroke-linecap="round" stroke-linejoin="round"/>
<rect width="56.1925" height="36.112" rx="2" transform="matrix(0.965976 0.25863 -0.259538 0.965733 73.8623 446.328)" stroke="white"/>
<path d="M117.559 471.227C115.092 472.643 112.119 471.965 110.876 469.858C109.633 467.752 110.504 464.868 112.971 463.452C115.438 462.036 118.411 462.714 119.654 464.821C120.897 466.927 120.026 469.811 117.559 471.227Z" stroke="white"/>
<path d="M99.5736 485.714L112.093 477.489L118.892 492.457" stroke="white" stroke-linecap="round" stroke-linejoin="round"/>
<rect width="63.2166" height="1.50467" rx="0.752333" transform="matrix(0.965976 0.25863 -0.259538 0.965733 57.0465 494.23)" fill="#6F685D"/>
<rect width="63.2166" height="1.50467" rx="0.752333" transform="matrix(0.965976 0.25863 -0.259538 0.965733 55.4844 500.043)" fill="#6F685D"/>
<rect width="63.2166" height="1.50467" rx="0.752333" transform="matrix(0.965976 0.25863 -0.259538 0.965733 53.9222 505.855)" fill="#6F685D"/>
<g clip-path="url(#clip1_205_11987)">
<path fill-rule="evenodd" clip-rule="evenodd" d="M343.299 479.425C337.446 477.856 331.625 481.158 330.171 486.583C327.826 495.337 331.301 504.279 335.683 511.29C337.85 514.756 340.179 517.652 341.968 519.683C342.862 520.697 343.616 521.49 344.144 522.026C344.149 522.031 344.153 522.036 344.158 522.041C344.165 522.039 344.171 522.037 344.178 522.036C344.903 521.835 345.953 521.525 347.234 521.094C349.799 520.23 353.263 518.886 356.873 516.967C364.174 513.087 371.655 507.081 374 498.327C375.454 492.902 372.064 487.132 366.21 485.564C361.848 484.395 357.472 485.94 354.946 489.061C354.433 489.694 353.596 489.966 352.809 489.755C352.022 489.544 351.433 488.89 351.306 488.085C350.678 484.12 347.662 480.594 343.299 479.425ZM343.545 524.331C342.139 525.84 342.138 525.84 342.138 525.839L342.131 525.833L342.116 525.819L342.065 525.771C342.021 525.729 341.959 525.669 341.879 525.592C341.719 525.437 341.49 525.211 341.203 524.919C340.629 524.336 339.822 523.487 338.874 522.41C336.979 520.26 334.503 517.182 332.186 513.476C327.601 506.141 323.393 495.942 326.187 485.516C328.271 477.738 336.468 473.324 344.367 475.44C349.013 476.685 352.603 479.922 354.362 483.96C357.904 481.343 362.632 480.335 367.278 481.579C375.177 483.696 380.069 491.617 377.985 499.395C375.191 509.821 366.447 516.55 358.809 520.61C354.95 522.661 351.266 524.088 348.55 525.003C347.19 525.461 346.067 525.793 345.278 526.011C344.884 526.12 344.573 526.201 344.357 526.256C344.249 526.283 344.165 526.303 344.106 526.318L344.037 526.334L344.017 526.339L344.011 526.34C344.01 526.34 344.008 526.341 343.545 524.331ZM343.545 524.331L344.008 526.341C343.34 526.495 342.639 526.306 342.138 525.839L343.545 524.331Z" fill="#DBCCB1"/>
</g>
<defs>
<clipPath id="clip0_205_11987">
<rect width="66" height="66" fill="white" transform="matrix(0.965976 0.25863 -0.258583 0.965989 145.066 31)"/>
</clipPath>
<clipPath id="clip1_205_11987">
<rect width="66" height="66" fill="white" transform="translate(326.082 462) rotate(15)"/>
</clipPath>
</defs>
</svg>
