<svg width="20" height="20" viewBox="0 0 20 20" fill="none" xmlns="http://www.w3.org/2000/svg">
<g clip-path="url(#clip0_205_7951)">
<path d="M14.5837 5.41797H14.592M5.83366 1.66797H14.167C16.4682 1.66797 18.3337 3.53345 18.3337 5.83464V14.168C18.3337 16.4692 16.4682 18.3346 14.167 18.3346H5.83366C3.53247 18.3346 1.66699 16.4692 1.66699 14.168V5.83464C1.66699 3.53345 3.53247 1.66797 5.83366 1.66797ZM13.3337 9.4763C13.4365 10.1698 13.318 10.8781 12.9951 11.5005C12.6722 12.1228 12.1613 12.6275 11.535 12.9427C10.9087 13.2579 10.199 13.3676 9.50681 13.2562C8.8146 13.1449 8.17513 12.818 7.67936 12.3223C7.18359 11.8265 6.85677 11.187 6.74538 10.4948C6.63399 9.8026 6.74371 9.09288 7.05893 8.46661C7.37415 7.84035 7.87881 7.32942 8.50115 7.0065C9.12348 6.68359 9.83179 6.56513 10.5253 6.66797C11.2328 6.77287 11.8877 7.10252 12.3934 7.60822C12.8991 8.11393 13.2288 8.76887 13.3337 9.4763Z" stroke="#FF5F45" stroke-width="1.5" stroke-linecap="round" stroke-linejoin="round"/>
</g>
<defs>
<clipPath id="clip0_205_7951">
<rect width="20" height="20" fill="white"/>
</clipPath>
</defs>
</svg>
