<svg width="20" height="20" viewBox="0 0 20 20" fill="none" xmlns="http://www.w3.org/2000/svg">
<path d="M13.3337 6.66797C14.6597 6.66797 15.9315 7.19475 16.8692 8.13243C17.8069 9.07012 18.3337 10.3419 18.3337 11.668V17.5013H15.0003V11.668C15.0003 11.2259 14.8247 10.802 14.5122 10.4895C14.1996 10.1769 13.7757 10.0013 13.3337 10.0013C12.8916 10.0013 12.4677 10.1769 12.1551 10.4895C11.8426 10.802 11.667 11.2259 11.667 11.668V17.5013H8.33366V11.668C8.33366 10.3419 8.86044 9.07012 9.79813 8.13243C10.7358 7.19475 12.0076 6.66797 13.3337 6.66797Z" stroke="#FF5F45" stroke-width="1.5" stroke-linecap="round" stroke-linejoin="round"/>
<path d="M5.00033 7.5013H1.66699V17.5013H5.00033V7.5013Z" stroke="#FF5F45" stroke-width="1.5" stroke-linecap="round" stroke-linejoin="round"/>
<path d="M3.33366 5.0013C4.25413 5.0013 5.00033 4.25511 5.00033 3.33464C5.00033 2.41416 4.25413 1.66797 3.33366 1.66797C2.41318 1.66797 1.66699 2.41416 1.66699 3.33464C1.66699 4.25511 2.41318 5.0013 3.33366 5.0013Z" stroke="#FF5F45" stroke-width="1.5" stroke-linecap="round" stroke-linejoin="round"/>
</svg>
