<svg width="840" height="598" viewBox="0 0 840 598" fill="none" xmlns="http://www.w3.org/2000/svg">
<mask id="mask0_264_435" style="mask-type:alpha" maskUnits="userSpaceOnUse" x="0" y="0" width="840" height="598">
<rect width="840" height="598" fill="#D9D9D9"/>
</mask>
<g mask="url(#mask0_264_435)">
<path opacity="0.54" d="M265.898 183.007C266.008 183.101 266.025 183.275 265.94 183.394C265.856 183.512 265.697 183.531 265.591 183.426C265.482 183.331 265.465 183.157 265.55 183.039C265.634 182.92 265.779 182.911 265.898 183.007Z" fill="#DBCCB1"/>
<path opacity="0.49" d="M288.859 204.716C288.955 204.82 288.971 204.994 288.887 205.113C288.792 205.229 288.647 205.238 288.542 205.133C288.446 205.029 288.43 204.855 288.514 204.736C288.609 204.62 288.754 204.611 288.859 204.716Z" fill="#DBCCB1"/>
<path opacity="0.58" d="M311.223 227.218C311.328 227.324 311.334 227.496 311.24 227.612C311.145 227.729 310.99 227.736 310.884 227.631C310.779 227.525 310.773 227.353 310.867 227.236C310.962 227.12 311.117 227.112 311.223 227.218Z" fill="#DBCCB1"/>
<path opacity="0.56" d="M332.949 250.494C333.055 250.6 333.047 250.782 332.952 250.898C332.858 251.015 332.707 251.01 332.601 250.905C332.495 250.799 332.503 250.617 332.598 250.501C332.692 250.384 332.844 250.389 332.949 250.494Z" fill="#DBCCB1"/>
<path opacity="0.68" d="M354.037 274.517C354.128 274.632 354.121 274.814 354.03 274.919C353.925 275.034 353.774 275.029 353.682 274.914C353.591 274.799 353.599 274.617 353.69 274.512C353.794 274.397 353.946 274.402 354.037 274.517Z" fill="#DBCCB1"/>
<path opacity="0.33" d="M374.498 299.259C374.589 299.374 374.582 299.556 374.477 299.671C374.372 299.785 374.21 299.779 374.119 299.664C374.028 299.549 374.035 299.367 374.14 299.252C374.245 299.138 374.406 299.144 374.498 299.259Z" fill="#DBCCB1"/>
<path opacity="0.61" d="M394.33 324.692C394.421 324.807 394.399 324.999 394.298 325.102C394.183 325.214 394.036 325.199 393.944 325.084C393.853 324.968 393.875 324.777 393.976 324.674C394.091 324.561 394.238 324.577 394.33 324.692Z" fill="#DBCCB1"/>
<path opacity="0.79" d="M413.414 350.903C413.46 350.96 413.449 351.056 413.398 351.108C413.348 351.16 413.262 351.156 413.216 351.098C413.17 351.04 413.181 350.944 413.232 350.893C413.282 350.841 413.369 350.845 413.414 350.903Z" fill="#DBCCB1"/>
<path opacity="0.49" d="M431.953 377.654C431.999 377.712 431.988 377.808 431.937 377.86C431.887 377.911 431.801 377.907 431.769 377.84C431.724 377.782 431.735 377.686 431.785 377.635C431.836 377.583 431.922 377.587 431.953 377.654Z" fill="#DBCCB1"/>
<path opacity="0.69" d="M449.84 405.03C449.871 405.097 449.874 405.183 449.799 405.243C449.738 405.292 449.652 405.288 449.621 405.221C449.589 405.154 449.586 405.067 449.661 405.008C449.712 404.956 449.808 404.962 449.84 405.03Z" fill="#DBCCB1"/>
<path opacity="0.33" d="M272.461 146.804C272.691 146.994 272.734 147.345 272.565 147.582C272.397 147.819 272.082 147.845 271.853 147.655C271.624 147.465 271.581 147.114 271.749 146.877C271.918 146.64 272.232 146.614 272.461 146.804Z" fill="#DBCCB1"/>
<path opacity="0.87" d="M296.533 168.334C296.748 168.534 296.791 168.885 296.612 169.12C296.433 169.355 296.119 169.381 295.908 169.17C295.693 168.97 295.649 168.619 295.828 168.384C296.007 168.149 296.321 168.123 296.533 168.334Z" fill="#DBCCB1"/>
<path opacity="0.34" d="M319.977 190.686C320.188 190.897 320.207 191.255 320.032 191.479C319.843 191.712 319.533 191.727 319.322 191.515C319.11 191.304 319.077 190.956 319.266 190.722C319.455 190.489 319.766 190.475 319.977 190.686Z" fill="#DBCCB1"/>
<path opacity="0.39" d="M342.777 213.845C342.974 214.065 342.992 214.423 342.818 214.647C342.632 214.869 342.312 214.881 342.101 214.67C341.889 214.459 341.885 214.091 342.06 213.868C342.245 213.646 342.565 213.633 342.777 213.845Z" fill="#DBCCB1"/>
<path opacity="0.7" d="M364.933 237.777C365.14 238 365.134 238.365 364.949 238.587C364.764 238.809 364.437 238.808 364.24 238.587C364.033 238.365 364.038 237.999 364.223 237.777C364.409 237.556 364.736 237.556 364.933 237.777Z" fill="#DBCCB1"/>
<path opacity="0.43" d="M386.451 262.46C386.644 262.693 386.638 263.058 386.443 263.278C386.248 263.498 385.921 263.497 385.728 263.265C385.535 263.032 385.54 262.667 385.736 262.447C385.931 262.227 386.258 262.228 386.451 262.46Z" fill="#DBCCB1"/>
<path opacity="0.39" d="M407.311 287.874C407.505 288.106 407.485 288.481 407.279 288.699C407.073 288.917 406.751 288.905 406.558 288.673C406.365 288.44 406.384 288.065 406.59 287.847C406.795 287.629 407.118 287.642 407.311 287.874Z" fill="#DBCCB1"/>
<path opacity="0.52" d="M427.521 313.977C427.7 314.219 427.68 314.594 427.464 314.81C427.248 315.025 426.93 315.002 426.751 314.76C426.572 314.518 426.591 314.143 426.807 313.927C427.023 313.711 427.342 313.735 427.521 313.977Z" fill="#DBCCB1"/>
<path opacity="0.93" d="M446.994 340.844C447.127 341.028 447.094 341.316 446.932 341.468C446.757 341.631 446.524 341.611 446.394 341.415C446.261 341.231 446.294 340.944 446.456 340.791C446.632 340.629 446.865 340.649 446.994 340.844Z" fill="#DBCCB1"/>
<path opacity="0.49" d="M465.875 368.264C465.994 368.457 465.975 368.735 465.8 368.897C465.624 369.06 465.384 369.027 465.266 368.833C465.147 368.639 465.165 368.362 465.341 368.199C465.517 368.037 465.756 368.07 465.875 368.264Z" fill="#DBCCB1"/>
<path opacity="0.87" d="M484.11 396.305C484.239 396.501 484.185 396.784 484.024 396.937C483.852 397.088 483.598 397.064 483.493 396.861C483.374 396.667 483.418 396.382 483.579 396.229C483.751 396.078 484.005 396.102 484.11 396.305Z" fill="#DBCCB1"/>
<path opacity="0.56" d="M501.555 425.04C501.628 425.176 501.596 425.366 501.485 425.467C501.364 425.566 501.196 425.547 501.137 425.401C501.064 425.265 501.096 425.076 501.217 424.976C501.339 424.877 501.506 424.897 501.565 425.042L501.555 425.04Z" fill="#DBCCB1"/>
<path opacity="0.75" d="M518.424 454.251C518.497 454.387 518.465 454.577 518.344 454.676C518.222 454.775 518.059 454.744 517.985 454.608C517.912 454.472 517.944 454.282 518.066 454.183C518.187 454.084 518.351 454.115 518.424 454.251Z" fill="#DBCCB1"/>
<path opacity="0.78" d="M534.501 484.108C534.542 484.177 534.521 484.271 534.46 484.321C534.389 484.369 534.317 484.355 534.275 484.286C534.234 484.217 534.255 484.123 534.316 484.073C534.387 484.025 534.459 484.039 534.501 484.108Z" fill="#DBCCB1"/>
<path opacity="0.37" d="M549.987 514.413C550.029 514.482 550.007 514.576 549.936 514.624C549.865 514.672 549.783 514.656 549.751 514.589C549.71 514.52 549.731 514.426 549.802 514.378C549.873 514.33 549.955 514.346 549.987 514.413Z" fill="#DBCCB1"/>
<path opacity="0.48" d="M303.223 131.948C303.568 132.246 303.638 132.773 303.375 133.126C303.126 133.47 302.642 133.513 302.297 133.216C301.952 132.918 301.882 132.391 302.131 132.047C302.38 131.703 302.863 131.66 303.208 131.958L303.223 131.948Z" fill="#DBCCB1"/>
<path opacity="0.68" d="M327.773 154.119C328.115 154.428 328.16 154.963 327.901 155.305C327.642 155.647 327.152 155.676 326.811 155.367C326.47 155.058 326.424 154.524 326.683 154.181C326.942 153.839 327.432 153.81 327.773 154.119Z" fill="#DBCCB1"/>
<path opacity="0.51" d="M351.681 177.118C352.008 177.436 352.04 177.98 351.77 178.321C351.501 178.661 351.004 178.677 350.678 178.358C350.351 178.039 350.319 177.495 350.588 177.155C350.858 176.815 351.354 176.799 351.681 177.118Z" fill="#DBCCB1"/>
<path opacity="0.62" d="M374.926 200.925C375.249 201.255 375.256 201.807 374.976 202.145C374.686 202.481 374.204 202.488 373.881 202.157C373.558 201.827 373.551 201.276 373.831 200.937C374.11 200.599 374.603 200.595 374.926 200.925Z" fill="#DBCCB1"/>
<path opacity="0.74" d="M397.517 225.514C397.826 225.854 397.833 226.405 397.543 226.741C397.243 227.076 396.754 227.069 396.446 226.729C396.137 226.389 396.13 225.838 396.42 225.502C396.72 225.167 397.208 225.174 397.517 225.514Z" fill="#DBCCB1"/>
<path opacity="0.58" d="M419.457 250.856C419.761 251.207 419.744 251.766 419.434 252.098C419.123 252.431 418.639 252.412 418.334 252.061C418.029 251.71 418.046 251.151 418.357 250.818C418.667 250.486 419.152 250.505 419.457 250.856Z" fill="#DBCCB1"/>
<path opacity="0.75" d="M440.713 276.929C441.004 277.29 440.972 277.859 440.666 278.18C440.345 278.51 439.855 278.478 439.564 278.117C439.273 277.757 439.29 277.198 439.611 276.867C439.932 276.537 440.423 276.569 440.713 276.929Z" fill="#DBCCB1"/>
<path opacity="0.35" d="M461.222 303.784C461.452 304.097 461.422 304.568 461.145 304.833C460.879 305.101 460.464 305.071 460.233 304.758C460.002 304.446 460.033 303.975 460.309 303.709C460.575 303.442 460.991 303.471 461.222 303.784Z" fill="#DBCCB1"/>
<path opacity="0.35" d="M481.152 331.217C481.368 331.539 481.327 332.008 481.051 332.273C480.774 332.539 480.353 332.496 480.136 332.173C479.92 331.851 479.961 331.382 480.237 331.117C480.514 330.851 480.925 330.893 481.152 331.217Z" fill="#DBCCB1"/>
<path opacity="0.71" d="M500.292 359.383C500.463 359.648 500.409 360.029 500.186 360.231C499.95 360.443 499.629 360.394 499.454 360.141C499.283 359.876 499.337 359.496 499.559 359.293C499.796 359.081 500.117 359.13 500.292 359.383Z" fill="#DBCCB1"/>
<path opacity="0.64" d="M518.866 388.071C519.037 388.336 518.983 388.717 518.736 388.927C518.49 389.137 518.168 389.088 518.011 388.814C517.84 388.549 517.895 388.168 518.141 387.958C518.388 387.748 518.709 387.797 518.866 388.071Z" fill="#DBCCB1"/>
<path opacity="0.6" d="M536.765 417.347C536.922 417.621 536.867 418.002 536.611 418.21C536.368 418.409 536.036 418.358 535.879 418.084C535.723 417.81 535.777 417.429 536.034 417.221C536.277 417.022 536.608 417.073 536.765 417.347Z" fill="#DBCCB1"/>
<path opacity="0.45" d="M553.837 447.293C553.952 447.499 553.895 447.793 553.702 447.94C553.52 448.089 553.274 448.043 553.149 447.836C553.034 447.63 553.092 447.336 553.284 447.189C553.476 447.042 553.712 447.086 553.837 447.293Z" fill="#DBCCB1"/>
<path opacity="0.46" d="M570.21 477.78C570.294 477.918 570.237 478.115 570.116 478.215C569.984 478.312 569.821 478.281 569.737 478.143C569.653 478.005 569.71 477.808 569.832 477.708C569.963 477.611 570.127 477.642 570.21 477.78Z" fill="#DBCCB1"/>
<path opacity="0.7" d="M585.982 508.714C586.051 508.862 586.009 509.05 585.877 509.147C585.735 509.242 585.586 509.202 585.512 509.066C585.443 508.918 585.486 508.73 585.617 508.633C585.759 508.538 585.909 508.578 585.982 508.714Z" fill="#DBCCB1"/>
<path opacity="0.76" d="M600.907 540.25C600.949 540.319 600.913 540.422 600.842 540.47C600.771 540.517 600.69 540.502 600.648 540.433C600.606 540.364 600.641 540.26 600.712 540.213C600.783 540.165 600.865 540.181 600.907 540.25Z" fill="#DBCCB1"/>
<path opacity="0.74" d="M308.917 95.6167C309.392 96.0124 309.513 96.7077 309.19 97.1722C308.857 97.6348 308.204 97.6944 307.729 97.2988C307.254 96.9031 307.132 96.2077 307.455 95.7432C307.778 95.2787 308.442 95.221 308.917 95.6167Z" fill="#DBCCB1"/>
<path opacity="0.34" d="M334.604 117.552C335.075 117.959 335.168 118.673 334.824 119.134C334.481 119.594 333.811 119.639 333.354 119.222C332.883 118.815 332.8 118.102 333.144 117.642C333.487 117.181 334.147 117.135 334.604 117.552Z" fill="#DBCCB1"/>
<path opacity="0.92" d="M359.65 140.349C360.103 140.777 360.186 141.49 359.808 141.956C359.444 142.413 358.792 142.436 358.325 142.017C357.858 141.599 357.789 140.877 358.153 140.42C358.517 139.963 359.169 139.94 359.636 140.358L359.65 140.349Z" fill="#DBCCB1"/>
<path opacity="0.59" d="M384.004 164C384.453 164.44 384.497 165.169 384.123 165.624C383.749 166.079 383.081 166.087 382.642 165.649C382.193 165.21 382.149 164.48 382.523 164.025C382.897 163.57 383.555 163.561 384.004 164Z" fill="#DBCCB1"/>
<path opacity="0.52" d="M407.704 188.459C408.125 188.918 408.169 189.647 407.774 190.098C407.38 190.549 406.715 190.545 406.295 190.087C405.874 189.628 405.83 188.898 406.224 188.447C406.619 187.996 407.283 188 407.704 188.459Z" fill="#DBCCB1"/>
<path opacity="0.5" d="M430.722 213.697C431.139 214.167 431.144 214.914 430.754 215.354C430.349 215.803 429.693 215.776 429.276 215.306C428.859 214.836 428.853 214.089 429.254 213.651C429.659 213.202 430.316 213.229 430.732 213.699L430.722 213.697Z" fill="#DBCCB1"/>
<path opacity="0.37" d="M453.063 239.691C453.476 240.173 453.457 240.927 453.046 241.363C452.635 241.798 451.958 241.768 451.569 241.279C451.157 240.797 451.176 240.042 451.587 239.607C451.998 239.171 452.675 239.202 453.077 239.682L453.063 239.691Z" fill="#DBCCB1"/>
<path opacity="0.57" d="M474.732 266.405C475.117 266.906 475.088 267.658 474.666 268.092C474.245 268.525 473.576 268.472 473.177 267.981C472.793 267.48 472.822 266.727 473.244 266.294C473.675 265.862 474.334 265.914 474.732 266.405Z" fill="#DBCCB1"/>
<path opacity="0.4" d="M495.614 293.922C495.953 294.366 495.896 295.04 495.519 295.408C495.128 295.786 494.549 295.726 494.21 295.282C493.871 294.839 493.913 294.175 494.305 293.797C494.696 293.418 495.275 293.479 495.614 293.922Z" fill="#DBCCB1"/>
<path opacity="0.33" d="M515.928 321.986C516.253 322.439 516.186 323.111 515.784 323.487C515.387 323.852 514.797 323.789 514.487 323.327C514.162 322.874 514.229 322.202 514.631 321.826C515.043 321.452 515.618 321.524 515.943 321.977L515.928 321.986Z" fill="#DBCCB1"/>
<path opacity="0.66" d="M535.429 350.797C535.694 351.201 535.628 351.776 535.27 352.087C534.923 352.4 534.413 352.328 534.159 351.925C533.904 351.522 533.96 350.946 534.318 350.635C534.676 350.324 535.165 350.392 535.444 350.787L535.429 350.797Z" fill="#DBCCB1"/>
<path opacity="0.37" d="M554.351 380.114C554.615 380.519 554.525 381.101 554.157 381.41C553.789 381.719 553.294 381.637 553.029 381.233C552.764 380.828 552.855 380.246 553.222 379.937C553.59 379.628 554.086 379.709 554.351 380.114Z" fill="#DBCCB1"/>
<path opacity="0.63" d="M572.559 410.029C572.809 410.444 572.694 411.033 572.33 411.331C571.952 411.638 571.46 411.545 571.224 411.121C570.973 410.707 571.088 410.118 571.452 409.82C571.83 409.512 572.322 409.606 572.559 410.029Z" fill="#DBCCB1"/>
<path opacity="0.92" d="M589.961 440.594C590.155 440.948 590.065 441.433 589.738 441.688C589.424 441.935 589.004 441.855 588.795 441.51C588.601 441.155 588.691 440.671 589.018 440.415C589.332 440.169 589.752 440.248 589.961 440.594Z" fill="#DBCCB1"/>
<path opacity="0.4" d="M606.631 471.699C606.783 471.985 606.69 472.383 606.427 472.578C606.164 472.772 605.84 472.699 605.687 472.413C605.535 472.127 605.628 471.729 605.891 471.535C606.154 471.34 606.478 471.414 606.631 471.699Z" fill="#DBCCB1"/>
<path opacity="0.68" d="M622.698 503.239C622.836 503.535 622.748 503.921 622.484 504.116C622.221 504.31 621.877 504.233 621.738 503.938C621.6 503.643 621.689 503.256 621.952 503.061C622.215 502.867 622.559 502.944 622.698 503.239Z" fill="#DBCCB1"/>
<path opacity="0.65" d="M637.907 535.368C638.004 535.594 637.927 535.885 637.724 536.03C637.511 536.173 637.273 536.104 637.162 535.887C637.065 535.661 637.143 535.37 637.346 535.225C637.558 535.082 637.796 535.151 637.907 535.368Z" fill="#DBCCB1"/>
<path opacity="0.53" d="M652.347 567.994C652.416 568.141 652.36 568.339 652.218 568.434C652.076 568.529 651.906 568.485 651.851 568.328C651.781 568.18 651.838 567.983 651.98 567.888C652.122 567.792 652.292 567.837 652.347 567.994Z" fill="#DBCCB1"/>
<path opacity="0.43" d="M340.44 81.0231C341.052 81.5302 341.196 82.4133 340.779 82.9944C340.351 83.5735 339.512 83.6346 338.9 83.1275C338.289 82.6205 338.145 81.7374 338.573 81.1582C339 80.5791 339.839 80.518 340.451 81.0251L340.44 81.0231Z" fill="#DBCCB1"/>
<path opacity="0.77" d="M366.638 103.581C367.231 104.109 367.361 105.001 366.913 105.577C366.465 106.152 365.633 106.19 365.04 105.662C364.447 105.134 364.327 104.243 364.765 103.666C365.203 103.089 366.044 103.052 366.638 103.581Z" fill="#DBCCB1"/>
<path opacity="0.41" d="M392.134 127.031C392.709 127.58 392.8 128.49 392.356 129.054C391.887 129.625 391.054 129.638 390.479 129.089C389.904 128.54 389.812 127.63 390.267 127.068C390.725 126.495 391.559 126.482 392.158 127.023L392.134 127.031Z" fill="#DBCCB1"/>
<path opacity="0.49" d="M416.946 151.316C417.503 151.886 417.57 152.803 417.106 153.363C416.616 153.931 415.777 153.93 415.22 153.36C414.663 152.79 414.596 151.873 415.06 151.313C415.539 150.744 416.389 150.746 416.946 151.316Z" fill="#DBCCB1"/>
<path opacity="0.36" d="M441.087 176.42C441.64 177.002 441.668 177.936 441.183 178.492C440.687 179.046 439.841 179.033 439.302 178.442C438.749 177.86 438.721 176.925 439.206 176.369C439.691 175.813 440.548 175.829 441.101 176.411L441.087 176.42Z" fill="#DBCCB1"/>
<path opacity="0.78" d="M464.536 202.306C465.071 202.909 465.075 203.851 464.57 204.403C464.064 204.955 463.205 204.915 462.681 204.314C462.146 203.712 462.141 202.769 462.657 202.219C463.163 201.667 464.012 201.706 464.547 202.308L464.536 202.306Z" fill="#DBCCB1"/>
<path opacity="0.61" d="M487.189 229.046C487.664 229.6 487.644 230.452 487.158 230.947C486.672 231.442 485.918 231.384 485.453 230.832C484.988 230.279 484.997 229.425 485.484 228.93C485.97 228.436 486.724 228.493 487.189 229.046Z" fill="#DBCCB1"/>
<path opacity="0.42" d="M509.251 256.405C509.698 256.979 509.664 257.841 509.172 258.322C508.689 258.805 507.904 258.742 507.468 258.17C507.021 257.596 507.065 256.737 507.547 256.254C508.029 255.77 508.804 255.832 509.251 256.405Z" fill="#DBCCB1"/>
<path opacity="0.35" d="M530.616 284.45C531.059 285.036 530.99 285.903 530.487 286.382C529.985 286.861 529.217 286.777 528.775 286.192C528.342 285.609 528.4 284.74 528.903 284.26C529.406 283.781 530.173 283.865 530.616 284.45Z" fill="#DBCCB1"/>
<path opacity="0.35" d="M551.302 313.153C551.717 313.757 551.638 314.623 551.115 315.098C550.592 315.574 549.832 315.467 549.404 314.872C548.989 314.268 549.068 313.402 549.591 312.927C550.114 312.451 550.888 312.549 551.302 313.153Z" fill="#DBCCB1"/>
<path opacity="0.9" d="M571.161 342.59C571.519 343.135 571.427 343.912 570.944 344.334C570.476 344.746 569.791 344.641 569.419 344.106C569.06 343.561 569.152 342.784 569.635 342.362C570.104 341.95 570.802 342.045 571.161 342.59Z" fill="#DBCCB1"/>
<path opacity="0.66" d="M590.431 372.523C590.775 373.077 590.658 373.862 590.169 374.27C589.68 374.679 589 374.562 588.656 374.008C588.312 373.454 588.428 372.669 588.917 372.261C589.407 371.852 590.086 371.969 590.431 372.523Z" fill="#DBCCB1"/>
<path opacity="0.7" d="M608.879 403.135C609.167 403.63 609.051 404.317 608.612 404.674C608.173 405.031 607.569 404.916 607.281 404.421C606.993 403.927 607.108 403.239 607.547 402.882C607.986 402.525 608.59 402.64 608.879 403.135Z" fill="#DBCCB1"/>
<path opacity="0.61" d="M626.584 434.304C626.816 434.74 626.701 435.329 626.327 435.625C625.943 435.919 625.42 435.82 625.188 435.385C624.956 434.949 625.071 434.36 625.445 434.064C625.843 433.761 626.341 433.867 626.584 434.304Z" fill="#DBCCB1"/>
<path opacity="0.54" d="M643.695 465.91C643.928 466.345 643.788 466.942 643.404 467.236C643.009 467.528 642.491 467.417 642.273 466.973C642.04 466.537 642.179 465.94 642.564 465.646C642.959 465.354 643.477 465.465 643.695 465.91Z" fill="#DBCCB1"/>
<path opacity="0.82" d="M659.943 498.12C660.119 498.495 660.005 498.987 659.671 499.229C659.337 499.472 658.914 499.367 658.728 498.99C658.551 498.614 658.665 498.122 658.999 497.88C659.334 497.637 659.756 497.742 659.932 498.118L659.943 498.12Z" fill="#DBCCB1"/>
<path opacity="0.72" d="M675.419 530.821C675.554 531.128 675.451 531.524 675.167 531.715C674.883 531.905 674.553 531.818 674.418 531.512C674.284 531.205 674.387 530.809 674.671 530.618C674.954 530.427 675.284 530.514 675.419 530.821Z" fill="#DBCCB1"/>
<path opacity="0.93" d="M690.133 564.014C690.24 564.242 690.148 564.542 689.925 564.683C689.713 564.826 689.454 564.753 689.357 564.527C689.25 564.299 689.342 563.998 689.555 563.855C689.768 563.712 690.026 563.785 690.123 564.012L690.133 564.014Z" fill="#DBCCB1"/>
<path opacity="0.71" d="M704.04 597.681C704.095 597.838 704.039 598.035 703.897 598.13C703.755 598.226 703.589 598.17 703.519 598.022C703.464 597.865 703.521 597.668 703.663 597.573C703.805 597.477 703.971 597.533 704.04 597.681Z" fill="#DBCCB1"/>
<path opacity="0.94" d="M372.613 66.8636C373.357 67.4935 373.548 68.5568 373.026 69.2524C372.504 69.9481 371.482 69.9991 370.739 69.3692C370.005 68.7412 369.814 67.678 370.336 66.9823C370.858 66.2866 371.879 66.2356 372.623 66.8655L372.613 66.8636Z" fill="#DBCCB1"/>
<path opacity="0.31" d="M399.276 90.0585C400.002 90.7095 400.14 91.7994 399.612 92.4817C399.059 93.1715 398.035 93.1976 397.32 92.5486C396.594 91.8976 396.442 90.8173 396.984 90.1255C397.527 89.4337 398.55 89.4075 399.276 90.0585Z" fill="#DBCCB1"/>
<path opacity="0.91" d="M425.249 114.14C425.957 114.812 426.067 115.921 425.508 116.597C424.949 117.274 423.909 117.284 423.215 116.603C422.508 115.931 422.393 114.833 422.957 114.145C423.53 113.46 424.546 113.456 425.264 114.13L425.249 114.14Z" fill="#DBCCB1"/>
<path opacity="0.4" d="M450.526 139.06C451.215 139.753 451.301 140.87 450.707 141.552C450.127 142.224 449.085 142.21 448.41 141.508C447.72 140.815 447.645 139.7 448.239 139.018C448.818 138.345 449.861 138.359 450.536 139.062L450.526 139.06Z" fill="#DBCCB1"/>
<path opacity="0.7" d="M475.091 164.806C475.748 165.529 475.809 166.653 475.199 167.32C474.588 167.987 473.554 167.95 472.897 167.226C472.24 166.503 472.188 165.38 472.789 164.712C473.389 164.043 474.434 164.082 475.091 164.806Z" fill="#DBCCB1"/>
<path opacity="0.95" d="M498.965 191.333C499.604 192.078 499.617 193.217 499 193.871C498.369 194.533 497.332 194.472 496.693 193.727C496.054 192.982 496.027 191.853 496.658 191.19C497.289 190.527 498.326 190.589 498.965 191.333Z" fill="#DBCCB1"/>
<path opacity="0.34" d="M522.121 218.609C522.742 219.374 522.73 220.521 522.093 221.171C521.441 221.83 520.402 221.743 519.781 220.977C519.16 220.212 519.172 219.065 519.82 218.417C520.467 217.77 521.51 217.845 522.131 218.611L522.121 218.609Z" fill="#DBCCB1"/>
<path opacity="0.91" d="M544.484 246.698C545.045 247.415 545 248.47 544.378 249.074C543.761 249.666 542.811 249.572 542.25 248.854C541.699 248.138 541.735 247.082 542.342 246.488C542.95 245.894 543.909 245.99 544.47 246.707L544.484 246.698Z" fill="#DBCCB1"/>
<path opacity="0.31" d="M566.253 275.357C566.786 276.094 566.726 277.158 566.088 277.746C565.45 278.335 564.498 278.215 563.966 277.479C563.433 276.742 563.503 275.679 564.131 275.089C564.769 274.501 565.71 274.618 566.253 275.357Z" fill="#DBCCB1"/>
<path opacity="0.73" d="M587.282 304.688C587.811 305.436 587.703 306.516 587.058 307.091C586.414 307.665 585.456 307.533 584.927 306.785C584.409 306.038 584.517 304.959 585.162 304.384C585.806 303.809 586.764 303.942 587.282 304.688Z" fill="#DBCCB1"/>
<path opacity="0.64" d="M607.528 334.722C607.986 335.421 607.868 336.401 607.253 336.92C606.639 337.439 605.781 337.301 605.322 336.603C604.874 335.907 604.982 334.925 605.596 334.405C606.201 333.884 607.069 334.024 607.528 334.722Z" fill="#DBCCB1"/>
<path opacity="0.84" d="M627.034 365.351C627.436 365.99 627.295 366.88 626.745 367.338C626.185 367.794 625.402 367.658 625.024 367.012C624.632 366.376 624.763 365.483 625.313 365.025C625.863 364.567 626.656 364.705 627.034 365.351Z" fill="#DBCCB1"/>
<path opacity="0.33" d="M645.934 396.462C646.322 397.11 646.156 398.008 645.585 398.462C645.015 398.917 644.241 398.758 643.852 398.109C643.464 397.461 643.63 396.564 644.2 396.109C644.771 395.655 645.545 395.814 645.934 396.462Z" fill="#DBCCB1"/>
<path opacity="0.62" d="M663.987 428.201C664.31 428.787 664.154 429.589 663.624 429.99C663.094 430.391 662.405 430.236 662.083 429.649C661.761 429.062 661.926 428.262 662.446 427.86C662.976 427.459 663.655 427.612 663.987 428.201Z" fill="#DBCCB1"/>
<path opacity="0.65" d="M681.274 460.473C681.555 460.99 681.39 461.693 680.911 462.042C680.445 462.382 679.838 462.242 679.558 461.724C679.277 461.207 679.442 460.504 679.922 460.155C680.402 459.806 680.994 459.955 681.274 460.473Z" fill="#DBCCB1"/>
<path opacity="0.75" d="M697.815 493.243C698.029 493.699 697.89 494.296 697.471 494.596C697.066 494.886 696.545 494.751 696.316 494.304C696.102 493.848 696.241 493.251 696.661 492.951C697.065 492.661 697.586 492.796 697.815 493.243Z" fill="#DBCCB1"/>
<path opacity="0.93" d="M713.726 526.407C713.94 526.863 713.762 527.478 713.347 527.766C712.932 528.054 712.401 527.917 712.201 527.451C711.987 526.994 712.165 526.38 712.58 526.092C713.005 525.806 713.526 525.941 713.726 526.407Z" fill="#DBCCB1"/>
<path opacity="0.63" d="M728.701 560.137C728.874 560.524 728.721 561.033 728.356 561.27C728.002 561.508 727.577 561.379 727.404 560.992C727.232 560.604 727.385 560.095 727.749 559.859C728.104 559.62 728.528 559.75 728.701 560.137Z" fill="#DBCCB1"/>
<path opacity="0.66" d="M742.861 594.339C742.981 594.656 742.854 595.059 742.56 595.248C742.266 595.437 741.933 595.325 741.788 595.016C741.668 594.7 741.796 594.296 742.089 594.108C742.383 593.919 742.73 594.021 742.861 594.339Z" fill="#DBCCB1"/>
<path opacity="0.39" d="M377.551 30.2187C378.46 30.941 378.709 32.1862 378.116 32.9909C377.524 33.7955 376.309 33.871 375.401 33.1487C374.492 32.4264 374.239 31.1926 374.836 30.3765C375.418 29.5699 376.643 29.4964 377.541 30.2167L377.551 30.2187Z" fill="#DBCCB1"/>
<path opacity="0.32" d="M405.435 53.1192C406.321 53.874 406.532 55.1364 405.919 55.9372C405.306 56.738 404.078 56.7866 403.202 56.0337C402.326 55.2809 402.102 54.028 402.729 53.2177C403.342 52.4169 404.569 52.3683 405.445 53.1211L405.435 53.1192Z" fill="#DBCCB1"/>
<path opacity="0.47" d="M432.566 76.9528C433.42 77.7381 433.592 79.0177 432.959 79.8146C432.325 80.6115 431.099 80.6237 430.231 79.848C429.363 79.0722 429.191 77.7926 429.849 76.9881C430.493 76.1932 431.722 76.1694 432.576 76.9548L432.566 76.9528Z" fill="#DBCCB1"/>
<path opacity="0.74" d="M459.002 101.669C459.838 102.475 459.981 103.774 459.292 104.572C458.618 105.362 457.4 105.351 456.564 104.544C455.728 103.738 455.595 102.441 456.259 101.65C456.923 100.859 458.152 100.872 458.987 101.678L459.002 101.669Z" fill="#DBCCB1"/>
<path opacity="0.6" d="M484.72 127.227C485.534 128.066 485.629 129.38 484.934 130.165C484.239 130.95 483.009 130.912 482.195 130.074C481.391 129.237 481.282 127.932 481.991 127.138C482.686 126.352 483.917 126.39 484.731 127.229L484.72 127.227Z" fill="#DBCCB1"/>
<path opacity="0.42" d="M509.728 153.605C510.524 154.465 510.58 155.796 509.854 156.575C509.128 157.354 507.91 157.282 507.114 156.423C506.318 155.563 506.273 154.234 506.998 153.454C507.724 152.675 508.942 152.747 509.738 153.607L509.728 153.605Z" fill="#DBCCB1"/>
<path opacity="0.92" d="M534.013 180.765C534.79 181.646 534.798 182.992 534.041 183.766C533.285 184.539 532.064 184.442 531.301 183.552C530.523 182.671 530.516 181.325 531.258 180.561C532 179.797 533.235 179.884 534.003 180.763L534.013 180.765Z" fill="#DBCCB1"/>
<path opacity="0.86" d="M557.49 208.757C558.184 209.598 558.153 210.863 557.455 211.563C556.733 212.269 555.591 212.163 554.912 211.313C554.219 210.473 554.235 209.216 554.947 208.508C555.659 207.799 556.811 207.907 557.49 208.757Z" fill="#DBCCB1"/>
<path opacity="0.67" d="M580.357 237.36C581.032 238.222 580.977 239.495 580.224 240.196C579.481 240.899 578.351 240.758 577.676 239.897C577.001 239.035 577.066 237.764 577.795 237.071C578.538 236.368 579.682 236.499 580.343 237.37L580.357 237.36Z" fill="#DBCCB1"/>
<path opacity="0.63" d="M602.5 266.64C603.157 267.523 603.068 268.802 602.294 269.499C601.535 270.186 600.388 270.03 599.741 269.15C599.095 268.269 599.185 266.99 599.934 266.301C600.683 265.611 601.829 265.767 602.486 266.65L602.5 266.64Z" fill="#DBCCB1"/>
<path opacity="0.65" d="M623.811 296.658C624.398 297.491 624.274 298.678 623.555 299.311C622.826 299.943 621.769 299.78 621.207 298.94C620.63 298.109 620.743 296.92 621.473 296.288C622.192 295.654 623.248 295.818 623.835 296.651L623.811 296.658Z" fill="#DBCCB1"/>
<path opacity="0.76" d="M644.414 327.276C644.92 328.056 644.798 329.146 644.108 329.724C643.433 330.293 642.466 330.122 641.946 329.351C641.439 328.57 641.562 327.481 642.251 326.903C642.926 326.334 643.907 326.495 644.414 327.276Z" fill="#DBCCB1"/>
<path opacity="0.87" d="M664.386 358.394C664.889 359.186 664.717 360.291 664.011 360.854C663.316 361.419 662.343 361.234 661.84 360.442C661.348 359.652 661.519 358.548 662.215 357.983C662.911 357.418 663.883 357.602 664.386 358.394Z" fill="#DBCCB1"/>
<path opacity="0.88" d="M683.508 390.161C683.945 390.891 683.774 391.898 683.108 392.408C682.453 392.919 681.58 392.729 681.144 391.999C680.707 391.268 680.888 390.263 681.544 389.752C682.199 389.24 683.072 389.43 683.508 390.161Z" fill="#DBCCB1"/>
<path opacity="0.6" d="M701.897 422.451C702.278 423.122 702.087 424.028 701.496 424.478C700.895 424.927 700.104 424.752 699.724 424.081C699.354 423.412 699.534 422.505 700.125 422.054C700.726 421.606 701.517 421.78 701.897 422.451Z" fill="#DBCCB1"/>
<path opacity="0.89" d="M719.52 455.262C719.834 455.872 719.655 456.681 719.104 457.078C718.553 457.475 717.848 457.305 717.534 456.695C717.22 456.085 717.399 455.276 717.95 454.879C718.5 454.482 719.205 454.652 719.52 455.262Z" fill="#DBCCB1"/>
<path opacity="0.42" d="M736.506 488.468C736.806 489.087 736.606 489.893 736.045 490.288C735.474 490.681 734.787 490.489 734.483 489.882C734.183 489.262 734.383 488.457 734.944 488.062C735.505 487.667 736.206 487.849 736.506 488.468Z" fill="#DBCCB1"/>
<path opacity="0.31" d="M752.565 522.25C752.813 522.799 752.624 523.509 752.114 523.852C751.617 524.186 750.998 524.02 750.75 523.471C750.502 522.923 750.691 522.213 751.201 521.87C751.698 521.536 752.317 521.702 752.565 522.25Z" fill="#DBCCB1"/>
<path opacity="0.89" d="M767.819 556.5C768.015 556.978 767.837 557.592 767.401 557.876C766.966 558.16 766.439 558.012 766.232 557.532C766.036 557.055 766.214 556.441 766.65 556.157C767.085 555.872 767.612 556.021 767.819 556.5Z" fill="#DBCCB1"/>
<path opacity="0.86" d="M782.117 591.286C782.248 591.605 782.106 592.018 781.813 592.207C781.508 592.394 781.162 592.291 781.045 591.964C780.915 591.645 781.056 591.232 781.35 591.043C781.644 590.854 782.001 590.959 782.117 591.286Z" fill="#DBCCB1"/>
<path opacity="0.45" d="M410.532 16.2711C411.583 17.1182 411.875 18.5551 411.188 19.4763C410.501 20.3975 409.084 20.4591 408.023 19.61C406.972 18.7629 406.665 17.3356 407.366 16.4049C408.053 15.4836 409.471 15.4221 410.522 16.2692L410.532 16.2711Z" fill="#DBCCB1"/>
<path opacity="0.31" d="M438.893 39.7991C439.922 40.6787 440.162 42.1422 439.444 43.0576C438.726 43.973 437.31 43.9982 436.282 43.1187C435.253 42.2391 434.999 40.785 435.717 39.8696C436.434 38.9542 437.85 38.929 438.879 39.8086L438.893 39.7991Z" fill="#DBCCB1"/>
<path opacity="0.55" d="M466.51 64.2653C467.517 65.1774 467.718 66.658 466.959 67.5657C466.201 68.4733 464.797 68.4641 463.79 67.552C462.783 66.6399 462.592 65.1611 463.341 64.2515C464.089 63.3419 465.517 63.3436 466.51 64.2653Z" fill="#DBCCB1"/>
<path opacity="0.42" d="M493.406 89.6074C494.39 90.5519 494.528 92.0574 493.749 92.9611C492.96 93.863 491.544 93.8268 490.583 92.8746C489.609 91.932 489.446 90.4342 490.235 89.5323C491.015 88.6286 492.441 88.6666 493.416 89.6093L493.406 89.6074Z" fill="#DBCCB1"/>
<path opacity="0.78" d="M519.568 115.798C520.52 116.773 520.62 118.296 519.8 119.192C518.98 120.088 517.565 120.015 516.612 119.04C515.66 118.065 515.546 116.552 516.366 115.656C517.176 114.758 518.591 114.831 519.543 115.806L519.568 115.798Z" fill="#DBCCB1"/>
<path opacity="0.76" d="M544.995 142.807C545.915 143.813 545.976 145.353 545.139 146.233C544.302 147.114 542.875 147.015 541.954 146.009C541.034 145.003 540.969 143.475 541.81 142.583C542.651 141.691 544.078 141.79 544.998 142.796L544.995 142.807Z" fill="#DBCCB1"/>
<path opacity="0.79" d="M569.698 170.58C570.586 171.616 570.612 173.162 569.731 174.046C568.863 174.921 567.433 174.797 566.546 173.761C565.658 172.724 565.631 171.179 566.499 170.304C567.366 169.429 568.796 169.553 569.684 170.59L569.698 170.58Z" fill="#DBCCB1"/>
<path opacity="0.88" d="M593.6 199.178C594.414 200.176 594.392 201.639 593.545 202.456C592.697 203.274 591.365 203.119 590.547 202.133C589.743 201.137 589.766 199.674 590.589 198.864C591.436 198.047 592.772 198.19 593.586 199.188L593.6 199.178Z" fill="#DBCCB1"/>
<path opacity="0.6" d="M616.857 228.383C617.642 229.4 617.582 230.88 616.718 231.682C615.853 232.484 614.505 232.314 613.719 231.298C612.934 230.281 613.005 228.803 613.858 227.999C614.723 227.197 616.061 227.365 616.857 228.383Z" fill="#DBCCB1"/>
<path opacity="0.79" d="M639.278 258.353C639.994 259.32 639.885 260.717 639.065 261.454C638.23 262.201 636.976 262.012 636.26 261.045C635.545 260.078 635.639 258.69 636.473 257.943C637.308 257.197 638.553 257.384 639.278 258.353Z" fill="#DBCCB1"/>
<path opacity="0.7" d="M661.101 288.845C661.798 289.833 661.655 291.236 660.804 291.967C659.953 292.698 658.692 292.496 657.994 291.508C657.307 290.522 657.451 289.119 658.301 288.388C659.152 287.656 660.413 287.859 661.101 288.845Z" fill="#DBCCB1"/>
<path opacity="0.7" d="M682.062 320.043C682.679 320.979 682.512 322.292 681.705 322.959C680.899 323.625 679.727 323.415 679.11 322.479C678.493 321.543 678.646 320.239 679.467 319.564C680.288 318.888 681.449 319.096 682.076 320.034L682.062 320.043Z" fill="#DBCCB1"/>
<path opacity="0.71" d="M702.404 351.71C703.003 352.667 702.805 353.975 701.964 354.647C701.112 355.317 699.963 355.074 699.36 354.129C698.771 353.174 698.959 351.864 699.8 351.193C700.641 350.521 701.805 350.753 702.404 351.71Z" fill="#DBCCB1"/>
<path opacity="0.94" d="M721.887 384.008C722.42 384.904 722.199 386.121 721.412 386.73C720.625 387.339 719.537 387.108 719.014 386.214C718.492 385.321 718.703 384.101 719.49 383.493C720.287 382.886 721.365 383.114 721.887 384.008Z" fill="#DBCCB1"/>
<path opacity="0.31" d="M740.612 416.837C741.079 417.671 740.858 418.791 740.101 419.344C739.344 419.897 738.377 419.665 737.91 418.831C737.444 417.997 737.675 416.879 738.421 416.324C739.168 415.769 740.146 416.003 740.612 416.837Z" fill="#DBCCB1"/>
<path opacity="0.92" d="M758.571 450.157C758.971 450.929 758.741 451.949 758.049 452.442C757.356 452.934 756.46 452.715 756.06 451.943C755.66 451.17 755.89 450.15 756.582 449.658C757.275 449.165 758.17 449.384 758.585 450.147L758.571 450.157Z" fill="#DBCCB1"/>
<path opacity="0.89" d="M775.74 483.958C776.089 484.66 775.859 485.582 775.217 486.023C774.575 486.464 773.776 486.251 773.428 485.549C773.079 484.848 773.309 483.925 773.951 483.484C774.593 483.044 775.392 483.256 775.74 483.958Z" fill="#DBCCB1"/>
<path opacity="0.68" d="M792.1 518.234C792.396 518.865 792.167 519.69 791.576 520.079C790.994 520.47 790.291 520.263 789.995 519.632C789.698 519.002 789.927 518.177 790.518 517.788C791.1 517.397 791.818 517.594 792.1 518.234Z" fill="#DBCCB1"/>
<path opacity="0.81" d="M807.646 552.957C807.89 553.517 807.663 554.244 807.156 554.576C806.639 554.905 806.014 554.726 805.769 554.166C805.525 553.606 805.753 552.879 806.259 552.547C806.776 552.217 807.402 552.397 807.646 552.957Z" fill="#DBCCB1"/>
<path opacity="0.76" d="M822.359 588.131C822.551 588.62 822.348 589.241 821.892 589.522C821.436 589.802 820.903 589.64 820.71 589.151C820.518 588.662 820.721 588.041 821.177 587.76C821.633 587.48 822.166 587.642 822.359 588.131Z" fill="#DBCCB1"/>
<path opacity="0.86" d="M444.172 2.72846C445.386 3.70426 445.708 5.34225 444.906 6.37617C444.104 7.41008 442.498 7.44817 441.284 6.47237C440.08 5.49851 439.745 3.87001 440.537 2.83415C441.328 1.7983 442.958 1.75267 444.158 2.73801L444.172 2.72846Z" fill="#DBCCB1"/>
<path opacity="0.71" d="M473.011 26.8865C474.189 27.9044 474.458 29.5691 473.639 30.5876C472.807 31.6157 471.192 31.6155 470.015 30.5976C468.837 29.5798 468.564 27.9266 469.386 26.8966C470.219 25.8685 471.837 25.8572 473.015 26.875L473.011 26.8865Z" fill="#DBCCB1"/>
<path opacity="0.93" d="M501.096 51.9775C502.237 53.0374 502.467 54.7192 501.594 55.7395C500.72 56.7599 499.107 56.7232 497.962 55.6748C496.83 54.6169 496.586 52.9446 497.449 51.9223C498.313 50.9001 499.94 50.9271 501.081 51.987L501.096 51.9775Z" fill="#DBCCB1"/>
<path opacity="0.81" d="M528.44 77.9437C529.559 79.0361 529.727 80.7427 528.822 81.7572C527.918 82.7717 526.296 82.6967 525.187 81.6063C524.078 80.5159 523.897 78.8188 524.791 77.8024C525.695 76.7879 527.32 76.8514 528.43 77.9418L528.44 77.9437Z" fill="#DBCCB1"/>
<path opacity="0.58" d="M555.052 104.758C556.14 105.881 556.254 107.614 555.323 108.611C554.392 109.609 552.768 109.509 551.681 108.386C550.593 107.263 550.475 105.541 551.41 104.533C552.331 103.533 553.969 103.624 555.066 104.748L555.052 104.758Z" fill="#DBCCB1"/>
<path opacity="0.76" d="M580.918 132.375C581.973 133.528 582.049 135.279 581.087 136.27C580.125 137.261 578.479 137.133 577.438 135.97C576.383 134.816 576.318 133.068 577.28 132.076C578.241 131.085 579.878 131.212 580.933 132.365L580.918 132.375Z" fill="#DBCCB1"/>
<path opacity="0.89" d="M605.955 160.846C606.921 161.971 606.939 163.637 606.001 164.559C605.048 165.491 603.51 165.334 602.553 164.212C601.597 163.089 601.565 161.433 602.507 160.499C603.449 159.565 604.988 159.722 605.955 160.846Z" fill="#DBCCB1"/>
<path opacity="0.31" d="M630.339 189.954C631.273 191.109 631.256 192.78 630.273 193.707C629.304 194.623 627.753 194.439 626.829 193.286C625.89 192.143 625.922 190.461 626.88 189.543C627.839 188.624 629.39 188.808 630.339 189.954Z" fill="#DBCCB1"/>
<path opacity="0.95" d="M653.911 219.838C654.776 220.943 654.696 222.542 653.747 223.401C652.798 224.261 651.34 224.058 650.5 222.945C649.646 221.842 649.712 220.253 650.651 219.392C651.59 218.53 653.047 218.733 653.911 219.838Z" fill="#DBCCB1"/>
<path opacity="0.58" d="M676.847 250.274C677.669 251.407 677.555 253.012 676.589 253.856C675.623 254.7 674.164 254.472 673.338 253.35C672.516 252.216 672.616 250.621 673.596 249.768C674.566 248.912 676.026 249.14 676.847 250.274Z" fill="#DBCCB1"/>
<path opacity="0.5" d="M698.921 281.426C699.672 282.51 699.524 284.022 698.588 284.81C697.652 285.599 696.282 285.364 695.541 284.282C694.8 283.2 694.948 281.688 695.883 280.899C696.819 280.111 698.189 280.346 698.931 281.428L698.921 281.426Z" fill="#DBCCB1"/>
<path opacity="0.55" d="M720.263 313.162C720.948 314.184 720.752 315.614 719.861 316.338C718.969 317.061 717.689 316.818 717.013 315.798C716.328 314.776 716.51 313.355 717.416 312.622C718.307 311.899 719.577 312.139 720.263 313.162Z" fill="#DBCCB1"/>
<path opacity="0.85" d="M740.985 345.351C741.642 346.393 741.412 347.828 740.499 348.548C739.587 349.267 738.304 349 737.647 347.959C736.99 346.917 737.207 345.491 738.133 344.762C739.046 344.042 740.332 344.298 740.975 345.349L740.985 345.351Z" fill="#DBCCB1"/>
<path opacity="0.45" d="M760.819 378.172C761.396 379.162 761.17 380.488 760.288 381.152C759.405 381.816 758.233 381.545 757.642 380.565C757.051 379.585 757.291 378.249 758.173 377.585C759.056 376.921 760.242 377.183 760.819 378.172Z" fill="#DBCCB1"/>
<path opacity="0.4" d="M779.898 411.495C780.423 412.414 780.159 413.66 779.331 414.261C778.503 414.862 777.413 414.606 776.902 413.678C776.378 412.76 776.627 411.523 777.47 410.913C778.297 410.312 779.388 410.567 779.913 411.486L779.898 411.495Z" fill="#DBCCB1"/>
<path opacity="0.9" d="M798.184 445.303C798.642 446.16 798.383 447.296 797.595 447.844C796.818 448.394 795.813 448.142 795.355 447.285C794.896 446.428 795.155 445.291 795.943 444.744C796.721 444.194 797.725 444.445 798.184 445.303Z" fill="#DBCCB1"/>
<path opacity="0.44" d="M815.688 479.574C816.08 480.369 815.811 481.406 815.098 481.895C814.386 482.383 813.463 482.147 813.071 481.352C812.678 480.556 812.947 479.519 813.66 479.03C814.373 478.542 815.295 478.778 815.688 479.574Z" fill="#DBCCB1"/>
<path opacity="0.43" d="M832.375 514.303C832.705 515.025 832.448 515.967 831.775 516.402C831.112 516.839 830.296 516.611 829.956 515.886C829.626 515.163 829.893 514.224 830.556 513.787C831.218 513.35 832.035 513.578 832.389 514.293L832.375 514.303Z" fill="#DBCCB1"/>
<path opacity="0.65" d="M507.777 14.3781C509.114 15.5361 509.422 17.4039 508.465 18.5427C507.517 19.6835 505.694 19.656 504.357 18.498C503.03 17.3419 502.708 15.4836 503.655 14.3428C504.603 13.2021 506.43 13.2182 507.767 14.3762L507.777 14.3781Z" fill="#DBCCB1"/>
<path opacity="0.92" d="M536.329 40.082C537.63 41.2821 537.875 43.1746 536.886 44.3076C535.898 45.4406 534.066 45.3747 532.775 44.1766C531.485 42.9785 531.226 41.0955 532.204 39.9606C533.182 38.8256 535.028 38.8819 536.315 40.0915L536.329 40.082Z" fill="#DBCCB1"/>
<path opacity="0.89" d="M564.128 66.6718C565.393 67.9139 565.575 69.8311 564.56 70.9468C563.544 72.0625 561.7 71.9698 560.446 70.7296C559.191 69.4895 558.995 67.5818 560.014 66.4546C561.02 65.3369 562.864 65.4297 564.128 66.6718Z" fill="#DBCCB1"/>
<path opacity="0.48" d="M591.171 94.0956C592.39 95.3778 592.533 97.3122 591.477 98.4202C590.42 99.5281 588.567 99.3971 587.36 98.1168C586.152 96.8366 586.008 94.9022 587.054 93.7923C588.101 92.6824 589.953 92.8134 591.186 94.0861L591.171 94.0956Z" fill="#DBCCB1"/>
<path opacity="0.76" d="M617.488 122.31C618.684 123.624 618.754 125.582 617.667 126.684C616.569 127.784 614.732 127.607 613.546 126.294C612.361 124.981 612.28 123.022 613.367 121.92C614.455 120.818 616.306 120.986 617.492 122.298L617.488 122.31Z" fill="#DBCCB1"/>
<path opacity="0.63" d="M642.941 151.376C644.038 152.659 644.06 154.534 642.983 155.577C641.919 156.61 640.165 156.412 639.054 155.138C637.967 153.856 637.944 151.981 638.998 150.946C640.061 149.913 641.829 150.101 642.916 151.383L642.941 151.376Z" fill="#DBCCB1"/>
<path opacity="0.55" d="M667.752 181.054C668.817 182.368 668.79 184.258 667.671 185.293C666.567 186.319 664.801 186.094 663.746 184.782C662.691 183.469 662.717 181.579 663.812 180.552C664.906 179.524 666.672 179.749 667.737 181.063L667.752 181.054Z" fill="#DBCCB1"/>
<path opacity="0.94" d="M691.725 211.504C692.696 212.776 692.621 214.584 691.536 215.552C690.451 216.52 688.793 216.267 687.808 215.004C686.837 213.732 686.923 211.927 687.983 210.966C689.068 209.998 690.73 210.24 691.711 211.514L691.725 211.504Z" fill="#DBCCB1"/>
<path opacity="0.79" d="M715.063 242.489C716.016 243.782 715.882 245.603 714.767 246.565C713.655 247.516 711.98 247.248 711.052 245.947C710.11 244.656 710.233 242.833 711.335 241.881C712.436 240.928 714.111 241.196 715.063 242.489Z" fill="#DBCCB1"/>
<path opacity="0.92" d="M737.537 274.17C738.409 275.412 738.227 277.15 737.145 278.045C736.063 278.94 734.482 278.653 733.635 277.404C732.762 276.163 732.944 274.425 734.012 273.539C735.093 272.644 736.664 272.929 737.537 274.17Z" fill="#DBCCB1"/>
<path opacity="0.88" d="M759.273 306.42C760.065 307.609 759.849 309.255 758.812 310.086C757.774 310.916 756.293 310.623 755.501 309.434C754.709 308.245 754.911 306.608 755.963 305.768C757 304.938 758.495 305.221 759.273 306.42Z" fill="#DBCCB1"/>
<path opacity="0.8" d="M780.375 339.113C781.139 340.321 780.888 341.973 779.81 342.796C778.742 343.62 777.258 343.303 776.495 342.094C775.731 340.886 775.992 339.236 777.06 338.411C778.128 337.587 779.626 337.895 780.375 339.113Z" fill="#DBCCB1"/>
<path opacity="0.59" d="M800.582 372.416C801.265 373.573 800.995 375.123 799.957 375.892C798.919 376.661 797.545 376.34 796.848 375.193C796.165 374.037 796.445 372.488 797.473 371.717C798.512 370.948 799.899 371.26 800.582 372.416Z" fill="#DBCCB1"/>
<path opacity="0.53" d="M820.015 406.212C820.632 407.307 820.328 408.766 819.345 409.472C818.361 410.178 817.059 409.87 816.452 408.777C815.845 407.684 816.135 406.235 817.123 405.518C818.107 404.812 819.409 405.119 820.015 406.212Z" fill="#DBCCB1"/>
<path opacity="0.92" d="M838.667 440.464C839.208 441.495 838.894 442.854 837.95 443.506C837.007 444.159 835.815 443.848 835.261 442.826C834.72 441.794 835.034 440.435 835.963 439.792C836.907 439.14 838.112 439.441 838.653 440.473L838.667 440.464Z" fill="#DBCCB1"/>
<path opacity="0.32" d="M543.213 2.24066C544.695 3.54841 545.043 5.61923 543.98 6.8727C542.917 8.12617 540.865 8.06738 539.383 6.75963C537.901 5.45189 537.564 3.38301 538.612 2.13908C539.661 0.895155 541.731 0.932915 543.213 2.24066Z" fill="#DBCCB1"/>
<path opacity="0.82" d="M572.239 28.5617C573.685 29.9115 573.965 32.0186 572.865 33.2528C571.766 34.487 569.715 34.3918 568.269 33.042C566.824 31.6923 566.539 29.5967 567.643 28.351C568.732 27.1148 570.797 27.2005 572.253 28.5522L572.239 28.5617Z" fill="#DBCCB1"/>
<path opacity="0.3" d="M600.486 55.7599C601.896 57.1517 602.113 59.2835 600.958 60.5195C599.818 61.746 597.758 61.6125 596.349 60.2207C594.939 58.8289 594.732 56.699 595.873 55.4726C597.003 54.2442 599.077 54.3681 600.482 55.7714L600.486 55.7599Z" fill="#DBCCB1"/>
<path opacity="0.65" d="M627.976 83.7828C629.35 85.2166 629.494 87.3712 628.312 88.5899C627.131 89.8086 625.062 89.6368 623.703 88.1934C622.34 86.7615 622.196 84.607 623.368 83.3863C624.539 82.1657 626.607 82.3374 627.98 83.7713L627.976 83.7828Z" fill="#DBCCB1"/>
<path opacity="0.35" d="M654.61 112.681C655.885 114.084 655.967 116.166 654.794 117.325C653.622 118.484 651.656 118.271 650.381 116.868C649.106 115.465 649.035 113.385 650.193 112.235C651.365 111.076 653.335 111.278 654.596 112.691L654.61 112.681Z" fill="#DBCCB1"/>
<path opacity="0.42" d="M680.606 142.218C681.834 143.661 681.867 145.758 680.644 146.907C679.445 148.049 677.466 147.809 676.237 146.366C675.009 144.923 674.986 142.828 676.185 141.686C677.384 140.544 679.367 140.773 680.606 142.218Z" fill="#DBCCB1"/>
<path opacity="0.38" d="M705.733 172.553C706.877 173.956 706.838 175.978 705.638 177.058C704.448 178.141 702.577 177.872 701.433 176.47C700.3 175.069 700.325 173.056 701.514 171.974C702.693 170.889 704.579 171.148 705.723 172.551L705.733 172.553Z" fill="#DBCCB1"/>
<path opacity="0.59" d="M730.226 203.443C731.337 204.876 731.239 206.911 730.023 207.977C728.792 209.052 726.908 208.756 725.821 207.315C724.72 205.884 724.804 203.858 726.024 202.781C727.244 201.704 729.128 202 730.24 203.433L730.226 203.443Z" fill="#DBCCB1"/>
<path opacity="0.38" d="M753.863 235.049C754.88 236.44 754.738 238.381 753.541 239.389C752.345 240.397 750.565 240.085 749.533 238.703C748.526 237.314 748.669 235.373 749.855 234.363C751.042 233.353 752.846 233.658 753.863 235.049Z" fill="#DBCCB1"/>
<path opacity="0.72" d="M776.752 267.237C777.689 268.576 777.498 270.435 776.335 271.376C775.173 272.317 773.469 272.006 772.556 270.66C771.63 269.323 771.806 267.474 772.973 266.521C774.125 265.578 775.829 265.889 776.766 267.228L776.752 267.237Z" fill="#DBCCB1"/>
<path opacity="0.81" d="M798.981 299.887C799.889 301.245 799.639 303.117 798.446 304.053C797.252 304.988 795.56 304.643 794.652 303.285C793.754 301.929 793.989 300.066 795.172 299.129C796.355 298.192 798.072 298.529 798.981 299.887Z" fill="#DBCCB1"/>
<path opacity="0.36" d="M820.362 333.139C821.19 334.445 820.911 336.214 819.747 337.094C818.584 337.973 816.992 337.623 816.164 336.317C815.346 335.013 815.615 333.242 816.779 332.362C817.932 331.481 819.548 331.823 820.366 333.128L820.362 333.139Z" fill="#DBCCB1"/>
<path opacity="0.93" d="M840.946 366.897C841.698 368.14 841.394 369.819 840.261 370.643C839.141 371.458 837.635 371.111 836.893 369.871C836.142 368.628 836.455 366.951 837.565 366.134C838.674 365.318 840.194 365.655 840.932 366.907L840.946 366.897Z" fill="#DBCCB1"/>
<path opacity="0.94" d="M608.798 17.4174C610.395 18.9303 610.7 21.25 609.475 22.595C608.25 23.9399 605.96 23.8116 604.374 22.3006C602.787 20.7896 602.477 18.4815 603.692 17.1346C604.907 15.7877 607.211 15.9064 608.808 17.4194L608.798 17.4174Z" fill="#DBCCB1"/>
<path opacity="0.45" d="M637.503 45.2064C639.064 46.7614 639.293 49.1153 638.016 50.4506C636.75 51.7878 634.456 51.6097 632.905 50.0567C631.354 48.5037 631.122 46.1612 632.378 44.822C633.644 43.4848 635.943 43.6514 637.503 45.2064Z" fill="#DBCCB1"/>
<path opacity="0.68" d="M665.454 73.8053C666.978 75.4023 667.134 77.779 665.816 79.1065C664.499 80.434 662.21 80.2081 660.706 78.615C659.192 77.0199 659.022 74.6527 660.329 73.3233C661.636 71.9938 663.929 72.2083 665.454 73.8053Z" fill="#DBCCB1"/>
<path opacity="0.81" d="M692.528 103.273C693.94 104.849 694.037 107.141 692.719 108.407C691.401 109.674 689.22 109.419 687.818 107.845C686.416 106.272 686.319 103.979 687.613 102.721C688.921 101.453 691.116 101.698 692.528 103.273Z" fill="#DBCCB1"/>
<path opacity="0.85" d="M718.94 133.365C720.319 134.971 720.329 137.295 718.994 138.546C717.66 139.797 715.445 139.512 714.076 137.908C712.706 136.303 712.683 133.988 714.031 132.728C715.366 131.477 717.57 131.76 718.95 133.367L718.94 133.365Z" fill="#DBCCB1"/>
<path opacity="0.82" d="M744.519 164.228C745.79 165.802 745.751 168.044 744.416 169.234C743.081 170.423 740.984 170.112 739.713 168.538C738.443 166.965 738.477 164.734 739.802 163.542C741.127 162.351 743.248 162.655 744.519 164.228Z" fill="#DBCCB1"/>
<path opacity="0.82" d="M769.437 195.638C770.675 197.242 770.567 199.495 769.191 200.677C767.815 201.859 765.71 201.509 764.482 199.907C763.253 198.305 763.351 196.049 764.713 194.877C766.079 193.693 768.198 194.034 769.437 195.638Z" fill="#DBCCB1"/>
<path opacity="0.43" d="M793.49 227.737C794.634 229.299 794.468 231.468 793.125 232.583C791.783 233.698 789.768 233.34 788.624 231.779C787.49 230.219 787.642 228.06 788.974 226.943C790.316 225.828 792.332 226.185 793.48 227.735L793.49 227.737Z" fill="#DBCCB1"/>
<path opacity="0.59" d="M816.78 260.408C817.844 261.917 817.634 263.992 816.311 265.05C814.988 266.107 813.077 265.733 812.009 264.235C810.956 262.727 811.166 260.652 812.479 259.592C813.791 258.533 815.717 258.898 816.78 260.408Z" fill="#DBCCB1"/>
<path opacity="0.84" d="M839.312 293.604C840.285 295.06 840.016 297.05 838.738 298.043C837.459 299.035 835.623 298.663 834.66 297.209C833.698 295.755 833.942 293.772 835.221 292.78C836.499 291.787 838.325 292.158 839.298 293.613L839.312 293.604Z" fill="#DBCCB1"/>
<path opacity="0.65" d="M646.044 6.61482C647.816 8.28329 648.133 10.8251 646.783 12.2808C645.433 13.7365 642.907 13.5635 641.144 11.897C639.392 10.2324 639.061 7.7002 640.401 6.24255C641.741 4.78489 644.281 4.94829 646.044 6.61482Z" fill="#DBCCB1"/>
<path opacity="0.85" d="M675.208 34.9796C676.93 36.6997 677.184 39.2662 675.758 40.7198C674.357 42.1658 671.826 41.943 670.124 40.2269C668.412 38.5088 668.155 35.9538 669.56 34.4963C670.951 33.0483 673.485 33.2596 675.208 34.9796Z" fill="#DBCCB1"/>
<path opacity="0.36" d="M703.509 64.2408C705.119 65.9395 705.276 68.4388 703.873 69.8236C702.471 71.2083 700.052 70.9456 698.453 69.2488C696.854 67.5521 696.683 65.0624 698.075 63.6757C699.467 62.289 701.899 62.5421 703.509 64.2408Z" fill="#DBCCB1"/>
<path opacity="0.43" d="M731.139 94.1587C732.702 95.8975 732.796 98.4215 731.342 99.7966C729.889 101.172 727.461 100.871 725.908 99.1337C724.356 97.3968 724.247 94.8824 725.691 93.5054C727.134 92.1284 729.575 92.4199 731.139 94.1587Z" fill="#DBCCB1"/>
<path opacity="0.55" d="M757.893 124.878C759.358 126.586 759.369 129.033 757.939 130.339C756.509 131.645 754.166 131.323 752.711 129.617C751.257 127.911 751.231 125.474 752.651 124.166C754.071 122.858 756.414 123.179 757.869 124.885L757.893 124.878Z" fill="#DBCCB1"/>
<path opacity="0.56" d="M783.881 156.257C785.251 157.923 785.19 160.295 783.773 161.531C782.353 162.777 780.117 162.427 778.757 160.764C777.397 159.1 777.444 156.737 778.865 155.49C780.275 154.241 782.525 154.582 783.881 156.257Z" fill="#DBCCB1"/>
<path opacity="0.81" d="M809.225 188.155C810.539 189.858 810.433 192.234 808.971 193.473C807.51 194.713 805.276 194.326 803.948 192.632C802.645 190.93 802.751 188.554 804.198 187.324C805.659 186.085 807.898 186.46 809.221 188.166L809.225 188.155Z" fill="#DBCCB1"/>
<path opacity="0.47" d="M833.714 220.727C834.947 222.379 834.758 224.678 833.321 225.849C831.883 227.019 829.738 226.625 828.516 224.975C827.293 223.325 827.468 221.035 828.895 219.863C830.322 218.691 832.481 219.076 833.7 220.737L833.714 220.727Z" fill="#DBCCB1"/>
<path opacity="0.88" d="M683.986 -3.86037C685.92 -2.02682 686.268 0.740995 684.772 2.30358C683.287 3.8681 680.525 3.65051 678.601 1.8189C676.677 -0.012717 676.325 -2.76904 677.801 -4.3355C679.276 -5.90197 682.052 -5.69393 683.976 -3.86231L683.986 -3.86037Z" fill="#DBCCB1"/>
<path opacity="0.65" d="M713.614 25.0665C715.498 26.9516 715.759 29.7518 714.222 31.3066C712.685 32.8614 709.919 32.594 708.045 30.7108C706.172 28.8276 705.907 26.0389 707.434 24.4822C708.96 22.9254 711.74 23.1833 713.624 25.0684L713.614 25.0665Z" fill="#DBCCB1"/>
<path opacity="0.52" d="M742.353 54.8801C744.125 56.7439 744.289 59.4768 742.755 60.9589C741.207 62.4505 738.553 62.1432 736.792 60.2813C735.031 58.4195 734.853 55.6962 736.376 54.2122C737.904 52.7167 740.582 53.0163 742.353 54.8801Z" fill="#DBCCB1"/>
<path opacity="0.43" d="M770.423 85.321C772.134 87.2344 772.239 89.9805 770.65 91.4644C769.051 92.9463 766.378 92.5987 764.677 90.6873C762.977 88.7758 762.858 86.0392 764.447 84.5553C766.026 83.0695 768.713 83.4076 770.423 85.321Z" fill="#DBCCB1"/>
<path opacity="0.39" d="M797.641 116.542C799.242 118.422 799.275 121.094 797.675 122.514C796.099 123.927 793.51 123.559 791.918 121.68C790.327 119.801 790.29 117.142 791.87 115.717C793.435 114.302 796.025 114.671 797.641 116.542Z" fill="#DBCCB1"/>
<path opacity="0.86" d="M824.088 148.402C825.595 150.24 825.535 152.832 823.969 154.186C822.403 155.54 819.921 155.143 818.424 153.307C816.927 151.47 816.988 148.878 818.543 147.522C820.099 146.167 822.595 146.554 824.088 148.402Z" fill="#DBCCB1"/>
<path opacity="0.61" d="M849.881 180.755C851.341 182.633 851.211 185.237 849.594 186.581C847.977 187.925 845.497 187.492 844.056 185.618C842.606 183.741 842.736 181.137 844.343 179.791C845.95 178.446 848.444 178.869 849.895 180.746L849.881 180.755Z" fill="#DBCCB1"/>
<path opacity="0.54" d="M752.61 15.5485C754.589 17.5372 754.862 20.4619 753.23 22.072C751.597 23.6821 748.682 23.3742 746.723 21.3893C744.754 19.4025 744.477 16.4893 746.089 14.8753C747.711 13.2632 750.631 13.5597 752.61 15.5485Z" fill="#DBCCB1"/>
<path opacity="0.81" d="M781.909 45.7826C783.837 47.8229 784.023 50.7799 782.339 52.3803C780.656 53.9807 777.735 53.6229 775.827 51.5865C773.919 49.55 773.719 46.6026 775.393 45.0002C777.066 43.3979 779.99 43.7442 781.919 45.7845L781.909 45.7826Z" fill="#DBCCB1"/>
<path opacity="0.43" d="M810.354 76.8203C812.16 78.8373 812.263 81.7176 810.568 83.2548C808.874 84.7919 806.061 84.4057 804.276 82.3925C802.48 80.3774 802.374 77.5087 804.048 75.9676C805.722 74.4266 808.548 74.8032 810.354 76.8203Z" fill="#DBCCB1"/>
<path opacity="0.48" d="M838.012 108.52C839.709 110.504 839.719 113.305 838.048 114.774C836.363 116.251 833.648 115.835 831.971 113.854C830.295 111.874 830.261 109.08 831.921 107.61C833.582 106.14 836.325 106.537 838.012 108.52Z" fill="#DBCCB1"/>
<path opacity="0.91" d="M792.429 6.18389C794.576 8.35116 794.87 11.5 793.088 13.2284C791.32 14.9474 788.138 14.5889 786.012 12.4255C783.885 10.2621 783.577 7.12291 785.335 5.40206C787.092 3.6812 790.278 4.02809 792.429 6.18389Z" fill="#DBCCB1"/>
<path opacity="0.77" d="M822.195 36.9262C824.281 39.1431 824.488 42.3243 822.644 44.0411C820.801 45.7579 817.639 45.3421 815.548 43.1366C813.472 40.9217 813.251 37.7501 815.085 36.0313C816.918 34.3126 820.098 34.7074 822.185 36.9243L822.195 36.9262Z" fill="#DBCCB1"/>
<path opacity="0.65" d="M851.113 68.432C853.09 70.616 853.186 73.7394 851.345 75.3834C849.505 77.0275 846.437 76.5928 844.469 74.4106C842.502 72.2285 842.402 69.1166 844.222 67.4687C846.042 65.8208 849.135 66.2479 851.113 68.432Z" fill="#DBCCB1"/>
<path opacity="0.36" d="M832.978 -2.92813C835.307 -0.591891 835.615 2.80395 833.677 4.63733C831.749 6.47265 828.325 6.05614 826.006 3.72184C823.698 1.38948 823.387 -1.99481 825.28 -3.82447C827.197 -5.66173 830.639 -5.2663 832.954 -2.92052L832.978 -2.92813Z" fill="#DBCCB1"/>
</g>
</svg>
